<?xml version="1.0" encoding="utf-8"?>
<!-- Generator: Adobe Illustrator 25.2.0, SVG Export Plug-In . SVG Version: 6.00 Build 0)  -->
<svg version="1.1" id="Calque_1" xmlns="http://www.w3.org/2000/svg" xmlns:xlink="http://www.w3.org/1999/xlink" x="0px" y="0px"
	 viewBox="0 0 1000 390" style="enable-background:new 0 0 1000 390;" xml:space="preserve">
<style type="text/css">
	.st0{opacity:0.63;fill:#355570;stroke:#34495E;stroke-miterlimit:10;enable-background:new    ;}
	.st1{fill:none;stroke:#34495E;stroke-miterlimit:10;}
	.st2{fill:#34495E;}
	.st3{fill:none;stroke:#2980B9;stroke-miterlimit:10;}
	.st4{fill:none;stroke:#2980B9;stroke-miterlimit:10;stroke-dasharray:5.0963,5.0963;}
	.st5{fill:#2980B9;}
	.st6{fill:#7FB241;}
	.st7{fill:#A07E63;}
	.st8{fill:none;stroke:#2C3E50;stroke-miterlimit:10;}
	.st9{fill:#2C3E50;}
</style>
<g>
	<polygon class="st0" points="300.9,41.4 355.1,95.6 355.1,149.8 300.9,204 138.3,204 138.3,149.8 84,149.8 84,95.6 84,41.4 	"/>
	<polygon class="st1" points="300.9,41.4 355.1,95.6 355.1,149.8 300.9,204 138.3,204 138.3,149.8 84,149.8 84,95.6 84,41.4 	"/>
	<path class="st2" d="M304.4,47.9h-6.9c-1.7,0-3-1.3-3-3v-6.9c0-1.7,1.3-3,3-3h6.9c1.7,0,3,1.3,3,3v6.9
		C307.4,46.6,306.1,47.9,304.4,47.9z"/>
	<path class="st2" d="M358.6,102.1h-6.9c-1.7,0-3-1.3-3-3v-6.9c0-1.7,1.3-3,3-3h6.9c1.7,0,3,1.3,3,3V99
		C361.6,100.8,360.3,102.1,358.6,102.1z"/>
	<path class="st2" d="M358.6,156.3h-6.9c-1.7,0-3-1.3-3-3v-6.9c0-1.7,1.3-3,3-3h6.9c1.7,0,3,1.3,3,3v6.9
		C361.6,155,360.3,156.3,358.6,156.3z"/>
	<path class="st2" d="M304.4,210.5h-6.9c-1.7,0-3-1.3-3-3v-6.9c0-1.7,1.3-3,3-3h6.9c1.7,0,3,1.3,3,3v6.9
		C307.4,209.2,306.1,210.5,304.4,210.5z"/>
	<path class="st2" d="M141.7,210.5h-6.9c-1.7,0-3-1.3-3-3v-6.9c0-1.7,1.3-3,3-3h6.9c1.7,0,3,1.3,3,3v6.9
		C144.8,209.2,143.5,210.5,141.7,210.5z"/>
	<path class="st2" d="M141.7,156.3h-6.9c-1.7,0-3-1.3-3-3v-6.9c0-1.7,1.3-3,3-3h6.9c1.7,0,3,1.3,3,3v6.9
		C144.8,155,143.5,156.3,141.7,156.3z"/>
	<path class="st2" d="M87.5,156.3h-6.9c-1.7,0-3-1.3-3-3v-6.9c0-1.7,1.3-3,3-3h6.9c1.7,0,3,1.3,3,3v6.9
		C90.6,155,89.3,156.3,87.5,156.3z"/>
	<path class="st2" d="M87.5,47.9h-6.9c-1.7,0-3-1.3-3-3v-6.9c0-1.7,1.3-3,3-3h6.9c1.7,0,3,1.3,3,3v6.9
		C90.6,46.6,89.3,47.9,87.5,47.9z"/>
</g>
<g>
	<g>
		<line class="st3" x1="355.1" y1="95.6" x2="366" y2="95.6"/>
		<polyline class="st4" points="388.1,95.6 463.6,95.6 572,41.4 788.8,41.4 897.3,95.6 951.5,149.8 951.5,204 897.3,258.2 
			810.5,258.2 		"/>
		<line class="st3" x1="799.7" y1="258.2" x2="788.8" y2="258.2"/>
	</g>
</g>
<path class="st5" d="M467,102.1h-6.9c-1.7,0-3-1.3-3-3v-6.9c0-1.7,1.3-3,3-3h6.9c1.7,0,3,1.3,3,3V99
	C470.1,100.8,468.8,102.1,467,102.1z"/>
<path class="st5" d="M575.5,47.9h-6.9c-1.7,0-3-1.3-3-3v-6.9c0-1.7,1.3-3,3-3h6.9c1.7,0,3,1.3,3,3v6.9
	C578.5,46.6,577.2,47.9,575.5,47.9z"/>
<path class="st5" d="M792.3,47.9h-6.9c-1.7,0-3-1.3-3-3v-6.9c0-1.7,1.3-3,3-3h6.9c1.7,0,3,1.3,3,3v6.9
	C795.4,46.6,794.1,47.9,792.3,47.9z"/>
<path class="st5" d="M900.7,102.1h-6.9c-1.7,0-3-1.3-3-3v-6.9c0-1.7,1.3-3,3-3h6.9c1.7,0,3,1.3,3,3V99
	C903.8,100.8,902.5,102.1,900.7,102.1z"/>
<path class="st5" d="M955,156.3H948c-1.7,0-3-1.3-3-3v-6.9c0-1.7,1.3-3,3-3h6.9c1.7,0,3,1.3,3,3v6.9C958,155,956.7,156.3,955,156.3z
	"/>
<path class="st5" d="M955,210.5H948c-1.7,0-3-1.3-3-3v-6.9c0-1.7,1.3-3,3-3h6.9c1.7,0,3,1.3,3,3v6.9
	C958,209.2,956.7,210.5,955,210.5z"/>
<path class="st5" d="M900.7,264.7h-6.9c-1.7,0-3-1.3-3-3v-6.9c0-1.7,1.3-3,3-3h6.9c1.7,0,3,1.3,3,3v6.9
	C903.8,263.4,902.5,264.7,900.7,264.7z"/>
<path class="st5" d="M792.3,264.7h-6.9c-1.7,0-3-1.3-3-3v-6.9c0-1.7,1.3-3,3-3h6.9c1.7,0,3,1.3,3,3v6.9
	C795.4,263.4,794.1,264.7,792.3,264.7z"/>
<g id="icon" transform="translate(-1.9444444444444287 -1.9444444444444287) scale(3.89 3.89)">
	<path class="st6" d="M154.4,35.6c0-1.3,0-2.2-0.9-3c-0.9-0.9-2.2-1.3-3-0.9c-0.4-0.4-0.9-0.9-1.3-1.3l0,0c-0.4-0.4-0.9-0.4-1.7-0.4
		c-1.3,0-2.2,0.4-3,1.3c-1.3,0-2.2,0-3,0.9s-1.3,2.2-0.9,3c-0.9,0.9-1.3,1.7-1.3,3s0.4,2.2,1.7,3c0,0.4,0.4,1.3,0.9,1.7
		c0.4,0.4,1.3,0.9,1.7,0.9l0,0l0,0l0,0c0.9,0,2.2,0,3-0.9c0,0,0,0,0.4,0v-0.4l2.2,0.4l0,0c0.4,0.4,1.3,0.4,2.2,0.4s1.7-0.4,2.6-0.9
		c0.4-0.4,0.9-0.9,0.9-1.7c0.9-0.9,1.7-1.7,1.7-3C156.2,37.3,155.7,36.5,154.4,35.6z"/>
	<path class="st7" d="M150.5,42.1l-0.9-0.9h-0.4l-0.9,0.9v-3.5c0,0,0-0.4-0.4-0.4H147c0,0-0.4,0-0.4,0.4v1.7l-0.4-0.9h-0.4l-0.4,0.4
		v0.4l1.3,1.7v7.8c0,0,0,0.4,0.4,0.4h1.3c0,0,0.4,0,0.4-0.4v-5.6L150.5,42.1C150.5,42.5,150.5,42.5,150.5,42.1
		C150.5,42.5,150.5,42.1,150.5,42.1z"/>
</g>
<path class="st6" d="M575.5,210.5h-6.9c-1.7,0-3-1.3-3-3v-6.9c0-1.7,1.3-3,3-3h6.9c1.7,0,3,1.3,3,3v6.9
	C578.5,209.2,577.2,210.5,575.5,210.5z"/>
<g>
	<g>
		<line class="st8" x1="29.8" y1="273.4" x2="29.8" y2="366.6"/>
		<g>
			<polygon class="st9" points="19.4,276.4 29.8,258.2 40.2,276.4 			"/>
		</g>
	</g>
</g>
<g>
	<g>
		<line class="st8" x1="123.1" y1="366.6" x2="29.8" y2="366.6"/>
		<g>
			<polygon class="st9" points="120,356.2 138.3,366.6 120,377.1 			"/>
		</g>
	</g>
</g>
</svg>
