<?xml version="1.0" encoding="utf-8"?>
<!-- Generator: Adobe Illustrator 23.0.5, SVG Export Plug-In . SVG Version: 6.00 Build 0)  -->
<svg version="1.1" id="Calque_1" xmlns="http://www.w3.org/2000/svg" xmlns:xlink="http://www.w3.org/1999/xlink" x="0px" y="0px"
	 viewBox="0 0 1000 1000" style="enable-background:new 0 0 1000 1000;" xml:space="preserve">
<style type="text/css">
	.st0{opacity:0.63;fill:#355570;stroke:#34495E;stroke-miterlimit:10;}
	.st1{fill:none;stroke:#34495E;stroke-miterlimit:10;}
	.st2{fill:#34495E;}
	.st3{fill:none;stroke:#2980B9;stroke-miterlimit:10;}
	.st4{fill:none;stroke:#2980B9;stroke-miterlimit:10;stroke-dasharray:5.0963,5.0963;}
	.st5{fill:#2980B9;}
	.st6{fill:#7FB241;}
	.st7{fill:#A07E63;}
	.st8{fill:none;stroke:#2C3E50;stroke-miterlimit:10;}
	.st9{fill:#2C3E50;}
</style>
<g>
	<polygon class="st0" points="512.5,525 525,537.5 525,550 512.5,562.5 475,562.5 475,550 462.5,550 462.5,537.5 462.5,525 	"/>
	<polygon class="st1" points="512.5,525 525,537.5 525,550 512.5,562.5 475,562.5 475,550 462.5,550 462.5,537.5 462.5,525 	"/>
	<path class="st2" d="M513.3,526.5h-1.6c-0.4,0-0.7-0.3-0.7-0.7v-1.6c0-0.4,0.3-0.7,0.7-0.7h1.6c0.4,0,0.7,0.3,0.7,0.7v1.6
		C514,526.2,513.7,526.5,513.3,526.5z"/>
	<path class="st2" d="M525.8,539h-1.6c-0.4,0-0.7-0.3-0.7-0.7v-1.6c0-0.4,0.3-0.7,0.7-0.7h1.6c0.4,0,0.7,0.3,0.7,0.7v1.6
		C526.5,538.7,526.2,539,525.8,539z"/>
	<path class="st2" d="M525.8,551.5h-1.6c-0.4,0-0.7-0.3-0.7-0.7v-1.6c0-0.4,0.3-0.7,0.7-0.7h1.6c0.4,0,0.7,0.3,0.7,0.7v1.6
		C526.5,551.2,526.2,551.5,525.8,551.5z"/>
	<path class="st2" d="M513.3,564h-1.6c-0.4,0-0.7-0.3-0.7-0.7v-1.6c0-0.4,0.3-0.7,0.7-0.7h1.6c0.4,0,0.7,0.3,0.7,0.7v1.6
		C514,563.7,513.7,564,513.3,564z"/>
	<path class="st2" d="M475.8,564h-1.6c-0.4,0-0.7-0.3-0.7-0.7v-1.6c0-0.4,0.3-0.7,0.7-0.7h1.6c0.4,0,0.7,0.3,0.7,0.7v1.6
		C476.5,563.7,476.2,564,475.8,564z"/>
	<path class="st2" d="M475.8,551.5h-1.6c-0.4,0-0.7-0.3-0.7-0.7v-1.6c0-0.4,0.3-0.7,0.7-0.7h1.6c0.4,0,0.7,0.3,0.7,0.7v1.6
		C476.5,551.2,476.2,551.5,475.8,551.5z"/>
	<path class="st2" d="M463.3,551.5h-1.6c-0.4,0-0.7-0.3-0.7-0.7v-1.6c0-0.4,0.3-0.7,0.7-0.7h1.6c0.4,0,0.7,0.3,0.7,0.7v1.6
		C464,551.2,463.7,551.5,463.3,551.5z"/>
	<path class="st2" d="M463.3,526.5h-1.6c-0.4,0-0.7-0.3-0.7-0.7v-1.6c0-0.4,0.3-0.7,0.7-0.7h1.6c0.4,0,0.7,0.3,0.7,0.7v1.6
		C464,526.2,463.7,526.5,463.3,526.5z"/>
</g>
<g>
	<g>
		<line class="st3" x1="525" y1="537.5" x2="527.5" y2="537.5"/>
		<polyline class="st4" points="532.6,537.5 550,537.5 575,525 625,525 650,537.5 662.5,550 662.5,562.5 650,575 630,575 		"/>
		<line class="st3" x1="627.5" y1="575" x2="625" y2="575"/>
	</g>
</g>
<path class="st5" d="M550.8,539h-1.6c-0.4,0-0.7-0.3-0.7-0.7v-1.6c0-0.4,0.3-0.7,0.7-0.7h1.6c0.4,0,0.7,0.3,0.7,0.7v1.6
	C551.5,538.7,551.2,539,550.8,539z"/>
<path class="st5" d="M575.8,526.5h-1.6c-0.4,0-0.7-0.3-0.7-0.7v-1.6c0-0.4,0.3-0.7,0.7-0.7h1.6c0.4,0,0.7,0.3,0.7,0.7v1.6
	C576.5,526.2,576.2,526.5,575.8,526.5z"/>
<path class="st5" d="M625.8,526.5h-1.6c-0.4,0-0.7-0.3-0.7-0.7v-1.6c0-0.4,0.3-0.7,0.7-0.7h1.6c0.4,0,0.7,0.3,0.7,0.7v1.6
	C626.5,526.2,626.2,526.5,625.8,526.5z"/>
<path class="st5" d="M650.8,539h-1.6c-0.4,0-0.7-0.3-0.7-0.7v-1.6c0-0.4,0.3-0.7,0.7-0.7h1.6c0.4,0,0.7,0.3,0.7,0.7v1.6
	C651.5,538.7,651.2,539,650.8,539z"/>
<path class="st5" d="M663.3,551.5h-1.6c-0.4,0-0.7-0.3-0.7-0.7v-1.6c0-0.4,0.3-0.7,0.7-0.7h1.6c0.4,0,0.7,0.3,0.7,0.7v1.6
	C664,551.2,663.7,551.5,663.3,551.5z"/>
<path class="st5" d="M663.3,564h-1.6c-0.4,0-0.7-0.3-0.7-0.7v-1.6c0-0.4,0.3-0.7,0.7-0.7h1.6c0.4,0,0.7,0.3,0.7,0.7v1.6
	C664,563.7,663.7,564,663.3,564z"/>
<path class="st5" d="M650.8,576.5h-1.6c-0.4,0-0.7-0.3-0.7-0.7v-1.6c0-0.4,0.3-0.7,0.7-0.7h1.6c0.4,0,0.7,0.3,0.7,0.7v1.6
	C651.5,576.2,651.2,576.5,650.8,576.5z"/>
<path class="st5" d="M625.8,576.5h-1.6c-0.4,0-0.7-0.3-0.7-0.7v-1.6c0-0.4,0.3-0.7,0.7-0.7h1.6c0.4,0,0.7,0.3,0.7,0.7v1.6
	C626.5,576.2,626.2,576.5,625.8,576.5z"/>
<g id="icon" transform="translate(-1.9444444444444287 -1.9444444444444287) scale(3.89 3.89)">
	<path class="st6" d="M149.9,141.1c0-0.3,0-0.5-0.2-0.7c-0.2-0.2-0.5-0.3-0.7-0.2c-0.1-0.1-0.2-0.2-0.3-0.3c0,0,0,0,0,0
		c-0.1-0.1-0.2-0.1-0.4-0.1c-0.3,0-0.5,0.1-0.7,0.3c-0.3,0-0.5,0-0.7,0.2s-0.3,0.5-0.2,0.7c-0.2,0.2-0.3,0.4-0.3,0.7
		c0,0.3,0.1,0.5,0.4,0.7c0,0.1,0.1,0.3,0.2,0.4c0.1,0.1,0.3,0.2,0.4,0.2c0,0,0,0,0,0c0,0,0,0,0,0c0,0,0,0,0,0c0.2,0,0.5,0,0.7-0.2
		c0,0,0,0,0.1,0l0-0.1l0.5,0.1l0,0c0.1,0.1,0.3,0.1,0.5,0.1c0.2,0,0.4-0.1,0.6-0.2c0.1-0.1,0.2-0.2,0.2-0.4c0.2-0.2,0.4-0.4,0.4-0.7
		C150.3,141.5,150.2,141.3,149.9,141.1z"/>
	<path class="st7" d="M149,142.6l-0.2-0.2c0,0-0.1,0-0.1,0l-0.2,0.2v-0.8c0,0,0-0.1-0.1-0.1h-0.2c0,0-0.1,0-0.1,0.1v0.4L148,142
		c0,0-0.1,0-0.1,0l-0.1,0.1c0,0,0,0.1,0,0.1l0.3,0.4v1.8c0,0,0,0.1,0.1,0.1h0.3c0,0,0.1,0,0.1-0.1v-1.3L149,142.6
		C149,142.7,149,142.7,149,142.6C149,142.7,149,142.6,149,142.6z"/>
</g>
<path class="st6" d="M575.8,564h-1.6c-0.4,0-0.7-0.3-0.7-0.7v-1.6c0-0.4,0.3-0.7,0.7-0.7h1.6c0.4,0,0.7,0.3,0.7,0.7v1.6
	C576.5,563.7,576.2,564,575.8,564z"/>
<g>
	<g>
		<line class="st8" x1="450" y1="578.5" x2="450" y2="600"/>
		<g>
			<polygon class="st9" points="447.6,579.2 450,575 452.4,579.2 			"/>
		</g>
	</g>
</g>
<g>
	<g>
		<line class="st8" x1="471.5" y1="600" x2="450" y2="600"/>
		<g>
			<polygon class="st9" points="470.8,597.6 475,600 470.8,602.4 			"/>
		</g>
	</g>
</g>
</svg>
