<svg id="Calque_1" data-name="Calque 1" xmlns="http://www.w3.org/2000/svg" viewBox="0 0 247.88 154.44"><defs><style>.cls-1{fill:#355570;opacity:0.63;}.cls-1,.cls-2{stroke:#34495e;stroke-miterlimit:10;}.cls-2{fill:none;}.cls-3{fill:#34495e;}.cls-4{fill:#2c3e50;}</style></defs><title>GeoJSON</title><polygon class="cls-1" points="39.17 14 64.17 14 64.17 26.5 51.67 39 14.17 39 14.17 26.5 1.67 26.5 1.67 14 1.67 1.5 39.17 14"/><polygon class="cls-2" points="39.17 14 64.17 14 64.17 26.5 51.67 39 14.17 39 14.17 26.5 1.67 26.5 1.67 14 1.67 1.5 39.17 14"/><rect class="cls-3" x="37.67" y="12.5" width="3" height="3" rx="0.7"/><rect class="cls-3" x="62.67" y="12.5" width="3" height="3" rx="0.7"/><rect class="cls-3" x="62.67" y="25" width="3" height="3" rx="0.7"/><rect class="cls-3" x="50.17" y="37.5" width="3" height="3" rx="0.7"/><rect class="cls-3" x="12.67" y="37.5" width="3" height="3" rx="0.7"/><rect class="cls-3" x="12.67" y="25" width="3" height="3" rx="0.7"/><rect class="cls-3" x="0.17" y="25" width="3" height="3" rx="0.7"/><rect class="cls-3" x="0.17" width="3" height="3" rx="0.7"/><path class="cls-4" d="M474.3,579.91v-6.47h.58v6.47Zm.47-2.15v-.56h1.42a1.86,1.86,0,0,0,1.29-.42,1.77,1.77,0,0,0,0-2.36,1.86,1.86,0,0,0-1.29-.42h-1.4v-.56h1.4a2.44,2.44,0,0,1,1.73.57,2.06,2.06,0,0,1,.61,1.59,2,2,0,0,1-.61,1.59,2.44,2.44,0,0,1-1.73.57Z" transform="translate(-460.83 -523.5)"/><path class="cls-4" d="M481.7,580a1.83,1.83,0,0,1-1.5-.65,2.85,2.85,0,0,1-.54-1.85,2.81,2.81,0,0,1,.54-1.85,2,2,0,0,1,3,0,2.81,2.81,0,0,1,.54,1.85,2.85,2.85,0,0,1-.54,1.85A1.83,1.83,0,0,1,481.7,580Zm0-.57a1.19,1.19,0,0,0,1-.5,2.38,2.38,0,0,0,.38-1.43,2.34,2.34,0,0,0-.38-1.43,1.2,1.2,0,0,0-1-.51,1.23,1.23,0,0,0-1.05.51,2.41,2.41,0,0,0-.37,1.43,2.46,2.46,0,0,0,.37,1.43A1.22,1.22,0,0,0,481.7,579.43Z" transform="translate(-460.83 -523.5)"/><path class="cls-4" d="M484.91,573.62v-.54h1.6v.54Zm3.14,6.38a1.56,1.56,0,0,1-1.22-.43,1.89,1.89,0,0,1-.4-1.33v-5.16H487v5.15a1.61,1.61,0,0,0,.12.67.8.8,0,0,0,.37.4,1.43,1.43,0,0,0,.67.13,3.74,3.74,0,0,0,.94-.14l.07.55a3.23,3.23,0,0,1-.57.12A3.73,3.73,0,0,1,488.05,580Z" transform="translate(-460.83 -523.5)"/><path class="cls-4" d="M492.27,579.91l-2-4.83h.66l1.78,4.32h.12l0,.51Zm-2,2.19,0-.57.46-.07a2,2,0,0,0,.81-.3,2.39,2.39,0,0,0,.64-.69,6,6,0,0,0,.57-1.21l1.49-4.18h.65l-1.65,4.4a7.76,7.76,0,0,1-.68,1.41,2.67,2.67,0,0,1-.76.8,2.34,2.34,0,0,1-1,.34Z" transform="translate(-460.83 -523.5)"/><path class="cls-4" d="M497.85,580a1.75,1.75,0,0,1-1.46-.64,2.86,2.86,0,0,1-.52-1.82,3,3,0,0,1,.52-1.88,1.75,1.75,0,0,1,1.46-.67,1.84,1.84,0,0,1,1,.25,1.19,1.19,0,0,1,.49.72h.34l-.28,1.11a1.57,1.57,0,0,0-.38-1.13,1.4,1.4,0,0,0-1.06-.4,1.25,1.25,0,0,0-1.08.53,2.4,2.4,0,0,0-.39,1.47,2.31,2.31,0,0,0,.38,1.42,1.31,1.31,0,0,0,1.1.49,1.71,1.71,0,0,0,1.06-.28,1,1,0,0,0,.37-.81v-.53l.32,1.34h-.38a.94.94,0,0,1-.49.62A2.07,2.07,0,0,1,497.85,580Zm-1.58,2.09,0-.56,1.46-.06A1.7,1.7,0,0,0,499,581a2,2,0,0,0,.4-1.35v-1.1H500v1a2.74,2.74,0,0,1-.57,1.91,2.55,2.55,0,0,1-1.82.65Zm3.12-3.36V576.1l.05-1H500v3.65Z" transform="translate(-460.83 -523.5)"/><path class="cls-4" d="M503.56,580a1.85,1.85,0,0,1-1.5-.65,2.85,2.85,0,0,1-.54-1.85,2.81,2.81,0,0,1,.54-1.85,2,2,0,0,1,3,0,2.87,2.87,0,0,1,.53,1.85,2.91,2.91,0,0,1-.53,1.85A1.86,1.86,0,0,1,503.56,580Zm0-.57a1.22,1.22,0,0,0,1.05-.5,2.46,2.46,0,0,0,.37-1.43,2.41,2.41,0,0,0-.37-1.43,1.23,1.23,0,0,0-1.05-.51,1.2,1.2,0,0,0-1,.51,2.34,2.34,0,0,0-.38,1.43,2.38,2.38,0,0,0,.38,1.43A1.19,1.19,0,0,0,503.56,579.43Z" transform="translate(-460.83 -523.5)"/><path class="cls-4" d="M507.13,579.91v-4.83h.55l.06,1v3.81Zm3.19,0v-3.15a1.23,1.23,0,0,0-.31-.89,1.16,1.16,0,0,0-.85-.31c-1,0-1.42.54-1.42,1.62l-.29-1.22h.34a1.1,1.1,0,0,1,.46-.73,1.66,1.66,0,0,1,1-.24,1.68,1.68,0,0,1,1.27.47,1.84,1.84,0,0,1,.44,1.31v3.14Z" transform="translate(-460.83 -523.5)"/><path class="cls-4" d="M515,580a2.49,2.49,0,0,1-1.85-.66,2.57,2.57,0,0,1-.66-1.89,2.74,2.74,0,0,1,.55-1.81,2,2,0,0,1,1.56-.65,1.85,1.85,0,0,1,1.46.59,2.41,2.41,0,0,1,.51,1.65,3.4,3.4,0,0,1,0,.48H513v-.52h3a1.82,1.82,0,0,0-.36-1.21,1.28,1.28,0,0,0-1-.43,1.37,1.37,0,0,0-1.13.5,2.15,2.15,0,0,0-.4,1.39,2,2,0,0,0,.53,1.48,2,2,0,0,0,1.5.52l.57,0c.2,0,.39-.06.57-.09l.09.56a6.39,6.39,0,0,1-.67.09Z" transform="translate(-460.83 -523.5)"/><polyline class="cls-2" points="106.7 26.5 119.2 14 144.2 14 144.2 39"/><rect class="cls-3" x="142.7" y="12.5" width="3" height="3" rx="0.7"/><rect class="cls-3" x="142.7" y="12.5" width="3" height="3" rx="0.7"/><rect class="cls-3" x="117.7" y="12.5" width="3" height="3" rx="0.7"/><rect class="cls-3" x="105.2" y="25" width="3" height="3" rx="0.7"/><rect class="cls-3" x="142.7" y="37.5" width="3" height="3" rx="0.7"/><path class="cls-4" d="M565,580a5.12,5.12,0,0,1-1-.08,4,4,0,0,1-.87-.24l.08-.6a7.12,7.12,0,0,0,.94.28,4.73,4.73,0,0,0,.9.09,2.06,2.06,0,0,0,1.17-.27.92.92,0,0,0,.39-.81,1,1,0,0,0-.18-.61,1.16,1.16,0,0,0-.51-.43l-1.6-.79a1.88,1.88,0,0,1-.76-.6,1.47,1.47,0,0,1-.26-.87,1.65,1.65,0,0,1,.49-1.28,2.07,2.07,0,0,1,1.43-.44,3.23,3.23,0,0,1,1.11.19,3,3,0,0,1,.91.59l-.41.42a3.57,3.57,0,0,0-.81-.49,2.24,2.24,0,0,0-.8-.16,1.53,1.53,0,0,0-1,.28,1,1,0,0,0-.33.84,1,1,0,0,0,.16.57,1.41,1.41,0,0,0,.49.39l1.46.7a2.45,2.45,0,0,1,.9.7,1.68,1.68,0,0,1,.29,1,1.44,1.44,0,0,1-.55,1.24A2.78,2.78,0,0,1,565,580Z" transform="translate(-460.83 -523.5)"/><path class="cls-4" d="M571.17,580a2.52,2.52,0,0,1-1.86-.66,2.61,2.61,0,0,1-.65-1.89,2.68,2.68,0,0,1,.55-1.81,2,2,0,0,1,1.56-.65,1.83,1.83,0,0,1,1.45.59,2.37,2.37,0,0,1,.52,1.65,3.23,3.23,0,0,1,0,.48h-3.56v-.52h3a1.77,1.77,0,0,0-.37-1.21,1.27,1.27,0,0,0-1-.43,1.36,1.36,0,0,0-1.13.5,2.15,2.15,0,0,0-.4,1.39,2,2,0,0,0,.53,1.48,2,2,0,0,0,1.5.52l.56,0c.2,0,.39-.06.58-.09l.08.56a6.57,6.57,0,0,1-.66.09Z" transform="translate(-460.83 -523.5)"/><path class="cls-4" d="M575.91,580a1.75,1.75,0,0,1-1.45-.64,2.8,2.8,0,0,1-.52-1.82,3,3,0,0,1,.52-1.88,1.75,1.75,0,0,1,1.46-.67,1.8,1.8,0,0,1,1,.25,1.17,1.17,0,0,1,.5.72h.34l-.29,1.11a1.57,1.57,0,0,0-.37-1.13,1.41,1.41,0,0,0-1.07-.4,1.27,1.27,0,0,0-1.08.53,2.47,2.47,0,0,0-.38,1.47,2.31,2.31,0,0,0,.38,1.42,1.3,1.3,0,0,0,1.09.49,1.7,1.7,0,0,0,1.06-.28,1,1,0,0,0,.37-.81v-.53l.33,1.34h-.38a1,1,0,0,1-.49.62A2.09,2.09,0,0,1,575.91,580Zm-1.58,2.09,0-.56,1.45-.06A1.66,1.66,0,0,0,577,581a2,2,0,0,0,.4-1.35v-1.1h.62v1a2.74,2.74,0,0,1-.57,1.91,2.55,2.55,0,0,1-1.82.65Zm3.12-3.36V576.1l.06-1h.55v3.65Z" transform="translate(-460.83 -523.5)"/><path class="cls-4" d="M579.48,579.91v-4.83H580l.08,1v3.81Zm1.87,0v-3.78c0-.41-.19-.61-.57-.61s-.69.28-.69.86l-.29-.69h.3a.81.81,0,0,1,.92-.7.84.84,0,0,1,.66.26,1.2,1.2,0,0,1,.23.79v3.87Zm1.82,0v-3.69c0-.47-.19-.7-.57-.7s-.69.28-.69.86l-.33-.69h.34a.86.86,0,0,1,.28-.52,1.11,1.11,0,0,1,1.34.1,1.32,1.32,0,0,1,.24.86v3.78Z" transform="translate(-460.83 -523.5)"/><path class="cls-4" d="M587.57,580a2.52,2.52,0,0,1-1.86-.66,2.57,2.57,0,0,1-.65-1.89,2.68,2.68,0,0,1,.55-1.81,1.92,1.92,0,0,1,1.55-.65,1.85,1.85,0,0,1,1.46.59,2.42,2.42,0,0,1,.52,1.65,3.23,3.23,0,0,1,0,.48h-3.56v-.52h3a1.82,1.82,0,0,0-.36-1.21,1.28,1.28,0,0,0-1-.43,1.39,1.39,0,0,0-1.13.5,2.21,2.21,0,0,0-.4,1.39,2,2,0,0,0,.53,1.48,2.06,2.06,0,0,0,1.5.52l.57,0c.2,0,.39-.06.57-.09l.09.56a6.57,6.57,0,0,1-.66.09Z" transform="translate(-460.83 -523.5)"/><path class="cls-4" d="M590.67,579.91v-4.83h.55l0,1v3.81Zm3.18,0v-3.15a1.19,1.19,0,0,0-.31-.89,1.14,1.14,0,0,0-.84-.31c-1,0-1.43.54-1.43,1.62L591,576h.34a1.13,1.13,0,0,1,.45-.73,1.72,1.72,0,0,1,1-.24,1.67,1.67,0,0,1,1.26.47,1.8,1.8,0,0,1,.45,1.31v3.14Z" transform="translate(-460.83 -523.5)"/><path class="cls-4" d="M595.64,575.62v-.54h4.23v.54Zm1.39,2v-4h.61v4Zm1.83,2.37a1.81,1.81,0,0,1-1.38-.47,2.09,2.09,0,0,1-.45-1.47v-.79h.61V578a1.5,1.5,0,0,0,.32,1.05,1.28,1.28,0,0,0,1,.34,4.35,4.35,0,0,0,.51,0l.52-.07.07.55-.59.09Z" transform="translate(-460.83 -523.5)"/><rect class="cls-3" x="215.34" y="25" width="3" height="3" rx="0.7"/><path class="cls-4" d="M667.9,580.5V574h.58v6.47Zm.47-2.15v-.56h1.42a1.82,1.82,0,0,0,1.29-.42,1.77,1.77,0,0,0,0-2.36,1.82,1.82,0,0,0-1.29-.42h-1.4V574h1.4a2.44,2.44,0,0,1,1.73.57,2,2,0,0,1,.61,1.59,2.06,2.06,0,0,1-.61,1.59,2.44,2.44,0,0,1-1.73.57Z" transform="translate(-460.83 -523.5)"/><path class="cls-4" d="M675.3,580.59a1.85,1.85,0,0,1-1.5-.65,3.46,3.46,0,0,1,0-3.71,2.07,2.07,0,0,1,3,0,3.51,3.51,0,0,1,0,3.71A1.86,1.86,0,0,1,675.3,580.59Zm0-.57a1.25,1.25,0,0,0,1.05-.5,3,3,0,0,0,0-2.87,1.25,1.25,0,0,0-1.05-.5,1.21,1.21,0,0,0-1,.5,2.9,2.9,0,0,0,0,2.87A1.21,1.21,0,0,0,675.3,580Z" transform="translate(-460.83 -523.5)"/><path class="cls-4" d="M678.84,580.5V580h2v.54Zm.27-4.29v-.54h2.28v.54Zm1.91-1.59a.51.51,0,0,1-.38-.16.5.5,0,0,1-.15-.37.51.51,0,0,1,.15-.37.51.51,0,0,1,.38-.16.49.49,0,0,1,.37.16.52.52,0,0,1,.16.37.51.51,0,0,1-.16.37A.49.49,0,0,1,681,574.62Zm-.24,5.88v-4.59h.61v4.59Zm.52,0V580H683v.54Z" transform="translate(-460.83 -523.5)"/><path class="cls-4" d="M684.34,580.5v-4.83h.55l.05,1v3.81Zm3.18,0v-3.16a1.22,1.22,0,0,0-.3-.88,1.14,1.14,0,0,0-.85-.31c-1,0-1.43.54-1.43,1.62l-.28-1.22H685a1.13,1.13,0,0,1,.45-.73,2,2,0,0,1,2.23.22,1.84,1.84,0,0,1,.45,1.32v3.14Z" transform="translate(-460.83 -523.5)"/><path class="cls-4" d="M689.31,576.21v-.54h4.23v.54Zm1.39,2v-4h.61v4Zm1.83,2.37a1.81,1.81,0,0,1-1.38-.48,2.08,2.08,0,0,1-.45-1.46v-.79h.61v.77a1.52,1.52,0,0,0,.32,1,1.28,1.28,0,0,0,1,.34l.51,0,.52-.07.07.55a4,4,0,0,1-.59.08A5.74,5.74,0,0,1,692.53,580.59Z" transform="translate(-460.83 -523.5)"/><polygon class="cls-1" points="22.29 92.65 36.58 92.65 36.58 99.79 29.43 106.94 8 106.94 8 99.79 0.86 99.79 0.86 92.65 0.86 85.5 22.29 92.65"/><polygon class="cls-2" points="22.29 92.65 36.58 92.65 36.58 99.79 29.43 106.94 8 106.94 8 99.79 0.86 99.79 0.86 92.65 0.86 85.5 22.29 92.65"/><rect class="cls-3" x="21.43" y="91.79" width="1.71" height="1.71" rx="0.7"/><rect class="cls-3" x="35.72" y="91.79" width="1.71" height="1.71" rx="0.7"/><rect class="cls-3" x="35.72" y="98.94" width="1.71" height="1.71" rx="0.7"/><rect class="cls-3" x="28.58" y="106.08" width="1.71" height="1.71" rx="0.7"/><rect class="cls-3" x="7.14" y="106.08" width="1.71" height="1.71" rx="0.7"/><rect class="cls-3" x="7.14" y="98.94" width="1.71" height="1.71" rx="0.7"/><rect class="cls-3" y="98.94" width="1.71" height="1.71" rx="0.7"/><rect class="cls-3" y="84.65" width="1.71" height="1.71" rx="0.7"/><path class="cls-4" d="M464.8,664.56v-6.47h.58v6.47Zm0-5.91v-.56h4.14v.56Zm0,3V661h3.32v.56Zm0,3V664h4.14v.56Z" transform="translate(-460.83 -523.5)"/><path class="cls-4" d="M470.3,664.56v-4.83h.55l.06,1v3.81Zm3.19,0V661.4a1.17,1.17,0,0,0-.31-.88,1.1,1.1,0,0,0-.84-.31c-1,0-1.43.54-1.43,1.62l-.29-1.22H471a1.14,1.14,0,0,1,.46-.73,1.7,1.7,0,0,1,1-.24,1.67,1.67,0,0,1,1.26.46,1.86,1.86,0,0,1,.44,1.32v3.14Z" transform="translate(-460.83 -523.5)"/><path class="cls-4" d="M477.29,664.65c-.35,0-.66,0-.9,0a4.39,4.39,0,0,1-.68-.11l.08-.58c.31.05.59.09.82.11a5.49,5.49,0,0,0,.68,0,3.2,3.2,0,0,0,1.3-.19.66.66,0,0,0,.21-1.07,1.3,1.3,0,0,0-.59-.28l-1.09-.27a2.31,2.31,0,0,1-1-.48,1,1,0,0,1-.31-.77,1.11,1.11,0,0,1,.59-1.06,4.25,4.25,0,0,1,1.9-.32l.6,0c.18,0,.38,0,.61.07l-.07.54-.65,0h-.51a3.73,3.73,0,0,0-1.41.19.63.63,0,0,0-.44.61.52.52,0,0,0,.22.42,2,2,0,0,0,.71.29l.87.21a2.37,2.37,0,0,1,1.07.5,1.14,1.14,0,0,1,.33.86,1.12,1.12,0,0,1-.55,1A3.68,3.68,0,0,1,477.29,664.65Z" transform="translate(-460.83 -523.5)"/><path class="cls-4" d="M483.6,664.65a2.44,2.44,0,0,1-1.85-.67,2.55,2.55,0,0,1-.66-1.88,2.71,2.71,0,0,1,.55-1.82,1.94,1.94,0,0,1,1.56-.64,1.83,1.83,0,0,1,1.45.58,2.39,2.39,0,0,1,.52,1.66,3,3,0,0,1,0,.47h-3.56v-.52h3a1.79,1.79,0,0,0-.36-1.2,1.26,1.26,0,0,0-1-.43,1.37,1.37,0,0,0-1.13.5,2.13,2.13,0,0,0-.4,1.39,2,2,0,0,0,.53,1.48,2,2,0,0,0,1.5.52l.57,0,.57-.1.08.56a4.55,4.55,0,0,1-.66.1Z" transform="translate(-460.83 -523.5)"/><path class="cls-4" d="M486.45,664.56v-4.83H487l.08,1v3.81Zm1.87,0v-3.78c0-.41-.19-.62-.58-.62s-.69.29-.69.86l-.28-.69h.3a.8.8,0,0,1,.91-.69.84.84,0,0,1,.67.26,1.17,1.17,0,0,1,.22.79v3.87Zm1.82,0v-3.69c0-.47-.19-.71-.57-.71s-.7.29-.7.86l-.32-.69h.33a.85.85,0,0,1,.28-.51.94.94,0,0,1,.61-.18.92.92,0,0,1,.74.28,1.3,1.3,0,0,1,.24.86v3.78Z" transform="translate(-460.83 -523.5)"/><path class="cls-4" d="M492.17,664.56v-6.83h.59v6.75Zm1.07.09-.54,0-.53-.07.31-.56a2.11,2.11,0,0,0,.45.08l.5,0a2.24,2.24,0,0,0,1.66-.6,2.26,2.26,0,0,0,.58-1.67,1.8,1.8,0,0,0-.36-1.21,1.25,1.25,0,0,0-1-.43q-1.53,0-1.53,1.65l-.28-1.23h.34c.16-.65.67-1,1.51-1a1.83,1.83,0,0,1,1.44.57,2.35,2.35,0,0,1,.51,1.62,2.7,2.7,0,0,1-.79,2.08A3.19,3.19,0,0,1,493.24,664.65Z" transform="translate(-460.83 -523.5)"/><path class="cls-4" d="M497.27,658.26v-.53h1.61v.53Zm3.15,6.39a1.57,1.57,0,0,1-1.23-.43,1.94,1.94,0,0,1-.4-1.33v-5.16h.61v5.14a1.66,1.66,0,0,0,.12.68.8.8,0,0,0,.37.4,1.47,1.47,0,0,0,.68.13,3.76,3.76,0,0,0,.93-.15l.07.56-.57.12A3.6,3.6,0,0,1,500.42,664.65Z" transform="translate(-460.83 -523.5)"/><path class="cls-4" d="M505.46,664.65a2.46,2.46,0,0,1-1.85-.67,2.55,2.55,0,0,1-.66-1.88,2.77,2.77,0,0,1,.55-1.82,1.94,1.94,0,0,1,1.56-.64,1.85,1.85,0,0,1,1.46.58,2.44,2.44,0,0,1,.51,1.66c0,.19,0,.35,0,.47h-3.57v-.52h3a1.79,1.79,0,0,0-.36-1.2,1.25,1.25,0,0,0-1-.43,1.37,1.37,0,0,0-1.13.5,2.13,2.13,0,0,0-.4,1.39,2,2,0,0,0,.53,1.48,2,2,0,0,0,1.5.52l.57,0,.57-.1.09.56a4.49,4.49,0,0,1-.67.1Z" transform="translate(-460.83 -523.5)"/><path class="cls-4" d="M515.69,664.65a1.79,1.79,0,0,1-1.47-.64,2.84,2.84,0,0,1-.52-1.82,3,3,0,0,1,.53-1.88,1.76,1.76,0,0,1,1.48-.67,1.6,1.6,0,0,1,1,.29,1.23,1.23,0,0,1,.46.82h.34l-.29,1.23c0-1.19-.49-1.79-1.48-1.79a1.21,1.21,0,0,0-1.05.52,2.59,2.59,0,0,0-.37,1.48c0,1.27.48,1.91,1.43,1.91s1.47-.42,1.47-1.27v-.6l.33,1.44h-.37a1,1,0,0,1-.47.72A1.87,1.87,0,0,1,515.69,664.65Zm1.62,0-.1-1.16v-5.71h.61v6.84Z" transform="translate(-460.83 -523.5)"/><path class="cls-4" d="M521.86,664.65A2.44,2.44,0,0,1,520,664a2.55,2.55,0,0,1-.66-1.88,2.71,2.71,0,0,1,.55-1.82,1.94,1.94,0,0,1,1.56-.64,1.83,1.83,0,0,1,1.45.58,2.39,2.39,0,0,1,.52,1.66,3,3,0,0,1,0,.47h-3.56v-.52h3a1.79,1.79,0,0,0-.36-1.2,1.26,1.26,0,0,0-1-.43,1.37,1.37,0,0,0-1.13.5,2.13,2.13,0,0,0-.4,1.39,2,2,0,0,0,.53,1.48,2,2,0,0,0,1.5.52l.57,0,.57-.1.08.56a4.55,4.55,0,0,1-.66.1Z" transform="translate(-460.83 -523.5)"/><path class="cls-4" d="M464.8,675.75v-6.46h.58v6.46Zm.47-2.15V673h1.42a1.86,1.86,0,0,0,1.29-.42,1.77,1.77,0,0,0,0-2.36,1.86,1.86,0,0,0-1.29-.42h-1.4v-.55h1.4a2.44,2.44,0,0,1,1.73.56,2.06,2.06,0,0,1,.61,1.59,2,2,0,0,1-.61,1.59,2.44,2.44,0,0,1-1.73.57Z" transform="translate(-460.83 -523.5)"/><path class="cls-4" d="M472.2,675.84a1.8,1.8,0,0,1-1.5-.65,2.85,2.85,0,0,1-.54-1.85,2.81,2.81,0,0,1,.54-1.85,2,2,0,0,1,3,0,2.81,2.81,0,0,1,.54,1.85,2.85,2.85,0,0,1-.54,1.85A1.8,1.8,0,0,1,472.2,675.84Zm0-.57a1.19,1.19,0,0,0,1-.5,2.88,2.88,0,0,0,0-2.86,1.2,1.2,0,0,0-1-.51,1.23,1.23,0,0,0-1.05.51,2.95,2.95,0,0,0,0,2.86A1.22,1.22,0,0,0,472.2,675.27Z" transform="translate(-460.83 -523.5)"/><path class="cls-4" d="M475.41,669.46v-.54H477v.54Zm3.14,6.38a1.56,1.56,0,0,1-1.22-.43,1.89,1.89,0,0,1-.4-1.33v-5.16h.61v5.15a1.61,1.61,0,0,0,.12.67.8.8,0,0,0,.37.4,1.43,1.43,0,0,0,.67.13,3.74,3.74,0,0,0,.94-.14l.07.55a4.59,4.59,0,0,1-.57.13A5.54,5.54,0,0,1,478.55,675.84Z" transform="translate(-460.83 -523.5)"/><path class="cls-4" d="M482.77,675.75l-2-4.83h.66l1.78,4.32h.12l0,.51Zm-2,2.19,0-.57.46-.06a2,2,0,0,0,.81-.31,2.39,2.39,0,0,0,.64-.69,6,6,0,0,0,.57-1.21l1.49-4.18h.65l-1.65,4.41a8,8,0,0,1-.68,1.4,2.67,2.67,0,0,1-.76.8,2.34,2.34,0,0,1-1,.34Z" transform="translate(-460.83 -523.5)"/><path class="cls-4" d="M488.35,675.84a1.75,1.75,0,0,1-1.46-.64,2.86,2.86,0,0,1-.52-1.82,3,3,0,0,1,.52-1.88,1.75,1.75,0,0,1,1.46-.67,1.84,1.84,0,0,1,1,.25,1.19,1.19,0,0,1,.49.72h.34l-.28,1.12a1.58,1.58,0,0,0-.38-1.14,1.4,1.4,0,0,0-1.06-.4,1.25,1.25,0,0,0-1.08.53,2.4,2.4,0,0,0-.39,1.47,2.31,2.31,0,0,0,.38,1.42,1.31,1.31,0,0,0,1.1.49,1.71,1.71,0,0,0,1.06-.28,1,1,0,0,0,.37-.81v-.52l.32,1.33h-.38a.94.94,0,0,1-.49.62A2.07,2.07,0,0,1,488.35,675.84Zm-1.58,2.09,0-.56,1.46,0a1.78,1.78,0,0,0,1.28-.49,2.06,2.06,0,0,0,.4-1.36v-1.1h.61v1a2.73,2.73,0,0,1-.57,1.9,2.55,2.55,0,0,1-1.82.65Zm3.12-3.36V672l.05-1h.55v3.65Z" transform="translate(-460.83 -523.5)"/><path class="cls-4" d="M494.06,675.84a1.82,1.82,0,0,1-1.5-.65,2.85,2.85,0,0,1-.54-1.85,2.81,2.81,0,0,1,.54-1.85,2,2,0,0,1,3,0,2.87,2.87,0,0,1,.53,1.85,2.91,2.91,0,0,1-.53,1.85A1.83,1.83,0,0,1,494.06,675.84Zm0-.57a1.22,1.22,0,0,0,1.05-.5,2.95,2.95,0,0,0,0-2.86,1.23,1.23,0,0,0-1.05-.51,1.2,1.2,0,0,0-1,.51,2.95,2.95,0,0,0,0,2.86A1.19,1.19,0,0,0,494.06,675.27Z" transform="translate(-460.83 -523.5)"/><path class="cls-4" d="M497.63,675.75v-4.83h.55l.06,1v3.8Zm3.19,0V672.6a1.23,1.23,0,0,0-.31-.89,1.15,1.15,0,0,0-.85-.31c-1,0-1.42.54-1.42,1.62L498,671.8h.34a1.1,1.1,0,0,1,.46-.73,1.66,1.66,0,0,1,1-.24,1.68,1.68,0,0,1,1.27.47,1.84,1.84,0,0,1,.44,1.31v3.14Z" transform="translate(-460.83 -523.5)"/><path class="cls-4" d="M505.46,675.84a2.49,2.49,0,0,1-1.85-.66,2.56,2.56,0,0,1-.66-1.89,2.74,2.74,0,0,1,.55-1.81,2,2,0,0,1,1.56-.65,1.85,1.85,0,0,1,1.46.59,2.44,2.44,0,0,1,.51,1.66c0,.18,0,.34,0,.47h-3.57V673h3a1.82,1.82,0,0,0-.36-1.21,1.28,1.28,0,0,0-1-.43,1.37,1.37,0,0,0-1.13.5,2.15,2.15,0,0,0-.4,1.39,2,2,0,0,0,.53,1.48,2,2,0,0,0,1.5.52l.57,0a4.85,4.85,0,0,0,.57-.09l.09.56a6.39,6.39,0,0,1-.67.09Z" transform="translate(-460.83 -523.5)"/><path class="cls-4" d="M510.08,675.84q-.52,0-.9,0a4.13,4.13,0,0,1-.67-.1l.07-.58.83.11.67,0a3.42,3.42,0,0,0,1.3-.18.67.67,0,0,0,.22-1.07,1.29,1.29,0,0,0-.6-.28l-1.08-.28a2.31,2.31,0,0,1-1-.47,1,1,0,0,1-.32-.78,1.12,1.12,0,0,1,.59-1.05,4.14,4.14,0,0,1,1.91-.33l.59,0,.61.07-.07.55c-.24,0-.46,0-.64-.05l-.52,0a3.94,3.94,0,0,0-1.41.19.63.63,0,0,0-.43.61.51.51,0,0,0,.21.42,1.89,1.89,0,0,0,.72.3l.86.21a2.31,2.31,0,0,1,1.08.5,1.26,1.26,0,0,1-.22,1.89A3.64,3.64,0,0,1,510.08,675.84Z" transform="translate(-460.83 -523.5)"/><polygon class="cls-1" points="42.85 104.6 52.48 94.05 57.76 98.87 58.22 108.96 43.76 124.79 38.49 119.97 33.67 125.24 28.39 120.43 23.12 115.61 42.85 104.6"/><polygon class="cls-2" points="42.85 104.6 52.48 94.05 57.76 98.87 58.22 108.96 43.76 124.79 38.49 119.97 33.67 125.24 28.39 120.43 23.12 115.61 42.85 104.6"/><rect class="cls-3" x="502.82" y="627.24" width="1.71" height="1.71" rx="0.7" transform="translate(-760.6 52.94) rotate(-47.59)"/><rect class="cls-3" x="512.46" y="616.69" width="1.71" height="1.71" rx="0.7" transform="translate(-749.68 56.62) rotate(-47.59)"/><rect class="cls-3" x="517.73" y="621.51" width="1.71" height="1.71" rx="0.7" transform="translate(-751.52 62.08) rotate(-47.59)"/><rect class="cls-3" x="518.19" y="631.6" width="1.71" height="1.71" rx="0.7" transform="translate(-758.82 65.7) rotate(-47.59)"/><rect class="cls-3" x="503.74" y="647.43" width="1.71" height="1.71" rx="0.7" transform="translate(-775.21 60.18) rotate(-47.59)"/><rect class="cls-3" x="498.46" y="642.61" width="1.71" height="1.71" rx="0.7" transform="translate(-773.37 54.72) rotate(-47.59)"/><rect class="cls-3" x="493.64" y="647.89" width="1.71" height="1.71" rx="0.7" transform="translate(-778.83 52.88) rotate(-47.59)"/><rect class="cls-3" x="483.09" y="638.25" width="1.71" height="1.71" rx="0.7" transform="translate(-775.16 41.95) rotate(-47.59)"/><polyline class="cls-2" points="104.51 106.38 112.75 98.14 129.24 98.14 129.24 114.62"/><rect class="cls-3" x="128.25" y="97.15" width="1.98" height="1.98" rx="0.7"/><rect class="cls-3" x="128.25" y="97.15" width="1.98" height="1.98" rx="0.7"/><rect class="cls-3" x="111.76" y="97.15" width="1.98" height="1.98" rx="0.7"/><rect class="cls-3" x="103.52" y="105.39" width="1.98" height="1.98" rx="0.7"/><rect class="cls-3" x="128.25" y="113.63" width="1.98" height="1.98" rx="0.7"/><path class="cls-4" d="M562,664.56v-6.47h.57v6.47Zm0-5.91v-.56h4.13v.56Zm0,3V661h3.31v.56Zm0,3V664h4.13v.56Z" transform="translate(-460.83 -523.5)"/><path class="cls-4" d="M567.54,664.56v-4.83h.55l0,1v3.81Zm3.18,0V661.4a1.2,1.2,0,0,0-.3-.88,1.14,1.14,0,0,0-.85-.31c-1,0-1.43.54-1.43,1.62l-.28-1.22h.34a1.13,1.13,0,0,1,.45-.73,1.72,1.72,0,0,1,1-.24,1.67,1.67,0,0,1,1.26.46,1.82,1.82,0,0,1,.45,1.32v3.14Z" transform="translate(-460.83 -523.5)"/><path class="cls-4" d="M574.53,664.65c-.36,0-.66,0-.91,0a4.07,4.07,0,0,1-.67-.11l.07-.58c.31.05.59.09.83.11a5.27,5.27,0,0,0,.68,0,3.17,3.17,0,0,0,1.29-.19.61.61,0,0,0,.4-.6.64.64,0,0,0-.18-.47,1.4,1.4,0,0,0-.6-.28l-1.08-.27a2.31,2.31,0,0,1-1-.48A1,1,0,0,1,573,661a1.13,1.13,0,0,1,.59-1.06,4.27,4.27,0,0,1,1.91-.32l.59,0c.19,0,.39,0,.61.07l-.07.54-.64,0h-.52a3.76,3.76,0,0,0-1.41.19.63.63,0,0,0-.43.61.54.54,0,0,0,.21.42,2.08,2.08,0,0,0,.72.29l.86.21a2.42,2.42,0,0,1,1.08.5,1.14,1.14,0,0,1,.33.86,1.12,1.12,0,0,1-.55,1A3.74,3.74,0,0,1,574.53,664.65Z" transform="translate(-460.83 -523.5)"/><path class="cls-4" d="M580.83,664.65A2.47,2.47,0,0,1,579,664a2.55,2.55,0,0,1-.66-1.88,2.71,2.71,0,0,1,.56-1.82,1.91,1.91,0,0,1,1.55-.64,1.85,1.85,0,0,1,1.46.58,2.44,2.44,0,0,1,.52,1.66,3,3,0,0,1,0,.47h-3.56v-.52h3a1.79,1.79,0,0,0-.36-1.2,1.25,1.25,0,0,0-1-.43,1.39,1.39,0,0,0-1.13.5,2.13,2.13,0,0,0-.4,1.39,2,2,0,0,0,.53,1.48,2.06,2.06,0,0,0,1.5.52l.57,0,.57-.1.09.56a4.55,4.55,0,0,1-.66.1Z" transform="translate(-460.83 -523.5)"/><path class="cls-4" d="M583.68,664.56v-4.83h.53l.08,1v3.81Zm1.87,0v-3.78c0-.41-.19-.62-.57-.62s-.69.29-.69.86l-.29-.69h.3a.81.81,0,0,1,.92-.69.84.84,0,0,1,.66.26,1.16,1.16,0,0,1,.23.79v3.87Zm1.82,0v-3.69c0-.47-.19-.71-.57-.71s-.69.29-.69.86l-.33-.69h.34a.81.81,0,0,1,.28-.51.92.92,0,0,1,.61-.18.89.89,0,0,1,.73.28,1.3,1.3,0,0,1,.24.86v3.78Z" transform="translate(-460.83 -523.5)"/><path class="cls-4" d="M589.4,664.56v-6.83h.6v6.75Zm1.07.09-.53,0-.54-.07.31-.56a2.1,2.1,0,0,0,.46.08l.49,0a2.21,2.21,0,0,0,1.66-.6,2.27,2.27,0,0,0,.59-1.67,1.8,1.8,0,0,0-.36-1.21,1.25,1.25,0,0,0-1-.43c-1,0-1.52.55-1.52,1.65l-.29-1.23h.35c.16-.65.66-1,1.51-1a1.83,1.83,0,0,1,1.44.57,2.35,2.35,0,0,1,.51,1.62,2.7,2.7,0,0,1-.8,2.08A3.19,3.19,0,0,1,590.47,664.65Z" transform="translate(-460.83 -523.5)"/><path class="cls-4" d="M594.5,658.26v-.53h1.61v.53Zm3.15,6.39a1.6,1.6,0,0,1-1.23-.43,1.94,1.94,0,0,1-.39-1.33v-5.16h.61v5.14a1.86,1.86,0,0,0,.11.68.82.82,0,0,0,.38.4,1.43,1.43,0,0,0,.67.13,3.69,3.69,0,0,0,.93-.15l.07.56-.57.12A3.52,3.52,0,0,1,597.65,664.65Z" transform="translate(-460.83 -523.5)"/><path class="cls-4" d="M602.7,664.65a2.48,2.48,0,0,1-1.86-.67,2.59,2.59,0,0,1-.65-1.88,2.71,2.71,0,0,1,.55-1.82,1.93,1.93,0,0,1,1.56-.64,1.83,1.83,0,0,1,1.45.58,2.39,2.39,0,0,1,.52,1.66,3,3,0,0,1,0,.47h-3.56v-.52h3a1.79,1.79,0,0,0-.36-1.2,1.25,1.25,0,0,0-1-.43,1.39,1.39,0,0,0-1.13.5,2.19,2.19,0,0,0-.4,1.39,2,2,0,0,0,.53,1.48,2.07,2.07,0,0,0,1.51.52l.56,0,.57-.1.09.56a4.55,4.55,0,0,1-.66.1Z" transform="translate(-460.83 -523.5)"/><path class="cls-4" d="M612.92,664.65a1.75,1.75,0,0,1-1.46-.64,2.78,2.78,0,0,1-.52-1.82,3,3,0,0,1,.52-1.88,1.78,1.78,0,0,1,1.49-.67,1.58,1.58,0,0,1,1,.29,1.19,1.19,0,0,1,.46.82h.34l-.28,1.23c0-1.19-.5-1.79-1.49-1.79a1.18,1.18,0,0,0-1,.52,2.51,2.51,0,0,0-.37,1.48c0,1.27.47,1.91,1.42,1.91s1.48-.42,1.48-1.27v-.6l.33,1.44h-.38a1,1,0,0,1-.46.72A1.91,1.91,0,0,1,612.92,664.65Zm1.62,0-.09-1.16v-5.71h.6v6.84Z" transform="translate(-460.83 -523.5)"/><path class="cls-4" d="M619.09,664.65a2.46,2.46,0,0,1-1.85-.67,2.55,2.55,0,0,1-.66-1.88,2.77,2.77,0,0,1,.55-1.82,1.94,1.94,0,0,1,1.56-.64,1.85,1.85,0,0,1,1.46.58,2.44,2.44,0,0,1,.52,1.66,3,3,0,0,1,0,.47h-3.56v-.52h3a1.79,1.79,0,0,0-.36-1.2,1.25,1.25,0,0,0-1-.43,1.39,1.39,0,0,0-1.13.5,2.13,2.13,0,0,0-.4,1.39,2,2,0,0,0,.53,1.48,2.06,2.06,0,0,0,1.5.52l.57,0,.57-.1.09.56a4.55,4.55,0,0,1-.66.1Z" transform="translate(-460.83 -523.5)"/><path class="cls-4" d="M563.59,675.84q-.52,0-.9,0a4.13,4.13,0,0,1-.67-.1l.07-.58.83.11.67,0a3.42,3.42,0,0,0,1.3-.18.67.67,0,0,0,.22-1.07,1.29,1.29,0,0,0-.6-.28l-1.09-.28a2.31,2.31,0,0,1-1-.47,1.06,1.06,0,0,1-.31-.78,1.12,1.12,0,0,1,.59-1.05,4.11,4.11,0,0,1,1.91-.33l.59,0,.61.07-.07.55c-.25,0-.46,0-.64-.05l-.52,0a3.94,3.94,0,0,0-1.41.19.64.64,0,0,0-.44.61.52.52,0,0,0,.22.42,1.91,1.91,0,0,0,.71.3l.87.21a2.27,2.27,0,0,1,1.07.5,1.09,1.09,0,0,1,.34.85,1.13,1.13,0,0,1-.55,1A3.64,3.64,0,0,1,563.59,675.84Z" transform="translate(-460.83 -523.5)"/><path class="cls-4" d="M569.9,675.84a2.49,2.49,0,0,1-1.85-.66,2.56,2.56,0,0,1-.66-1.89,2.74,2.74,0,0,1,.55-1.81,2,2,0,0,1,1.56-.65,1.85,1.85,0,0,1,1.46.59,2.44,2.44,0,0,1,.51,1.66c0,.18,0,.34,0,.47h-3.57V673h3a1.82,1.82,0,0,0-.36-1.21,1.28,1.28,0,0,0-1-.43,1.37,1.37,0,0,0-1.13.5,2.15,2.15,0,0,0-.4,1.39,2,2,0,0,0,.53,1.48,2,2,0,0,0,1.5.52l.57,0a4.85,4.85,0,0,0,.57-.09l.09.56a6.39,6.39,0,0,1-.67.09Z" transform="translate(-460.83 -523.5)"/><path class="cls-4" d="M574.65,675.84a1.77,1.77,0,0,1-1.46-.64,2.86,2.86,0,0,1-.51-1.82,3,3,0,0,1,.51-1.88,1.78,1.78,0,0,1,1.47-.67,1.82,1.82,0,0,1,1,.25,1.15,1.15,0,0,1,.49.72h.34l-.28,1.12a1.58,1.58,0,0,0-.38-1.14,1.39,1.39,0,0,0-1.06-.4,1.25,1.25,0,0,0-1.08.53,2.4,2.4,0,0,0-.38,1.47,2.25,2.25,0,0,0,.38,1.42,1.28,1.28,0,0,0,1.09.49,1.71,1.71,0,0,0,1.06-.28,1,1,0,0,0,.37-.81v-.52l.33,1.33h-.39a.93.93,0,0,1-.48.62A2.15,2.15,0,0,1,574.65,675.84Zm-1.58,2.09,0-.56,1.46,0a1.78,1.78,0,0,0,1.28-.49,2.06,2.06,0,0,0,.4-1.36v-1.1h.61v1a2.73,2.73,0,0,1-.57,1.9,2.53,2.53,0,0,1-1.81.65Zm3.12-3.36V672l.06-1h.54v3.65Z" transform="translate(-460.83 -523.5)"/><path class="cls-4" d="M578.21,675.75v-4.83h.53l.08,1v3.8Zm1.88,0V672c0-.41-.19-.61-.58-.61s-.69.28-.69.86l-.28-.69h.29a.81.81,0,0,1,.92-.7.86.86,0,0,1,.67.26,1.2,1.2,0,0,1,.22.79v3.87Zm1.82,0v-3.69c0-.47-.19-.7-.57-.7s-.7.28-.7.86l-.33-.69h.34a.81.81,0,0,1,.28-.51.89.89,0,0,1,.61-.19,1,1,0,0,1,.74.28,1.38,1.38,0,0,1,.23.86v3.78Z" transform="translate(-460.83 -523.5)"/><path class="cls-4" d="M586.3,675.84a2.48,2.48,0,0,1-1.85-.66,2.56,2.56,0,0,1-.66-1.89,2.68,2.68,0,0,1,.55-1.81,2,2,0,0,1,1.56-.65,1.83,1.83,0,0,1,1.45.59,2.39,2.39,0,0,1,.52,1.66,3.18,3.18,0,0,1,0,.47h-3.56V673h3a1.82,1.82,0,0,0-.36-1.21,1.31,1.31,0,0,0-1-.43,1.36,1.36,0,0,0-1.13.5,2.15,2.15,0,0,0-.4,1.39,1.94,1.94,0,0,0,.53,1.48,2,2,0,0,0,1.5.52l.57,0a5.21,5.21,0,0,0,.57-.09l.08.56a6.57,6.57,0,0,1-.66.09Z" transform="translate(-460.83 -523.5)"/><path class="cls-4" d="M589.4,675.75v-4.83H590l.06,1v3.8Zm3.18,0V672.6a1.23,1.23,0,0,0-.3-.89,1.16,1.16,0,0,0-.85-.31c-.95,0-1.42.54-1.42,1.62l-.29-1.22h.34a1.1,1.1,0,0,1,.46-.73,1.66,1.66,0,0,1,1-.24,1.64,1.64,0,0,1,1.26.47,1.8,1.8,0,0,1,.45,1.31v3.14Z" transform="translate(-460.83 -523.5)"/><path class="cls-4" d="M594.38,671.46v-.54h4.22v.54Zm1.38,2v-4h.61v4Zm1.83,2.36a1.84,1.84,0,0,1-1.38-.47,2.09,2.09,0,0,1-.45-1.47v-.79h.61v.78a1.47,1.47,0,0,0,.32,1,1.31,1.31,0,0,0,1,.34,4.18,4.18,0,0,0,.51,0l.53-.07.06.55-.58.09Z" transform="translate(-460.83 -523.5)"/><path class="cls-4" d="M601.85,675.84q-.52,0-.9,0a4.13,4.13,0,0,1-.67-.1l.07-.58.82.11.68,0a3.42,3.42,0,0,0,1.3-.18.67.67,0,0,0,.22-1.07,1.29,1.29,0,0,0-.6-.28l-1.08-.28a2.2,2.2,0,0,1-1-.47,1,1,0,0,1-.32-.78,1.12,1.12,0,0,1,.59-1.05,4.11,4.11,0,0,1,1.91-.33l.59,0,.61.07-.07.55c-.24,0-.46,0-.64-.05l-.52,0a3.94,3.94,0,0,0-1.41.19.64.64,0,0,0-.44.61.52.52,0,0,0,.22.42,1.91,1.91,0,0,0,.71.3l.87.21a2.27,2.27,0,0,1,1.07.5,1.09,1.09,0,0,1,.34.85,1.13,1.13,0,0,1-.55,1A3.64,3.64,0,0,1,601.85,675.84Z" transform="translate(-460.83 -523.5)"/><polyline class="cls-2" points="141.16 102.27 140.6 113.91 128.39 124.99 117.31 112.79"/><rect class="cls-3" x="588.24" y="647.5" width="1.98" height="1.98" rx="0.7" transform="translate(1000.55 209.01) rotate(137.76)"/><rect class="cls-3" x="588.24" y="647.5" width="1.98" height="1.98" rx="0.7" transform="translate(1000.55 209.01) rotate(137.76)"/><rect class="cls-3" x="600.44" y="636.42" width="1.98" height="1.98" rx="0.7" transform="translate(1014.34 181.53) rotate(137.76)"/><rect class="cls-3" x="601" y="624.78" width="1.98" height="1.98" rx="0.7" transform="translate(1007.5 160.89) rotate(137.76)"/><rect class="cls-3" x="577.16" y="635.3" width="1.98" height="1.98" rx="0.7" transform="translate(973.07 195.23) rotate(137.76)"/><rect class="cls-3" x="225.76" y="111.15" width="3" height="3" rx="0.7"/><path class="cls-4" d="M650.09,664.56v-6.47h.58v6.47Zm0-5.91v-.56h4.13v.56Zm0,3V661h3.31v.56Zm0,3V664h4.13v.56Z" transform="translate(-460.83 -523.5)"/><path class="cls-4" d="M655.59,664.56v-4.83h.55l.05,1v3.81Zm3.18,0V661.4a1.22,1.22,0,0,0-.3-.88,1.14,1.14,0,0,0-.85-.31c-1,0-1.43.54-1.43,1.62l-.28-1.22h.34a1.1,1.1,0,0,1,.46-.73,2,2,0,0,1,2.22.22,1.84,1.84,0,0,1,.45,1.32v3.14Z" transform="translate(-460.83 -523.5)"/><path class="cls-4" d="M662.58,664.65c-.36,0-.66,0-.91,0a4.07,4.07,0,0,1-.67-.11l.07-.57.83.1a5.27,5.27,0,0,0,.68,0,3.17,3.17,0,0,0,1.29-.19.61.61,0,0,0,.4-.6.66.66,0,0,0-.18-.47,1.4,1.4,0,0,0-.6-.28l-1.08-.27a2.31,2.31,0,0,1-1-.48,1,1,0,0,1-.32-.77,1.11,1.11,0,0,1,.59-1,4.14,4.14,0,0,1,1.91-.33l.59,0c.19,0,.39,0,.61.07l-.07.54-.64,0h-.52a3.76,3.76,0,0,0-1.41.19.63.63,0,0,0-.43.61.51.51,0,0,0,.22.42,1.78,1.78,0,0,0,.71.29l.86.21a2.42,2.42,0,0,1,1.08.5,1.15,1.15,0,0,1,.33.86,1.11,1.11,0,0,1-.55,1A3.74,3.74,0,0,1,662.58,664.65Z" transform="translate(-460.83 -523.5)"/><path class="cls-4" d="M668.88,664.65A2.51,2.51,0,0,1,667,664a2.58,2.58,0,0,1-.65-1.89,2.67,2.67,0,0,1,.55-1.81,1.92,1.92,0,0,1,1.55-.65,1.85,1.85,0,0,1,1.46.58,2.46,2.46,0,0,1,.52,1.66,3.23,3.23,0,0,1,0,.48h-3.56v-.52h3a1.8,1.8,0,0,0-.36-1.21,1.25,1.25,0,0,0-1-.43,1.39,1.39,0,0,0-1.13.5,2.19,2.19,0,0,0-.4,1.39,2,2,0,0,0,.53,1.48,2.06,2.06,0,0,0,1.5.52l.57,0,.57-.1.09.56a4.55,4.55,0,0,1-.66.1Z" transform="translate(-460.83 -523.5)"/><path class="cls-4" d="M671.73,664.56v-4.83h.53l.08,1v3.81Zm1.87,0v-3.78c0-.41-.19-.62-.57-.62s-.69.29-.69.87l-.29-.7h.3a.81.81,0,0,1,.92-.69.84.84,0,0,1,.66.26,1.18,1.18,0,0,1,.23.79v3.87Zm1.82,0v-3.69c0-.47-.18-.71-.56-.71s-.7.29-.7.87l-.33-.7h.34a.81.81,0,0,1,.28-.51.94.94,0,0,1,.61-.18.89.89,0,0,1,.73.28,1.3,1.3,0,0,1,.24.86v3.78Z" transform="translate(-460.83 -523.5)"/><path class="cls-4" d="M677.45,664.56v-6.83h.6v6.75Zm1.07.09-.53,0-.54-.07.32-.56a1.91,1.91,0,0,0,.45.08l.49,0a2.21,2.21,0,0,0,1.66-.6,2.27,2.27,0,0,0,.59-1.67,1.8,1.8,0,0,0-.36-1.21,1.25,1.25,0,0,0-1-.43c-1,0-1.52.55-1.52,1.65l-.28-1.23h.34c.16-.65.66-1,1.51-1a1.83,1.83,0,0,1,1.44.57,2.35,2.35,0,0,1,.51,1.62,2.7,2.7,0,0,1-.8,2.08A3.19,3.19,0,0,1,678.52,664.65Z" transform="translate(-460.83 -523.5)"/><path class="cls-4" d="M682.55,658.26v-.53h1.61v.53Zm3.15,6.39a1.56,1.56,0,0,1-1.22-.43,1.89,1.89,0,0,1-.4-1.33v-5.16h.61v5.14a1.66,1.66,0,0,0,.12.68.76.76,0,0,0,.37.4,1.43,1.43,0,0,0,.67.13,4.11,4.11,0,0,0,.93-.14l.07.55a2.9,2.9,0,0,1-.57.12A3.52,3.52,0,0,1,685.7,664.65Z" transform="translate(-460.83 -523.5)"/><path class="cls-4" d="M690.75,664.65a2.52,2.52,0,0,1-1.86-.66,2.63,2.63,0,0,1-.65-1.89,2.67,2.67,0,0,1,.55-1.81,1.94,1.94,0,0,1,1.56-.65,1.83,1.83,0,0,1,1.45.58,2.41,2.41,0,0,1,.52,1.66,3.23,3.23,0,0,1,0,.48h-3.56v-.52h3a1.75,1.75,0,0,0-.37-1.21,1.24,1.24,0,0,0-1-.43,1.36,1.36,0,0,0-1.13.5,2.13,2.13,0,0,0-.4,1.39,2,2,0,0,0,.53,1.48,2,2,0,0,0,1.5.52l.56,0,.58-.1.08.56a4.55,4.55,0,0,1-.66.1Z" transform="translate(-460.83 -523.5)"/><path class="cls-4" d="M701,664.65a1.77,1.77,0,0,1-1.46-.63,2.83,2.83,0,0,1-.52-1.83,3,3,0,0,1,.52-1.88,1.78,1.78,0,0,1,1.49-.67,1.58,1.58,0,0,1,1,.29,1.19,1.19,0,0,1,.46.82h.34L702.5,662c0-1.19-.5-1.79-1.49-1.79a1.21,1.21,0,0,0-1,.52,2.51,2.51,0,0,0-.37,1.48c0,1.27.47,1.91,1.42,1.91s1.48-.42,1.48-1.27v-.6l.33,1.44h-.38a1,1,0,0,1-.46.72A1.91,1.91,0,0,1,701,664.65Zm1.62,0-.09-1.17v-5.71h.61v6.84Z" transform="translate(-460.83 -523.5)"/><path class="cls-4" d="M707.14,664.65a2.51,2.51,0,0,1-1.85-.66,2.59,2.59,0,0,1-.66-1.89,2.67,2.67,0,0,1,.56-1.81,1.92,1.92,0,0,1,1.55-.65,1.85,1.85,0,0,1,1.46.58,2.46,2.46,0,0,1,.52,1.66,3.23,3.23,0,0,1,0,.48h-3.56v-.52h3a1.8,1.8,0,0,0-.36-1.21,1.25,1.25,0,0,0-1-.43,1.39,1.39,0,0,0-1.13.5,2.19,2.19,0,0,0-.4,1.39,2,2,0,0,0,.53,1.48,2.06,2.06,0,0,0,1.5.52l.57,0,.57-.1.09.56a4.55,4.55,0,0,1-.66.1Z" transform="translate(-460.83 -523.5)"/><path class="cls-4" d="M650.12,677.85v-6.92h.52l.09,1v5.9Zm2.15-2a2.15,2.15,0,0,1-1-.21,1,1,0,0,1-.49-.62h-.38l.33-1.33v.53a1,1,0,0,0,.37.8,1.7,1.7,0,0,0,1.06.28,1.29,1.29,0,0,0,1.09-.49,2.3,2.3,0,0,0,.38-1.41,2.49,2.49,0,0,0-.38-1.48,1.27,1.27,0,0,0-1.08-.52,1.36,1.36,0,0,0-1.07.41,1.69,1.69,0,0,0-.37,1.18l-.28-1.18h.33a1.17,1.17,0,0,1,.5-.72,1.8,1.8,0,0,1,1-.25,1.75,1.75,0,0,1,1.46.67,3,3,0,0,1,.52,1.89,2.85,2.85,0,0,1-.51,1.81A1.77,1.77,0,0,1,652.27,675.84Z" transform="translate(-460.83 -523.5)"/><path class="cls-4" d="M657.48,675.84a1.82,1.82,0,0,1-1.5-.65,3.44,3.44,0,0,1,0-3.7,2,2,0,0,1,3,0,3.49,3.49,0,0,1,0,3.7A1.83,1.83,0,0,1,657.48,675.84Zm0-.56a1.23,1.23,0,0,0,1-.51,2.95,2.95,0,0,0,0-2.86,1.23,1.23,0,0,0-1-.51,1.21,1.21,0,0,0-1,.51,2.95,2.95,0,0,0,0,2.86A1.21,1.21,0,0,0,657.48,675.28Z" transform="translate(-460.83 -523.5)"/><path class="cls-4" d="M661,675.75v-.53h2v.53Zm.27-4.28v-.54h2.28v.54Zm1.91-1.6a.5.5,0,0,1-.37-.15.49.49,0,0,1-.16-.37.51.51,0,0,1,.16-.38.53.53,0,0,1,.74,0,.51.51,0,0,1,.16.38.49.49,0,0,1-.16.37A.5.5,0,0,1,663.2,669.87Zm-.24,5.88v-4.59h.61v4.59Zm.52,0v-.53h1.68v.53Z" transform="translate(-460.83 -523.5)"/><path class="cls-4" d="M666.52,675.75v-4.82h.55l.06,1v3.8Zm3.18,0V672.6a1.23,1.23,0,0,0-.3-.89,1.16,1.16,0,0,0-.85-.31c-.95,0-1.42.54-1.42,1.63l-.29-1.23h.34a1.12,1.12,0,0,1,.46-.73,1.66,1.66,0,0,1,1-.24,1.64,1.64,0,0,1,1.26.47,1.81,1.81,0,0,1,.45,1.31v3.14Z" transform="translate(-460.83 -523.5)"/><path class="cls-4" d="M671.49,671.46v-.53h4.23v.53Zm1.39,2v-4h.61v4Zm1.83,2.36a1.8,1.8,0,0,1-1.38-.47,2.09,2.09,0,0,1-.45-1.47v-.79h.61v.78a1.47,1.47,0,0,0,.32,1,1.3,1.3,0,0,0,1,.35,4.12,4.12,0,0,0,.51,0l.52-.07.07.56-.58.08A6,6,0,0,1,674.71,675.84Z" transform="translate(-460.83 -523.5)"/><path class="cls-4" d="M679,675.84q-.53,0-.9,0a4.13,4.13,0,0,1-.67-.1l.07-.58.82.11c.24,0,.47,0,.68,0a3.38,3.38,0,0,0,1.3-.19.63.63,0,0,0,.4-.6.64.64,0,0,0-.18-.47,1.29,1.29,0,0,0-.6-.28l-1.09-.28a2.31,2.31,0,0,1-1-.47,1,1,0,0,1-.31-.78,1.12,1.12,0,0,1,.59-1.05,4.11,4.11,0,0,1,1.91-.33,5.41,5.41,0,0,1,.59,0,5,5,0,0,1,.61.07l-.07.54c-.25,0-.46,0-.64-.05l-.52,0a3.94,3.94,0,0,0-1.41.19.64.64,0,0,0-.44.61.55.55,0,0,0,.22.43,2.1,2.1,0,0,0,.71.29l.87.21a2.27,2.27,0,0,1,1.07.5,1.14,1.14,0,0,1,.34.85,1.12,1.12,0,0,1-.55,1A3.64,3.64,0,0,1,679,675.84Z" transform="translate(-460.83 -523.5)"/><rect class="cls-3" x="212.34" y="108.15" width="3" height="3" rx="0.7"/><rect class="cls-3" x="222.76" y="101.6" width="3" height="3" rx="0.7"/><rect class="cls-3" x="213.84" y="118.47" width="3" height="3" rx="0.7"/></svg>