<svg viewBox="0 0 1000 1000" xmlns="http://www.w3.org/2000/svg" xmlns:xlink="http://www.w3.org/1999/xlink" id="Calque_1" overflow="hidden"><path d="M499.9 938.9C290.3 938.9 126.2 865 126.2 770.8L126.2 217C126.1 122.7 290.3 48.9 499.9 48.9 709.5 48.9 873.7 122.7 873.7 217L873.7 770.8C873.7 865 709.5 938.9 499.9 938.9L499.9 938.9ZM499.9 84.5C297.7 84.5 161.7 153 161.7 217L161.7 770.8C161.7 834.7 297.7 903.3 499.9 903.3 702.1 903.3 838.1 834.8 838.1 770.8L838.1 217C838.1 153 702.2 84.5 499.9 84.5L499.9 84.5ZM499.9 749C290.3 749 126.2 675.2 126.2 581 126.2 571.2 134.2 563.2 144 563.2 153.9 563.2 161.8 571.2 161.8 581 161.8 644.9 297.8 713.5 500 713.5 702.2 713.5 838.2 645 838.2 581 838.2 571.2 846.2 563.2 856 563.2 865.8 563.2 873.8 571.2 873.8 581 873.7 675.2 709.5 749 499.9 749L499.9 749ZM499.9 559.1C290.3 559.1 126.2 485.3 126.2 391.1 126.2 381.3 134.2 373.3 144 373.3 153.9 373.3 161.8 381.3 161.8 391.1 161.8 455.1 297.8 523.6 500 523.6 702.2 523.6 838.2 455.1 838.2 391.1 838.2 381.3 846.2 373.3 856 373.3 865.8 373.3 873.8 381.3 873.8 391.1 873.7 485.3 709.5 559.1 499.9 559.1L499.9 559.1ZM499.9 369.2C290.3 369.2 126.2 295.4 126.2 201.1 126.2 191.2 134.2 183.3 144 183.3 153.9 183.3 161.8 191.2 161.8 201.1 161.8 265 297.8 333.6 500 333.6 702.2 333.6 838.2 265.1 838.2 201.1 838.2 191.2 846.2 183.3 856 183.3 865.8 183.3 873.8 191.2 873.8 201.1 873.7 295.4 709.5 369.2 499.9 369.2L499.9 369.2Z" fill="#2157AE"/><g><path d="M50.6 847.3C54 846.6 61.8 837.9 65 836.5 75.4 831.9 86.1 823.9 96.2 818.5 100.6 816.2 104.9 813.8 109.4 811.4 110 813 109.7 814.4 109.6 815.8 108.8 834 107.8 852.2 108.1 870.4 108.2 873.6 108.1 876.8 108.8 880 109.2 881.6 109.9 882.3 111.8 882 119.4 880.6 126.3 872.6 126.3 865 126.3 862.5 126.3 860 126.1 857.5 125 840.6 123.3 823.8 123 806.9 123 804.8 123.6 803.7 125.5 802.7 137.7 796.3 149.9 789.8 162.1 783.3 172.4 777.8 182.8 772.4 192.8 766.3 195.8 764.4 197.1 762.1 196.7 758.6 196.4 755.7 195.7 752.9 195 750.1 193.5 744 191.2 738 193 731.6 193.5 729.8 193.8 727.9 192.1 726.6 190.3 725.2 188.7 726.6 187.1 727.5 171.8 735.8 156.5 744.1 141.2 752.4 135.9 755.3 130.5 758 124.8 761 124.7 760.2 124.6 759.8 124.7 759.5 126.4 739.7 128.9 719.9 131.1 700.2 131.6 695.7 133.2 692.4 137.3 690 142.5 686.9 143.4 682.6 140.8 677.1 140.3 676 139.7 675 139 674 133.9 666.4 127.8 659.4 126.4 649.8 126 647.2 123.9 646.5 121.6 647.8 119.2 649.1 116.9 650.5 114.7 652 97.5 664 79.9 675.1 60.8 683.8 48.9 689.2 36.7 694.1 24.5 698.8 23.4 699.2 21.8 699.2 23 701.3 26.6 707.7 30.2 714 35.1 719.5 40.7 725.8 47.5 729.6 56.2 728.9 59.2 728.7 62.1 728 65 727.2 76.1 723.9 86.2 718.4 96.4 713 103.5 709.2 110.6 705.2 118 701.2 118 702 118.1 702.3 118.1 702.6 115.4 723.6 114 744.8 112.6 765.9 112.5 767.4 111.7 767.9 110.6 768.5 98.7 774.7 86.8 780.9 74.6 786.3 57.2 800.4 50.8 808 47 807L50.6 847.3Z" stroke="#FFFFFF" stroke-width="6" stroke-miterlimit="10" fill="#2157AE"/><path d="M348 714.5C347.8 729.4 341.7 751.3 337 764.7 332.3 778.1 323.4 813.4 295.5 839.5 267.6 865.6 234.3 884.5 213.8 889.3 227.6 863.5 234.2 835.1 231.8 822.7 229.5 810.3 218.2 798.6 209.1 776.5 202.9 761.6 198 746.4 195.5 730.5 192.9 714 192.2 697.4 199 681.6 211.1 653.5 232.1 636.3 263 633.4 296.2 630.2 321.3 644.2 338.4 672.4 345.6 684.1 348.1 697.1 348 714.5ZM312.9 710.6C312.8 687.7 294 669.2 270.8 669.2 247.9 669.2 229.6 687.7 229.7 710.8 229.8 733.8 248.4 752.6 271.1 752.5 293.8 752.4 313 733.2 312.9 710.6Z" stroke="#FFFFFF" stroke-width="6" stroke-miterlimit="10" fill="#2157AE"/></g></svg>