<svg viewBox="0 0 1000 1000" xmlns="http://www.w3.org/2000/svg" xmlns:xlink="http://www.w3.org/1999/xlink" id="Calque_1" overflow="hidden"><g><path d="M120.7 246.4 580.9 429.9 926.8 246.4 917.3 729.9 568.9 913.1 125.2 722.5Z" stroke="#2157AE" stroke-width="29" stroke-linecap="round" stroke-linejoin="round" stroke-miterlimit="10" fill="none"/><path d="M120.7 246.4 471.5 68.1 466.6 558.2 125.2 722.5" stroke="#2157AE" stroke-width="29" stroke-linecap="round" stroke-linejoin="round" stroke-miterlimit="10" fill="none"/><line x1="917.3" y1="729.9" x2="466.6" y2="558.2" stroke="#2157AE" stroke-width="29" stroke-linecap="round" stroke-linejoin="round" stroke-miterlimit="10" fill="none"/><line x1="926.8" y1="246.4" x2="471.5" y2="68.1" stroke="#2157AE" stroke-width="29" stroke-linecap="round" stroke-linejoin="round" stroke-miterlimit="10" fill="none"/><line x1="580.9" y1="429.9" x2="568.9" y2="913.1" stroke="#2157AE" stroke-width="29" stroke-linecap="round" stroke-linejoin="round" stroke-miterlimit="10" fill="none"/></g><g><path d="M50.6 847.3C54 846.6 61.8 837.9 65 836.5 75.4 831.9 86.1 823.9 96.2 818.5 100.6 816.2 104.9 813.8 109.4 811.4 110 813 109.7 814.4 109.6 815.8 108.8 834 107.8 852.2 108.1 870.4 108.2 873.6 108.1 876.8 108.8 880 109.2 881.6 109.9 882.3 111.8 882 119.4 880.6 126.3 872.6 126.3 865 126.3 862.5 126.3 860 126.1 857.5 125 840.6 123.3 823.8 123 806.9 123 804.8 123.6 803.7 125.5 802.7 137.7 796.3 149.9 789.8 162.1 783.3 172.4 777.8 182.8 772.4 192.8 766.3 195.8 764.4 197.1 762.1 196.7 758.6 196.4 755.7 195.7 752.9 195 750.1 193.5 744 191.2 738 193 731.6 193.5 729.8 193.8 727.9 192.1 726.6 190.3 725.2 188.7 726.6 187.1 727.5 171.8 735.8 156.5 744.1 141.2 752.4 135.9 755.3 130.5 758 124.8 761 124.7 760.2 124.6 759.8 124.7 759.5 126.4 739.7 128.9 719.9 131.1 700.2 131.6 695.7 133.2 692.4 137.3 690 142.5 686.9 143.4 682.6 140.8 677.1 140.3 676 139.7 675 139 674 133.9 666.4 127.8 659.4 126.4 649.8 126 647.2 123.9 646.5 121.6 647.8 119.2 649.1 116.9 650.5 114.7 652 97.5 664 79.9 675.1 60.8 683.8 48.9 689.2 36.7 694.1 24.5 698.8 23.4 699.2 21.8 699.2 23 701.3 26.6 707.7 30.2 714 35.1 719.5 40.7 725.8 47.5 729.6 56.2 728.9 59.2 728.7 62.1 728 65 727.2 76.1 723.9 86.2 718.4 96.4 713 103.5 709.2 110.6 705.2 118 701.2 118 702 118.1 702.3 118.1 702.6 115.4 723.6 114 744.8 112.6 765.9 112.5 767.4 111.7 767.9 110.6 768.5 98.7 774.7 86.8 780.9 74.6 786.3 57.2 800.4 50.8 808 47 807L50.6 847.3Z" stroke="#FFFFFF" stroke-width="6" stroke-miterlimit="10" fill="#2157AE"/><path d="M348 714.5C347.8 729.4 341.7 751.3 337 764.7 332.3 778.1 323.4 813.4 295.5 839.5 267.6 865.6 234.3 884.5 213.8 889.3 227.6 863.5 234.2 835.1 231.8 822.7 229.5 810.3 218.2 798.6 209.1 776.5 202.9 761.6 198 746.4 195.5 730.5 192.9 714 192.2 697.4 199 681.6 211.1 653.5 232.1 636.3 263 633.4 296.2 630.2 321.3 644.2 338.4 672.4 345.6 684.1 348.1 697.1 348 714.5ZM312.9 710.6C312.8 687.7 294 669.2 270.8 669.2 247.9 669.2 229.6 687.7 229.7 710.8 229.8 733.8 248.4 752.6 271.1 752.5 293.8 752.4 313 733.2 312.9 710.6Z" stroke="#FFFFFF" stroke-width="6" stroke-miterlimit="10" fill="#2157AE"/></g></svg>