<svg viewBox="0 0 1000 390" xmlns="http://www.w3.org/2000/svg" xmlns:xlink="http://www.w3.org/1999/xlink" id="Calque_1" overflow="hidden"><g><path d="M300.9 41.4 355.1 95.6 355.1 149.8 300.9 204 138.3 204 138.3 149.8 84 149.8 84 95.6 84 41.4Z" stroke="#34495E" stroke-miterlimit="10" fill="#355570" opacity="0.63"/><path d="M300.9 41.4 355.1 95.6 355.1 149.8 300.9 204 138.3 204 138.3 149.8 84 149.8 84 95.6 84 41.4Z" stroke="#34495E" stroke-miterlimit="10" fill="none"/><path d="M304.4 47.9 297.5 47.9C295.8 47.9 294.5 46.6 294.5 44.9L294.5 38C294.5 36.3 295.8 35 297.5 35L304.4 35C306.1 35 307.4 36.3 307.4 38L307.4 44.9C307.4 46.6 306.1 47.9 304.4 47.9Z" fill="#34495E"/><path d="M358.6 102.1 351.7 102.1C350 102.1 348.7 100.8 348.7 99.1L348.7 92.2C348.7 90.5 350 89.2 351.7 89.2L358.6 89.2C360.3 89.2 361.6 90.5 361.6 92.2L361.6 99C361.6 100.8 360.3 102.1 358.6 102.1Z" fill="#34495E"/><path d="M358.6 156.3 351.7 156.3C350 156.3 348.7 155 348.7 153.3L348.7 146.4C348.7 144.7 350 143.4 351.7 143.4L358.6 143.4C360.3 143.4 361.6 144.7 361.6 146.4L361.6 153.3C361.6 155 360.3 156.3 358.6 156.3Z" fill="#34495E"/><path d="M304.4 210.5 297.5 210.5C295.8 210.5 294.5 209.2 294.5 207.5L294.5 200.6C294.5 198.9 295.8 197.6 297.5 197.6L304.4 197.6C306.1 197.6 307.4 198.9 307.4 200.6L307.4 207.5C307.4 209.2 306.1 210.5 304.4 210.5Z" fill="#34495E"/><path d="M141.7 210.5 134.8 210.5C133.1 210.5 131.8 209.2 131.8 207.5L131.8 200.6C131.8 198.9 133.1 197.6 134.8 197.6L141.7 197.6C143.4 197.6 144.7 198.9 144.7 200.6L144.7 207.5C144.8 209.2 143.5 210.5 141.7 210.5Z" fill="#34495E"/><path d="M141.7 156.3 134.8 156.3C133.1 156.3 131.8 155 131.8 153.3L131.8 146.4C131.8 144.7 133.1 143.4 134.8 143.4L141.7 143.4C143.4 143.4 144.7 144.7 144.7 146.4L144.7 153.3C144.8 155 143.5 156.3 141.7 156.3Z" fill="#34495E"/><path d="M87.5 156.3 80.6 156.3C78.9 156.3 77.6 155 77.6 153.3L77.6 146.4C77.6 144.7 78.9 143.4 80.6 143.4L87.5 143.4C89.2 143.4 90.5 144.7 90.5 146.4L90.5 153.3C90.6 155 89.3 156.3 87.5 156.3Z" fill="#34495E"/><path d="M87.5 47.9 80.6 47.9C78.9 47.9 77.6 46.6 77.6 44.9L77.6 38C77.6 36.3 78.9 35 80.6 35L87.5 35C89.2 35 90.5 36.3 90.5 38L90.5 44.9C90.6 46.6 89.3 47.9 87.5 47.9Z" fill="#34495E"/></g><g><g><line x1="355.1" y1="95.6" x2="366" y2="95.6" stroke="#2980B9" stroke-miterlimit="10" fill="none"/><path d="M388.1 95.6 463.6 95.6 572 41.4 788.8 41.4 897.3 95.6 951.5 149.8 951.5 204 897.3 258.2 810.5 258.2" stroke="#2980B9" stroke-miterlimit="10" stroke-dasharray="5.0963 5.0963" fill="none"/><line x1="799.7" y1="258.2" x2="788.8" y2="258.2" stroke="#2980B9" stroke-miterlimit="10" fill="none"/></g></g><path d="M467 102.1 460.1 102.1C458.4 102.1 457.1 100.8 457.1 99.1L457.1 92.2C457.1 90.5 458.4 89.2 460.1 89.2L467 89.2C468.7 89.2 470 90.5 470 92.2L470 99C470.1 100.8 468.8 102.1 467 102.1Z" fill="#2980B9"/><path d="M575.5 47.9 568.6 47.9C566.9 47.9 565.6 46.6 565.6 44.9L565.6 38C565.6 36.3 566.9 35 568.6 35L575.5 35C577.2 35 578.5 36.3 578.5 38L578.5 44.9C578.5 46.6 577.2 47.9 575.5 47.9Z" fill="#2980B9"/><path d="M792.3 47.9 785.4 47.9C783.7 47.9 782.4 46.6 782.4 44.9L782.4 38C782.4 36.3 783.7 35 785.4 35L792.3 35C794 35 795.3 36.3 795.3 38L795.3 44.9C795.4 46.6 794.1 47.9 792.3 47.9Z" fill="#2980B9"/><path d="M900.7 102.1 893.8 102.1C892.1 102.1 890.8 100.8 890.8 99.1L890.8 92.2C890.8 90.5 892.1 89.2 893.8 89.2L900.7 89.2C902.4 89.2 903.7 90.5 903.7 92.2L903.7 99C903.8 100.8 902.5 102.1 900.7 102.1Z" fill="#2980B9"/><path d="M955 156.3 948 156.3C946.3 156.3 945 155 945 153.3L945 146.4C945 144.7 946.3 143.4 948 143.4L954.9 143.4C956.6 143.4 957.9 144.7 957.9 146.4L957.9 153.3C958 155 956.7 156.3 955 156.3Z" fill="#2980B9"/><path d="M955 210.5 948 210.5C946.3 210.5 945 209.2 945 207.5L945 200.6C945 198.9 946.3 197.6 948 197.6L954.9 197.6C956.6 197.6 957.9 198.9 957.9 200.6L957.9 207.5C958 209.2 956.7 210.5 955 210.5Z" fill="#2980B9"/><path d="M900.7 264.7 893.8 264.7C892.1 264.7 890.8 263.4 890.8 261.7L890.8 254.8C890.8 253.1 892.1 251.8 893.8 251.8L900.7 251.8C902.4 251.8 903.7 253.1 903.7 254.8L903.7 261.7C903.8 263.4 902.5 264.7 900.7 264.7Z" fill="#2980B9"/><path d="M792.3 264.7 785.4 264.7C783.7 264.7 782.4 263.4 782.4 261.7L782.4 254.8C782.4 253.1 783.7 251.8 785.4 251.8L792.3 251.8C794 251.8 795.3 253.1 795.3 254.8L795.3 261.7C795.4 263.4 794.1 264.7 792.3 264.7Z" fill="#2980B9"/><g id="icon" transform="matrix(3.89 0 0 3.89 -1.94444 -1.94444)"><path d="M154.4 35.6C154.4 34.3 154.4 33.4 153.5 32.6 152.6 31.7 151.3 31.3 150.5 31.7 150.1 31.3 149.6 30.8 149.2 30.4L149.2 30.4C148.8 30 148.3 30 147.5 30 146.2 30 145.3 30.4 144.5 31.3 143.2 31.3 142.3 31.3 141.5 32.2 140.7 33.1 140.2 34.4 140.6 35.2 139.7 36.1 139.3 36.9 139.3 38.2 139.3 39.5 139.7 40.4 141 41.2 141 41.6 141.4 42.5 141.9 42.9 142.3 43.3 143.2 43.8 143.6 43.8L143.6 43.8 143.6 43.8 143.6 43.8C144.5 43.8 145.8 43.8 146.6 42.9 146.6 42.9 146.6 42.9 147 42.9L147 42.5 149.2 42.9 149.2 42.9C149.6 43.3 150.5 43.3 151.4 43.3 152.3 43.3 153.1 42.9 154 42.4 154.4 42 154.9 41.5 154.9 40.7 155.8 39.8 156.6 39 156.6 37.7 156.2 37.3 155.7 36.5 154.4 35.6Z" fill="#7FB241"/><path d="M150.5 42.1 149.6 41.2 149.2 41.2 148.3 42.1 148.3 38.6C148.3 38.6 148.3 38.2 147.9 38.2L147 38.2C147 38.2 146.6 38.2 146.6 38.6L146.6 40.3 146.2 39.4 145.8 39.4 145.4 39.8 145.4 40.2 146.7 41.9 146.7 49.7C146.7 49.7 146.7 50.1 147.1 50.1L148.4 50.1C148.4 50.1 148.8 50.1 148.8 49.7L148.8 44.1 150.5 42.1C150.5 42.5 150.5 42.5 150.5 42.1 150.5 42.5 150.5 42.1 150.5 42.1Z" fill="#A07E63"/></g><path d="M575.5 210.5 568.6 210.5C566.9 210.5 565.6 209.2 565.6 207.5L565.6 200.6C565.6 198.9 566.9 197.6 568.6 197.6L575.5 197.6C577.2 197.6 578.5 198.9 578.5 200.6L578.5 207.5C578.5 209.2 577.2 210.5 575.5 210.5Z" fill="#7FB241"/><g><g><line x1="29.8" y1="273.4" x2="29.8" y2="366.6" stroke="#2C3E50" stroke-miterlimit="10" fill="none"/><g><path d="M19.4 276.4 29.8 258.2 40.2 276.4Z" fill="#2C3E50"/></g></g></g><g><g><line x1="123.1" y1="366.6" x2="29.8" y2="366.6" stroke="#2C3E50" stroke-miterlimit="10" fill="none"/><g><path d="M120 356.2 138.3 366.6 120 377.1Z" fill="#2C3E50"/></g></g></g></svg>