<svg viewBox="0 0 657.9 421.6" xmlns="http://www.w3.org/2000/svg" xmlns:xlink="http://www.w3.org/1999/xlink" id="Calque_1" overflow="hidden"><path d="M64.8 193 218.9 193 554.9 31.6 627.7 174.1 322.3 350.8 64.8 350.8Z" fill="#A2E0BB"/><path d="M45.3 274.4 272 274.4 597.7 111.5" stroke="#2980B9" stroke-miterlimit="10" stroke-dasharray="5.0963 5.0963" fill="none"/><path d="M282.4 293.9 261.6 293.9C256.4 293.9 252.5 290 252.5 284.8L252.5 264C252.5 258.8 256.4 254.9 261.6 254.9L282.4 254.9C287.6 254.9 291.5 258.8 291.5 264L291.5 284.8C291.6 290 287.6 293.9 282.4 293.9Z" fill="#2980B9"/><path d="M608.2 131.1 587.4 131.1C582.2 131.1 578.3 127.2 578.3 122L578.3 101.2C578.3 96 582.2 92.1 587.4 92.1L608.2 92.1C613.4 92.1 617.3 96 617.3 101.2L617.3 122C617.3 127.2 613.4 131.1 608.2 131.1Z" fill="#2980B9"/><path d="M75.3 293.9 54.4 293.9C49.2 293.9 45.3 290 45.3 284.8L45.3 264C45.3 258.8 49.2 254.9 54.4 254.9L75.2 254.9C80.4 254.9 84.3 258.8 84.3 264L84.3 284.8C84.4 290 80.5 293.9 75.3 293.9Z" fill="#2980B9"/><path d="M70.4 361.2 59.3 361.2C56.5 361.2 54.4 359.1 54.4 356.3L54.4 345.2C54.4 342.4 56.5 340.3 59.3 340.3L70.4 340.3C73.2 340.3 75.3 342.4 75.3 345.2L75.3 356.3C75.3 359.1 73.2 361.2 70.4 361.2Z" fill="#27AE60"/><path d="M70.4 202.6 59.3 202.6C56.5 202.6 54.4 200.5 54.4 197.7L54.4 186.6C54.4 183.8 56.5 181.7 59.3 181.7L70.4 181.7C73.2 181.7 75.3 183.8 75.3 186.6L75.3 197.7C75.3 200.5 73.2 202.6 70.4 202.6Z" fill="#27AE60"/><path d="M224.5 202.6 213.4 202.6C210.6 202.6 208.5 200.5 208.5 197.7L208.5 186.6C208.5 183.8 210.6 181.7 213.4 181.7L224.5 181.7C227.3 181.7 229.4 183.8 229.4 186.6L229.4 197.7C229.3 200.5 227.2 202.6 224.5 202.6Z" fill="#27AE60"/><path d="M327.9 361.2 316.8 361.2C314 361.2 311.9 359.1 311.9 356.3L311.9 345.2C311.9 342.4 314 340.3 316.8 340.3L327.9 340.3C330.7 340.3 332.8 342.4 332.8 345.2L332.8 356.3C332.8 359.1 330.7 361.2 327.9 361.2Z" fill="#27AE60"/><path d="M560.5 42 549.4 42C546.6 42 544.5 39.9 544.5 37.1L544.5 26C544.5 23.2 546.6 21.1 549.4 21.1L560.5 21.1C563.3 21.1 565.4 23.2 565.4 26L565.4 37.1C565.3 39.9 563.3 42 560.5 42Z" fill="#27AE60"/><path d="M633.3 184.5 622.2 184.5C619.4 184.5 617.3 182.4 617.3 179.6L617.3 168.5C617.3 165.7 619.4 163.6 622.2 163.6L633.3 163.6C636.1 163.6 638.2 165.7 638.2 168.5L638.2 179.6C638.1 182.4 636.1 184.5 633.3 184.5Z" fill="#27AE60"/><path d="M322.3 350.8 64.8 193 64.8 350.8Z" stroke="#3CAA69" stroke-width="2" stroke-miterlimit="10" fill="none"/><line x1="218.9" y1="193" x2="64.8" y2="193" stroke="#3CAA69" stroke-width="2" stroke-miterlimit="10" fill="none"/><path d="M325.4 350.8 627.7 174.1 554.9 35.3 322.3 350.8 218.9 193" stroke="#3CAA69" stroke-width="2" stroke-miterlimit="10" fill="none"/><line x1="222.4" y1="191.2" x2="554.9" y2="31.6" stroke="#3CAA69" stroke-width="2" stroke-miterlimit="10" fill="none"/></svg>