<svg width="568" height="406" viewBox="0 0 568 406" preserveAspectRatio="none" xmlns="http://www.w3.org/2000/svg" xmlns:xlink="http://www.w3.org/1999/xlink" overflow="hidden"><defs><filter id="f1qbohqu0w5wip" x="-1" y="-1" width="300%" height="300%" filterUnits="objectBoundingBox" primitiveUnits="userSpaceOnUse"><feGaussianBlur result="blurOut" stdDeviation="2 2"/><feColorMatrix in="blurOut" result="blurOut2" type="matrix" values="0 0 0 0 0 0 0 0 0 0 0 0 0 0 0 0 0 0 0.4 0 "/><feOffset in="blurOut2" result="blurOut3" dx="4" dy="4"/><feBlend in="SourceGraphic" in2="blurOut3" mode="normal"/></filter></defs><g><path d="M16 6 44 6 51 29.6094 551 29.6094 551 399 16 399 16 6Z" stroke="#000000" stroke-width="1.5" fill="#FFFFFF" filter="url(#f1qbohqu0w5wip)"/><line x1="16" y1="29.6094" x2="51" y2="29.6094" stroke="#000000" stroke-width="1.5"/><text font-family="Arial" font-weight="700" font-size="14" x="20" y="22.5332">src</text><path d="M274 74 456 74 463 97.6094 503 97.6094 503 351 274 351 274 74Z" stroke="#000000" stroke-width="1.5" fill="#FFFFFF" filter="url(#f1qbohqu0w5wip)"/><line x1="274" y1="97.6094" x2="463" y2="97.6094" stroke="#000000" stroke-width="1.5"/><text font-family="Arial" font-weight="700" font-size="14" x="278" y="90.5332">main.java.com.sevenmap</text><path d="M64 98 240 98 247 121.609 250 121.609 250 323.5 64 323.5 64 98Z" stroke="#000000" stroke-width="1.5" fill="#FFFFFF" filter="url(#f1qbohqu0w5wip)"/><line x1="64" y1="121.609" x2="247" y2="121.609" stroke="#000000" stroke-width="1.5"/><text font-family="Arial" font-weight="700" font-size="14" x="68" y="114.533">test.java.com.sevenmap</text><path d="M399.5 134 448.5 134 455.5 157.609 462.5 157.609 462.5 189.219 399.5 189.219 399.5 134Z" stroke="#000000" stroke-width="1.5" fill="#FFFFFF" filter="url(#f1qbohqu0w5wip)"/><line x1="399.5" y1="157.609" x2="455.5" y2="157.609" stroke="#000000" stroke-width="1.5"/><text font-family="Arial" font-weight="700" font-size="14" x="403.5" y="150.533">spinel</text><path d="M314 134 350 134 357 157.609 364 157.609 364 189.219 314 189.219 314 134Z" stroke="#000000" stroke-width="1.5" fill="#FFFFFF" filter="url(#f1qbohqu0w5wip)"/><line x1="314" y1="157.609" x2="357" y2="157.609" stroke="#000000" stroke-width="1.5"/><text font-family="Arial" font-weight="700" font-size="14" x="318" y="150.533">data</text><rect x="404" y="249" width="56" height="61.8359" id="App" stroke="#A80036" stroke-width="1.5" fill="#FEFECE" filter="url(#f1qbohqu0w5wip)"/><ellipse cx="420.35" cy="265" rx="11" ry="11" stroke="#A80036" fill="#ADD1B2"/><path d="M423.116 260.875C423.22 260.729 423.334 260.62 423.459 260.547 423.584 260.474 423.72 260.438 423.866 260.438 424.116 260.438 424.319 260.526 424.475 260.703 424.631 260.87 424.709 261.156 424.709 261.562L424.709 263.016C424.709 263.422 424.631 263.714 424.475 263.891 424.319 264.068 424.116 264.156 423.866 264.156 423.636 264.156 423.454 264.089 423.319 263.953 423.183 263.828 423.079 263.594 423.006 263.25 422.975 263.01 422.897 262.828 422.772 262.703 422.553 262.453 422.241 262.255 421.834 262.109 421.428 261.964 421.017 261.891 420.6 261.891 420.09 261.891 419.621 262 419.194 262.219 418.777 262.438 418.402 262.797 418.069 263.297 417.746 263.797 417.584 264.391 417.584 265.078L417.584 266.172C417.584 266.995 417.881 267.682 418.475 268.234 419.069 268.776 419.897 269.047 420.959 269.047 421.584 269.047 422.116 268.964 422.553 268.797 422.814 268.693 423.084 268.495 423.366 268.203 423.543 268.026 423.678 267.911 423.772 267.859 423.876 267.807 423.996 267.781 424.131 267.781 424.35 267.781 424.543 267.87 424.709 268.047 424.886 268.214 424.975 268.411 424.975 268.641 424.975 268.87 424.86 269.12 424.631 269.391 424.298 269.776 423.866 270.078 423.334 270.297 422.616 270.599 421.824 270.75 420.959 270.75 419.949 270.75 419.043 270.542 418.241 270.125 417.584 269.792 417.027 269.271 416.569 268.562 416.11 267.844 415.881 267.057 415.881 266.203L415.881 265.047C415.881 264.161 416.084 263.339 416.491 262.578 416.907 261.807 417.48 261.219 418.209 260.812 418.939 260.396 419.715 260.188 420.538 260.188 421.027 260.188 421.485 260.245 421.913 260.359 422.35 260.464 422.751 260.635 423.116 260.875Z"/><text font-family="Arial" font-size="12" x="434.65" y="269.91">App</text><line x1="405" y1="281" x2="459" y2="281" stroke="#A80036" stroke-width="1.5"/><line x1="405" y1="289" x2="459" y2="289" stroke="#A80036" stroke-width="1.5"/><ellipse cx="415" cy="300" rx="3" ry="3" stroke="#038048" fill="#84BE84"/><text font-family="Arial" font-size="11" x="424" y="304.419">main()</text><path d="M317 252.5 355 252.5 362 276.109 369 276.109 369 307.719 317 307.719 317 252.5Z" stroke="#000000" stroke-width="1.5" fill="#FFFFFF" filter="url(#f1qbohqu0w5wip)"/><line x1="317" y1="276.109" x2="362" y2="276.109" stroke="#000000" stroke-width="1.5"/><text font-family="Arial" font-weight="700" font-size="14" x="321" y="269.033">core</text><path d="M167.5 134 216.5 134 223.5 157.609 230.5 157.609 230.5 189.219 167.5 189.219 167.5 134Z" stroke="#000000" stroke-width="1.5" fill="#FFFFFF" filter="url(#f1qbohqu0w5wip)"/><line x1="167.5" y1="157.609" x2="223.5" y2="157.609" stroke="#000000" stroke-width="1.5"/><text font-family="Arial" font-weight="700" font-size="14" x="171.5" y="150.533">spinel</text><path d="M82 134 118 134 125 157.609 132 157.609 132 189.219 82 189.219 82 134Z" stroke="#000000" stroke-width="1.5" fill="#FFFFFF" filter="url(#f1qbohqu0w5wip)"/><line x1="82" y1="157.609" x2="125" y2="157.609" stroke="#000000" stroke-width="1.5"/><text font-family="Arial" font-weight="700" font-size="14" x="86" y="150.533">data</text><path d="M82 252.5 120 252.5 127 276.109 134 276.109 134 307.719 82 307.719 82 252.5Z" stroke="#000000" stroke-width="1.5" fill="#FFFFFF" filter="url(#f1qbohqu0w5wip)"/><line x1="82" y1="276.109" x2="127" y2="276.109" stroke="#000000" stroke-width="1.5"/><text font-family="Arial" font-weight="700" font-size="14" x="86" y="269.033">core</text><path d="M407.72 193.31C393.84 211.7 376.38 234.81 363.1 252.4" id="spinel-backto-core" stroke="#A80036" fill="none"/><path d="M410.81 189.23 402.191 193.995 407.794 193.218 408.572 198.821 410.81 189.23Z" stroke="#A80036" fill="#A80036"/><path d="M340.09 194.24C340.72 212.47 341.49 235.11 342.09 252.4" id="data-backto-core" stroke="#A80036" fill="none"/><path d="M339.92 189.23 336.231 198.362 340.091 194.227 344.226 198.088 339.92 189.23Z" stroke="#A80036" fill="#A80036"/><path d="M374.26 280C384.16 280 394.07 280 403.98 280" id="core-backto-App" stroke="#A80036" fill="none"/><path d="M369.07 280 378.07 284 374.07 280 378.07 276 369.07 280Z" stroke="#A80036" fill="#A80036"/></g></svg>