<svg viewBox="0 0 230.8 210.4" xmlns="http://www.w3.org/2000/svg" xmlns:xlink="http://www.w3.org/1999/xlink" id="Calque_1" overflow="hidden"><path d="M49.3 32.7 49.3 191.2 203.4 32.7Z" stroke="#3CAA69" stroke-width="2" stroke-miterlimit="10" fill="#A2E0BB"/><path d="M54.9 201.7 43.7 201.7C40.9 201.7 38.8 199.6 38.8 196.8L38.8 185.7C38.8 182.9 40.9 180.8 43.7 180.8L54.8 180.8C57.6 180.8 59.7 182.9 59.7 185.7L59.7 196.8C59.7 199.6 57.6 201.7 54.9 201.7Z" fill="#27AE60"/><path d="M54.9 43.1 43.7 43.1C40.9 43.1 38.8 41 38.8 38.2L38.8 27.1C38.8 24.3 40.9 22.2 43.7 22.2L54.8 22.2C57.6 22.2 59.7 24.3 59.7 27.1L59.7 38.2C59.7 41 57.6 43.1 54.9 43.1Z" fill="#27AE60"/><path d="M208.9 43.1 197.8 43.1C195 43.1 192.9 41 192.9 38.2L192.9 27.1C192.9 24.3 195 22.2 197.8 22.2L208.9 22.2C211.7 22.2 213.8 24.3 213.8 27.1L213.8 38.2C213.8 41 211.7 43.1 208.9 43.1Z" fill="#27AE60"/></svg>