<svg width="679" height="228" viewBox="0 0 679 228" preserveAspectRatio="none" xmlns="http://www.w3.org/2000/svg" xmlns:xlink="http://www.w3.org/1999/xlink" overflow="hidden"><defs><filter id="f1r12n6axe7uov" x="-1" y="-1" width="300%" height="300%" filterUnits="objectBoundingBox" primitiveUnits="userSpaceOnUse"><feGaussianBlur result="blurOut" stdDeviation="2 2"/><feColorMatrix in="blurOut" result="blurOut2" type="matrix" values="0 0 0 0 0 0 0 0 0 0 0 0 0 0 0 0 0 0 0.4 0 "/><feOffset in="blurOut2" result="blurOut3" dx="4" dy="4"/><feBlend in="SourceGraphic" in2="blurOut3" mode="normal"/></filter></defs><g><path d="M160 6 209 6 216 29.6094 662 29.6094 662 221 160 221 160 6Z" stroke="#000000" stroke-width="1.5" fill="#FFFFFF" filter="url(#f1r12n6axe7uov)"/><line x1="160" y1="29.6094" x2="216" y2="29.6094" stroke="#000000" stroke-width="1.5"/><text font-family="Arial" font-weight="700" font-size="14" x="164" y="22.5332">spinel</text><path d="M16 121 85 121 92 144.609 136 144.609 136 221 16 221 16 121Z" stroke="#000000" stroke-width="1.5" fill="#FFFFFF" filter="url(#f1r12n6axe7uov)"/><line x1="16" y1="144.609" x2="92" y2="144.609" stroke="#000000" stroke-width="1.5"/><text font-family="Arial" font-weight="700" font-size="14" x="20" y="137.533">java.lang</text><rect x="570" y="157" width="76" height="48" id="Window" stroke="#A80036" stroke-width="1.5" fill="#FEFECE" filter="url(#f1r12n6axe7uov)"/><ellipse cx="585" cy="173" rx="11" ry="11" stroke="#A80036" fill="#ADD1B2"/><path d="M587.766 168.875C587.87 168.729 587.984 168.62 588.109 168.547 588.234 168.474 588.37 168.438 588.516 168.438 588.766 168.438 588.969 168.526 589.125 168.703 589.281 168.87 589.359 169.156 589.359 169.562L589.359 171.016C589.359 171.422 589.281 171.714 589.125 171.891 588.969 172.068 588.766 172.156 588.516 172.156 588.286 172.156 588.104 172.089 587.969 171.953 587.833 171.828 587.729 171.594 587.656 171.25 587.625 171.01 587.547 170.828 587.422 170.703 587.203 170.453 586.891 170.255 586.484 170.109 586.078 169.964 585.667 169.891 585.25 169.891 584.74 169.891 584.271 170 583.844 170.219 583.427 170.438 583.052 170.797 582.719 171.297 582.396 171.797 582.234 172.391 582.234 173.078L582.234 174.172C582.234 174.995 582.531 175.682 583.125 176.234 583.719 176.776 584.547 177.047 585.609 177.047 586.234 177.047 586.766 176.964 587.203 176.797 587.464 176.693 587.734 176.495 588.016 176.203 588.193 176.026 588.328 175.911 588.422 175.859 588.526 175.807 588.646 175.781 588.781 175.781 589 175.781 589.193 175.87 589.359 176.047 589.536 176.214 589.625 176.411 589.625 176.641 589.625 176.87 589.51 177.12 589.281 177.391 588.948 177.776 588.516 178.078 587.984 178.297 587.266 178.599 586.474 178.75 585.609 178.75 584.599 178.75 583.693 178.542 582.891 178.125 582.234 177.792 581.677 177.271 581.219 176.562 580.76 175.844 580.531 175.057 580.531 174.203L580.531 173.047C580.531 172.161 580.734 171.339 581.141 170.578 581.557 169.807 582.13 169.219 582.859 168.812 583.589 168.396 584.365 168.188 585.188 168.188 585.677 168.188 586.135 168.245 586.562 168.359 587 168.464 587.401 168.635 587.766 168.875Z"/><text font-family="Arial" font-size="12" x="599" y="177.91">Window</text><line x1="571" y1="189" x2="645" y2="189" stroke="#A80036" stroke-width="1.5"/><line x1="571" y1="197" x2="645" y2="197" stroke="#A80036" stroke-width="1.5"/><rect x="475.5" y="157" width="59" height="48" id="Input" stroke="#A80036" stroke-width="1.5" fill="#FEFECE" filter="url(#f1r12n6axe7uov)"/><ellipse cx="490.5" cy="173" rx="11" ry="11" stroke="#A80036" fill="#ADD1B2"/><path d="M493.266 168.875C493.37 168.729 493.484 168.62 493.609 168.547 493.734 168.474 493.87 168.438 494.016 168.438 494.266 168.438 494.469 168.526 494.625 168.703 494.781 168.87 494.859 169.156 494.859 169.562L494.859 171.016C494.859 171.422 494.781 171.714 494.625 171.891 494.469 172.068 494.266 172.156 494.016 172.156 493.786 172.156 493.604 172.089 493.469 171.953 493.333 171.828 493.229 171.594 493.156 171.25 493.125 171.01 493.047 170.828 492.922 170.703 492.703 170.453 492.391 170.255 491.984 170.109 491.578 169.964 491.167 169.891 490.75 169.891 490.24 169.891 489.771 170 489.344 170.219 488.927 170.438 488.552 170.797 488.219 171.297 487.896 171.797 487.734 172.391 487.734 173.078L487.734 174.172C487.734 174.995 488.031 175.682 488.625 176.234 489.219 176.776 490.047 177.047 491.109 177.047 491.734 177.047 492.266 176.964 492.703 176.797 492.964 176.693 493.234 176.495 493.516 176.203 493.693 176.026 493.828 175.911 493.922 175.859 494.026 175.807 494.146 175.781 494.281 175.781 494.5 175.781 494.693 175.87 494.859 176.047 495.036 176.214 495.125 176.411 495.125 176.641 495.125 176.87 495.01 177.12 494.781 177.391 494.448 177.776 494.016 178.078 493.484 178.297 492.766 178.599 491.974 178.75 491.109 178.75 490.099 178.75 489.193 178.542 488.391 178.125 487.734 177.792 487.177 177.271 486.719 176.562 486.26 175.844 486.031 175.057 486.031 174.203L486.031 173.047C486.031 172.161 486.234 171.339 486.641 170.578 487.057 169.807 487.63 169.219 488.359 168.812 489.089 168.396 489.865 168.188 490.688 168.188 491.177 168.188 491.635 168.245 492.062 168.359 492.5 168.464 492.901 168.635 493.266 168.875Z"/><text font-family="Arial" font-size="12" x="504.5" y="177.91">Input</text><line x1="476.5" y1="189" x2="533.5" y2="189" stroke="#A80036" stroke-width="1.5"/><line x1="476.5" y1="197" x2="533.5" y2="197" stroke="#A80036" stroke-width="1.5"/><rect x="271.5" y="157" width="71" height="48" id="Engine" stroke="#A80036" stroke-width="1.5" fill="#FEFECE" filter="url(#f1r12n6axe7uov)"/><ellipse cx="286.5" cy="173" rx="11" ry="11" stroke="#A80036" fill="#ADD1B2"/><path d="M289.266 168.875C289.37 168.729 289.484 168.62 289.609 168.547 289.734 168.474 289.87 168.438 290.016 168.438 290.266 168.438 290.469 168.526 290.625 168.703 290.781 168.87 290.859 169.156 290.859 169.562L290.859 171.016C290.859 171.422 290.781 171.714 290.625 171.891 290.469 172.068 290.266 172.156 290.016 172.156 289.786 172.156 289.604 172.089 289.469 171.953 289.333 171.828 289.229 171.594 289.156 171.25 289.125 171.01 289.047 170.828 288.922 170.703 288.703 170.453 288.391 170.255 287.984 170.109 287.578 169.964 287.167 169.891 286.75 169.891 286.24 169.891 285.771 170 285.344 170.219 284.927 170.438 284.552 170.797 284.219 171.297 283.896 171.797 283.734 172.391 283.734 173.078L283.734 174.172C283.734 174.995 284.031 175.682 284.625 176.234 285.219 176.776 286.047 177.047 287.109 177.047 287.734 177.047 288.266 176.964 288.703 176.797 288.964 176.693 289.234 176.495 289.516 176.203 289.693 176.026 289.828 175.911 289.922 175.859 290.026 175.807 290.146 175.781 290.281 175.781 290.5 175.781 290.693 175.87 290.859 176.047 291.036 176.214 291.125 176.411 291.125 176.641 291.125 176.87 291.01 177.12 290.781 177.391 290.448 177.776 290.016 178.078 289.484 178.297 288.766 178.599 287.974 178.75 287.109 178.75 286.099 178.75 285.193 178.542 284.391 178.125 283.734 177.792 283.177 177.271 282.719 176.562 282.26 175.844 282.031 175.057 282.031 174.203L282.031 173.047C282.031 172.161 282.234 171.339 282.641 170.578 283.057 169.807 283.63 169.219 284.359 168.812 285.089 168.396 285.865 168.188 286.688 168.188 287.177 168.188 287.635 168.245 288.062 168.359 288.5 168.464 288.901 168.635 289.266 168.875Z"/><text font-family="Arial" font-size="12" x="300.5" y="177.91">Engine</text><line x1="272.5" y1="189" x2="341.5" y2="189" stroke="#A80036" stroke-width="1.5"/><line x1="272.5" y1="197" x2="341.5" y2="197" stroke="#A80036" stroke-width="1.5"/><path d="M596 42 632 42 639 65.6094 646 65.6094 646 97.2188 596 97.2188 596 42Z" stroke="#000000" stroke-width="1.5" fill="#FFFFFF" filter="url(#f1r12n6axe7uov)"/><line x1="596" y1="65.6094" x2="639" y2="65.6094" stroke="#000000" stroke-width="1.5"/><text font-family="Arial" font-weight="700" font-size="14" x="600" y="58.5332">utils</text><path d="M463 42 547 42 554 65.6094 561 65.6094 561 97.2188 463 97.2188 463 42Z" stroke="#000000" stroke-width="1.5" fill="#FFFFFF" filter="url(#f1r12n6axe7uov)"/><line x1="463" y1="65.6094" x2="554" y2="65.6094" stroke="#000000" stroke-width="1.5"/><text font-family="Arial" font-weight="700" font-size="14" x="467" y="58.5332">scheduling</text><path d="M374 42 414 42 421 65.6094 428 65.6094 428 97.2188 374 97.2188 374 42Z" stroke="#000000" stroke-width="1.5" fill="#FFFFFF" filter="url(#f1r12n6axe7uov)"/><line x1="374" y1="65.6094" x2="421" y2="65.6094" stroke="#000000" stroke-width="1.5"/><text font-family="Arial" font-weight="700" font-size="14" x="378" y="58.5332">math</text><path d="M297 42 325 42 332 65.6094 339 65.6094 339 97.2188 297 97.2188 297 42Z" stroke="#000000" stroke-width="1.5" fill="#FFFFFF" filter="url(#f1r12n6axe7uov)"/><line x1="297" y1="65.6094" x2="332" y2="65.6094" stroke="#000000" stroke-width="1.5"/><text font-family="Arial" font-weight="700" font-size="14" x="301" y="58.5332">gfx</text><path d="M176.5 42 247.5 42 254.5 65.6094 261.5 65.6094 261.5 97.2188 176.5 97.2188 176.5 42Z" stroke="#000000" stroke-width="1.5" fill="#FFFFFF" filter="url(#f1r12n6axe7uov)"/><line x1="176.5" y1="65.6094" x2="254.5" y2="65.6094" stroke="#000000" stroke-width="1.5"/><text font-family="Arial" font-weight="700" font-size="14" x="180.5" y="58.5332">elements</text><rect x="32.5" y="157" width="87" height="48" id="Runnable" stroke="#A80036" stroke-width="1.5" fill="#FEFECE" filter="url(#f1r12n6axe7uov)"/><ellipse cx="47.5" cy="173" rx="11" ry="11" stroke="#A80036" fill="#B4A7E5"/><path d="M48.4531 169.641 48.4531 176.297 50.1719 176.297C50.5782 176.297 50.8698 176.375 51.0469 176.531 51.224 176.688 51.3125 176.896 51.3125 177.156 51.3125 177.406 51.224 177.609 51.0469 177.766 50.8698 177.922 50.5782 178 50.1719 178L45.0313 178C44.625 178 44.3334 177.922 44.1563 177.766 43.9792 177.609 43.8906 177.401 43.8906 177.141 43.8906 176.891 43.9792 176.688 44.1563 176.531 44.3334 176.375 44.625 176.297 45.0313 176.297L46.75 176.297 46.75 169.641 45.0313 169.641C44.625 169.641 44.3334 169.562 44.1563 169.406 43.9792 169.25 43.8906 169.042 43.8906 168.781 43.8906 168.531 43.9792 168.328 44.1563 168.172 44.3334 168.016 44.625 167.938 45.0313 167.938L50.1719 167.938C50.5782 167.938 50.8698 168.016 51.0469 168.172 51.224 168.328 51.3125 168.531 51.3125 168.781 51.3125 169.042 51.224 169.25 51.0469 169.406 50.8698 169.562 50.5782 169.641 50.1719 169.641L48.4531 169.641Z"/><text font-family="Arial" font-style="italic" font-size="12" x="61.5" y="177.91">Runnable</text><line x1="33.5" y1="189" x2="118.5" y2="189" stroke="#A80036" stroke-width="1.5"/><line x1="33.5" y1="197" x2="118.5" y2="197" stroke="#A80036" stroke-width="1.5"/><path d="M139.87 181C183.63 181 227.4 181 271.16 181" id="Runnable-backto-Engine" stroke="#A80036" stroke-dasharray="7 7" fill="none"/><path d="M139.76 188 119.76 181 139.76 174 139.76 188Z" stroke="#A80036" fill="none"/></g></svg>