<svg viewBox="0 0 1389.7 579.3" xmlns="http://www.w3.org/2000/svg" xmlns:xlink="http://www.w3.org/1999/xlink" id="Layer_1" overflow="hidden"><g><path d="M528.5 515.2 596.5 447.2C605.9 437.8 618.6 432.6 631.9 432.6L1050.3 432.6C1063.6 432.6 1076.3 437.9 1085.7 447.2L1154.2 515.7" stroke="#2ECC71" stroke-width="23" stroke-linecap="round" fill="none"/><circle cx="702.7" cy="432.6" r="19.6" stroke="#2ECC71" stroke-width="9" stroke-linecap="round" fill="#FFFFFF"/><circle cx="841.3" cy="432.6" r="19.6" stroke="#2ECC71" stroke-width="9" stroke-linecap="round" fill="#FFFFFF"/><circle cx="979.9" cy="432.6" r="19.6" stroke="#2ECC71" stroke-width="9" stroke-linecap="round" fill="#FFFFFF"/></g><line x1="57.6" y1="515.2" x2="1362.5" y2="515.2" stroke="#3498DB" stroke-width="23" stroke-linecap="round" fill="none"/><g><path d="M454.1 514.1 500.3 316.3C507.9 297.3 526.3 284.8 546.7 284.8L977.5 284.8C999.2 284.8 1018.4 298.8 1025.1 319.4L1061.5 515.7" stroke="#8E44AD" stroke-width="23" stroke-linecap="round" fill="none"/><circle cx="583.5" cy="284.9" r="19.6" stroke="#8E44AD" stroke-width="9" stroke-linecap="round" fill="#FFFFFF"/><circle cx="696.5" cy="284.9" r="19.6" stroke="#8E44AD" stroke-width="9" stroke-linecap="round" fill="#FFFFFF"/><circle cx="809.5" cy="284.9" r="19.6" stroke="#8E44AD" stroke-width="9" stroke-linecap="round" fill="#FFFFFF"/><circle cx="922.6" cy="284.9" r="19.6" stroke="#8E44AD" stroke-width="9" stroke-linecap="round" fill="#FFFFFF"/></g><g><path d="M281.7 514.1 322.4 210.7C327.7 188.1 347.9 172.2 371.1 172.2L1133.1 172.2C1156.9 172.2 1177.3 188.9 1182.1 212.2L1218.6 515.3" stroke="#E74C3C" stroke-width="23" stroke-linecap="round" fill="none"/><circle cx="407.6" cy="172.2" r="19.6" stroke="#E74C3C" stroke-width="9" stroke-linecap="round" fill="#FFFFFF"/><circle cx="572.9" cy="172.2" r="19.6" stroke="#E74C3C" stroke-width="9" stroke-linecap="round" fill="#FFFFFF"/><circle cx="738.2" cy="172.2" r="19.6" stroke="#E74C3C" stroke-width="9" stroke-linecap="round" fill="#FFFFFF"/><circle cx="903.5" cy="172.2" r="19.6" stroke="#E74C3C" stroke-width="9" stroke-linecap="round" fill="#FFFFFF"/><circle cx="1068.8" cy="172.2" r="19.6" stroke="#E74C3C" stroke-width="9" stroke-linecap="round" fill="#FFFFFF"/></g><circle cx="281.7" cy="514.1" r="19.6" stroke="#3498DB" stroke-width="9" stroke-linecap="round" fill="#FFFFFF"/><circle cx="454.1" cy="515.8" r="19.6" stroke="#3498DB" stroke-width="9" stroke-linecap="round" fill="#FFFFFF"/><circle cx="537" cy="515.8" r="19.6" stroke="#3498DB" stroke-width="9" stroke-linecap="round" fill="#FFFFFF"/><circle cx="1061.5" cy="515.8" r="19.6" stroke="#3498DB" stroke-width="9" stroke-linecap="round" fill="#FFFFFF"/><circle cx="1152.2" cy="515.8" r="19.6" stroke="#3498DB" stroke-width="9" stroke-linecap="round" fill="#FFFFFF"/><circle cx="1218.6" cy="514.1" r="19.6" stroke="#3498DB" stroke-width="9" stroke-linecap="round" fill="#FFFFFF"/><g><g><path d="M59.9 496.2 59.9 470.3 65.8 470.3 66.4 475.8 66.4 496.2 59.9 496.2ZM69.9 496.2 69.9 478.2C69.9 476.7 69.4 476 68.3 476 67.1 476 66.4 477 66.4 478.9L64.9 473.6 66.8 473.6C67.2 471.1 68.5 469.9 70.7 469.9 72 469.9 72.9 470.4 73.7 471.3 74.4 472.2 74.8 473.6 74.8 475.5L74.8 496.3 69.9 496.3ZM78.1 496.2 78.1 478.7C78.1 476.9 77.6 476 76.5 476 75.3 476 74.7 477 74.7 478.9L72.9 473.6 75.1 473.6C75.2 472.4 75.7 471.5 76.5 470.9 77.3 470.2 78.3 469.9 79.5 469.9 81.2 469.9 82.5 470.4 83.3 471.3 84.1 472.3 84.5 473.8 84.5 476L84.5 496.3 78.1 496.3Z" fill="#3498DB"/><path d="M97.6 496.7C94.8 496.7 92.7 496 91.2 494.7 89.7 493.3 88.9 491.4 88.9 488.9 88.9 486 89.9 483.8 91.9 482.2 93.9 480.7 96.7 479.9 100.4 479.9 101.8 479.9 103 480 104.1 480.1 105.1 480.2 106.2 480.5 107.2 480.8L106.1 486C105.1 485.8 104.1 485.6 103.3 485.6 102.5 485.6 101.6 485.5 100.7 485.5 97.3 485.5 95.6 486.5 95.6 488.4 95.6 489.3 95.9 489.9 96.5 490.4 97.1 490.9 98 491.1 99.2 491.1 100.6 491.1 101.8 490.8 102.8 490.3 103.8 489.8 104.5 489.1 105 488.2 105.5 487.4 105.7 486.5 105.7 485.6L105.7 484 106.6 490.6 104.5 490.6 105.4 489.8C105.4 491.3 105 492.5 104.4 493.5 103.8 494.5 102.9 495.2 101.7 495.7 100.5 496.4 99.1 496.7 97.6 496.7ZM106.3 496.4 105.7 488.7 105.6 485.3 105.6 480.2C105.6 478.8 105 477.8 103.8 477.2 102.6 476.6 100.9 476.2 98.5 476.1L91.9 475.9 92.4 469.9 98 470C102.7 470.1 106.2 471 108.4 472.8 110.7 474.6 111.8 477.2 111.8 480.6L111.8 490.2 115.4 490.7 115.4 496.1 106.3 496.4Z" fill="#3498DB"/><path d="M119.7 496.2 119.7 490.1 129.8 490.1 129.8 496.2 119.7 496.2ZM121.2 476.4 121.2 470.3 135.9 470.3 135.9 476.4 121.2 476.4ZM132.3 466.8C131 466.8 130 466.4 129.2 465.6 128.4 464.8 128 463.8 128 462.5 128 461.2 128.4 460.2 129.2 459.4 130 458.6 131 458.2 132.3 458.2 133.6 458.2 134.6 458.6 135.4 459.4 136.2 460.2 136.6 461.2 136.6 462.5 136.6 463.8 136.2 464.8 135.4 465.6 134.6 466.4 133.5 466.8 132.3 466.8ZM129.3 496.2 129.3 471.8 135.9 471.8 135.9 496.2 129.3 496.2ZM135.4 496.2 135.4 490.1 143.6 490.1 143.6 496.2 135.4 496.2Z" fill="#3498DB"/><path d="M149.2 496.2 149.2 470.3 155.1 470.3 155.8 475.8 155.8 496.2 149.2 496.2ZM164.5 496.2 164.5 481C164.5 479.4 164.2 478.2 163.5 477.4 162.9 476.6 161.9 476.1 160.8 476.1 157.5 476.1 155.8 478.5 155.8 483.3L154.3 475 156.4 475C156.6 473.3 157.2 472 158.2 471.1 159.1 470.2 160.6 469.8 162.5 469.8 165.2 469.8 167.3 470.6 168.8 472.3 170.3 474 171 476.3 171 479.3L171 496.1 164.5 496.1Z" fill="#3498DB"/></g></g><g><g><path d="M309.2 106.8 309.2 100.7 317 100.7 317 106.8 309.2 106.8ZM325.8 137.8C322.5 137.8 320.2 136.9 318.8 135.1 317.4 133.3 316.6 130.4 316.6 126.5L316.6 100.7 323.2 100.7 323.2 126.3C323.2 127.4 323.3 128.3 323.5 128.9 323.7 129.6 324.2 130.1 324.8 130.4 325.5 130.7 326.4 130.9 327.7 130.9 329.1 130.9 330.9 130.6 333.1 130L333.9 136.8C332.5 137.2 331.2 137.4 329.9 137.6 328.6 137.7 327.2 137.8 325.8 137.8Z" fill="#E74C3C"/><path d="M351.2 137.8C347.5 137.8 344.6 136.6 342.5 134.3 340.4 132 339.4 128.7 339.4 124.4 339.4 120.1 340.4 116.8 342.5 114.5 344.6 112.2 347.4 111 351.2 111 354.9 111 357.8 112.2 359.9 114.5 362 116.8 363 120.1 363 124.4 363 128.7 362 132 359.9 134.3 357.8 136.6 354.9 137.8 351.2 137.8ZM351.2 131.6C352.7 131.6 353.9 131 354.7 129.7 355.5 128.5 355.9 126.7 355.9 124.4 355.9 122.1 355.5 120.3 354.7 119.1 353.9 117.9 352.7 117.2 351.2 117.2 349.7 117.2 348.5 117.8 347.7 119.1 346.9 120.3 346.5 122.1 346.5 124.4 346.5 126.7 346.9 128.4 347.7 129.7 348.5 130.9 349.7 131.6 351.2 131.6Z" fill="#E74C3C"/><path d="M377.9 137.8C374.7 137.8 372.2 136.6 370.4 134.3 368.6 132 367.7 128.7 367.7 124.4 367.7 120.1 368.6 116.8 370.4 114.5 372.2 112.2 374.7 111 377.9 111 379.9 111 381.4 111.4 382.4 112.3 383.4 113.2 384.1 114.5 384.4 116.2L386.3 116.2 384.8 124.5C384.8 122 384.4 120.2 383.5 119 382.7 117.8 381.4 117.3 379.7 117.3 378.1 117.3 376.8 117.9 376 119.2 375.1 120.5 374.7 122.2 374.7 124.5 374.7 126.9 375.1 128.7 376 129.9 376.9 131.1 378.1 131.7 379.8 131.7 381.7 131.7 383 131.1 383.7 130 384.4 128.9 384.8 127 384.8 124.5L386.6 132.7 384.3 132.7C384 134.4 383.4 135.7 382.3 136.6 381.2 137.4 379.7 137.8 377.9 137.8ZM370.3 149 370.1 143.2 378.4 143C380.7 142.9 382.3 142.3 383.4 141.1 384.4 139.9 384.9 138.1 384.9 135.8L384.9 116.9 385.4 111.4 391.5 111.4 391.5 135C391.5 139.6 390.4 143 388.3 145.2 386.1 147.4 382.7 148.6 377.9 148.7L370.3 149Z" fill="#E74C3C"/><path d="M407.2 137.8C404 137.8 401.5 136.6 399.7 134.3 397.9 132 397 128.7 397 124.4 397 120.1 397.9 116.8 399.7 114.5 401.5 112.2 404 111 407.2 111 409.2 111 410.7 111.4 411.7 112.3 412.7 113.2 413.4 114.5 413.7 116.2L415.6 116.2 414.1 124.5C414.1 122 413.7 120.2 412.8 119 412 117.8 410.7 117.3 409 117.3 407.4 117.3 406.1 117.9 405.3 119.2 404.4 120.5 404 122.2 404 124.5 404 126.9 404.4 128.7 405.3 129.9 406.2 131.1 407.4 131.7 409.1 131.7 411 131.7 412.3 131.1 413 130 413.7 128.9 414.1 127 414.1 124.5L415.9 132.7 413.6 132.7C413.3 134.4 412.7 135.7 411.6 136.6 410.5 137.4 409 137.8 407.2 137.8ZM399.6 149 399.4 143.2 407.7 143C410 142.9 411.6 142.3 412.7 141.1 413.7 139.9 414.2 138.1 414.2 135.8L414.2 116.9 414.7 111.4 420.8 111.4 420.8 135C420.8 139.6 419.7 143 417.6 145.2 415.4 147.4 412 148.6 407.2 148.7L399.6 149Z" fill="#E74C3C"/><path d="M441.4 137.8C436.9 137.8 433.5 136.6 431 134.3 428.6 132 427.3 128.6 427.3 124.3 427.3 120.1 428.3 116.8 430.4 114.4 432.5 112.1 435.4 110.9 439.2 110.9 442.9 110.9 445.8 112 447.8 114.1 449.8 116.3 450.8 119.4 450.8 123.5 450.8 124.7 450.8 125.8 450.7 126.8L431.7 126.8 431.7 122.2 444.3 122.2C444.3 120.5 443.9 119.1 443 118.2 442.1 117.3 440.9 116.8 439.3 116.8 437.6 116.8 436.2 117.4 435.3 118.6 434.3 119.8 433.9 121.6 433.9 123.8 433.9 126.2 434.6 128.1 436 129.4 437.4 130.7 439.4 131.3 442 131.3 443.2 131.3 444.3 131.2 445.5 131.1 446.6 131 447.8 130.8 449 130.6L449.6 136.8C447.9 137.1 446.4 137.3 445.1 137.4 443.6 137.8 442.4 137.8 441.4 137.8Z" fill="#E74C3C"/><path d="M455.3 137.3 455.3 131.6 473.4 131.6 473.4 137.3 455.3 137.3ZM456.2 117.1 456.2 111.4 466 111.4 466.5 117.1 456.2 117.1ZM460.7 137.3 460.7 111.4 466.3 111.4 467.3 118.8 467.3 137.3 460.7 137.3ZM467.3 126.2 465.8 117.3 468 117.3C468.3 113.1 470.5 111 474.6 111 477.1 111 478.9 111.9 480.3 113.7 481.6 115.5 482.3 118.1 482.3 121.5L475.7 121.5C475.7 120 475.4 118.9 474.9 118.2 474.3 117.5 473.4 117.2 472.2 117.2 470.6 117.2 469.4 118 468.6 119.5 467.7 121.1 467.3 123.3 467.3 126.2Z" fill="#E74C3C"/></g></g><g><g><path d="M521.1 250.5C519.1 250.5 517.4 250.4 515.9 250.3 514.4 250.2 513 250 511.9 249.8L512.7 243.5C514.8 243.8 516.5 244 517.9 244.1 519.3 244.2 520.4 244.3 521.2 244.3 523.3 244.3 524.9 244.1 525.8 243.8 526.8 243.5 527.2 243 527.2 242.3 527.2 241.9 527.1 241.6 526.8 241.4 526.6 241.2 526.2 241 525.6 240.8L517.4 238.4C515.7 237.9 514.4 237.1 513.5 236.1 512.6 235.1 512.2 233.7 512.2 231.9 512.2 229.1 513.4 227 515.7 225.7 518 224.3 521.6 223.7 526.4 223.7 527.5 223.7 528.7 223.7 529.9 223.8 531.1 223.9 532.4 224 533.7 224.2L533 230.3C531.5 230.2 530.2 230.1 529.1 230 528 230 527.1 229.9 526.3 229.9 523.8 229.9 522.1 230 520.9 230.3 519.8 230.6 519.2 231.1 519.2 231.7 519.2 232.1 519.3 232.4 519.6 232.6 519.8 232.8 520.2 233 520.7 233.1L527.7 235.1C529.9 235.7 531.6 236.6 532.7 237.7 533.8 238.8 534.3 240.3 534.3 242.2 534.3 245 533.2 247 531 248.3 528.9 249.8 525.6 250.5 521.1 250.5Z" fill="#8E44AD"/><path d="M539.8 235.6 539.8 229.7 565 229.7 565 235.6 539.8 235.6Z" fill="#8E44AD"/><path d="M570.5 250 570.5 243.9 580.6 243.9 580.6 250 570.5 250ZM572 230.2 572 224.1 586.7 224.1 586.7 230.2 572 230.2ZM583.1 220.6C581.8 220.6 580.8 220.2 580 219.4 579.2 218.6 578.8 217.6 578.8 216.3 578.8 215 579.2 214 580 213.2 580.8 212.4 581.8 212 583.1 212 584.4 212 585.4 212.4 586.2 213.2 587 214 587.4 215 587.4 216.3 587.4 217.6 587 218.6 586.2 219.4 585.4 220.2 584.4 220.6 583.1 220.6ZM580.1 250 580.1 225.6 586.7 225.6 586.7 250 580.1 250ZM586.2 250 586.2 243.9 594.4 243.9 594.4 250 586.2 250Z" fill="#8E44AD"/><path d="M598.7 250 598.7 224.1 604.6 224.1 605.2 229.6 605.2 250 598.7 250ZM608.6 250 608.6 232C608.6 230.5 608.1 229.8 607 229.8 605.8 229.8 605.1 230.8 605.1 232.7L603.6 227.4 605.5 227.4C605.9 224.9 607.2 223.7 609.4 223.7 610.7 223.7 611.6 224.2 612.4 225.1 613.1 226 613.5 227.4 613.5 229.3L613.5 250 608.6 250ZM616.8 250 616.8 232.5C616.8 230.7 616.3 229.8 615.2 229.8 614 229.8 613.4 230.8 613.4 232.7L611.6 227.4 613.8 227.4C613.9 226.2 614.4 225.3 615.2 224.7 616 224 617 223.7 618.2 223.7 619.9 223.7 621.2 224.2 622 225.1 622.8 226.1 623.2 227.6 623.2 229.8L623.2 250 616.8 250Z" fill="#8E44AD"/><path d="M629.3 261.2 629.3 224.1 635.4 224.1 635.9 229.6 635.9 261.2 629.3 261.2ZM642.9 250.5C641.1 250.5 639.6 250.1 638.6 249.2 637.5 248.3 636.8 247 636.6 245.3L634.3 245.3 636.1 237.1C636.1 239.6 636.5 241.4 637.2 242.6 637.9 243.7 639.3 244.3 641.1 244.3 642.8 244.3 644 243.7 644.9 242.5 645.8 241.3 646.2 239.5 646.2 237.1 646.2 234.8 645.8 233 644.9 231.8 644 230.5 642.8 229.9 641.2 229.9 639.5 229.9 638.3 230.5 637.4 231.6 636.6 232.8 636.1 234.6 636.1 237.1L634.6 228.8 636.5 228.8C636.8 227.1 637.5 225.8 638.5 224.9 639.5 224 641 223.6 643 223.6 646.2 223.6 648.7 224.8 650.5 227.1 652.3 229.4 653.2 232.8 653.2 237 653.2 241.3 652.3 244.6 650.5 246.9 648.6 249.3 646.1 250.5 642.9 250.5Z" fill="#8E44AD"/><path d="M656.9 219.5 656.9 213.4 664.7 213.4 664.7 219.5 656.9 219.5ZM673.5 250.5C670.2 250.5 667.9 249.6 666.5 247.8 665.1 246 664.3 243.1 664.3 239.2L664.3 213.4 670.9 213.4 670.9 239C670.9 240.1 671 241 671.2 241.6 671.4 242.3 671.9 242.8 672.5 243.1 673.2 243.4 674.1 243.6 675.4 243.6 676.8 243.6 678.6 243.3 680.8 242.7L681.6 249.5C680.2 249.9 678.9 250.1 677.6 250.3 676.3 250.4 674.9 250.5 673.5 250.5Z" fill="#8E44AD"/><path d="M701.2 250.5C696.7 250.5 693.3 249.3 690.8 247 688.4 244.7 687.1 241.3 687.1 237 687.1 232.8 688.1 229.5 690.2 227.1 692.3 224.8 695.2 223.6 699 223.6 702.7 223.6 705.6 224.7 707.6 226.8 709.6 229 710.6 232.1 710.6 236.2 710.6 237.4 710.6 238.5 710.5 239.5L691.5 239.5 691.5 234.9 704.1 234.9C704.1 233.2 703.7 231.8 702.8 230.9 701.9 230 700.7 229.5 699.1 229.5 697.4 229.5 696 230.1 695.1 231.3 694.1 232.5 693.7 234.3 693.7 236.5 693.7 238.9 694.4 240.8 695.8 242.1 697.2 243.4 699.2 244 701.8 244 703 244 704.1 243.9 705.3 243.8 706.4 243.7 707.6 243.5 708.8 243.3L709.4 249.5C707.7 249.8 706.2 250 704.9 250.1 703.5 250.4 702.2 250.5 701.2 250.5Z" fill="#8E44AD"/><path d="M715.9 250 715.9 224.1 721.8 224.1 722.4 229.6 722.4 250 715.9 250ZM725.8 250 725.8 232C725.8 230.5 725.3 229.8 724.2 229.8 723 229.8 722.3 230.8 722.3 232.7L720.8 227.4 722.7 227.4C723.1 224.9 724.4 223.7 726.6 223.7 727.9 223.7 728.8 224.2 729.6 225.1 730.3 226 730.7 227.4 730.7 229.3L730.7 250 725.8 250ZM734 250 734 232.5C734 230.7 733.5 229.8 732.4 229.8 731.2 229.8 730.6 230.8 730.6 232.7L728.8 227.4 731 227.4C731.1 226.2 731.6 225.3 732.4 224.7 733.2 224 734.2 223.7 735.4 223.7 737.1 223.7 738.4 224.2 739.2 225.1 740 226.1 740.4 227.6 740.4 229.8L740.4 250 734 250Z" fill="#8E44AD"/><path d="M759.8 250.5C755.3 250.5 751.9 249.3 749.4 247 747 244.7 745.7 241.3 745.7 237 745.7 232.8 746.7 229.5 748.8 227.1 750.9 224.8 753.8 223.6 757.6 223.6 761.3 223.6 764.2 224.7 766.2 226.8 768.2 229 769.2 232.1 769.2 236.2 769.2 237.4 769.2 238.5 769.1 239.5L750.1 239.5 750.1 234.9 762.7 234.9C762.7 233.2 762.3 231.8 761.4 230.9 760.5 230 759.3 229.5 757.7 229.5 756 229.5 754.6 230.1 753.7 231.3 752.7 232.5 752.3 234.3 752.3 236.5 752.3 238.9 753 240.8 754.4 242.1 755.8 243.4 757.8 244 760.4 244 761.6 244 762.7 243.9 763.9 243.8 765 243.7 766.2 243.5 767.4 243.3L768 249.5C766.3 249.8 764.8 250 763.5 250.1 762 250.4 760.8 250.5 759.8 250.5Z" fill="#8E44AD"/><path d="M775.8 250 775.8 224.1 781.7 224.1 782.4 229.6 782.4 250 775.8 250ZM791.1 250 791.1 234.8C791.1 233.2 790.8 232 790.1 231.2 789.5 230.4 788.5 229.9 787.4 229.9 784.1 229.9 782.4 232.3 782.4 237.1L780.9 228.8 783 228.8C783.2 227.1 783.8 225.8 784.8 224.9 785.7 224 787.2 223.6 789.1 223.6 791.8 223.6 793.9 224.4 795.4 226.1 796.9 227.8 797.6 230.1 797.6 233.1L797.6 250 791.1 250Z" fill="#8E44AD"/><path d="M802.7 230.2 802.7 224.1 827 224.1 827 230.2 802.7 230.2ZM808.9 237.4 808.9 216.3 815.5 216.3 815.5 237.4 808.9 237.4ZM821.6 250.5C817.1 250.5 813.9 249.6 811.9 247.8 809.9 246 808.9 243.1 808.9 239.2L808.9 235.8 815.5 235.8 815.5 238.5C815.5 240.5 816 241.9 817 242.8 818 243.7 819.7 244.1 822 244.1 822.7 244.1 823.5 244.1 824.4 244 825.3 243.9 826.2 243.8 827.3 243.6L827.9 249.8C826.8 250 825.8 250.1 824.8 250.2 823.8 250.4 822.7 250.5 821.6 250.5Z" fill="#8E44AD"/><path d="M832.8 235.6 832.8 229.7 858 229.7 858 235.6 832.8 235.6Z" fill="#8E44AD"/><path d="M872.1 250.5C868.9 250.5 866.4 249.3 864.6 247 862.8 244.7 861.9 241.4 861.9 237.1 861.9 232.8 862.8 229.5 864.6 227.2 866.4 224.9 868.9 223.7 872.1 223.7 874.1 223.7 875.6 224.1 876.6 225 877.6 225.9 878.3 227.2 878.6 228.9L880.5 228.9 879 237.2C879 234.7 878.6 232.9 877.7 231.7 876.9 230.5 875.6 230 873.9 230 872.3 230 871 230.6 870.2 231.9 869.3 233.2 868.9 234.9 868.9 237.2 868.9 239.6 869.3 241.4 870.2 242.6 871.1 243.8 872.3 244.4 874 244.4 875.9 244.4 877.2 243.8 877.9 242.7 878.6 241.6 879 239.7 879 237.2L880.8 245.4 878.5 245.4C878.2 247.1 877.6 248.4 876.5 249.3 875.4 250.1 873.9 250.5 872.1 250.5ZM864.5 261.7 864.3 255.9 872.6 255.7C874.9 255.6 876.5 255 877.6 253.8 878.6 252.6 879.1 250.8 879.1 248.5L879.1 229.6 879.6 224.1 885.7 224.1 885.7 247.7C885.7 252.3 884.6 255.7 882.5 257.9 880.3 260.1 876.9 261.3 872.1 261.4L864.5 261.7Z" fill="#8E44AD"/><path d="M900.2 250.5C897.7 250.5 895.8 249.7 894.5 248.1 893.1 246.5 892.5 244.2 892.5 241.3L892.5 224.2 899.1 224.2 899.1 239.7C899.1 241.2 899.4 242.3 900.1 243.1 900.8 243.9 901.7 244.3 902.9 244.3 904.4 244.3 905.6 243.7 906.4 242.5 907.2 241.3 907.6 239.3 907.6 236.5L908.9 245.1 906.9 245.1C906.5 246.9 905.7 248.2 904.5 249.2 903.3 250.2 901.9 250.5 900.2 250.5ZM907.6 242.7 907.6 224.1 914.2 224.1 914.2 241.2 907.6 242.7ZM908 250.2 907.6 244 907.6 239.5 914.2 239.5 914.2 244.1 917.8 244.6 917.8 250 908 250.2Z" fill="#8E44AD"/><path d="M922.1 250 922.1 243.9 932.2 243.9 932.2 250 922.1 250ZM923.6 230.2 923.6 224.1 938.3 224.1 938.3 230.2 923.6 230.2ZM934.7 220.6C933.4 220.6 932.4 220.2 931.6 219.4 930.8 218.6 930.4 217.6 930.4 216.3 930.4 215 930.8 214 931.6 213.2 932.4 212.4 933.4 212 934.7 212 936 212 937 212.4 937.8 213.2 938.6 214 939 215 939 216.3 939 217.6 938.6 218.6 937.8 219.4 937 220.2 935.9 220.6 934.7 220.6ZM931.7 250 931.7 225.6 938.3 225.6 938.3 250 931.7 250ZM937.8 250 937.8 243.9 946 243.9 946 250 937.8 250Z" fill="#8E44AD"/></g></g><g><g><path d="M627.3 398C624.1 398 621.6 396.8 619.8 394.5 618 392.2 617.1 388.9 617.1 384.6 617.1 380.3 618 377 619.8 374.7 621.6 372.4 624.1 371.2 627.3 371.2 629.2 371.2 630.6 371.6 631.6 372.5 632.6 373.4 633.2 374.7 633.5 376.4L635.6 376.4 634.1 384.7C634.1 382.2 633.7 380.4 632.8 379.2 632 378 630.7 377.5 629 377.5 627.4 377.5 626.1 378.1 625.3 379.4 624.4 380.7 624 382.4 624 384.7 624 387.1 624.4 388.9 625.3 390.1 626.2 391.3 627.4 391.9 629.1 391.9 631 391.9 632.3 391.3 633 390.2 633.7 389.1 634.1 387.2 634.1 384.7L635.9 392.9 633.6 392.9C633.3 394.6 632.7 395.9 631.6 396.8 630.6 397.6 629.1 398 627.3 398ZM635.2 397.8 634.2 392.7 634.2 361 640.8 361 640.8 397.6 635.2 397.8Z" fill="#2ECC71"/><path d="M646.6 383.2 646.6 377.3 671.8 377.3 671.8 383.2 646.6 383.2Z" fill="#2ECC71"/><path d="M677.5 408.8 677.5 371.7 683.6 371.7 684.1 377.2 684.1 408.8 677.5 408.8ZM691 398C689.2 398 687.7 397.6 686.7 396.7 685.6 395.8 684.9 394.5 684.7 392.8L682.4 392.8 684.2 384.6C684.2 387.1 684.6 388.9 685.3 390.1 686 391.2 687.4 391.8 689.2 391.8 690.9 391.8 692.1 391.2 693 390 693.9 388.8 694.3 387 694.3 384.6 694.3 382.3 693.9 380.5 693 379.3 692.1 378 690.9 377.4 689.3 377.4 687.6 377.4 686.4 378 685.5 379.1 684.7 380.3 684.2 382.1 684.2 384.6L682.7 376.3 684.6 376.3C684.9 374.6 685.6 373.3 686.6 372.4 687.6 371.5 689.1 371.1 691.1 371.1 694.3 371.1 696.8 372.3 698.6 374.6 700.4 376.9 701.3 380.3 701.3 384.5 701.3 388.8 700.4 392.1 698.6 394.4 696.7 396.9 694.2 398 691 398Z" fill="#2ECC71"/><path d="M713.8 398C711 398 708.9 397.3 707.4 396 705.9 394.6 705.1 392.7 705.1 390.2 705.1 387.3 706.1 385.1 708.1 383.5 710.1 382 712.9 381.2 716.6 381.2 718 381.2 719.2 381.3 720.3 381.4 721.3 381.5 722.4 381.8 723.4 382.1L722.3 387.3C721.3 387.1 720.3 386.9 719.5 386.9 718.7 386.9 717.8 386.8 716.9 386.8 713.5 386.8 711.8 387.8 711.8 389.7 711.8 390.6 712.1 391.2 712.7 391.7 713.3 392.2 714.2 392.4 715.4 392.4 716.8 392.4 718 392.1 719 391.6 720 391.1 720.7 390.4 721.2 389.5 721.7 388.7 721.9 387.8 721.9 386.9L721.9 385.3 722.8 391.9 720.7 391.9 721.6 391.1C721.6 392.6 721.2 393.8 720.6 394.8 720 395.8 719.1 396.5 717.9 397 716.7 397.8 715.4 398 713.8 398ZM722.5 397.8 721.9 390.1 721.8 386.7 721.8 381.6C721.8 380.2 721.2 379.2 720 378.6 718.8 378 717.1 377.6 714.7 377.5L708.1 377.3 708.6 371.3 714.2 371.4C718.9 371.5 722.4 372.4 724.6 374.2 726.9 376 728 378.6 728 382L728 391.6 731.6 392.1 731.6 397.5 722.5 397.8Z" fill="#2ECC71"/><path d="M734 397.5 734 391.8 752.1 391.8 752.1 397.5 734 397.5ZM734.9 377.3 734.9 371.6 744.7 371.6 745.2 377.3 734.9 377.3ZM739.4 397.5 739.4 371.6 745 371.6 746 379 746 397.5 739.4 397.5ZM746 386.4 744.5 377.5 746.7 377.5C747 373.3 749.2 371.2 753.3 371.2 755.8 371.2 757.6 372.1 759 373.9 760.3 375.7 761 378.3 761 381.7L754.4 381.7C754.4 380.2 754.1 379.1 753.6 378.4 753 377.7 752.1 377.4 750.9 377.4 749.3 377.4 748.1 378.2 747.3 379.7 746.4 381.3 746 383.5 746 386.4Z" fill="#2ECC71"/><path d="M774.4 398C772.4 398 770.7 397.9 769.2 397.8 767.7 397.7 766.3 397.5 765.2 397.3L766 391C768.1 391.3 769.8 391.5 771.2 391.6 772.6 391.7 773.7 391.8 774.5 391.8 776.6 391.8 778.2 391.6 779.1 391.3 780.1 391 780.5 390.5 780.5 389.8 780.5 389.4 780.4 389.1 780.1 388.9 779.9 388.7 779.5 388.5 778.9 388.3L770.7 385.9C769 385.4 767.7 384.6 766.8 383.6 765.9 382.6 765.5 381.2 765.5 379.4 765.5 376.6 766.7 374.5 769 373.2 771.3 371.8 774.9 371.2 779.7 371.2 780.8 371.2 782 371.2 783.2 371.3 784.4 371.4 785.7 371.5 787 371.7L786.3 377.8C784.8 377.7 783.5 377.6 782.4 377.5 781.3 377.5 780.4 377.4 779.6 377.4 777.1 377.4 775.4 377.5 774.2 377.8 773.1 378.1 772.5 378.6 772.5 379.2 772.5 379.6 772.6 379.9 772.9 380.1 773.1 380.3 773.5 380.5 774 380.6L781 382.6C783.2 383.2 784.9 384.1 786 385.2 787.1 386.3 787.6 387.8 787.6 389.7 787.6 392.5 786.5 394.5 784.3 395.8 782.2 397.3 778.8 398 774.4 398Z" fill="#2ECC71"/><path d="M808 398C803.5 398 800.1 396.8 797.6 394.5 795.2 392.2 793.9 388.8 793.9 384.5 793.9 380.3 794.9 377 797 374.6 799.1 372.3 802 371.1 805.8 371.1 809.5 371.1 812.4 372.2 814.4 374.3 816.4 376.5 817.4 379.6 817.4 383.7 817.4 384.9 817.4 386 817.3 387L798.3 387 798.3 382.4 810.9 382.4C810.9 380.7 810.5 379.3 809.6 378.4 808.7 377.5 807.5 377 805.9 377 804.2 377 802.8 377.6 801.9 378.8 800.9 380 800.5 381.8 800.5 384 800.5 386.4 801.2 388.3 802.6 389.6 804 390.9 806 391.5 808.6 391.5 809.8 391.5 810.9 391.4 812.1 391.3 813.2 391.2 814.4 391 815.6 390.8L816.2 397C814.5 397.3 813 397.5 811.7 397.6 810.2 398 809 398 808 398Z" fill="#2ECC71"/><path d="M822.3 383.2 822.3 377.3 847.5 377.3 847.5 383.2 822.3 383.2Z" fill="#2ECC71"/><path d="M869 397.5 862.4 386.5 851.6 371.6 859.5 371.6 866.2 383 876.9 397.5 869 397.5ZM851.6 397.5 862.3 383 869 371.6 876.9 371.6 865.8 386.5 859.5 397.5 851.6 397.5Z" fill="#2ECC71"/><path d="M881.2 397.5 881.2 371.6 887.1 371.6 887.7 377.1 887.7 397.5 881.2 397.5ZM891.2 397.5 891.2 379.5C891.2 378 890.7 377.3 889.6 377.3 888.4 377.3 887.7 378.3 887.7 380.2L886.2 374.9 888.1 374.9C888.5 372.4 889.8 371.2 892 371.2 893.3 371.2 894.2 371.7 895 372.6 895.7 373.5 896.1 374.9 896.1 376.8L896.1 397.6 891.2 397.6ZM899.4 397.5 899.4 380C899.4 378.2 898.9 377.3 897.8 377.3 896.6 377.3 896 378.3 896 380.2L894.2 374.9 896.4 374.9C896.5 373.7 897 372.8 897.8 372.2 898.6 371.5 899.6 371.2 900.8 371.2 902.5 371.2 903.8 371.7 904.6 372.6 905.4 373.6 905.8 375.1 905.8 377.3L905.8 397.6 899.4 397.6Z" fill="#2ECC71"/><path d="M910.2 367 910.2 360.9 918 360.9 918 367 910.2 367ZM926.7 398C923.4 398 921.1 397.1 919.7 395.3 918.3 393.5 917.5 390.6 917.5 386.7L917.5 360.9 924.1 360.9 924.1 386.5C924.1 387.6 924.2 388.5 924.4 389.1 924.6 389.8 925.1 390.3 925.7 390.6 926.4 390.9 927.3 391.1 928.6 391.1 930 391.1 931.8 390.8 934 390.2L934.8 397C933.4 397.4 932.1 397.6 930.8 397.8 929.6 397.9 928.2 398 926.7 398Z" fill="#2ECC71"/></g></g></svg>