<svg width="436" height="288" viewBox="0 0 436 288" preserveAspectRatio="none" xmlns="http://www.w3.org/2000/svg" xmlns:xlink="http://www.w3.org/1999/xlink" overflow="hidden"><defs><filter id="f5owk608kh9k4" x="-1" y="-1" width="300%" height="300%" filterUnits="objectBoundingBox" primitiveUnits="userSpaceOnUse"><feGaussianBlur result="blurOut" stdDeviation="2 2"/><feColorMatrix in="blurOut" result="blurOut2" type="matrix" values="0 0 0 0 0 0 0 0 0 0 0 0 0 0 0 0 0 0 0.4 0 "/><feOffset in="blurOut2" result="blurOut3" dx="4" dy="4"/><feBlend in="SourceGraphic" in2="blurOut3" mode="normal"/></filter></defs><g><rect x="200" y="104.312" width="10" height="30.3516" stroke="#A80036" fill="#FFFFFF" filter="url(#f5owk608kh9k4)"/><rect x="377.5" y="195.367" width="10" height="30.3516" stroke="#A80036" fill="#FFFFFF" filter="url(#f5owk608kh9k4)"/><line x1="40" y1="41.6094" x2="40" y2="243.719" stroke="#A80036" stroke-dasharray="5 5"/><line x1="119" y1="41.6094" x2="119" y2="243.719" stroke="#A80036" stroke-dasharray="5 5"/><line x1="205" y1="41.6094" x2="205" y2="243.719" stroke="#A80036" stroke-dasharray="5 5"/><line x1="286" y1="41.6094" x2="286" y2="243.719" stroke="#A80036" stroke-dasharray="5 5"/><line x1="382" y1="41.6094" x2="382" y2="243.719" stroke="#A80036" stroke-dasharray="5 5"/><rect x="5" y="5" width="66" height="31.6094" stroke="#A80036" stroke-width="1.5" fill="#FEFECE" filter="url(#f5owk608kh9k4)"/><text font-family="Arial" font-size="14" x="12" y="26.5332">Runtime</text><rect x="5" y="242.719" width="66" height="31.6094" stroke="#A80036" stroke-width="1.5" fill="#FEFECE" filter="url(#f5owk608kh9k4)"/><text font-family="Arial" font-size="14" x="12" y="264.252">Runtime</text><rect x="92" y="5" width="50" height="31.6094" stroke="#A80036" stroke-width="1.5" fill="#FEFECE" filter="url(#f5owk608kh9k4)"/><text font-family="Arial" font-size="14" x="99" y="26.5332">props</text><rect x="92" y="242.719" width="50" height="31.6094" stroke="#A80036" stroke-width="1.5" fill="#FEFECE" filter="url(#f5owk608kh9k4)"/><text font-family="Arial" font-size="14" x="99" y="264.252">props</text><rect x="156" y="5" width="94" height="31.6094" stroke="#A80036" stroke-width="1.5" fill="#FEFECE" filter="url(#f5owk608kh9k4)"/><text font-family="Arial" font-size="14" x="163" y="26.5332">StylesParser</text><rect x="156" y="242.719" width="94" height="31.6094" stroke="#A80036" stroke-width="1.5" fill="#FEFECE" filter="url(#f5owk608kh9k4)"/><text font-family="Arial" font-size="14" x="163" y="264.252">StylesParser</text><rect x="264" y="5" width="41" height="31.6094" stroke="#A80036" stroke-width="1.5" fill="#FEFECE" filter="url(#f5owk608kh9k4)"/><text font-family="Arial" font-size="14" x="271" y="26.5332">Map</text><rect x="264" y="242.719" width="41" height="31.6094" stroke="#A80036" stroke-width="1.5" fill="#FEFECE" filter="url(#f5owk608kh9k4)"/><text font-family="Arial" font-size="14" x="271" y="264.252">Map</text><rect x="339" y="5" width="83" height="31.6094" stroke="#A80036" stroke-width="1.5" fill="#FEFECE" filter="url(#f5owk608kh9k4)"/><text font-family="Arial" font-size="14" x="346" y="26.5332">MapParser</text><rect x="339" y="242.719" width="83" height="31.6094" stroke="#A80036" stroke-width="1.5" fill="#FEFECE" filter="url(#f5owk608kh9k4)"/><text font-family="Arial" font-size="14" x="346" y="264.252">MapParser</text><rect x="200" y="104.312" width="10" height="30.3516" stroke="#A80036" fill="#FFFFFF" filter="url(#f5owk608kh9k4)"/><rect x="377.5" y="195.367" width="10" height="30.3516" stroke="#A80036" fill="#FFFFFF" filter="url(#f5owk608kh9k4)"/><path d="M107 69.9609 117 73.9609 107 77.9609 111 73.9609Z" stroke="#A80036" fill="#A80036"/><line x1="40" y1="73.9609" x2="113" y2="73.9609" stroke="#A80036"/><text font-family="Arial" font-size="13" x="47" y="69.1045">initialize()</text><path d="M188 100.312 198 104.312 188 108.312 192 104.312Z" stroke="#A80036" fill="#A80036"/><line x1="40" y1="104.312" x2="194" y2="104.312" stroke="#A80036"/><text font-family="Arial" font-size="13" x="47" y="99.4561">load()</text><path d="M130 130.664 120 134.664 130 138.664 126 134.664Z" stroke="#A80036" fill="#A80036"/><line x1="124" y1="134.664" x2="204" y2="134.664" stroke="#A80036"/><text font-family="Arial" font-size="13" x="136" y="129.808">styles</text><path d="M274.5 161.016 284.5 165.016 274.5 169.016 278.5 165.016Z" stroke="#A80036" fill="#A80036"/><line x1="40" y1="165.016" x2="280.5" y2="165.016" stroke="#A80036"/><text font-family="Arial" font-size="13" x="47" y="160.159">load(props)</text><path d="M365.5 191.367 375.5 195.367 365.5 199.367 369.5 195.367Z" stroke="#A80036" fill="#A80036"/><line x1="286.5" y1="195.367" x2="371.5" y2="195.367" stroke="#A80036"/><text font-family="Arial" font-size="13" x="293.5" y="190.511">parse(props)</text><path d="M51 221.719 41 225.719 51 229.719 47 225.719Z" stroke="#A80036" fill="#A80036"/><line x1="45" y1="225.719" x2="381.5" y2="225.719" stroke="#A80036"/><text font-family="Arial" font-size="13" x="57" y="220.862">PlainMap</text></g></svg>