<svg width="489" height="194" viewBox="0 0 489 194" preserveAspectRatio="none" xmlns="http://www.w3.org/2000/svg" xmlns:xlink="http://www.w3.org/1999/xlink" overflow="hidden"><defs><filter id="f1gddcdffucbn8" x="-1" y="-1" width="300%" height="300%" filterUnits="objectBoundingBox" primitiveUnits="userSpaceOnUse"><feGaussianBlur result="blurOut" stdDeviation="2 2"/><feColorMatrix in="blurOut" result="blurOut2" type="matrix" values="0 0 0 0 0 0 0 0 0 0 0 0 0 0 0 0 0 0 0.4 0 "/><feOffset in="blurOut2" result="blurOut3" dx="4" dy="4"/><feBlend in="SourceGraphic" in2="blurOut3" mode="normal"/></filter></defs><g><rect x="10" y="77.6094" rx="12.5" ry="12.5" width="120" height="37.6094" stroke="#A80036" stroke-width="1.5" fill="#FEFECE" filter="url(#f1gddcdffucbn8)"/><text font-family="Arial" font-size="14" x="20" y="102.143">SceneRenderer</text><rect x="180" y="48.8047" rx="12.5" ry="12.5" width="53" height="37.6094" stroke="#A80036" stroke-width="1.5" fill="#FEFECE" filter="url(#f1gddcdffucbn8)"/><text font-family="Arial" font-size="14" x="190" y="73.3379">Node</text><rect x="283" y="20" rx="12.5" ry="12.5" width="91" height="37.6094" stroke="#A80036" stroke-width="1.5" fill="#FEFECE" filter="url(#f1gddcdffucbn8)"/><text font-family="Arial" font-size="14" x="293" y="44.5332">GeomNode</text><rect x="424" y="20" rx="12.5" ry="12.5" width="46" height="37.6094" stroke="#A80036" stroke-width="1.5" fill="#FEFECE" filter="url(#f1gddcdffucbn8)"/><text font-family="Arial" font-size="14" x="434" y="44.5332">Item</text><path d="M374 38.8047 384 38.8047C399 38.8047 399 38.8047 414 38.8047L424 38.8047" stroke="#A80036" fill="none"/><path d="M233 67.6094 243 67.6094C258 67.6094 258 38.8047 273 38.8047L283 38.8047" stroke="#A80036" fill="none"/><rect x="283" y="77.6094" rx="12.5" ry="12.5" width="91" height="37.6094" stroke="#A80036" stroke-width="1.5" fill="#FEFECE" filter="url(#f1gddcdffucbn8)"/><text font-family="Arial" font-size="14" x="293" y="102.143">GeomNode</text><rect x="424" y="77.6094" rx="12.5" ry="12.5" width="46" height="37.6094" stroke="#A80036" stroke-width="1.5" fill="#FEFECE" filter="url(#f1gddcdffucbn8)"/><text font-family="Arial" font-size="14" x="434" y="102.143">Item</text><path d="M374 96.4141 384 96.4141C399 96.4141 399 96.4141 414 96.4141L424 96.4141" stroke="#A80036" fill="none"/><path d="M233 67.6094 243 67.6094C258 67.6094 258 96.4141 273 96.4141L283 96.4141" stroke="#A80036" fill="none"/><path d="M130 96.4141 140 96.4141C155 96.4141 155 67.6094 170 67.6094L180 67.6094" stroke="#A80036" fill="none"/><rect x="180" y="135.219" rx="12.5" ry="12.5" width="70" height="37.6094" stroke="#A80036" stroke-width="1.5" fill="#FEFECE" filter="url(#f1gddcdffucbn8)"/><text font-family="Arial" font-size="14" x="190" y="159.752">Camera</text><path d="M130 96.4141 140 96.4141C155 96.4141 155 154.023 170 154.023L180 154.023" stroke="#A80036" fill="none"/></g></svg>