<svg width="620" height="529" viewBox="0 0 620 529" preserveAspectRatio="none" xmlns="http://www.w3.org/2000/svg" xmlns:xlink="http://www.w3.org/1999/xlink" overflow="hidden"><defs><filter id="f5f98uns0n8ix" x="-1" y="-1" width="300%" height="300%" filterUnits="objectBoundingBox" primitiveUnits="userSpaceOnUse"><feGaussianBlur result="blurOut" stdDeviation="2 2"/><feColorMatrix in="blurOut" result="blurOut2" type="matrix" values="0 0 0 0 0 0 0 0 0 0 0 0 0 0 0 0 0 0 0.4 0 "/><feOffset in="blurOut2" result="blurOut3" dx="4" dy="4"/><feBlend in="SourceGraphic" in2="blurOut3" mode="normal"/></filter></defs><g><path d="M16 6 52 6 59 29.6094 603 29.6094 603 522.5 16 522.5 16 6Z" stroke="#000000" stroke-width="1.5" fill="#FFFFFF" filter="url(#f5f98uns0n8ix)"/><line x1="16" y1="29.6094" x2="59" y2="29.6094" stroke="#000000" stroke-width="1.5"/><text font-family="Arial" font-weight="700" font-size="14" x="20" y="22.5332">data</text><path d="M174 50 234 50 241 73.6094 579 73.6094 579 380 174 380 174 50Z" stroke="#000000" stroke-width="1.5" fill="#FFFFFF" filter="url(#f5f98uns0n8ix)"/><line x1="174" y1="73.6094" x2="241" y2="73.6094" stroke="#000000" stroke-width="1.5"/><text font-family="Arial" font-weight="700" font-size="14" x="178" y="66.5332">parsers</text><rect x="353" y="201" width="68" height="48" id="Parser" stroke="#A80036" stroke-width="1.5" fill="#FEFECE" filter="url(#f5f98uns0n8ix)"/><ellipse cx="368" cy="217" rx="11" ry="11" stroke="#A80036" fill="#A9DCDF"/><path d="M370.188 218.766 366.047 218.766 365.625 219.797 366.047 219.797C366.453 219.797 366.745 219.875 366.922 220.031 367.099 220.188 367.188 220.396 367.188 220.656 367.188 220.906 367.099 221.109 366.922 221.266 366.745 221.422 366.453 221.5 366.047 221.5L363.75 221.5C363.344 221.5 363.057 221.422 362.891 221.266 362.714 221.109 362.625 220.901 362.625 220.641 362.625 220.391 362.719 220.188 362.906 220.031 363.083 219.865 363.38 219.786 363.797 219.797L366.469 213.141 365.359 213.141C364.953 213.141 364.661 213.062 364.484 212.906 364.307 212.75 364.219 212.542 364.219 212.281 364.219 212.031 364.307 211.828 364.484 211.672 364.661 211.516 364.953 211.438 365.359 211.438L369.031 211.438 372.422 219.797C372.818 219.797 373.078 219.844 373.203 219.938 373.464 220.115 373.594 220.354 373.594 220.656 373.594 220.906 373.505 221.109 373.328 221.266 373.161 221.422 372.875 221.5 372.469 221.5L370.172 221.5C369.766 221.5 369.474 221.422 369.297 221.266 369.12 221.109 369.031 220.901 369.031 220.641 369.031 220.391 369.12 220.188 369.297 220.031 369.474 219.875 369.766 219.797 370.172 219.797L370.594 219.797 370.188 218.766ZM369.469 217.062 368.109 213.688 366.734 217.062 369.469 217.062Z"/><text font-family="Arial" font-style="italic" font-size="12" x="382" y="221.91">Parser</text><line x1="354" y1="233" x2="420" y2="233" stroke="#A80036" stroke-width="1.5"/><line x1="354" y1="241" x2="420" y2="241" stroke="#A80036" stroke-width="1.5"/><rect x="203" y="201" width="96" height="48" id="JsonParser" stroke="#A80036" stroke-width="1.5" fill="#FEFECE" filter="url(#f5f98uns0n8ix)"/><ellipse cx="218" cy="217" rx="11" ry="11" stroke="#A80036" fill="#ADD1B2"/><path d="M220.766 212.875C220.87 212.729 220.984 212.62 221.109 212.547 221.234 212.474 221.37 212.438 221.516 212.438 221.766 212.438 221.969 212.526 222.125 212.703 222.281 212.87 222.359 213.156 222.359 213.562L222.359 215.016C222.359 215.422 222.281 215.714 222.125 215.891 221.969 216.068 221.766 216.156 221.516 216.156 221.286 216.156 221.104 216.089 220.969 215.953 220.833 215.828 220.729 215.594 220.656 215.25 220.625 215.01 220.547 214.828 220.422 214.703 220.203 214.453 219.891 214.255 219.484 214.109 219.078 213.964 218.667 213.891 218.25 213.891 217.74 213.891 217.271 214 216.844 214.219 216.427 214.438 216.052 214.797 215.719 215.297 215.396 215.797 215.234 216.391 215.234 217.078L215.234 218.172C215.234 218.995 215.531 219.682 216.125 220.234 216.719 220.776 217.547 221.047 218.609 221.047 219.234 221.047 219.766 220.964 220.203 220.797 220.464 220.693 220.734 220.495 221.016 220.203 221.193 220.026 221.328 219.911 221.422 219.859 221.526 219.807 221.646 219.781 221.781 219.781 222 219.781 222.193 219.87 222.359 220.047 222.536 220.214 222.625 220.411 222.625 220.641 222.625 220.87 222.51 221.12 222.281 221.391 221.948 221.776 221.516 222.078 220.984 222.297 220.266 222.599 219.474 222.75 218.609 222.75 217.599 222.75 216.693 222.542 215.891 222.125 215.234 221.792 214.677 221.271 214.219 220.562 213.76 219.844 213.531 219.057 213.531 218.203L213.531 217.047C213.531 216.161 213.734 215.339 214.141 214.578 214.557 213.807 215.13 213.219 215.859 212.812 216.589 212.396 217.365 212.188 218.188 212.188 218.677 212.188 219.135 212.245 219.562 212.359 220 212.464 220.401 212.635 220.766 212.875Z"/><text font-family="Arial" font-size="12" x="232" y="221.91">JsonParser</text><line x1="204" y1="233" x2="298" y2="233" stroke="#A80036" stroke-width="1.5"/><line x1="204" y1="241" x2="298" y2="241" stroke="#A80036" stroke-width="1.5"/><rect x="462" y="201" width="92" height="48" id="XMLParser" stroke="#A80036" stroke-width="1.5" fill="#FEFECE" filter="url(#f5f98uns0n8ix)"/><ellipse cx="477" cy="217" rx="11" ry="11" stroke="#A80036" fill="#ADD1B2"/><path d="M479.766 212.875C479.87 212.729 479.984 212.62 480.109 212.547 480.234 212.474 480.37 212.438 480.516 212.438 480.766 212.438 480.969 212.526 481.125 212.703 481.281 212.87 481.359 213.156 481.359 213.562L481.359 215.016C481.359 215.422 481.281 215.714 481.125 215.891 480.969 216.068 480.766 216.156 480.516 216.156 480.286 216.156 480.104 216.089 479.969 215.953 479.833 215.828 479.729 215.594 479.656 215.25 479.625 215.01 479.547 214.828 479.422 214.703 479.203 214.453 478.891 214.255 478.484 214.109 478.078 213.964 477.667 213.891 477.25 213.891 476.74 213.891 476.271 214 475.844 214.219 475.427 214.438 475.052 214.797 474.719 215.297 474.396 215.797 474.234 216.391 474.234 217.078L474.234 218.172C474.234 218.995 474.531 219.682 475.125 220.234 475.719 220.776 476.547 221.047 477.609 221.047 478.234 221.047 478.766 220.964 479.203 220.797 479.464 220.693 479.734 220.495 480.016 220.203 480.193 220.026 480.328 219.911 480.422 219.859 480.526 219.807 480.646 219.781 480.781 219.781 481 219.781 481.193 219.87 481.359 220.047 481.536 220.214 481.625 220.411 481.625 220.641 481.625 220.87 481.51 221.12 481.281 221.391 480.948 221.776 480.516 222.078 479.984 222.297 479.266 222.599 478.474 222.75 477.609 222.75 476.599 222.75 475.693 222.542 474.891 222.125 474.234 221.792 473.677 221.271 473.219 220.562 472.76 219.844 472.531 219.057 472.531 218.203L472.531 217.047C472.531 216.161 472.734 215.339 473.141 214.578 473.557 213.807 474.13 213.219 474.859 212.812 475.589 212.396 476.365 212.188 477.188 212.188 477.677 212.188 478.135 212.245 478.562 212.359 479 212.464 479.401 212.635 479.766 212.875Z"/><text font-family="Arial" font-size="12" x="491" y="221.91">XMLParser</text><line x1="463" y1="233" x2="553" y2="233" stroke="#A80036" stroke-width="1.5"/><line x1="463" y1="241" x2="553" y2="241" stroke="#A80036" stroke-width="1.5"/><rect x="341.5" y="316" width="91" height="48" id="MapParser" stroke="#A80036" stroke-width="1.5" fill="#FEFECE" filter="url(#f5f98uns0n8ix)"/><ellipse cx="356.5" cy="332" rx="11" ry="11" stroke="#A80036" fill="#A9DCDF"/><path d="M358.688 333.766 354.547 333.766 354.125 334.797 354.547 334.797C354.953 334.797 355.245 334.875 355.422 335.031 355.599 335.188 355.688 335.396 355.688 335.656 355.688 335.906 355.599 336.109 355.422 336.266 355.245 336.422 354.953 336.5 354.547 336.5L352.25 336.5C351.844 336.5 351.557 336.422 351.391 336.266 351.214 336.109 351.125 335.901 351.125 335.641 351.125 335.391 351.219 335.188 351.406 335.031 351.583 334.865 351.88 334.786 352.297 334.797L354.969 328.141 353.859 328.141C353.453 328.141 353.161 328.062 352.984 327.906 352.807 327.75 352.719 327.542 352.719 327.281 352.719 327.031 352.807 326.828 352.984 326.672 353.161 326.516 353.453 326.438 353.859 326.438L357.531 326.438 360.922 334.797C361.318 334.797 361.578 334.844 361.703 334.938 361.964 335.115 362.094 335.354 362.094 335.656 362.094 335.906 362.005 336.109 361.828 336.266 361.661 336.422 361.375 336.5 360.969 336.5L358.672 336.5C358.266 336.5 357.974 336.422 357.797 336.266 357.62 336.109 357.531 335.901 357.531 335.641 357.531 335.391 357.62 335.188 357.797 335.031 357.974 334.875 358.266 334.797 358.672 334.797L359.094 334.797 358.688 333.766ZM357.969 332.062 356.609 328.688 355.234 332.062 357.969 332.062Z"/><text font-family="Arial" font-style="italic" font-size="12" x="370.5" y="336.91">MapParser</text><line x1="342.5" y1="348" x2="431.5" y2="348" stroke="#A80036" stroke-width="1.5"/><line x1="342.5" y1="356" x2="431.5" y2="356" stroke="#A80036" stroke-width="1.5"/><rect x="203.5" y="86" width="95" height="48" id="StyleParser" stroke="#A80036" stroke-width="1.5" fill="#FEFECE" filter="url(#f5f98uns0n8ix)"/><ellipse cx="218.5" cy="102" rx="11" ry="11" stroke="#A80036" fill="#ADD1B2"/><path d="M221.266 97.875C221.37 97.7292 221.484 97.6198 221.609 97.5469 221.734 97.474 221.87 97.4375 222.016 97.4375 222.266 97.4375 222.469 97.526 222.625 97.7031 222.781 97.8698 222.859 98.1562 222.859 98.5625L222.859 100.016C222.859 100.422 222.781 100.714 222.625 100.891 222.469 101.068 222.266 101.156 222.016 101.156 221.786 101.156 221.604 101.089 221.469 100.953 221.333 100.828 221.229 100.594 221.156 100.25 221.125 100.01 221.047 99.8281 220.922 99.7031 220.703 99.4531 220.391 99.2552 219.984 99.1094 219.578 98.9635 219.167 98.8906 218.75 98.8906 218.24 98.8906 217.771 99 217.344 99.2188 216.927 99.4375 216.552 99.7969 216.219 100.297 215.896 100.797 215.734 101.391 215.734 102.078L215.734 103.172C215.734 103.995 216.031 104.682 216.625 105.234 217.219 105.776 218.047 106.047 219.109 106.047 219.734 106.047 220.266 105.964 220.703 105.797 220.964 105.693 221.234 105.495 221.516 105.203 221.693 105.026 221.828 104.911 221.922 104.859 222.026 104.807 222.146 104.781 222.281 104.781 222.5 104.781 222.693 104.87 222.859 105.047 223.036 105.214 223.125 105.411 223.125 105.641 223.125 105.87 223.01 106.12 222.781 106.391 222.448 106.776 222.016 107.078 221.484 107.297 220.766 107.599 219.974 107.75 219.109 107.75 218.099 107.75 217.193 107.542 216.391 107.125 215.734 106.792 215.177 106.271 214.719 105.562 214.26 104.844 214.031 104.057 214.031 103.203L214.031 102.047C214.031 101.161 214.234 100.339 214.641 99.5781 215.057 98.8073 215.63 98.2188 216.359 97.8125 217.089 97.3958 217.865 97.1875 218.688 97.1875 219.177 97.1875 219.635 97.2448 220.062 97.3594 220.5 97.4635 220.901 97.6354 221.266 97.875Z"/><text font-family="Arial" font-size="12" x="232.5" y="106.91">StyleParser</text><line x1="204.5" y1="118" x2="297.5" y2="118" stroke="#A80036" stroke-width="1.5"/><line x1="204.5" y1="126" x2="297.5" y2="126" stroke="#A80036" stroke-width="1.5"/><rect x="467.5" y="316" width="95" height="48" id="OSMParser" stroke="#A80036" stroke-width="1.5" fill="#FEFECE" filter="url(#f5f98uns0n8ix)"/><ellipse cx="482.5" cy="332" rx="11" ry="11" stroke="#A80036" fill="#ADD1B2"/><path d="M485.266 327.875C485.37 327.729 485.484 327.62 485.609 327.547 485.734 327.474 485.87 327.438 486.016 327.438 486.266 327.438 486.469 327.526 486.625 327.703 486.781 327.87 486.859 328.156 486.859 328.562L486.859 330.016C486.859 330.422 486.781 330.714 486.625 330.891 486.469 331.068 486.266 331.156 486.016 331.156 485.786 331.156 485.604 331.089 485.469 330.953 485.333 330.828 485.229 330.594 485.156 330.25 485.125 330.01 485.047 329.828 484.922 329.703 484.703 329.453 484.391 329.255 483.984 329.109 483.578 328.964 483.167 328.891 482.75 328.891 482.24 328.891 481.771 329 481.344 329.219 480.927 329.438 480.552 329.797 480.219 330.297 479.896 330.797 479.734 331.391 479.734 332.078L479.734 333.172C479.734 333.995 480.031 334.682 480.625 335.234 481.219 335.776 482.047 336.047 483.109 336.047 483.734 336.047 484.266 335.964 484.703 335.797 484.964 335.693 485.234 335.495 485.516 335.203 485.693 335.026 485.828 334.911 485.922 334.859 486.026 334.807 486.146 334.781 486.281 334.781 486.5 334.781 486.693 334.87 486.859 335.047 487.036 335.214 487.125 335.411 487.125 335.641 487.125 335.87 487.01 336.12 486.781 336.391 486.448 336.776 486.016 337.078 485.484 337.297 484.766 337.599 483.974 337.75 483.109 337.75 482.099 337.75 481.193 337.542 480.391 337.125 479.734 336.792 479.177 336.271 478.719 335.562 478.26 334.844 478.031 334.057 478.031 333.203L478.031 332.047C478.031 331.161 478.234 330.339 478.641 329.578 479.057 328.807 479.63 328.219 480.359 327.812 481.089 327.396 481.865 327.188 482.688 327.188 483.177 327.188 483.635 327.245 484.062 327.359 484.5 327.464 484.901 327.635 485.266 327.875Z"/><text font-family="Arial" font-size="12" x="496.5" y="336.91">OSMParser</text><line x1="468.5" y1="348" x2="561.5" y2="348" stroke="#A80036" stroke-width="1.5"/><line x1="468.5" y1="356" x2="561.5" y2="356" stroke="#A80036" stroke-width="1.5"/><rect x="190" y="316" width="116" height="48" id="GeojsonParser" stroke="#A80036" stroke-width="1.5" fill="#FEFECE" filter="url(#f5f98uns0n8ix)"/><ellipse cx="205" cy="332" rx="11" ry="11" stroke="#A80036" fill="#ADD1B2"/><path d="M207.766 327.875C207.87 327.729 207.984 327.62 208.109 327.547 208.234 327.474 208.37 327.438 208.516 327.438 208.766 327.438 208.969 327.526 209.125 327.703 209.281 327.87 209.359 328.156 209.359 328.562L209.359 330.016C209.359 330.422 209.281 330.714 209.125 330.891 208.969 331.068 208.766 331.156 208.516 331.156 208.286 331.156 208.104 331.089 207.969 330.953 207.833 330.828 207.729 330.594 207.656 330.25 207.625 330.01 207.547 329.828 207.422 329.703 207.203 329.453 206.891 329.255 206.484 329.109 206.078 328.964 205.667 328.891 205.25 328.891 204.74 328.891 204.271 329 203.844 329.219 203.427 329.438 203.052 329.797 202.719 330.297 202.396 330.797 202.234 331.391 202.234 332.078L202.234 333.172C202.234 333.995 202.531 334.682 203.125 335.234 203.719 335.776 204.547 336.047 205.609 336.047 206.234 336.047 206.766 335.964 207.203 335.797 207.464 335.693 207.734 335.495 208.016 335.203 208.193 335.026 208.328 334.911 208.422 334.859 208.526 334.807 208.646 334.781 208.781 334.781 209 334.781 209.193 334.87 209.359 335.047 209.536 335.214 209.625 335.411 209.625 335.641 209.625 335.87 209.51 336.12 209.281 336.391 208.948 336.776 208.516 337.078 207.984 337.297 207.266 337.599 206.474 337.75 205.609 337.75 204.599 337.75 203.693 337.542 202.891 337.125 202.234 336.792 201.677 336.271 201.219 335.562 200.76 334.844 200.531 334.057 200.531 333.203L200.531 332.047C200.531 331.161 200.734 330.339 201.141 329.578 201.557 328.807 202.13 328.219 202.859 327.812 203.589 327.396 204.365 327.188 205.188 327.188 205.677 327.188 206.135 327.245 206.562 327.359 207 327.464 207.401 327.635 207.766 327.875Z"/><text font-family="Arial" font-size="12" x="219" y="336.91">GeojsonParser</text><line x1="191" y1="348" x2="305" y2="348" stroke="#A80036" stroke-width="1.5"/><line x1="191" y1="356" x2="305" y2="356" stroke="#A80036" stroke-width="1.5"/><rect x="336.5" y="86" width="101" height="48" id="PortalParser" stroke="#A80036" stroke-width="1.5" fill="#FEFECE" filter="url(#f5f98uns0n8ix)"/><ellipse cx="351.5" cy="102" rx="11" ry="11" stroke="#A80036" fill="#ADD1B2"/><path d="M354.266 97.875C354.37 97.7292 354.484 97.6198 354.609 97.5469 354.734 97.474 354.87 97.4375 355.016 97.4375 355.266 97.4375 355.469 97.526 355.625 97.7031 355.781 97.8698 355.859 98.1562 355.859 98.5625L355.859 100.016C355.859 100.422 355.781 100.714 355.625 100.891 355.469 101.068 355.266 101.156 355.016 101.156 354.786 101.156 354.604 101.089 354.469 100.953 354.333 100.828 354.229 100.594 354.156 100.25 354.125 100.01 354.047 99.8281 353.922 99.7031 353.703 99.4531 353.391 99.2552 352.984 99.1094 352.578 98.9635 352.167 98.8906 351.75 98.8906 351.24 98.8906 350.771 99 350.344 99.2188 349.927 99.4375 349.552 99.7969 349.219 100.297 348.896 100.797 348.734 101.391 348.734 102.078L348.734 103.172C348.734 103.995 349.031 104.682 349.625 105.234 350.219 105.776 351.047 106.047 352.109 106.047 352.734 106.047 353.266 105.964 353.703 105.797 353.964 105.693 354.234 105.495 354.516 105.203 354.693 105.026 354.828 104.911 354.922 104.859 355.026 104.807 355.146 104.781 355.281 104.781 355.5 104.781 355.693 104.87 355.859 105.047 356.036 105.214 356.125 105.411 356.125 105.641 356.125 105.87 356.01 106.12 355.781 106.391 355.448 106.776 355.016 107.078 354.484 107.297 353.766 107.599 352.974 107.75 352.109 107.75 351.099 107.75 350.193 107.542 349.391 107.125 348.734 106.792 348.177 106.271 347.719 105.562 347.26 104.844 347.031 104.057 347.031 103.203L347.031 102.047C347.031 101.161 347.234 100.339 347.641 99.5781 348.057 98.8073 348.63 98.2188 349.359 97.8125 350.089 97.3958 350.865 97.1875 351.688 97.1875 352.177 97.1875 352.635 97.2448 353.062 97.3594 353.5 97.4635 353.901 97.6354 354.266 97.875Z"/><text font-family="Arial" font-size="12" x="365.5" y="106.91">PortalParser</text><line x1="337.5" y1="118" x2="436.5" y2="118" stroke="#A80036" stroke-width="1.5"/><line x1="337.5" y1="126" x2="436.5" y2="126" stroke="#A80036" stroke-width="1.5"/><path d="M64.5 427.5 111.5 427.5 118.5 451.109 125.5 451.109 125.5 482.719 64.5 482.719 64.5 427.5Z" stroke="#000000" stroke-width="1.5" fill="#FFFFFF" filter="url(#f5f98uns0n8ix)"/><line x1="64.5" y1="451.109" x2="118.5" y2="451.109" stroke="#000000" stroke-width="1.5"/><text font-family="Arial" font-weight="700" font-size="14" x="68.5" y="444.033">portal</text><path d="M56.5 82.5 119.5 82.5 126.5 106.109 133.5 106.109 133.5 137.719 56.5 137.719 56.5 82.5Z" stroke="#000000" stroke-width="1.5" fill="#FFFFFF" filter="url(#f5f98uns0n8ix)"/><line x1="56.5" y1="106.109" x2="126.5" y2="106.109" stroke="#000000" stroke-width="1.5"/><text font-family="Arial" font-weight="700" font-size="14" x="60.5" y="99.0332">geojson</text><path d="M70.5 197.5 105.5 197.5 112.5 221.109 119.5 221.109 119.5 252.719 70.5 252.719 70.5 197.5Z" stroke="#000000" stroke-width="1.5" fill="#FFFFFF" filter="url(#f5f98uns0n8ix)"/><line x1="70.5" y1="221.109" x2="112.5" y2="221.109" stroke="#000000" stroke-width="1.5"/><text font-family="Arial" font-weight="700" font-size="14" x="74.5" y="214.033">osm</text><path d="M64.5 312.5 111.5 312.5 118.5 336.109 125.5 336.109 125.5 367.719 64.5 367.719 64.5 312.5Z" stroke="#000000" stroke-width="1.5" fill="#FFFFFF" filter="url(#f5f98uns0n8ix)"/><line x1="64.5" y1="336.109" x2="118.5" y2="336.109" stroke="#000000" stroke-width="1.5"/><text font-family="Arial" font-weight="700" font-size="14" x="68.5" y="329.033">styles</text><path d="M299.08 225C310.31 225 321.55 225 332.78 225" id="JsonParser-to-Parser" stroke="#A80036" fill="none"/><path d="M333 218 353 225 333 232 333 218Z" stroke="#A80036" fill="none"/><path d="M441.1 225C448 225 454.9 225 461.8 225" id="Parser-backto-XMLParser" stroke="#A80036" fill="none"/><path d="M441.03 232 421.03 225 441.03 218 441.03 232Z" stroke="#A80036" fill="none"/><path d="M387 269.34C387 285.18 387 302.49 387 315.89" id="Parser-backto-MapParser" stroke="#A80036" fill="none"/><path d="M380 269.14 387 249.14 394 269.14 380 269.14Z" stroke="#A80036" fill="none"/><path d="M453.08 340C457.81 340 462.54 340 467.27 340" id="MapParser-backto-OSMParser" stroke="#A80036" fill="none"/><path d="M453 347 433 340 453 333 453 347Z" stroke="#A80036" fill="none"/><path d="M306.1 340C311.17 340 316.24 340 321.31 340" id="GeojsonParser-to-MapParser" stroke="#A80036" fill="none"/><path d="M321.49 333 341.49 340 321.49 347 321.49 333Z" stroke="#A80036" fill="none"/><path d="M509.76 254.34C510.93 273.35 512.46 298.07 513.57 315.89" id="XMLParser-backto-OSMParser" stroke="#A80036" fill="none"/><path d="M509.43 249.14 506.004 258.374 509.745 254.13 513.988 257.871 509.43 249.14Z" stroke="#A80036" fill="#A80036"/><path d="M250.25 254.34C249.74 273.35 249.09 298.07 248.61 315.89" id="JsonParser-backto-GeojsonParser" stroke="#A80036" fill="none"/><path d="M250.39 249.14 246.16 258.034 250.262 254.138 254.157 258.24 250.39 249.14Z" stroke="#A80036" fill="#A80036"/><path d="M251 134.14C251 147.55 251 164.86 251 180.7" id="StyleParser-to-JsonParser" stroke="#A80036" fill="none"/><path d="M258 180.89 251 200.89 244 180.89 258 180.89Z" stroke="#A80036" fill="none"/><path d="M387 134.14C387 147.55 387 164.86 387 180.7" id="PortalParser-to-Parser" stroke="#A80036" fill="none"/><path d="M394 180.89 387 200.89 380 180.89 394 180.89Z" stroke="#A80036" fill="none"/></g></svg>