<svg width="618" height="460" viewBox="0 0 618 460" preserveAspectRatio="none" xmlns="http://www.w3.org/2000/svg" xmlns:xlink="http://www.w3.org/1999/xlink" overflow="hidden"><defs><filter id="f1t6l6mx0i6zn3" x="-1" y="-1" width="300%" height="300%" filterUnits="objectBoundingBox" primitiveUnits="userSpaceOnUse"><feGaussianBlur result="blurOut" stdDeviation="2 2"/><feColorMatrix in="blurOut" result="blurOut2" type="matrix" values="0 0 0 0 0 0 0 0 0 0 0 0 0 0 0 0 0 0 0.4 0 "/><feOffset in="blurOut2" result="blurOut3" dx="4" dy="4"/><feBlend in="SourceGraphic" in2="blurOut3" mode="normal"/></filter></defs><g><line x1="78" y1="41.6094" x2="78" y2="415.477" stroke="#A80036" stroke-dasharray="5 5"/><line x1="188" y1="41.6094" x2="188" y2="415.477" stroke="#A80036" stroke-dasharray="5 5"/><line x1="315" y1="41.6094" x2="315" y2="415.477" stroke="#A80036" stroke-dasharray="5 5"/><line x1="434" y1="41.6094" x2="434" y2="415.477" stroke="#A80036" stroke-dasharray="5 5"/><line x1="581.5" y1="41.6094" x2="581.5" y2="415.477" stroke="#A80036" stroke-dasharray="5 5"/><rect x="24" y="5" width="104" height="31.6094" stroke="#A80036" stroke-width="1.5" fill="#FEFECE" filter="url(#f1t6l6mx0i6zn3)"/><text font-family="Arial" font-size="14" x="31" y="26.5332">EngineThread</text><rect x="24" y="414.477" width="104" height="31.6094" stroke="#A80036" stroke-width="1.5" fill="#FEFECE" filter="url(#f1t6l6mx0i6zn3)"/><text font-family="Arial" font-size="14" x="31" y="436.01">EngineThread</text><rect x="142" y="5" width="89" height="31.6094" stroke="#A80036" stroke-width="1.5" fill="#FEFECE" filter="url(#f1t6l6mx0i6zn3)"/><text font-family="Arial" font-size="14" x="149" y="26.5332">UserThread</text><rect x="142" y="414.477" width="89" height="31.6094" stroke="#A80036" stroke-width="1.5" fill="#FEFECE" filter="url(#f1t6l6mx0i6zn3)"/><text font-family="Arial" font-size="14" x="149" y="436.01">UserThread</text><rect x="282" y="5" width="63" height="31.6094" stroke="#A80036" stroke-width="1.5" fill="#FEFECE" filter="url(#f1t6l6mx0i6zn3)"/><text font-family="Arial" font-size="14" x="289" y="26.5332">Window</text><rect x="282" y="414.477" width="63" height="31.6094" stroke="#A80036" stroke-width="1.5" fill="#FEFECE" filter="url(#f1t6l6mx0i6zn3)"/><text font-family="Arial" font-size="14" x="289" y="436.01">Window</text><rect x="398" y="5" width="69" height="31.6094" stroke="#A80036" stroke-width="1.5" fill="#FEFECE" filter="url(#f1t6l6mx0i6zn3)"/><text font-family="Arial" font-size="14" x="405" y="26.5332">TaskMgr</text><rect x="398" y="414.477" width="69" height="31.6094" stroke="#A80036" stroke-width="1.5" fill="#FEFECE" filter="url(#f1t6l6mx0i6zn3)"/><text font-family="Arial" font-size="14" x="405" y="436.01">TaskMgr</text><rect x="554.5" y="5" width="50" height="31.6094" stroke="#A80036" stroke-width="1.5" fill="#FEFECE" filter="url(#f1t6l6mx0i6zn3)"/><text font-family="Arial" font-size="14" x="561.5" y="26.5332">Event</text><rect x="554.5" y="414.477" width="50" height="31.6094" stroke="#A80036" stroke-width="1.5" fill="#FEFECE" filter="url(#f1t6l6mx0i6zn3)"/><text font-family="Arial" font-size="14" x="561.5" y="436.01">Event</text><path d="M569.5 69.9609 579.5 73.9609 569.5 77.9609 573.5 73.9609Z" stroke="#A80036" fill="#A80036"/><line x1="78" y1="73.9609" x2="575.5" y2="73.9609" stroke="#A80036"/><text font-family="Arial" font-size="13" x="85" y="69.1045">isActive()</text><path d="M89 105.312 79 109.312 89 113.312 85 109.312Z" stroke="#A80036" fill="#A80036"/><line x1="83" y1="109.312" x2="580.5" y2="109.312" stroke="#A80036"/><text font-family="Arial" font-size="13" x="95" y="104.456">user-defined</text><path d="M5 86.9609 5 112.961 69 112.961 69 96.9609 59 86.9609 5 86.9609" stroke="#A80036" fill="#FBFB77" filter="url(#f1t6l6mx0i6zn3)"/><path d="M59 86.9609 59 96.9609 69 96.9609 59 86.9609" stroke="#A80036" fill="#FBFB77"/><text font-family="Arial" font-size="13" x="11" y="105.456">frame 0</text><path d="M569.5 140.664 579.5 144.664 569.5 148.664 573.5 144.664Z" stroke="#A80036" fill="#A80036"/><line x1="78" y1="144.664" x2="575.5" y2="144.664" stroke="#A80036"/><text font-family="Arial" font-size="13" x="85" y="139.808">isForcedActive()</text><path d="M89 171.016 79 175.016 89 179.016 85 175.016Z" stroke="#A80036" fill="#A80036"/><line x1="83" y1="175.016" x2="580.5" y2="175.016" stroke="#A80036"/><text font-family="Arial" font-size="13" x="95" y="170.159">false</text><path d="M303.5 201.367 313.5 205.367 303.5 209.367 307.5 205.367Z" stroke="#A80036" fill="#A80036"/><line x1="188.5" y1="205.367" x2="309.5" y2="205.367" stroke="#A80036"/><text font-family="Arial" font-size="13" x="195.5" y="200.511">throwEvent(Event)</text><path d="M422.5 231.719 432.5 235.719 422.5 239.719 426.5 235.719Z" stroke="#A80036" fill="#A80036"/><line x1="315.5" y1="235.719" x2="428.5" y2="235.719" stroke="#A80036"/><text font-family="Arial" font-size="13" x="322.5" y="230.862">flagActive(Event)</text><path d="M569.5 262.07 579.5 266.07 569.5 270.07 573.5 266.07Z" stroke="#A80036" fill="#A80036"/><line x1="434.5" y1="266.07" x2="575.5" y2="266.07" stroke="#A80036"/><text font-family="Arial" font-size="13" x="441.5" y="261.214">setForcedActive(true)</text><path d="M569.5 292.422 579.5 296.422 569.5 300.422 573.5 296.422Z" stroke="#A80036" fill="#A80036"/><line x1="78" y1="296.422" x2="575.5" y2="296.422" stroke="#A80036"/><text font-family="Arial" font-size="13" x="85" y="291.565">isActive()</text><path d="M89 327.773 79 331.773 89 335.773 85 331.773Z" stroke="#A80036" fill="#A80036"/><line x1="83" y1="331.773" x2="580.5" y2="331.773" stroke="#A80036"/><text font-family="Arial" font-size="13" x="95" y="326.917">user-defined</text><path d="M5 309.422 5 335.422 69 335.422 69 319.422 59 309.422 5 309.422" stroke="#A80036" fill="#FBFB77" filter="url(#f1t6l6mx0i6zn3)"/><path d="M59 309.422 59 319.422 69 319.422 59 309.422" stroke="#A80036" fill="#FBFB77"/><text font-family="Arial" font-size="13" x="11" y="327.917">frame 1</text><path d="M569.5 363.125 579.5 367.125 569.5 371.125 573.5 367.125Z" stroke="#A80036" fill="#A80036"/><line x1="78" y1="367.125" x2="575.5" y2="367.125" stroke="#A80036"/><text font-family="Arial" font-size="13" x="85" y="362.269">isForcedActive()</text><path d="M89 393.477 79 397.477 89 401.477 85 397.477Z" stroke="#A80036" fill="#A80036"/><line x1="83" y1="397.477" x2="580.5" y2="397.477" stroke="#A80036"/><text font-family="Arial" font-size="13" x="95" y="392.62">true</text></g></svg>