<svg width="679" height="228" viewBox="0 0 679 228" preserveAspectRatio="none" xmlns="http://www.w3.org/2000/svg" xmlns:xlink="http://www.w3.org/1999/xlink" overflow="hidden"><defs><filter id="fiyrdj83cguc4" x="-1" y="-1" width="300%" height="300%" filterUnits="objectBoundingBox" primitiveUnits="userSpaceOnUse"><feGaussianBlur result="blurOut" stdDeviation="2 2"/><feColorMatrix in="blurOut" result="blurOut2" type="matrix" values="0 0 0 0 0 0 0 0 0 0 0 0 0 0 0 0 0 0 0.4 0 "/><feOffset in="blurOut2" result="blurOut3" dx="4" dy="4"/><feBlend in="SourceGraphic" in2="blurOut3" mode="normal"/></filter></defs><g><path d="M16 6 65 6 72 29.6094 518 29.6094 518 221 16 221 16 6Z" stroke="#000000" stroke-width="1.5" fill="#FFFFFF" filter="url(#fiyrdj83cguc4)"/><line x1="16" y1="29.6094" x2="72" y2="29.6094" stroke="#000000" stroke-width="1.5"/><text font-family="Arial" font-weight="700" font-size="14" x="20" y="22.5332">spinel</text><path d="M542 9.5 611 9.5 618 33.1094 662 33.1094 662 109.5 542 109.5 542 9.5Z" stroke="#000000" stroke-width="1.5" fill="#FFFFFF" filter="url(#fiyrdj83cguc4)"/><line x1="542" y1="33.1094" x2="618" y2="33.1094" stroke="#000000" stroke-width="1.5"/><text font-family="Arial" font-weight="700" font-size="14" x="546" y="26.0332">java.lang</text><rect x="217" y="157" width="76" height="48" id="Window" stroke="#A80036" stroke-width="1.5" fill="#FEFECE" filter="url(#fiyrdj83cguc4)"/><ellipse cx="232" cy="173" rx="11" ry="11" stroke="#A80036" fill="#ADD1B2"/><path d="M234.766 168.875C234.87 168.729 234.984 168.62 235.109 168.547 235.234 168.474 235.37 168.438 235.516 168.438 235.766 168.438 235.969 168.526 236.125 168.703 236.281 168.87 236.359 169.156 236.359 169.562L236.359 171.016C236.359 171.422 236.281 171.714 236.125 171.891 235.969 172.068 235.766 172.156 235.516 172.156 235.286 172.156 235.104 172.089 234.969 171.953 234.833 171.828 234.729 171.594 234.656 171.25 234.625 171.01 234.547 170.828 234.422 170.703 234.203 170.453 233.891 170.255 233.484 170.109 233.078 169.964 232.667 169.891 232.25 169.891 231.74 169.891 231.271 170 230.844 170.219 230.427 170.438 230.052 170.797 229.719 171.297 229.396 171.797 229.234 172.391 229.234 173.078L229.234 174.172C229.234 174.995 229.531 175.682 230.125 176.234 230.719 176.776 231.547 177.047 232.609 177.047 233.234 177.047 233.766 176.964 234.203 176.797 234.464 176.693 234.734 176.495 235.016 176.203 235.193 176.026 235.328 175.911 235.422 175.859 235.526 175.807 235.646 175.781 235.781 175.781 236 175.781 236.193 175.87 236.359 176.047 236.536 176.214 236.625 176.411 236.625 176.641 236.625 176.87 236.51 177.12 236.281 177.391 235.948 177.776 235.516 178.078 234.984 178.297 234.266 178.599 233.474 178.75 232.609 178.75 231.599 178.75 230.693 178.542 229.891 178.125 229.234 177.792 228.677 177.271 228.219 176.562 227.76 175.844 227.531 175.057 227.531 174.203L227.531 173.047C227.531 172.161 227.734 171.339 228.141 170.578 228.557 169.807 229.13 169.219 229.859 168.812 230.589 168.396 231.365 168.188 232.188 168.188 232.677 168.188 233.135 168.245 233.562 168.359 234 168.464 234.401 168.635 234.766 168.875Z"/><text font-family="Arial" font-size="12" x="246" y="177.91">Window</text><line x1="218" y1="189" x2="292" y2="189" stroke="#A80036" stroke-width="1.5"/><line x1="218" y1="197" x2="292" y2="197" stroke="#A80036" stroke-width="1.5"/><rect x="45.5" y="157" width="59" height="48" id="Input" stroke="#A80036" stroke-width="1.5" fill="#FEFECE" filter="url(#fiyrdj83cguc4)"/><ellipse cx="60.5" cy="173" rx="11" ry="11" stroke="#A80036" fill="#ADD1B2"/><path d="M63.2656 168.875C63.3698 168.729 63.4844 168.62 63.6094 168.547 63.7344 168.474 63.8698 168.438 64.0156 168.438 64.2656 168.438 64.4687 168.526 64.625 168.703 64.7813 168.87 64.8594 169.156 64.8594 169.562L64.8594 171.016C64.8594 171.422 64.7813 171.714 64.625 171.891 64.4687 172.068 64.2656 172.156 64.0156 172.156 63.7865 172.156 63.6042 172.089 63.4688 171.953 63.3333 171.828 63.2292 171.594 63.1563 171.25 63.125 171.01 63.0469 170.828 62.9219 170.703 62.7032 170.453 62.3907 170.255 61.9844 170.109 61.5781 169.964 61.1667 169.891 60.75 169.891 60.2396 169.891 59.7709 170 59.3438 170.219 58.9271 170.438 58.5521 170.797 58.2188 171.297 57.8959 171.797 57.7344 172.391 57.7344 173.078L57.7344 174.172C57.7344 174.995 58.0313 175.682 58.625 176.234 59.2187 176.776 60.0469 177.047 61.1094 177.047 61.7344 177.047 62.2656 176.964 62.7031 176.797 62.9636 176.693 63.2344 176.495 63.5156 176.203 63.6927 176.026 63.8282 175.911 63.9219 175.859 64.026 175.807 64.1458 175.781 64.2813 175.781 64.5 175.781 64.6927 175.87 64.8594 176.047 65.0365 176.214 65.125 176.411 65.125 176.641 65.125 176.87 65.0104 177.12 64.7813 177.391 64.448 177.776 64.0157 178.078 63.4844 178.297 62.7657 178.599 61.974 178.75 61.1094 178.75 60.099 178.75 59.1927 178.542 58.3906 178.125 57.7344 177.792 57.1771 177.271 56.7188 176.562 56.2605 175.844 56.0313 175.057 56.0313 174.203L56.0313 173.047C56.0313 172.161 56.2344 171.339 56.6406 170.578 57.0573 169.807 57.6302 169.219 58.3594 168.812 59.0885 168.396 59.8646 168.188 60.6875 168.188 61.1771 168.188 61.6354 168.245 62.0625 168.359 62.5 168.464 62.9011 168.635 63.2656 168.875Z"/><text font-family="Arial" font-size="12" x="74.5" y="177.91">Input</text><line x1="46.5" y1="189" x2="103.5" y2="189" stroke="#A80036" stroke-width="1.5"/><line x1="46.5" y1="197" x2="103.5" y2="197" stroke="#A80036" stroke-width="1.5"/><rect x="430.5" y="157" width="71" height="48" id="Engine" stroke="#A80036" stroke-width="1.5" fill="#FEFECE" filter="url(#fiyrdj83cguc4)"/><ellipse cx="445.5" cy="173" rx="11" ry="11" stroke="#A80036" fill="#ADD1B2"/><path d="M448.266 168.875C448.37 168.729 448.484 168.62 448.609 168.547 448.734 168.474 448.87 168.438 449.016 168.438 449.266 168.438 449.469 168.526 449.625 168.703 449.781 168.87 449.859 169.156 449.859 169.562L449.859 171.016C449.859 171.422 449.781 171.714 449.625 171.891 449.469 172.068 449.266 172.156 449.016 172.156 448.786 172.156 448.604 172.089 448.469 171.953 448.333 171.828 448.229 171.594 448.156 171.25 448.125 171.01 448.047 170.828 447.922 170.703 447.703 170.453 447.391 170.255 446.984 170.109 446.578 169.964 446.167 169.891 445.75 169.891 445.24 169.891 444.771 170 444.344 170.219 443.927 170.438 443.552 170.797 443.219 171.297 442.896 171.797 442.734 172.391 442.734 173.078L442.734 174.172C442.734 174.995 443.031 175.682 443.625 176.234 444.219 176.776 445.047 177.047 446.109 177.047 446.734 177.047 447.266 176.964 447.703 176.797 447.964 176.693 448.234 176.495 448.516 176.203 448.693 176.026 448.828 175.911 448.922 175.859 449.026 175.807 449.146 175.781 449.281 175.781 449.5 175.781 449.693 175.87 449.859 176.047 450.036 176.214 450.125 176.411 450.125 176.641 450.125 176.87 450.01 177.12 449.781 177.391 449.448 177.776 449.016 178.078 448.484 178.297 447.766 178.599 446.974 178.75 446.109 178.75 445.099 178.75 444.193 178.542 443.391 178.125 442.734 177.792 442.177 177.271 441.719 176.562 441.26 175.844 441.031 175.057 441.031 174.203L441.031 173.047C441.031 172.161 441.234 171.339 441.641 170.578 442.057 169.807 442.63 169.219 443.359 168.812 444.089 168.396 444.865 168.188 445.688 168.188 446.177 168.188 446.635 168.245 447.062 168.359 447.5 168.464 447.901 168.635 448.266 168.875Z"/><text font-family="Arial" font-size="12" x="459.5" y="177.91">Engine</text><line x1="431.5" y1="189" x2="500.5" y2="189" stroke="#A80036" stroke-width="1.5"/><line x1="431.5" y1="197" x2="500.5" y2="197" stroke="#A80036" stroke-width="1.5"/><path d="M230 42 266 42 273 65.6094 280 65.6094 280 97.2188 230 97.2188 230 42Z" stroke="#000000" stroke-width="1.5" fill="#FFFFFF" filter="url(#fiyrdj83cguc4)"/><line x1="230" y1="65.6094" x2="273" y2="65.6094" stroke="#000000" stroke-width="1.5"/><text font-family="Arial" font-weight="700" font-size="14" x="234" y="58.5332">utils</text><path d="M315 42 399 42 406 65.6094 413 65.6094 413 97.2188 315 97.2188 315 42Z" stroke="#000000" stroke-width="1.5" fill="#FFFFFF" filter="url(#fiyrdj83cguc4)"/><line x1="315" y1="65.6094" x2="406" y2="65.6094" stroke="#000000" stroke-width="1.5"/><text font-family="Arial" font-weight="700" font-size="14" x="319" y="58.5332">scheduling</text><path d="M448 42 488 42 495 65.6094 502 65.6094 502 97.2188 448 97.2188 448 42Z" stroke="#000000" stroke-width="1.5" fill="#FFFFFF" filter="url(#fiyrdj83cguc4)"/><line x1="448" y1="65.6094" x2="495" y2="65.6094" stroke="#000000" stroke-width="1.5"/><text font-family="Arial" font-weight="700" font-size="14" x="452" y="58.5332">math</text><path d="M153 42 181 42 188 65.6094 195 65.6094 195 97.2188 153 97.2188 153 42Z" stroke="#000000" stroke-width="1.5" fill="#FFFFFF" filter="url(#fiyrdj83cguc4)"/><line x1="153" y1="65.6094" x2="188" y2="65.6094" stroke="#000000" stroke-width="1.5"/><text font-family="Arial" font-weight="700" font-size="14" x="157" y="58.5332">gfx</text><path d="M32.5 42 103.5 42 110.5 65.6094 117.5 65.6094 117.5 97.2188 32.5 97.2188 32.5 42Z" stroke="#000000" stroke-width="1.5" fill="#FFFFFF" filter="url(#fiyrdj83cguc4)"/><line x1="32.5" y1="65.6094" x2="110.5" y2="65.6094" stroke="#000000" stroke-width="1.5"/><text font-family="Arial" font-weight="700" font-size="14" x="36.5" y="58.5332">elements</text><rect x="558.5" y="45.5" width="87" height="48" id="java.lang.Runnable" stroke="#A80036" stroke-width="1.5" fill="#FEFECE" filter="url(#fiyrdj83cguc4)"/><ellipse cx="573.5" cy="61.5" rx="11" ry="11" stroke="#A80036" fill="#B4A7E5"/><path d="M574.453 58.1406 574.453 64.7969 576.172 64.7969C576.578 64.7969 576.87 64.875 577.047 65.0313 577.224 65.1875 577.312 65.3958 577.312 65.6563 577.312 65.9063 577.224 66.1094 577.047 66.2656 576.87 66.4219 576.578 66.5 576.172 66.5L571.031 66.5C570.625 66.5 570.333 66.4219 570.156 66.2656 569.979 66.1094 569.891 65.9011 569.891 65.6406 569.891 65.3906 569.979 65.1875 570.156 65.0313 570.333 64.875 570.625 64.7969 571.031 64.7969L572.75 64.7969 572.75 58.1406 571.031 58.1406C570.625 58.1406 570.333 58.0625 570.156 57.9063 569.979 57.75 569.891 57.5417 569.891 57.2813 569.891 57.0313 569.979 56.8282 570.156 56.6719 570.333 56.5156 570.625 56.4375 571.031 56.4375L576.172 56.4375C576.578 56.4375 576.87 56.5156 577.047 56.6719 577.224 56.8282 577.312 57.0313 577.312 57.2813 577.312 57.5417 577.224 57.75 577.047 57.9063 576.87 58.0625 576.578 58.1406 576.172 58.1406L574.453 58.1406Z"/><text font-family="Arial" font-style="italic" font-size="12" x="587.5" y="66.4102">Runnable</text><line x1="559.5" y1="77.5" x2="644.5" y2="77.5" stroke="#A80036" stroke-width="1.5"/><line x1="559.5" y1="85.5" x2="644.5" y2="85.5" stroke="#A80036" stroke-width="1.5"/><path d="M557.51 106.32C536.9 122.92 513 142.16 494.8 156.81" id="java.lang.Runnable-backto-Engine" stroke="#A80036" stroke-dasharray="7 7" fill="none"/><path d="M553.19 100.81 573.16 93.72 561.97 111.72 553.19 100.81Z" stroke="#A80036" fill="none"/></g></svg>