<svg width="325" height="270" viewBox="0 0 325 270" preserveAspectRatio="none" xmlns="http://www.w3.org/2000/svg" xmlns:xlink="http://www.w3.org/1999/xlink" overflow="hidden"><defs><filter id="fnuvofzyq1xyb" x="-1" y="-1" width="300%" height="300%" filterUnits="objectBoundingBox" primitiveUnits="userSpaceOnUse"><feGaussianBlur result="blurOut" stdDeviation="2 2"/><feColorMatrix in="blurOut" result="blurOut2" type="matrix" values="0 0 0 0 0 0 0 0 0 0 0 0 0 0 0 0 0 0 0.4 0 "/><feOffset in="blurOut2" result="blurOut3" dx="4" dy="4"/><feBlend in="SourceGraphic" in2="blurOut3" mode="normal"/></filter></defs><g><rect x="118.5" y="178.016" width="10" height="30.3516" stroke="#A80036" fill="#FFFFFF" filter="url(#fnuvofzyq1xyb)"/><rect x="261.5" y="147.664" width="10" height="30.3516" stroke="#A80036" fill="#FFFFFF" filter="url(#fnuvofzyq1xyb)"/><line x1="27" y1="41.6094" x2="27" y2="226.367" stroke="#A80036" stroke-dasharray="5 5"/><line x1="123" y1="41.6094" x2="123" y2="226.367" stroke="#A80036" stroke-dasharray="5 5"/><line x1="266" y1="41.6094" x2="266" y2="226.367" stroke="#A80036" stroke-dasharray="5 5"/><rect x="5" y="5" width="41" height="31.6094" stroke="#A80036" stroke-width="1.5" fill="#FEFECE" filter="url(#fnuvofzyq1xyb)"/><text font-family="Arial" font-size="14" x="12" y="26.5332">Map</text><rect x="5" y="225.367" width="41" height="31.6094" stroke="#A80036" stroke-width="1.5" fill="#FEFECE" filter="url(#fnuvofzyq1xyb)"/><text font-family="Arial" font-size="14" x="12" y="246.9">Map</text><rect x="78" y="5" width="87" height="31.6094" stroke="#A80036" stroke-width="1.5" fill="#FEFECE" filter="url(#fnuvofzyq1xyb)"/><text font-family="Arial" font-size="14" x="85" y="26.5332">OSMParser</text><rect x="78" y="225.367" width="87" height="31.6094" stroke="#A80036" stroke-width="1.5" fill="#FEFECE" filter="url(#fnuvofzyq1xyb)"/><text font-family="Arial" font-size="14" x="85" y="246.9">OSMParser</text><rect x="218" y="5" width="93" height="31.6094" stroke="#A80036" stroke-width="1.5" fill="#FEFECE" filter="url(#fnuvofzyq1xyb)"/><text font-family="Arial" font-size="14" x="225" y="26.5332">PortalParser</text><rect x="218" y="225.367" width="93" height="31.6094" stroke="#A80036" stroke-width="1.5" fill="#FEFECE" filter="url(#fnuvofzyq1xyb)"/><text font-family="Arial" font-size="14" x="225" y="246.9">PortalParser</text><rect x="118.5" y="178.016" width="10" height="30.3516" stroke="#A80036" fill="#FFFFFF" filter="url(#fnuvofzyq1xyb)"/><rect x="261.5" y="147.664" width="10" height="30.3516" stroke="#A80036" fill="#FFFFFF" filter="url(#fnuvofzyq1xyb)"/><path d="M111.5 69.9609 121.5 73.9609 111.5 77.9609 115.5 73.9609Z" stroke="#A80036" fill="#A80036"/><line x1="27.5" y1="73.9609" x2="117.5" y2="73.9609" stroke="#A80036"/><text font-family="Arial" font-size="13" x="34.5" y="69.1045">parse(props)</text><line x1="123.5" y1="109.312" x2="165.5" y2="109.312" stroke="#A80036"/><line x1="165.5" y1="109.312" x2="165.5" y2="122.312" stroke="#A80036"/><line x1="118.5" y1="122.312" x2="165.5" y2="122.312" stroke="#A80036"/><path d="M128.5 118.312 118.5 122.312 128.5 126.312 124.5 122.312Z" stroke="#A80036" fill="#A80036"/><text font-family="Arial" font-size="13" x="130.5" y="104.456">XML -&gt; OSM</text><path d="M249.5 143.664 259.5 147.664 249.5 151.664 253.5 147.664Z" stroke="#A80036" fill="#A80036"/><line x1="123.5" y1="147.664" x2="255.5" y2="147.664" stroke="#A80036"/><text font-family="Arial" font-size="13" x="130.5" y="142.808">parse(Coords, Style)</text><path d="M139.5 174.016 129.5 178.016 139.5 182.016 135.5 178.016Z" stroke="#A80036" fill="#A80036"/><line x1="133.5" y1="178.016" x2="265.5" y2="178.016" stroke="#A80036"/><text font-family="Arial" font-size="13" x="145.5" y="173.159">Items (spinel)</text><path d="M38.5 204.367 28.5 208.367 38.5 212.367 34.5 208.367Z" stroke="#A80036" fill="#A80036"/><line x1="32.5" y1="208.367" x2="122.5" y2="208.367" stroke="#A80036"/><text font-family="Arial" font-size="13" x="44.5" y="203.511">PlainMap</text></g></svg>