<svg width="420" height="585" viewBox="0 0 420 585" preserveAspectRatio="none" xmlns="http://www.w3.org/2000/svg" xmlns:xlink="http://www.w3.org/1999/xlink" overflow="hidden"><defs><filter id="f1kffk76975304" x="-1" y="-1" width="300%" height="300%" filterUnits="objectBoundingBox" primitiveUnits="userSpaceOnUse"><feGaussianBlur result="blurOut" stdDeviation="2 2"/><feColorMatrix in="blurOut" result="blurOut2" type="matrix" values="0 0 0 0 0 0 0 0 0 0 0 0 0 0 0 0 0 0 0.4 0 "/><feOffset in="blurOut2" result="blurOut3" dx="4" dy="4"/><feBlend in="SourceGraphic" in2="blurOut3" mode="normal"/></filter></defs><g><path d="M16 130 87 130 94 153.609 403 153.609 403 578 16 578 16 130Z" stroke="#000000" stroke-width="1.5" fill="#FFFFFF" filter="url(#f1kffk76975304)"/><line x1="16" y1="153.609" x2="94" y2="153.609" stroke="#000000" stroke-width="1.5"/><text font-family="Arial" font-weight="700" font-size="14" x="20" y="146.533">elements</text><path d="M40 346 68 346 75 369.609 154 369.609 154 554 40 554 40 346Z" stroke="#000000" stroke-width="1.5" fill="#FFFFFF" filter="url(#f1kffk76975304)"/><line x1="40" y1="369.609" x2="75" y2="369.609" stroke="#000000" stroke-width="1.5"/><text font-family="Arial" font-weight="700" font-size="14" x="44" y="362.533">gui</text><path d="M178 346 223 346 230 369.609 379 369.609 379 554 178 554 178 346Z" stroke="#000000" stroke-width="1.5" fill="#FFFFFF" filter="url(#f1kffk76975304)"/><line x1="178" y1="369.609" x2="230" y2="369.609" stroke="#000000" stroke-width="1.5"/><text font-family="Arial" font-weight="700" font-size="14" x="182" y="362.533">geom</text><path d="M42 6 70 6 77 29.6094 332 29.6094 332 106 42 106 42 6Z" stroke="#000000" stroke-width="1.5" fill="#FFFFFF" filter="url(#f1kffk76975304)"/><line x1="42" y1="29.6094" x2="77" y2="29.6094" stroke="#000000" stroke-width="1.5"/><text font-family="Arial" font-weight="700" font-size="14" x="46" y="22.5332">gfx</text><rect x="99" y="166" width="88" height="48" id="RootNode" stroke="#A80036" stroke-width="1.5" fill="#FEFECE" filter="url(#f1kffk76975304)"/><ellipse cx="114" cy="182" rx="11" ry="11" stroke="#A80036" fill="#ADD1B2"/><path d="M116.766 177.875C116.87 177.729 116.984 177.62 117.109 177.547 117.234 177.474 117.37 177.438 117.516 177.438 117.766 177.438 117.969 177.526 118.125 177.703 118.281 177.87 118.359 178.156 118.359 178.562L118.359 180.016C118.359 180.422 118.281 180.714 118.125 180.891 117.969 181.068 117.766 181.156 117.516 181.156 117.286 181.156 117.104 181.089 116.969 180.953 116.833 180.828 116.729 180.594 116.656 180.25 116.625 180.01 116.547 179.828 116.422 179.703 116.203 179.453 115.891 179.255 115.484 179.109 115.078 178.964 114.667 178.891 114.25 178.891 113.74 178.891 113.271 179 112.844 179.219 112.427 179.438 112.052 179.797 111.719 180.297 111.396 180.797 111.234 181.391 111.234 182.078L111.234 183.172C111.234 183.995 111.531 184.682 112.125 185.234 112.719 185.776 113.547 186.047 114.609 186.047 115.234 186.047 115.766 185.964 116.203 185.797 116.464 185.693 116.734 185.495 117.016 185.203 117.193 185.026 117.328 184.911 117.422 184.859 117.526 184.807 117.646 184.781 117.781 184.781 118 184.781 118.193 184.87 118.359 185.047 118.536 185.214 118.625 185.411 118.625 185.641 118.625 185.87 118.51 186.12 118.281 186.391 117.948 186.776 117.516 187.078 116.984 187.297 116.266 187.599 115.474 187.75 114.609 187.75 113.599 187.75 112.693 187.542 111.891 187.125 111.234 186.792 110.677 186.271 110.219 185.562 109.76 184.844 109.531 184.057 109.531 183.203L109.531 182.047C109.531 181.161 109.734 180.339 110.141 179.578 110.557 178.807 111.13 178.219 111.859 177.812 112.589 177.396 113.365 177.188 114.188 177.188 114.677 177.188 115.135 177.245 115.562 177.359 116 177.464 116.401 177.635 116.766 177.875Z"/><text font-family="Arial" font-size="12" x="128" y="186.91">RootNode</text><line x1="100" y1="198" x2="186" y2="198" stroke="#A80036" stroke-width="1.5"/><line x1="100" y1="206" x2="186" y2="206" stroke="#A80036" stroke-width="1.5"/><rect x="112" y="274" width="62" height="48" id="Node" stroke="#A80036" stroke-width="1.5" fill="#FEFECE" filter="url(#f1kffk76975304)"/><ellipse cx="127" cy="290" rx="11" ry="11" stroke="#A80036" fill="#ADD1B2"/><path d="M129.766 285.875C129.87 285.729 129.984 285.62 130.109 285.547 130.234 285.474 130.37 285.438 130.516 285.438 130.766 285.438 130.969 285.526 131.125 285.703 131.281 285.87 131.359 286.156 131.359 286.562L131.359 288.016C131.359 288.422 131.281 288.714 131.125 288.891 130.969 289.068 130.766 289.156 130.516 289.156 130.286 289.156 130.104 289.089 129.969 288.953 129.833 288.828 129.729 288.594 129.656 288.25 129.625 288.01 129.547 287.828 129.422 287.703 129.203 287.453 128.891 287.255 128.484 287.109 128.078 286.964 127.667 286.891 127.25 286.891 126.74 286.891 126.271 287 125.844 287.219 125.427 287.438 125.052 287.797 124.719 288.297 124.396 288.797 124.234 289.391 124.234 290.078L124.234 291.172C124.234 291.995 124.531 292.682 125.125 293.234 125.719 293.776 126.547 294.047 127.609 294.047 128.234 294.047 128.766 293.964 129.203 293.797 129.464 293.693 129.734 293.495 130.016 293.203 130.193 293.026 130.328 292.911 130.422 292.859 130.526 292.807 130.646 292.781 130.781 292.781 131 292.781 131.193 292.87 131.359 293.047 131.536 293.214 131.625 293.411 131.625 293.641 131.625 293.87 131.51 294.12 131.281 294.391 130.948 294.776 130.516 295.078 129.984 295.297 129.266 295.599 128.474 295.75 127.609 295.75 126.599 295.75 125.693 295.542 124.891 295.125 124.234 294.792 123.677 294.271 123.219 293.562 122.76 292.844 122.531 292.057 122.531 291.203L122.531 290.047C122.531 289.161 122.734 288.339 123.141 287.578 123.557 286.807 124.13 286.219 124.859 285.812 125.589 285.396 126.365 285.188 127.188 285.188 127.677 285.188 128.135 285.245 128.562 285.359 129 285.464 129.401 285.635 129.766 285.875Z"/><text font-family="Arial" font-size="12" x="141" y="294.91">Node</text><line x1="113" y1="306" x2="173" y2="306" stroke="#A80036" stroke-width="1.5"/><line x1="113" y1="314" x2="173" y2="314" stroke="#A80036" stroke-width="1.5"/><rect x="56.5" y="490" width="81" height="48" id="GuiLayer" stroke="#A80036" stroke-width="1.5" fill="#FEFECE" filter="url(#f1kffk76975304)"/><ellipse cx="71.5" cy="506" rx="11" ry="11" stroke="#A80036" fill="#ADD1B2"/><path d="M74.2656 501.875C74.3698 501.729 74.4844 501.62 74.6094 501.547 74.7344 501.474 74.8698 501.438 75.0156 501.438 75.2656 501.438 75.4687 501.526 75.625 501.703 75.7813 501.87 75.8594 502.156 75.8594 502.562L75.8594 504.016C75.8594 504.422 75.7813 504.714 75.625 504.891 75.4687 505.068 75.2656 505.156 75.0156 505.156 74.7865 505.156 74.6042 505.089 74.4688 504.953 74.3333 504.828 74.2292 504.594 74.1563 504.25 74.125 504.01 74.0469 503.828 73.9219 503.703 73.7032 503.453 73.3907 503.255 72.9844 503.109 72.5781 502.964 72.1667 502.891 71.75 502.891 71.2396 502.891 70.7709 503 70.3438 503.219 69.9271 503.438 69.5521 503.797 69.2188 504.297 68.8959 504.797 68.7344 505.391 68.7344 506.078L68.7344 507.172C68.7344 507.995 69.0313 508.682 69.625 509.234 70.2187 509.776 71.0469 510.047 72.1094 510.047 72.7344 510.047 73.2656 509.964 73.7031 509.797 73.9636 509.693 74.2344 509.495 74.5156 509.203 74.6927 509.026 74.8282 508.911 74.9219 508.859 75.026 508.807 75.1458 508.781 75.2813 508.781 75.5 508.781 75.6927 508.87 75.8594 509.047 76.0365 509.214 76.125 509.411 76.125 509.641 76.125 509.87 76.0104 510.12 75.7813 510.391 75.448 510.776 75.0157 511.078 74.4844 511.297 73.7657 511.599 72.974 511.75 72.1094 511.75 71.099 511.75 70.1927 511.542 69.3906 511.125 68.7344 510.792 68.1771 510.271 67.7188 509.562 67.2605 508.844 67.0313 508.057 67.0313 507.203L67.0313 506.047C67.0313 505.161 67.2344 504.339 67.6406 503.578 68.0573 502.807 68.6302 502.219 69.3594 501.812 70.0885 501.396 70.8646 501.188 71.6875 501.188 72.1771 501.188 72.6354 501.245 73.0625 501.359 73.5 501.464 73.9011 501.635 74.2656 501.875Z"/><text font-family="Arial" font-size="12" x="85.5" y="510.91">GuiLayer</text><line x1="57.5" y1="522" x2="136.5" y2="522" stroke="#A80036" stroke-width="1.5"/><line x1="57.5" y1="530" x2="136.5" y2="530" stroke="#A80036" stroke-width="1.5"/><rect x="56.5" y="382" width="81" height="48" id="GuiNode" stroke="#A80036" stroke-width="1.5" fill="#FEFECE" filter="url(#f1kffk76975304)"/><ellipse cx="71.5" cy="398" rx="11" ry="11" stroke="#A80036" fill="#ADD1B2"/><path d="M74.2656 393.875C74.3698 393.729 74.4844 393.62 74.6094 393.547 74.7344 393.474 74.8698 393.438 75.0156 393.438 75.2656 393.438 75.4687 393.526 75.625 393.703 75.7813 393.87 75.8594 394.156 75.8594 394.562L75.8594 396.016C75.8594 396.422 75.7813 396.714 75.625 396.891 75.4687 397.068 75.2656 397.156 75.0156 397.156 74.7865 397.156 74.6042 397.089 74.4688 396.953 74.3333 396.828 74.2292 396.594 74.1563 396.25 74.125 396.01 74.0469 395.828 73.9219 395.703 73.7032 395.453 73.3907 395.255 72.9844 395.109 72.5781 394.964 72.1667 394.891 71.75 394.891 71.2396 394.891 70.7709 395 70.3438 395.219 69.9271 395.438 69.5521 395.797 69.2188 396.297 68.8959 396.797 68.7344 397.391 68.7344 398.078L68.7344 399.172C68.7344 399.995 69.0313 400.682 69.625 401.234 70.2187 401.776 71.0469 402.047 72.1094 402.047 72.7344 402.047 73.2656 401.964 73.7031 401.797 73.9636 401.693 74.2344 401.495 74.5156 401.203 74.6927 401.026 74.8282 400.911 74.9219 400.859 75.026 400.807 75.1458 400.781 75.2813 400.781 75.5 400.781 75.6927 400.87 75.8594 401.047 76.0365 401.214 76.125 401.411 76.125 401.641 76.125 401.87 76.0104 402.12 75.7813 402.391 75.448 402.776 75.0157 403.078 74.4844 403.297 73.7657 403.599 72.974 403.75 72.1094 403.75 71.099 403.75 70.1927 403.542 69.3906 403.125 68.7344 402.792 68.1771 402.271 67.7188 401.562 67.2605 400.844 67.0313 400.057 67.0313 399.203L67.0313 398.047C67.0313 397.161 67.2344 396.339 67.6406 395.578 68.0573 394.807 68.6302 394.219 69.3594 393.812 70.0885 393.396 70.8646 393.188 71.6875 393.188 72.1771 393.188 72.6354 393.245 73.0625 393.359 73.5 393.464 73.9011 393.635 74.2656 393.875Z"/><text font-family="Arial" font-size="12" x="85.5" y="402.91">GuiNode</text><line x1="57.5" y1="414" x2="136.5" y2="414" stroke="#A80036" stroke-width="1.5"/><line x1="57.5" y1="422" x2="136.5" y2="422" stroke="#A80036" stroke-width="1.5"/><rect x="194" y="382" width="96" height="48" id="GeomNode" stroke="#A80036" stroke-width="1.5" fill="#FEFECE" filter="url(#f1kffk76975304)"/><ellipse cx="209" cy="398" rx="11" ry="11" stroke="#A80036" fill="#ADD1B2"/><path d="M211.766 393.875C211.87 393.729 211.984 393.62 212.109 393.547 212.234 393.474 212.37 393.438 212.516 393.438 212.766 393.438 212.969 393.526 213.125 393.703 213.281 393.87 213.359 394.156 213.359 394.562L213.359 396.016C213.359 396.422 213.281 396.714 213.125 396.891 212.969 397.068 212.766 397.156 212.516 397.156 212.286 397.156 212.104 397.089 211.969 396.953 211.833 396.828 211.729 396.594 211.656 396.25 211.625 396.01 211.547 395.828 211.422 395.703 211.203 395.453 210.891 395.255 210.484 395.109 210.078 394.964 209.667 394.891 209.25 394.891 208.74 394.891 208.271 395 207.844 395.219 207.427 395.438 207.052 395.797 206.719 396.297 206.396 396.797 206.234 397.391 206.234 398.078L206.234 399.172C206.234 399.995 206.531 400.682 207.125 401.234 207.719 401.776 208.547 402.047 209.609 402.047 210.234 402.047 210.766 401.964 211.203 401.797 211.464 401.693 211.734 401.495 212.016 401.203 212.193 401.026 212.328 400.911 212.422 400.859 212.526 400.807 212.646 400.781 212.781 400.781 213 400.781 213.193 400.87 213.359 401.047 213.536 401.214 213.625 401.411 213.625 401.641 213.625 401.87 213.51 402.12 213.281 402.391 212.948 402.776 212.516 403.078 211.984 403.297 211.266 403.599 210.474 403.75 209.609 403.75 208.599 403.75 207.693 403.542 206.891 403.125 206.234 402.792 205.677 402.271 205.219 401.562 204.76 400.844 204.531 400.057 204.531 399.203L204.531 398.047C204.531 397.161 204.734 396.339 205.141 395.578 205.557 394.807 206.13 394.219 206.859 393.812 207.589 393.396 208.365 393.188 209.188 393.188 209.677 393.188 210.135 393.245 210.562 393.359 211 393.464 211.401 393.635 211.766 393.875Z"/><text font-family="Arial" font-size="12" x="223" y="402.91">GeomNode</text><line x1="195" y1="414" x2="289" y2="414" stroke="#A80036" stroke-width="1.5"/><line x1="195" y1="422" x2="289" y2="422" stroke="#A80036" stroke-width="1.5"/><rect x="194" y="490" width="56" height="48" id="Item" stroke="#A80036" stroke-width="1.5" fill="#FEFECE" filter="url(#f1kffk76975304)"/><ellipse cx="209" cy="506" rx="11" ry="11" stroke="#A80036" fill="#ADD1B2"/><path d="M211.766 501.875C211.87 501.729 211.984 501.62 212.109 501.547 212.234 501.474 212.37 501.438 212.516 501.438 212.766 501.438 212.969 501.526 213.125 501.703 213.281 501.87 213.359 502.156 213.359 502.562L213.359 504.016C213.359 504.422 213.281 504.714 213.125 504.891 212.969 505.068 212.766 505.156 212.516 505.156 212.286 505.156 212.104 505.089 211.969 504.953 211.833 504.828 211.729 504.594 211.656 504.25 211.625 504.01 211.547 503.828 211.422 503.703 211.203 503.453 210.891 503.255 210.484 503.109 210.078 502.964 209.667 502.891 209.25 502.891 208.74 502.891 208.271 503 207.844 503.219 207.427 503.438 207.052 503.797 206.719 504.297 206.396 504.797 206.234 505.391 206.234 506.078L206.234 507.172C206.234 507.995 206.531 508.682 207.125 509.234 207.719 509.776 208.547 510.047 209.609 510.047 210.234 510.047 210.766 509.964 211.203 509.797 211.464 509.693 211.734 509.495 212.016 509.203 212.193 509.026 212.328 508.911 212.422 508.859 212.526 508.807 212.646 508.781 212.781 508.781 213 508.781 213.193 508.87 213.359 509.047 213.536 509.214 213.625 509.411 213.625 509.641 213.625 509.87 213.51 510.12 213.281 510.391 212.948 510.776 212.516 511.078 211.984 511.297 211.266 511.599 210.474 511.75 209.609 511.75 208.599 511.75 207.693 511.542 206.891 511.125 206.234 510.792 205.677 510.271 205.219 509.562 204.76 508.844 204.531 508.057 204.531 507.203L204.531 506.047C204.531 505.161 204.734 504.339 205.141 503.578 205.557 502.807 206.13 502.219 206.859 501.812 207.589 501.396 208.365 501.188 209.188 501.188 209.677 501.188 210.135 501.245 210.562 501.359 211 501.464 211.401 501.635 211.766 501.875Z"/><text font-family="Arial" font-size="12" x="223" y="510.91">Item</text><line x1="195" y1="522" x2="249" y2="522" stroke="#A80036" stroke-width="1.5"/><line x1="195" y1="530" x2="249" y2="530" stroke="#A80036" stroke-width="1.5"/><rect x="285.5" y="490" width="77" height="48" id="Camera" stroke="#A80036" stroke-width="1.5" fill="#FEFECE" filter="url(#f1kffk76975304)"/><ellipse cx="300.5" cy="506" rx="11" ry="11" stroke="#A80036" fill="#ADD1B2"/><path d="M303.266 501.875C303.37 501.729 303.484 501.62 303.609 501.547 303.734 501.474 303.87 501.438 304.016 501.438 304.266 501.438 304.469 501.526 304.625 501.703 304.781 501.87 304.859 502.156 304.859 502.562L304.859 504.016C304.859 504.422 304.781 504.714 304.625 504.891 304.469 505.068 304.266 505.156 304.016 505.156 303.786 505.156 303.604 505.089 303.469 504.953 303.333 504.828 303.229 504.594 303.156 504.25 303.125 504.01 303.047 503.828 302.922 503.703 302.703 503.453 302.391 503.255 301.984 503.109 301.578 502.964 301.167 502.891 300.75 502.891 300.24 502.891 299.771 503 299.344 503.219 298.927 503.438 298.552 503.797 298.219 504.297 297.896 504.797 297.734 505.391 297.734 506.078L297.734 507.172C297.734 507.995 298.031 508.682 298.625 509.234 299.219 509.776 300.047 510.047 301.109 510.047 301.734 510.047 302.266 509.964 302.703 509.797 302.964 509.693 303.234 509.495 303.516 509.203 303.693 509.026 303.828 508.911 303.922 508.859 304.026 508.807 304.146 508.781 304.281 508.781 304.5 508.781 304.693 508.87 304.859 509.047 305.036 509.214 305.125 509.411 305.125 509.641 305.125 509.87 305.01 510.12 304.781 510.391 304.448 510.776 304.016 511.078 303.484 511.297 302.766 511.599 301.974 511.75 301.109 511.75 300.099 511.75 299.193 511.542 298.391 511.125 297.734 510.792 297.177 510.271 296.719 509.562 296.26 508.844 296.031 508.057 296.031 507.203L296.031 506.047C296.031 505.161 296.234 504.339 296.641 503.578 297.057 502.807 297.63 502.219 298.359 501.812 299.089 501.396 299.865 501.188 300.688 501.188 301.177 501.188 301.635 501.245 302.062 501.359 302.5 501.464 302.901 501.635 303.266 501.875Z"/><text font-family="Arial" font-size="12" x="314.5" y="510.91">Camera</text><line x1="286.5" y1="522" x2="361.5" y2="522" stroke="#A80036" stroke-width="1.5"/><line x1="286.5" y1="530" x2="361.5" y2="530" stroke="#A80036" stroke-width="1.5"/><rect x="212.5" y="42" width="103" height="48" id="GuiRenderer" stroke="#A80036" stroke-width="1.5" fill="#FEFECE" filter="url(#f1kffk76975304)"/><ellipse cx="227.5" cy="58" rx="11" ry="11" stroke="#A80036" fill="#ADD1B2"/><path d="M230.266 53.875C230.37 53.7292 230.484 53.6198 230.609 53.5469 230.734 53.474 230.87 53.4375 231.016 53.4375 231.266 53.4375 231.469 53.526 231.625 53.7031 231.781 53.8698 231.859 54.1562 231.859 54.5625L231.859 56.0156C231.859 56.4219 231.781 56.7135 231.625 56.8906 231.469 57.0677 231.266 57.1563 231.016 57.1563 230.786 57.1563 230.604 57.0886 230.469 56.9531 230.333 56.8281 230.229 56.5937 230.156 56.25 230.125 56.0104 230.047 55.8281 229.922 55.7031 229.703 55.4531 229.391 55.2552 228.984 55.1094 228.578 54.9635 228.167 54.8906 227.75 54.8906 227.24 54.8906 226.771 55 226.344 55.2188 225.927 55.4375 225.552 55.7969 225.219 56.2969 224.896 56.7969 224.734 57.3906 224.734 58.0781L224.734 59.1719C224.734 59.9948 225.031 60.6823 225.625 61.2344 226.219 61.7761 227.047 62.0469 228.109 62.0469 228.734 62.0469 229.266 61.9636 229.703 61.7969 229.964 61.6927 230.234 61.4948 230.516 61.2031 230.693 61.026 230.828 60.9115 230.922 60.8594 231.026 60.8073 231.146 60.7813 231.281 60.7813 231.5 60.7813 231.693 60.8698 231.859 61.0469 232.036 61.2136 232.125 61.4115 232.125 61.6406 232.125 61.8698 232.01 62.1198 231.781 62.3906 231.448 62.7761 231.016 63.0782 230.484 63.2969 229.766 63.599 228.974 63.75 228.109 63.75 227.099 63.75 226.193 63.5417 225.391 63.125 224.734 62.7917 224.177 62.2708 223.719 61.5625 223.26 60.8438 223.031 60.0573 223.031 59.2031L223.031 58.0469C223.031 57.1615 223.234 56.3386 223.641 55.5781 224.057 54.8073 224.63 54.2188 225.359 53.8125 226.089 53.3958 226.865 53.1875 227.688 53.1875 228.177 53.1875 228.635 53.2448 229.062 53.3594 229.5 53.4635 229.901 53.6354 230.266 53.875Z"/><text font-family="Arial" font-size="12" x="241.5" y="62.9102">GuiRenderer</text><line x1="213.5" y1="74" x2="314.5" y2="74" stroke="#A80036" stroke-width="1.5"/><line x1="213.5" y1="82" x2="314.5" y2="82" stroke="#A80036" stroke-width="1.5"/><rect x="58.5" y="42" width="119" height="48" id="SceneRenderer" stroke="#A80036" stroke-width="1.5" fill="#FEFECE" filter="url(#f1kffk76975304)"/><ellipse cx="73.5" cy="58" rx="11" ry="11" stroke="#A80036" fill="#ADD1B2"/><path d="M76.2656 53.875C76.3698 53.7292 76.4844 53.6198 76.6094 53.5469 76.7344 53.474 76.8698 53.4375 77.0156 53.4375 77.2656 53.4375 77.4687 53.526 77.625 53.7031 77.7813 53.8698 77.8594 54.1562 77.8594 54.5625L77.8594 56.0156C77.8594 56.4219 77.7813 56.7135 77.625 56.8906 77.4687 57.0677 77.2656 57.1563 77.0156 57.1563 76.7865 57.1563 76.6042 57.0886 76.4688 56.9531 76.3333 56.8281 76.2292 56.5937 76.1563 56.25 76.125 56.0104 76.0469 55.8281 75.9219 55.7031 75.7032 55.4531 75.3907 55.2552 74.9844 55.1094 74.5781 54.9635 74.1667 54.8906 73.75 54.8906 73.2396 54.8906 72.7709 55 72.3438 55.2188 71.9271 55.4375 71.5521 55.7969 71.2188 56.2969 70.8959 56.7969 70.7344 57.3906 70.7344 58.0781L70.7344 59.1719C70.7344 59.9948 71.0313 60.6823 71.625 61.2344 72.2187 61.7761 73.0469 62.0469 74.1094 62.0469 74.7344 62.0469 75.2656 61.9636 75.7031 61.7969 75.9636 61.6927 76.2344 61.4948 76.5156 61.2031 76.6927 61.026 76.8282 60.9115 76.9219 60.8594 77.026 60.8073 77.1458 60.7813 77.2813 60.7813 77.5 60.7813 77.6927 60.8698 77.8594 61.0469 78.0365 61.2136 78.125 61.4115 78.125 61.6406 78.125 61.8698 78.0104 62.1198 77.7813 62.3906 77.448 62.7761 77.0157 63.0782 76.4844 63.2969 75.7657 63.599 74.974 63.75 74.1094 63.75 73.099 63.75 72.1927 63.5417 71.3906 63.125 70.7344 62.7917 70.1771 62.2708 69.7188 61.5625 69.2605 60.8438 69.0313 60.0573 69.0313 59.2031L69.0313 58.0469C69.0313 57.1615 69.2344 56.3386 69.6406 55.5781 70.0573 54.8073 70.6302 54.2188 71.3594 53.8125 72.0885 53.3958 72.8646 53.1875 73.6875 53.1875 74.1771 53.1875 74.6354 53.2448 75.0625 53.3594 75.5 53.4635 75.9011 53.6354 76.2656 53.875Z"/><text font-family="Arial" font-size="12" x="87.5" y="62.9102">SceneRenderer</text><line x1="59.5" y1="74" x2="176.5" y2="74" stroke="#A80036" stroke-width="1.5"/><line x1="59.5" y1="82" x2="176.5" y2="82" stroke="#A80036" stroke-width="1.5"/><path d="M143 234.02C143 247.58 143 262.04 143 273.68" id="RootNode-backto-Node" stroke="#A80036" fill="none"/><path d="M136 234 143 214 150 234 136 234Z" stroke="#A80036" fill="none"/><path d="M97 450.02C97 463.58 97 478.04 97 489.68" id="GuiNode-backto-GuiLayer" stroke="#A80036" fill="none"/><path d="M90 450 97 430 104 450 90 450Z" stroke="#A80036" fill="none"/><path d="M124.96 340.57C118.9 354.54 112.35 369.62 107.12 381.68" id="Node-backto-GuiNode" stroke="#A80036" fill="none"/><path d="M118.64 337.56 133.02 322 131.48 343.13 118.64 337.56Z" stroke="#A80036" fill="none"/><path d="M178.26 336.75C192.26 351.74 207.92 368.51 220.22 381.68" id="Node-backto-GeomNode" stroke="#A80036" fill="none"/><path d="M173.02 341.39 164.48 322 183.25 331.84 173.02 341.39Z" stroke="#A80036" fill="none"/><path d="M233.88 450.02C231.32 463.58 228.6 478.04 226.4 489.68" id="GeomNode-backto-Item" stroke="#A80036" fill="none"/><path d="M227.07 448.36 237.66 430 240.83 450.95 227.07 448.36Z" stroke="#A80036" fill="none"/><path d="M272.31 446.18C283.62 460.8 296.1 476.93 305.96 489.68" id="GeomNode-backto-Camera" stroke="#A80036" fill="none"/><path d="M266.49 450.1 259.79 430 277.57 441.54 266.49 450.1Z" stroke="#A80036" fill="none"/><path d="M240.96 90.23C223.8 107.53 200.02 131.51 180.18 151.51" id="GuiRenderer-to-RootNode" stroke="#A80036" fill="none"/><path d="M185.01 156.58 165.96 165.85 175.07 146.72 185.01 156.58Z" stroke="#A80036" fill="none"/><path d="M122.76 90.23C125.99 106.01 130.36 127.33 134.22 146.13" id="SceneRenderer-to-RootNode" stroke="#A80036" fill="none"/><path d="M141.1 144.85 138.26 165.85 127.38 147.66 141.1 144.85Z" stroke="#A80036" fill="none"/></g></svg>