<svg width="572" height="353" viewBox="0 0 572 353" preserveAspectRatio="none" xmlns="http://www.w3.org/2000/svg" xmlns:xlink="http://www.w3.org/1999/xlink" overflow="hidden"><defs><filter id="f1921ngzw58ef" x="-1" y="-1" width="300%" height="300%" filterUnits="objectBoundingBox" primitiveUnits="userSpaceOnUse"><feGaussianBlur result="blurOut" stdDeviation="2 2"/><feColorMatrix in="blurOut" result="blurOut2" type="matrix" values="0 0 0 0 0 0 0 0 0 0 0 0 0 0 0 0 0 0 0.4 0 "/><feOffset in="blurOut2" result="blurOut3" dx="4" dy="4"/><feBlend in="SourceGraphic" in2="blurOut3" mode="normal"/></filter></defs><g><path d="M16 6 100 6 107 29.6094 555 29.6094 555 346 16 346 16 6Z" stroke="#000000" stroke-width="1.5" fill="#FFFFFF" filter="url(#f1921ngzw58ef)"/><line x1="16" y1="29.6094" x2="107" y2="29.6094" stroke="#000000" stroke-width="1.5"/><text font-family="Arial" font-weight="700" font-size="14" x="20" y="22.5332">scheduling</text><path d="M108 114 163 114 170 137.609 531 137.609 531 322 108 322 108 114Z" stroke="#000000" stroke-width="1.5" fill="#FFFFFF" filter="url(#f1921ngzw58ef)"/><line x1="108" y1="137.609" x2="170" y2="137.609" stroke="#000000" stroke-width="1.5"/><text font-family="Arial" font-weight="700" font-size="14" x="112" y="130.533">events</text><rect x="82.5" y="42" width="79" height="48" id="TaskMgr" stroke="#A80036" stroke-width="1.5" fill="#FEFECE" filter="url(#f1921ngzw58ef)"/><ellipse cx="97.5" cy="58" rx="11" ry="11" stroke="#A80036" fill="#ADD1B2"/><path d="M100.266 53.875C100.37 53.7292 100.484 53.6198 100.609 53.5469 100.734 53.474 100.87 53.4375 101.016 53.4375 101.266 53.4375 101.469 53.526 101.625 53.7031 101.781 53.8698 101.859 54.1562 101.859 54.5625L101.859 56.0156C101.859 56.4219 101.781 56.7135 101.625 56.8906 101.469 57.0677 101.266 57.1563 101.016 57.1563 100.786 57.1563 100.604 57.0886 100.469 56.9531 100.333 56.8281 100.229 56.5937 100.156 56.25 100.125 56.0104 100.047 55.8281 99.9219 55.7031 99.7032 55.4531 99.3907 55.2552 98.9844 55.1094 98.5781 54.9635 98.1667 54.8906 97.75 54.8906 97.2396 54.8906 96.7709 55 96.3438 55.2188 95.9271 55.4375 95.5521 55.7969 95.2188 56.2969 94.8959 56.7969 94.7344 57.3906 94.7344 58.0781L94.7344 59.1719C94.7344 59.9948 95.0313 60.6823 95.625 61.2344 96.2187 61.7761 97.0469 62.0469 98.1094 62.0469 98.7344 62.0469 99.2656 61.9636 99.7031 61.7969 99.9636 61.6927 100.234 61.4948 100.516 61.2031 100.693 61.026 100.828 60.9115 100.922 60.8594 101.026 60.8073 101.146 60.7813 101.281 60.7813 101.5 60.7813 101.693 60.8698 101.859 61.0469 102.036 61.2136 102.125 61.4115 102.125 61.6406 102.125 61.8698 102.01 62.1198 101.781 62.3906 101.448 62.7761 101.016 63.0782 100.484 63.2969 99.7657 63.599 98.974 63.75 98.1094 63.75 97.099 63.75 96.1927 63.5417 95.3906 63.125 94.7344 62.7917 94.1771 62.2708 93.7188 61.5625 93.2605 60.8438 93.0313 60.0573 93.0313 59.2031L93.0313 58.0469C93.0313 57.1615 93.2344 56.3386 93.6406 55.5781 94.0573 54.8073 94.6302 54.2188 95.3594 53.8125 96.0885 53.3958 96.8646 53.1875 97.6875 53.1875 98.1771 53.1875 98.6354 53.2448 99.0625 53.3594 99.5 53.4635 99.9011 53.6354 100.266 53.875Z"/><text font-family="Arial" font-size="12" x="111.5" y="62.9102">TaskMgr</text><line x1="83.5" y1="74" x2="160.5" y2="74" stroke="#A80036" stroke-width="1.5"/><line x1="83.5" y1="82" x2="160.5" y2="82" stroke="#A80036" stroke-width="1.5"/><rect x="32.5" y="150" width="59" height="48" id="Task" stroke="#A80036" stroke-width="1.5" fill="#FEFECE" filter="url(#f1921ngzw58ef)"/><ellipse cx="47.5" cy="166" rx="11" ry="11" stroke="#A80036" fill="#ADD1B2"/><path d="M50.2656 161.875C50.3698 161.729 50.4844 161.62 50.6094 161.547 50.7344 161.474 50.8698 161.438 51.0156 161.438 51.2656 161.438 51.4687 161.526 51.625 161.703 51.7813 161.87 51.8594 162.156 51.8594 162.562L51.8594 164.016C51.8594 164.422 51.7813 164.714 51.625 164.891 51.4687 165.068 51.2656 165.156 51.0156 165.156 50.7865 165.156 50.6042 165.089 50.4688 164.953 50.3333 164.828 50.2292 164.594 50.1563 164.25 50.125 164.01 50.0469 163.828 49.9219 163.703 49.7032 163.453 49.3907 163.255 48.9844 163.109 48.5781 162.964 48.1667 162.891 47.75 162.891 47.2396 162.891 46.7709 163 46.3438 163.219 45.9271 163.438 45.5521 163.797 45.2188 164.297 44.8959 164.797 44.7344 165.391 44.7344 166.078L44.7344 167.172C44.7344 167.995 45.0313 168.682 45.625 169.234 46.2187 169.776 47.0469 170.047 48.1094 170.047 48.7344 170.047 49.2656 169.964 49.7031 169.797 49.9636 169.693 50.2344 169.495 50.5156 169.203 50.6927 169.026 50.8282 168.911 50.9219 168.859 51.026 168.807 51.1458 168.781 51.2813 168.781 51.5 168.781 51.6927 168.87 51.8594 169.047 52.0365 169.214 52.125 169.411 52.125 169.641 52.125 169.87 52.0104 170.12 51.7813 170.391 51.448 170.776 51.0157 171.078 50.4844 171.297 49.7657 171.599 48.974 171.75 48.1094 171.75 47.099 171.75 46.1927 171.542 45.3906 171.125 44.7344 170.792 44.1771 170.271 43.7188 169.562 43.2605 168.844 43.0313 168.057 43.0313 167.203L43.0313 166.047C43.0313 165.161 43.2344 164.339 43.6406 163.578 44.0573 162.807 44.6302 162.219 45.3594 161.812 46.0885 161.396 46.8646 161.188 47.6875 161.188 48.1771 161.188 48.6354 161.245 49.0625 161.359 49.5 161.464 49.9011 161.635 50.2656 161.875Z"/><text font-family="Arial" font-size="12" x="61.5" y="170.91">Task</text><line x1="33.5" y1="182" x2="90.5" y2="182" stroke="#A80036" stroke-width="1.5"/><line x1="33.5" y1="190" x2="90.5" y2="190" stroke="#A80036" stroke-width="1.5"/><rect x="207" y="150" width="62" height="48" id="Event" stroke="#A80036" stroke-width="1.5" fill="#FEFECE" filter="url(#f1921ngzw58ef)"/><ellipse cx="222" cy="166" rx="11" ry="11" stroke="#A80036" fill="#ADD1B2"/><path d="M224.766 161.875C224.87 161.729 224.984 161.62 225.109 161.547 225.234 161.474 225.37 161.438 225.516 161.438 225.766 161.438 225.969 161.526 226.125 161.703 226.281 161.87 226.359 162.156 226.359 162.562L226.359 164.016C226.359 164.422 226.281 164.714 226.125 164.891 225.969 165.068 225.766 165.156 225.516 165.156 225.286 165.156 225.104 165.089 224.969 164.953 224.833 164.828 224.729 164.594 224.656 164.25 224.625 164.01 224.547 163.828 224.422 163.703 224.203 163.453 223.891 163.255 223.484 163.109 223.078 162.964 222.667 162.891 222.25 162.891 221.74 162.891 221.271 163 220.844 163.219 220.427 163.438 220.052 163.797 219.719 164.297 219.396 164.797 219.234 165.391 219.234 166.078L219.234 167.172C219.234 167.995 219.531 168.682 220.125 169.234 220.719 169.776 221.547 170.047 222.609 170.047 223.234 170.047 223.766 169.964 224.203 169.797 224.464 169.693 224.734 169.495 225.016 169.203 225.193 169.026 225.328 168.911 225.422 168.859 225.526 168.807 225.646 168.781 225.781 168.781 226 168.781 226.193 168.87 226.359 169.047 226.536 169.214 226.625 169.411 226.625 169.641 226.625 169.87 226.51 170.12 226.281 170.391 225.948 170.776 225.516 171.078 224.984 171.297 224.266 171.599 223.474 171.75 222.609 171.75 221.599 171.75 220.693 171.542 219.891 171.125 219.234 170.792 218.677 170.271 218.219 169.562 217.76 168.844 217.531 168.057 217.531 167.203L217.531 166.047C217.531 165.161 217.734 164.339 218.141 163.578 218.557 162.807 219.13 162.219 219.859 161.812 220.589 161.396 221.365 161.188 222.188 161.188 222.677 161.188 223.135 161.245 223.562 161.359 224 161.464 224.401 161.635 224.766 161.875Z"/><text font-family="Arial" font-size="12" x="236" y="170.91">Event</text><line x1="208" y1="182" x2="268" y2="182" stroke="#A80036" stroke-width="1.5"/><line x1="208" y1="190" x2="268" y2="190" stroke="#A80036" stroke-width="1.5"/><rect x="124" y="258" width="96" height="48" id="EmptyEvent" stroke="#A80036" stroke-width="1.5" fill="#FEFECE" filter="url(#f1921ngzw58ef)"/><ellipse cx="139" cy="274" rx="11" ry="11" stroke="#A80036" fill="#ADD1B2"/><path d="M141.766 269.875C141.87 269.729 141.984 269.62 142.109 269.547 142.234 269.474 142.37 269.438 142.516 269.438 142.766 269.438 142.969 269.526 143.125 269.703 143.281 269.87 143.359 270.156 143.359 270.562L143.359 272.016C143.359 272.422 143.281 272.714 143.125 272.891 142.969 273.068 142.766 273.156 142.516 273.156 142.286 273.156 142.104 273.089 141.969 272.953 141.833 272.828 141.729 272.594 141.656 272.25 141.625 272.01 141.547 271.828 141.422 271.703 141.203 271.453 140.891 271.255 140.484 271.109 140.078 270.964 139.667 270.891 139.25 270.891 138.74 270.891 138.271 271 137.844 271.219 137.427 271.438 137.052 271.797 136.719 272.297 136.396 272.797 136.234 273.391 136.234 274.078L136.234 275.172C136.234 275.995 136.531 276.682 137.125 277.234 137.719 277.776 138.547 278.047 139.609 278.047 140.234 278.047 140.766 277.964 141.203 277.797 141.464 277.693 141.734 277.495 142.016 277.203 142.193 277.026 142.328 276.911 142.422 276.859 142.526 276.807 142.646 276.781 142.781 276.781 143 276.781 143.193 276.87 143.359 277.047 143.536 277.214 143.625 277.411 143.625 277.641 143.625 277.87 143.51 278.12 143.281 278.391 142.948 278.776 142.516 279.078 141.984 279.297 141.266 279.599 140.474 279.75 139.609 279.75 138.599 279.75 137.693 279.542 136.891 279.125 136.234 278.792 135.677 278.271 135.219 277.562 134.76 276.844 134.531 276.057 134.531 275.203L134.531 274.047C134.531 273.161 134.734 272.339 135.141 271.578 135.557 270.807 136.13 270.219 136.859 269.812 137.589 269.396 138.365 269.188 139.188 269.188 139.677 269.188 140.135 269.245 140.562 269.359 141 269.464 141.401 269.635 141.766 269.875Z"/><text font-family="Arial" font-size="12" x="153" y="278.91">EmptyEvent</text><line x1="125" y1="290" x2="219" y2="290" stroke="#A80036" stroke-width="1.5"/><line x1="125" y1="298" x2="219" y2="298" stroke="#A80036" stroke-width="1.5"/><rect x="255.5" y="258" width="97" height="48" id="ButtonEvent" stroke="#A80036" stroke-width="1.5" fill="#FEFECE" filter="url(#f1921ngzw58ef)"/><ellipse cx="270.5" cy="274" rx="11" ry="11" stroke="#A80036" fill="#ADD1B2"/><path d="M273.266 269.875C273.37 269.729 273.484 269.62 273.609 269.547 273.734 269.474 273.87 269.438 274.016 269.438 274.266 269.438 274.469 269.526 274.625 269.703 274.781 269.87 274.859 270.156 274.859 270.562L274.859 272.016C274.859 272.422 274.781 272.714 274.625 272.891 274.469 273.068 274.266 273.156 274.016 273.156 273.786 273.156 273.604 273.089 273.469 272.953 273.333 272.828 273.229 272.594 273.156 272.25 273.125 272.01 273.047 271.828 272.922 271.703 272.703 271.453 272.391 271.255 271.984 271.109 271.578 270.964 271.167 270.891 270.75 270.891 270.24 270.891 269.771 271 269.344 271.219 268.927 271.438 268.552 271.797 268.219 272.297 267.896 272.797 267.734 273.391 267.734 274.078L267.734 275.172C267.734 275.995 268.031 276.682 268.625 277.234 269.219 277.776 270.047 278.047 271.109 278.047 271.734 278.047 272.266 277.964 272.703 277.797 272.964 277.693 273.234 277.495 273.516 277.203 273.693 277.026 273.828 276.911 273.922 276.859 274.026 276.807 274.146 276.781 274.281 276.781 274.5 276.781 274.693 276.87 274.859 277.047 275.036 277.214 275.125 277.411 275.125 277.641 275.125 277.87 275.01 278.12 274.781 278.391 274.448 278.776 274.016 279.078 273.484 279.297 272.766 279.599 271.974 279.75 271.109 279.75 270.099 279.75 269.193 279.542 268.391 279.125 267.734 278.792 267.177 278.271 266.719 277.562 266.26 276.844 266.031 276.057 266.031 275.203L266.031 274.047C266.031 273.161 266.234 272.339 266.641 271.578 267.057 270.807 267.63 270.219 268.359 269.812 269.089 269.396 269.865 269.188 270.688 269.188 271.177 269.188 271.635 269.245 272.062 269.359 272.5 269.464 272.901 269.635 273.266 269.875Z"/><text font-family="Arial" font-size="12" x="284.5" y="278.91">ButtonEvent</text><line x1="256.5" y1="290" x2="351.5" y2="290" stroke="#A80036" stroke-width="1.5"/><line x1="256.5" y1="298" x2="351.5" y2="298" stroke="#A80036" stroke-width="1.5"/><rect x="387.5" y="258" width="127" height="48" id="ExitOverrideEvent" stroke="#A80036" stroke-width="1.5" fill="#FEFECE" filter="url(#f1921ngzw58ef)"/><ellipse cx="402.5" cy="274" rx="11" ry="11" stroke="#A80036" fill="#ADD1B2"/><path d="M405.266 269.875C405.37 269.729 405.484 269.62 405.609 269.547 405.734 269.474 405.87 269.438 406.016 269.438 406.266 269.438 406.469 269.526 406.625 269.703 406.781 269.87 406.859 270.156 406.859 270.562L406.859 272.016C406.859 272.422 406.781 272.714 406.625 272.891 406.469 273.068 406.266 273.156 406.016 273.156 405.786 273.156 405.604 273.089 405.469 272.953 405.333 272.828 405.229 272.594 405.156 272.25 405.125 272.01 405.047 271.828 404.922 271.703 404.703 271.453 404.391 271.255 403.984 271.109 403.578 270.964 403.167 270.891 402.75 270.891 402.24 270.891 401.771 271 401.344 271.219 400.927 271.438 400.552 271.797 400.219 272.297 399.896 272.797 399.734 273.391 399.734 274.078L399.734 275.172C399.734 275.995 400.031 276.682 400.625 277.234 401.219 277.776 402.047 278.047 403.109 278.047 403.734 278.047 404.266 277.964 404.703 277.797 404.964 277.693 405.234 277.495 405.516 277.203 405.693 277.026 405.828 276.911 405.922 276.859 406.026 276.807 406.146 276.781 406.281 276.781 406.5 276.781 406.693 276.87 406.859 277.047 407.036 277.214 407.125 277.411 407.125 277.641 407.125 277.87 407.01 278.12 406.781 278.391 406.448 278.776 406.016 279.078 405.484 279.297 404.766 279.599 403.974 279.75 403.109 279.75 402.099 279.75 401.193 279.542 400.391 279.125 399.734 278.792 399.177 278.271 398.719 277.562 398.26 276.844 398.031 276.057 398.031 275.203L398.031 274.047C398.031 273.161 398.234 272.339 398.641 271.578 399.057 270.807 399.63 270.219 400.359 269.812 401.089 269.396 401.865 269.188 402.688 269.188 403.177 269.188 403.635 269.245 404.062 269.359 404.5 269.464 404.901 269.635 405.266 269.875Z"/><text font-family="Arial" font-size="12" x="416.5" y="278.91">ExitOverrideEvent</text><line x1="388.5" y1="290" x2="513.5" y2="290" stroke="#A80036" stroke-width="1.5"/><line x1="388.5" y1="298" x2="513.5" y2="298" stroke="#A80036" stroke-width="1.5"/><path d="M213.01 215.13C204.07 229.5 194.29 245.21 186.52 257.68" id="Event-backto-EmptyEvent" stroke="#A80036" fill="none"/><path d="M207.17 211.28 223.68 198 219.05 218.68 207.17 211.28Z" stroke="#A80036" fill="none"/><path d="M262.99 215.13C271.93 229.5 281.71 245.21 289.48 257.68" id="Event-backto-ButtonEvent" stroke="#A80036" fill="none"/><path d="M256.95 218.68 252.32 198 268.83 211.28 256.95 218.68Z" stroke="#A80036" fill="none"/><path d="M287.65 199.71C322.91 217.26 369.93 240.66 404.47 257.84" id="Event-backto-ExitOverrideEvent" stroke="#A80036" fill="none"/><path d="M284.22 205.82 269.43 190.64 290.45 193.28 284.22 205.82Z" stroke="#A80036" fill="none"/><path d="M102.49 101.47C93.55 117.25 83.2 135.54 75.2 149.68" id="TaskMgr-backto-Task" stroke="#A80036" fill="none"/><path d="M108.98 90 102.541 93.2469 103.062 100.439 109.501 97.1923 108.98 90Z" stroke="#A80036" fill="#A80036"/><path d="M173.67 85.75C184.2 91.17 194.61 97.88 203 106 215.54 118.14 224.5 135.75 230.21 149.87" id="TaskMgr-backto-Event" stroke="#A80036" fill="none"/><path d="M161.84 80.16 165.561 86.3367 172.694 85.2772 168.973 79.1005 161.84 80.16Z" stroke="#A80036" fill="#A80036"/></g></svg>