<svg width="487" height="310" viewBox="0 0 487 310" preserveAspectRatio="none" xmlns="http://www.w3.org/2000/svg" xmlns:xlink="http://www.w3.org/1999/xlink" overflow="hidden"><defs><filter id="fp2la8886qbda" x="-1" y="-1" width="300%" height="300%" filterUnits="objectBoundingBox" primitiveUnits="userSpaceOnUse"><feGaussianBlur result="blurOut" stdDeviation="2 2"/><feColorMatrix in="blurOut" result="blurOut2" type="matrix" values="0 0 0 0 0 0 0 0 0 0 0 0 0 0 0 0 0 0 0.4 0 "/><feOffset in="blurOut2" result="blurOut3" dx="4" dy="4"/><feBlend in="SourceGraphic" in2="blurOut3" mode="normal"/></filter></defs><g><rect x="10" y="135.219" rx="12.5" ry="12.5" width="102" height="37.6094" stroke="#A80036" stroke-width="1.5" fill="#FEFECE" filter="url(#fp2la8886qbda)"/><text font-family="Arial" font-size="14" x="20" y="159.752">GuiRenderer</text><rect x="162" y="106.414" rx="12.5" ry="12.5" width="53" height="37.6094" stroke="#A80036" stroke-width="1.5" fill="#FEFECE" filter="url(#fp2la8886qbda)"/><text font-family="Arial" font-size="14" x="172" y="130.947">Node</text><rect x="265" y="48.8047" rx="12.5" ry="12.5" width="75" height="37.6094" stroke="#A80036" stroke-width="1.5" fill="#FEFECE" filter="url(#fp2la8886qbda)"/><text font-family="Arial" font-size="14" x="275" y="73.3379">GuiNode</text><rect x="390" y="20" rx="12.5" ry="12.5" width="78" height="37.6094" stroke="#A80036" stroke-width="1.5" fill="#FEFECE" filter="url(#fp2la8886qbda)"/><text font-family="Arial" font-size="14" x="400" y="44.5332">GuiLayer</text><path d="M340 67.6094 350 67.6094C365 67.6094 365 38.8047 380 38.8047L390 38.8047" stroke="#A80036" fill="none"/><rect x="390" y="77.6094" rx="12.5" ry="12.5" width="78" height="37.6094" stroke="#A80036" stroke-width="1.5" fill="#FEFECE" filter="url(#fp2la8886qbda)"/><text font-family="Arial" font-size="14" x="400" y="102.143">GuiLayer</text><path d="M340 67.6094 350 67.6094C365 67.6094 365 96.4141 380 96.4141L390 96.4141" stroke="#A80036" fill="none"/><path d="M215 125.219 225 125.219C240 125.219 240 67.6094 255 67.6094L265 67.6094" stroke="#A80036" fill="none"/><rect x="265" y="164.023" rx="12.5" ry="12.5" width="75" height="37.6094" stroke="#A80036" stroke-width="1.5" fill="#FEFECE" filter="url(#fp2la8886qbda)"/><text font-family="Arial" font-size="14" x="275" y="188.557">GuiNode</text><rect x="390" y="135.219" rx="12.5" ry="12.5" width="78" height="37.6094" stroke="#A80036" stroke-width="1.5" fill="#FEFECE" filter="url(#fp2la8886qbda)"/><text font-family="Arial" font-size="14" x="400" y="159.752">GuiLayer</text><path d="M340 182.828 350 182.828C365 182.828 365 154.023 380 154.023L390 154.023" stroke="#A80036" fill="none"/><rect x="390" y="192.828" rx="12.5" ry="12.5" width="78" height="37.6094" stroke="#A80036" stroke-width="1.5" fill="#FEFECE" filter="url(#fp2la8886qbda)"/><text font-family="Arial" font-size="14" x="400" y="217.361">GuiLayer</text><path d="M340 182.828 350 182.828C365 182.828 365 211.633 380 211.633L390 211.633" stroke="#A80036" fill="none"/><path d="M215 125.219 225 125.219C240 125.219 240 182.828 255 182.828L265 182.828" stroke="#A80036" fill="none"/><path d="M112 154.023 122 154.023C137 154.023 137 125.219 152 125.219L162 125.219" stroke="#A80036" fill="none"/><rect x="162" y="250.438" rx="12.5" ry="12.5" width="78" height="37.6094" stroke="#A80036" stroke-width="1.5" fill="#FEFECE" filter="url(#fp2la8886qbda)"/><text font-family="Arial" font-size="14" x="172" y="274.971">GuiLayer</text><path d="M112 154.023 122 154.023C137 154.023 137 269.242 152 269.242L162 269.242" stroke="#A80036" fill="none"/></g></svg>