<?xml version="1.0" encoding="utf-8"?>
<!-- Generator: Adobe Illustrator 23.0.5, SVG Export Plug-In . SVG Version: 6.00 Build 0)  -->
<svg version="1.1" id="Calque_1" xmlns="http://www.w3.org/2000/svg" xmlns:xlink="http://www.w3.org/1999/xlink" x="0px" y="0px"
	 viewBox="0 0 1000 1000" style="enable-background:new 0 0 1000 1000;" xml:space="preserve">
<style type="text/css">
	.st0{fill:#2157AE;}
</style>
<g>
	<path class="st0" d="M86.03,764.76c10.57-2.06,34.33-28.79,44.28-33.21c32.04-14.23,64.98-38.74,95.87-55.25
		c13.46-7.19,26.85-14.51,40.55-21.93c1.93,5.01,0.89,9.27,0.7,13.43c-2.56,55.89-5.47,111.78-4.5,167.77
		c0.17,9.82-0.1,19.68,2.18,29.35c1.16,4.91,3.37,7.19,9.1,6.12c23.27-4.32,44.57-28.96,44.61-52.34
		c0.01-7.68-0.02-15.39-0.53-23.05c-3.45-51.81-8.69-103.5-9.39-155.48c-0.09-6.49,1.92-9.83,7.53-12.77
		c37.57-19.65,74.97-39.61,112.43-59.48c31.75-16.85,63.62-33.45,94.28-52.3c9.36-5.76,13.23-12.9,11.97-23.56
		c-1.05-8.89-3.14-17.52-5.27-26.17c-4.59-18.69-11.82-37.06-6.2-56.92c1.53-5.4,2.32-11.5-2.81-15.37
		c-5.5-4.15-10.47,0.15-15.23,2.74c-47,25.47-93.93,51.05-140.97,76.45c-16.39,8.86-33,17.32-50.29,26.37
		c-0.23-2.45-0.52-3.6-0.42-4.71c5.11-60.93,12.79-121.58,19.76-182.3c1.58-13.76,6.3-23.93,18.93-31.38
		c15.97-9.42,18.77-22.79,10.77-39.67c-1.57-3.32-3.35-6.59-5.39-9.64c-15.65-23.36-34.39-44.98-38.73-74.41
		c-1.17-7.92-7.71-10.07-14.9-6.08c-7.24,4.01-14.42,8.22-21.21,12.94c-52.77,36.76-106.99,71.04-165.69,97.76
		c-36.63,16.68-74.02,31.51-111.48,46.18c-3.37,1.32-8.32,1.34-4.74,7.74c10.96,19.62,22.27,38.96,37.26,55.87
		c17.22,19.42,37.99,30.97,64.8,28.75c9.21-0.76,18.22-2.66,27.08-5.31c34.1-10.17,65.17-27.04,96.36-43.61
		c21.92-11.65,43.57-23.82,66.29-36.28c0.11,2.4,0.29,3.32,0.18,4.21c-8.2,64.66-12.66,129.64-16.76,194.64
		c-0.29,4.59-2.63,6.25-6.07,8.05c-36.52,19.02-73.11,37.99-110.77,54.56c-53.27,44.4-72.99,67.71-84.64,64.7L86.03,764.76z"/>
	<path class="st0" d="M999.99,356.74c-0.68,45.72-19.4,113.24-33.69,154.25s-41.73,149.55-127.51,229.78S650.6,879.15,587.87,893.91
		c42.43-79.33,62.57-166.68,55.35-204.79s-41.69-74.01-69.74-141.83c-18.91-45.7-34.11-92.52-41.87-141.49
		c-8.05-50.83-10.08-101.8,10.77-150.12c37.24-86.3,101.79-139.16,196.69-148.22c102.03-9.74,179.03,33.13,231.71,119.93
		C992.53,263.22,1000.37,303.27,999.99,356.74z M892.14,344.72c-0.23-70.37-58.07-127.22-129.34-127.12
		c-70.34,0.1-126.59,56.94-126.39,127.71c0.2,70.75,57.48,128.42,127.37,128.22C833.52,473.33,892.36,414.29,892.14,344.72z"/>
</g>
</svg>
