<?xml version="1.0" encoding="UTF-8" standalone="no"?><svg xmlns="http://www.w3.org/2000/svg" xmlns:xlink="http://www.w3.org/1999/xlink" contentScriptType="application/ecmascript" contentStyleType="text/css" height="529px" preserveAspectRatio="none" style="width:620px;height:529px;" version="1.1" viewBox="0 0 620 529" width="620px" zoomAndPan="magnify"><defs><filter height="300%" id="f14qytx7mujodc" width="300%" x="-1" y="-1"><feGaussianBlur result="blurOut" stdDeviation="2.0"/><feColorMatrix in="blurOut" result="blurOut2" type="matrix" values="0 0 0 0 0 0 0 0 0 0 0 0 0 0 0 0 0 0 .4 0"/><feOffset dx="4.0" dy="4.0" in="blurOut2" result="blurOut3"/><feBlend in="SourceGraphic" in2="blurOut3" mode="normal"/></filter></defs><g><!--MD5=[dce4c2b5694dd28223e7b1d160ba96c4]
cluster data--><polygon fill="#FFFFFF" filter="url(#f14qytx7mujodc)" points="16,6,52,6,59,29.6094,603,29.6094,603,522.5,16,522.5,16,6" style="stroke:#000000;stroke-width:1.5;"/><line style="stroke:#000000;stroke-width:1.5;" x1="16" x2="59" y1="29.6094" y2="29.6094"/><text fill="#000000" font-family="sans-serif" font-size="14" font-weight="bold" lengthAdjust="spacing" textLength="30" x="20" y="22.5332">data</text><!--MD5=[64076a3ccaca1ef549b4a0f5fbc0fa41]
cluster parsers--><polygon fill="#FFFFFF" filter="url(#f14qytx7mujodc)" points="174,50,234,50,241,73.6094,579,73.6094,579,380,174,380,174,50" style="stroke:#000000;stroke-width:1.5;"/><line style="stroke:#000000;stroke-width:1.5;" x1="174" x2="241" y1="73.6094" y2="73.6094"/><text fill="#000000" font-family="sans-serif" font-size="14" font-weight="bold" lengthAdjust="spacing" textLength="54" x="178" y="66.5332">parsers</text><!--MD5=[628cc5a2753cca06eb1ffef55c386535]
class Parser--><rect codeLine="3" fill="#FEFECE" filter="url(#f14qytx7mujodc)" height="48" id="Parser" style="stroke:#A80036;stroke-width:1.5;" width="68" x="353" y="201"/><ellipse cx="368" cy="217" fill="#A9DCDF" rx="11" ry="11" style="stroke:#A80036;stroke-width:1.0;"/><path d="M370.1875,218.7656 L366.0469,218.7656 L365.625,219.7969 L366.0469,219.7969 Q366.6563,219.7969 366.9219,220.0313 Q367.1875,220.2656 367.1875,220.6563 Q367.1875,221.0313 366.9219,221.2656 Q366.6563,221.5 366.0469,221.5 L363.75,221.5 Q363.1406,221.5 362.8906,221.2656 Q362.625,221.0313 362.625,220.6406 Q362.625,220.2656 362.9063,220.0313 Q363.1719,219.7813 363.7969,219.7969 L366.4688,213.1406 L365.3594,213.1406 Q364.75,213.1406 364.4844,212.9063 Q364.2188,212.6719 364.2188,212.2813 Q364.2188,211.9063 364.4844,211.6719 Q364.75,211.4375 365.3594,211.4375 L369.0313,211.4375 L372.4219,219.7969 Q373.0156,219.7969 373.2031,219.9375 Q373.5938,220.2031 373.5938,220.6563 Q373.5938,221.0313 373.3281,221.2656 Q373.0781,221.5 372.4688,221.5 L370.1719,221.5 Q369.5625,221.5 369.2969,221.2656 Q369.0313,221.0313 369.0313,220.6406 Q369.0313,220.2656 369.2969,220.0313 Q369.5625,219.7969 370.1719,219.7969 L370.5938,219.7969 L370.1875,218.7656 Z M369.4688,217.0625 L368.1094,213.6875 L366.7344,217.0625 L369.4688,217.0625 Z " fill="#000000"/><text fill="#000000" font-family="sans-serif" font-size="12" font-style="italic" lengthAdjust="spacing" textLength="36" x="382" y="221.9102">Parser</text><line style="stroke:#A80036;stroke-width:1.5;" x1="354" x2="420" y1="233" y2="233"/><line style="stroke:#A80036;stroke-width:1.5;" x1="354" x2="420" y1="241" y2="241"/><!--MD5=[162ff44b580e372d14088e0d26d93db2]
class JsonParser--><rect codeLine="5" fill="#FEFECE" filter="url(#f14qytx7mujodc)" height="48" id="JsonParser" style="stroke:#A80036;stroke-width:1.5;" width="96" x="200" y="201"/><ellipse cx="215" cy="217" fill="#ADD1B2" rx="11" ry="11" style="stroke:#A80036;stroke-width:1.0;"/><path d="M217.7656,212.875 Q217.9219,212.6563 218.1094,212.5469 Q218.2969,212.4375 218.5156,212.4375 Q218.8906,212.4375 219.125,212.7031 Q219.3594,212.9531 219.3594,213.5625 L219.3594,215.0156 Q219.3594,215.625 219.125,215.8906 Q218.8906,216.1563 218.5156,216.1563 Q218.1719,216.1563 217.9688,215.9531 Q217.7656,215.7656 217.6563,215.25 Q217.6094,214.8906 217.4219,214.7031 Q217.0938,214.3281 216.4844,214.1094 Q215.875,213.8906 215.25,213.8906 Q214.4844,213.8906 213.8438,214.2188 Q213.2188,214.5469 212.7188,215.2969 Q212.2344,216.0469 212.2344,217.0781 L212.2344,218.1719 Q212.2344,219.4063 213.125,220.2344 Q214.0156,221.0469 215.6094,221.0469 Q216.5469,221.0469 217.2031,220.7969 Q217.5938,220.6406 218.0156,220.2031 Q218.2813,219.9375 218.4219,219.8594 Q218.5781,219.7813 218.7813,219.7813 Q219.1094,219.7813 219.3594,220.0469 Q219.625,220.2969 219.625,220.6406 Q219.625,220.9844 219.2813,221.3906 Q218.7813,221.9688 217.9844,222.2969 Q216.9063,222.75 215.6094,222.75 Q214.0938,222.75 212.8906,222.125 Q211.9063,221.625 211.2188,220.5625 Q210.5313,219.4844 210.5313,218.2031 L210.5313,217.0469 Q210.5313,215.7188 211.1406,214.5781 Q211.7656,213.4219 212.8594,212.8125 Q213.9531,212.1875 215.1875,212.1875 Q215.9219,212.1875 216.5625,212.3594 Q217.2188,212.5156 217.7656,212.875 Z " fill="#000000"/><text fill="#000000" font-family="sans-serif" font-size="12" lengthAdjust="spacing" textLength="64" x="229" y="221.9102">JsonParser</text><line style="stroke:#A80036;stroke-width:1.5;" x1="201" x2="295" y1="233" y2="233"/><line style="stroke:#A80036;stroke-width:1.5;" x1="201" x2="295" y1="241" y2="241"/><!--MD5=[c200f4af497324076579e47644c4c07a]
class XMLParser--><rect codeLine="6" fill="#FEFECE" filter="url(#f14qytx7mujodc)" height="48" id="XMLParser" style="stroke:#A80036;stroke-width:1.5;" width="92" x="462" y="201"/><ellipse cx="477" cy="217" fill="#ADD1B2" rx="11" ry="11" style="stroke:#A80036;stroke-width:1.0;"/><path d="M479.7656,212.875 Q479.9219,212.6563 480.1094,212.5469 Q480.2969,212.4375 480.5156,212.4375 Q480.8906,212.4375 481.125,212.7031 Q481.3594,212.9531 481.3594,213.5625 L481.3594,215.0156 Q481.3594,215.625 481.125,215.8906 Q480.8906,216.1563 480.5156,216.1563 Q480.1719,216.1563 479.9688,215.9531 Q479.7656,215.7656 479.6563,215.25 Q479.6094,214.8906 479.4219,214.7031 Q479.0938,214.3281 478.4844,214.1094 Q477.875,213.8906 477.25,213.8906 Q476.4844,213.8906 475.8438,214.2188 Q475.2188,214.5469 474.7188,215.2969 Q474.2344,216.0469 474.2344,217.0781 L474.2344,218.1719 Q474.2344,219.4063 475.125,220.2344 Q476.0156,221.0469 477.6094,221.0469 Q478.5469,221.0469 479.2031,220.7969 Q479.5938,220.6406 480.0156,220.2031 Q480.2813,219.9375 480.4219,219.8594 Q480.5781,219.7813 480.7813,219.7813 Q481.1094,219.7813 481.3594,220.0469 Q481.625,220.2969 481.625,220.6406 Q481.625,220.9844 481.2813,221.3906 Q480.7813,221.9688 479.9844,222.2969 Q478.9063,222.75 477.6094,222.75 Q476.0938,222.75 474.8906,222.125 Q473.9063,221.625 473.2188,220.5625 Q472.5313,219.4844 472.5313,218.2031 L472.5313,217.0469 Q472.5313,215.7188 473.1406,214.5781 Q473.7656,213.4219 474.8594,212.8125 Q475.9531,212.1875 477.1875,212.1875 Q477.9219,212.1875 478.5625,212.3594 Q479.2188,212.5156 479.7656,212.875 Z " fill="#000000"/><text fill="#000000" font-family="sans-serif" font-size="12" lengthAdjust="spacing" textLength="60" x="491" y="221.9102">XMLParser</text><line style="stroke:#A80036;stroke-width:1.5;" x1="463" x2="553" y1="233" y2="233"/><line style="stroke:#A80036;stroke-width:1.5;" x1="463" x2="553" y1="241" y2="241"/><!--MD5=[b14f7ba984985ae2ac484e59562dc3d4]
class MapParser--><rect codeLine="7" fill="#FEFECE" filter="url(#f14qytx7mujodc)" height="48" id="MapParser" style="stroke:#A80036;stroke-width:1.5;" width="91" x="341.5" y="316"/><ellipse cx="356.5" cy="332" fill="#A9DCDF" rx="11" ry="11" style="stroke:#A80036;stroke-width:1.0;"/><path d="M358.6875,333.7656 L354.5469,333.7656 L354.125,334.7969 L354.5469,334.7969 Q355.1563,334.7969 355.4219,335.0313 Q355.6875,335.2656 355.6875,335.6563 Q355.6875,336.0313 355.4219,336.2656 Q355.1563,336.5 354.5469,336.5 L352.25,336.5 Q351.6406,336.5 351.3906,336.2656 Q351.125,336.0313 351.125,335.6406 Q351.125,335.2656 351.4063,335.0313 Q351.6719,334.7813 352.2969,334.7969 L354.9688,328.1406 L353.8594,328.1406 Q353.25,328.1406 352.9844,327.9063 Q352.7188,327.6719 352.7188,327.2813 Q352.7188,326.9063 352.9844,326.6719 Q353.25,326.4375 353.8594,326.4375 L357.5313,326.4375 L360.9219,334.7969 Q361.5156,334.7969 361.7031,334.9375 Q362.0938,335.2031 362.0938,335.6563 Q362.0938,336.0313 361.8281,336.2656 Q361.5781,336.5 360.9688,336.5 L358.6719,336.5 Q358.0625,336.5 357.7969,336.2656 Q357.5313,336.0313 357.5313,335.6406 Q357.5313,335.2656 357.7969,335.0313 Q358.0625,334.7969 358.6719,334.7969 L359.0938,334.7969 L358.6875,333.7656 Z M357.9688,332.0625 L356.6094,328.6875 L355.2344,332.0625 L357.9688,332.0625 Z " fill="#000000"/><text fill="#000000" font-family="sans-serif" font-size="12" font-style="italic" lengthAdjust="spacing" textLength="59" x="370.5" y="336.9102">MapParser</text><line style="stroke:#A80036;stroke-width:1.5;" x1="342.5" x2="431.5" y1="348" y2="348"/><line style="stroke:#A80036;stroke-width:1.5;" x1="342.5" x2="431.5" y1="356" y2="356"/><!--MD5=[52959de1f5d0901491982c4e7e91cc98]
class StyleParser--><rect codeLine="8" fill="#FEFECE" filter="url(#f14qytx7mujodc)" height="48" id="StyleParser" style="stroke:#A80036;stroke-width:1.5;" width="95" x="200.5" y="86"/><ellipse cx="215.5" cy="102" fill="#ADD1B2" rx="11" ry="11" style="stroke:#A80036;stroke-width:1.0;"/><path d="M218.2656,97.875 Q218.4219,97.6563 218.6094,97.5469 Q218.7969,97.4375 219.0156,97.4375 Q219.3906,97.4375 219.625,97.7031 Q219.8594,97.9531 219.8594,98.5625 L219.8594,100.0156 Q219.8594,100.625 219.625,100.8906 Q219.3906,101.1563 219.0156,101.1563 Q218.6719,101.1563 218.4688,100.9531 Q218.2656,100.7656 218.1563,100.25 Q218.1094,99.8906 217.9219,99.7031 Q217.5938,99.3281 216.9844,99.1094 Q216.375,98.8906 215.75,98.8906 Q214.9844,98.8906 214.3438,99.2188 Q213.7188,99.5469 213.2188,100.2969 Q212.7344,101.0469 212.7344,102.0781 L212.7344,103.1719 Q212.7344,104.4063 213.625,105.2344 Q214.5156,106.0469 216.1094,106.0469 Q217.0469,106.0469 217.7031,105.7969 Q218.0938,105.6406 218.5156,105.2031 Q218.7813,104.9375 218.9219,104.8594 Q219.0781,104.7813 219.2813,104.7813 Q219.6094,104.7813 219.8594,105.0469 Q220.125,105.2969 220.125,105.6406 Q220.125,105.9844 219.7813,106.3906 Q219.2813,106.9688 218.4844,107.2969 Q217.4063,107.75 216.1094,107.75 Q214.5938,107.75 213.3906,107.125 Q212.4063,106.625 211.7188,105.5625 Q211.0313,104.4844 211.0313,103.2031 L211.0313,102.0469 Q211.0313,100.7188 211.6406,99.5781 Q212.2656,98.4219 213.3594,97.8125 Q214.4531,97.1875 215.6875,97.1875 Q216.4219,97.1875 217.0625,97.3594 Q217.7188,97.5156 218.2656,97.875 Z " fill="#000000"/><text fill="#000000" font-family="sans-serif" font-size="12" lengthAdjust="spacing" textLength="63" x="229.5" y="106.9102">StyleParser</text><line style="stroke:#A80036;stroke-width:1.5;" x1="201.5" x2="294.5" y1="118" y2="118"/><line style="stroke:#A80036;stroke-width:1.5;" x1="201.5" x2="294.5" y1="126" y2="126"/><!--MD5=[4fcc774e9f164a43f26bef47b29b82b9]
class OSMParser--><rect codeLine="9" fill="#FEFECE" filter="url(#f14qytx7mujodc)" height="48" id="OSMParser" style="stroke:#A80036;stroke-width:1.5;" width="95" x="467.5" y="316"/><ellipse cx="482.5" cy="332" fill="#ADD1B2" rx="11" ry="11" style="stroke:#A80036;stroke-width:1.0;"/><path d="M485.2656,327.875 Q485.4219,327.6563 485.6094,327.5469 Q485.7969,327.4375 486.0156,327.4375 Q486.3906,327.4375 486.625,327.7031 Q486.8594,327.9531 486.8594,328.5625 L486.8594,330.0156 Q486.8594,330.625 486.625,330.8906 Q486.3906,331.1563 486.0156,331.1563 Q485.6719,331.1563 485.4688,330.9531 Q485.2656,330.7656 485.1563,330.25 Q485.1094,329.8906 484.9219,329.7031 Q484.5938,329.3281 483.9844,329.1094 Q483.375,328.8906 482.75,328.8906 Q481.9844,328.8906 481.3438,329.2188 Q480.7188,329.5469 480.2188,330.2969 Q479.7344,331.0469 479.7344,332.0781 L479.7344,333.1719 Q479.7344,334.4063 480.625,335.2344 Q481.5156,336.0469 483.1094,336.0469 Q484.0469,336.0469 484.7031,335.7969 Q485.0938,335.6406 485.5156,335.2031 Q485.7813,334.9375 485.9219,334.8594 Q486.0781,334.7813 486.2813,334.7813 Q486.6094,334.7813 486.8594,335.0469 Q487.125,335.2969 487.125,335.6406 Q487.125,335.9844 486.7813,336.3906 Q486.2813,336.9688 485.4844,337.2969 Q484.4063,337.75 483.1094,337.75 Q481.5938,337.75 480.3906,337.125 Q479.4063,336.625 478.7188,335.5625 Q478.0313,334.4844 478.0313,333.2031 L478.0313,332.0469 Q478.0313,330.7188 478.6406,329.5781 Q479.2656,328.4219 480.3594,327.8125 Q481.4531,327.1875 482.6875,327.1875 Q483.4219,327.1875 484.0625,327.3594 Q484.7188,327.5156 485.2656,327.875 Z " fill="#000000"/><text fill="#000000" font-family="sans-serif" font-size="12" lengthAdjust="spacing" textLength="63" x="496.5" y="336.9102">OSMParser</text><line style="stroke:#A80036;stroke-width:1.5;" x1="468.5" x2="561.5" y1="348" y2="348"/><line style="stroke:#A80036;stroke-width:1.5;" x1="468.5" x2="561.5" y1="356" y2="356"/><!--MD5=[d7f647c131a883425f8c9ca479fe8af8]
class GeojsonParser--><rect codeLine="10" fill="#FEFECE" filter="url(#f14qytx7mujodc)" height="48" id="GeojsonParser" style="stroke:#A80036;stroke-width:1.5;" width="116" x="190" y="316"/><ellipse cx="205" cy="332" fill="#ADD1B2" rx="11" ry="11" style="stroke:#A80036;stroke-width:1.0;"/><path d="M207.7656,327.875 Q207.9219,327.6563 208.1094,327.5469 Q208.2969,327.4375 208.5156,327.4375 Q208.8906,327.4375 209.125,327.7031 Q209.3594,327.9531 209.3594,328.5625 L209.3594,330.0156 Q209.3594,330.625 209.125,330.8906 Q208.8906,331.1563 208.5156,331.1563 Q208.1719,331.1563 207.9688,330.9531 Q207.7656,330.7656 207.6563,330.25 Q207.6094,329.8906 207.4219,329.7031 Q207.0938,329.3281 206.4844,329.1094 Q205.875,328.8906 205.25,328.8906 Q204.4844,328.8906 203.8438,329.2188 Q203.2188,329.5469 202.7188,330.2969 Q202.2344,331.0469 202.2344,332.0781 L202.2344,333.1719 Q202.2344,334.4063 203.125,335.2344 Q204.0156,336.0469 205.6094,336.0469 Q206.5469,336.0469 207.2031,335.7969 Q207.5938,335.6406 208.0156,335.2031 Q208.2813,334.9375 208.4219,334.8594 Q208.5781,334.7813 208.7813,334.7813 Q209.1094,334.7813 209.3594,335.0469 Q209.625,335.2969 209.625,335.6406 Q209.625,335.9844 209.2813,336.3906 Q208.7813,336.9688 207.9844,337.2969 Q206.9063,337.75 205.6094,337.75 Q204.0938,337.75 202.8906,337.125 Q201.9063,336.625 201.2188,335.5625 Q200.5313,334.4844 200.5313,333.2031 L200.5313,332.0469 Q200.5313,330.7188 201.1406,329.5781 Q201.7656,328.4219 202.8594,327.8125 Q203.9531,327.1875 205.1875,327.1875 Q205.9219,327.1875 206.5625,327.3594 Q207.2188,327.5156 207.7656,327.875 Z " fill="#000000"/><text fill="#000000" font-family="sans-serif" font-size="12" lengthAdjust="spacing" textLength="84" x="219" y="336.9102">GeojsonParser</text><line style="stroke:#A80036;stroke-width:1.5;" x1="191" x2="305" y1="348" y2="348"/><line style="stroke:#A80036;stroke-width:1.5;" x1="191" x2="305" y1="356" y2="356"/><!--MD5=[16e9f1ec3fb0aa35b76e2adb3798c5f5]
class ObjseptParser--><rect codeLine="11" fill="#FEFECE" filter="url(#f14qytx7mujodc)" height="48" id="ObjseptParser" style="stroke:#A80036;stroke-width:1.5;" width="112" x="331" y="86"/><ellipse cx="346" cy="102" fill="#ADD1B2" rx="11" ry="11" style="stroke:#A80036;stroke-width:1.0;"/><path d="M348.7656,97.875 Q348.9219,97.6563 349.1094,97.5469 Q349.2969,97.4375 349.5156,97.4375 Q349.8906,97.4375 350.125,97.7031 Q350.3594,97.9531 350.3594,98.5625 L350.3594,100.0156 Q350.3594,100.625 350.125,100.8906 Q349.8906,101.1563 349.5156,101.1563 Q349.1719,101.1563 348.9688,100.9531 Q348.7656,100.7656 348.6563,100.25 Q348.6094,99.8906 348.4219,99.7031 Q348.0938,99.3281 347.4844,99.1094 Q346.875,98.8906 346.25,98.8906 Q345.4844,98.8906 344.8438,99.2188 Q344.2188,99.5469 343.7188,100.2969 Q343.2344,101.0469 343.2344,102.0781 L343.2344,103.1719 Q343.2344,104.4063 344.125,105.2344 Q345.0156,106.0469 346.6094,106.0469 Q347.5469,106.0469 348.2031,105.7969 Q348.5938,105.6406 349.0156,105.2031 Q349.2813,104.9375 349.4219,104.8594 Q349.5781,104.7813 349.7813,104.7813 Q350.1094,104.7813 350.3594,105.0469 Q350.625,105.2969 350.625,105.6406 Q350.625,105.9844 350.2813,106.3906 Q349.7813,106.9688 348.9844,107.2969 Q347.9063,107.75 346.6094,107.75 Q345.0938,107.75 343.8906,107.125 Q342.9063,106.625 342.2188,105.5625 Q341.5313,104.4844 341.5313,103.2031 L341.5313,102.0469 Q341.5313,100.7188 342.1406,99.5781 Q342.7656,98.4219 343.8594,97.8125 Q344.9531,97.1875 346.1875,97.1875 Q346.9219,97.1875 347.5625,97.3594 Q348.2188,97.5156 348.7656,97.875 Z " fill="#000000"/><text fill="#000000" font-family="sans-serif" font-size="12" lengthAdjust="spacing" textLength="80" x="360" y="106.9102">ObjseptParser</text><line style="stroke:#A80036;stroke-width:1.5;" x1="332" x2="442" y1="118" y2="118"/><line style="stroke:#A80036;stroke-width:1.5;" x1="332" x2="442" y1="126" y2="126"/><polygon fill="#FFFFFF" filter="url(#f14qytx7mujodc)" points="58.5,427.5,117.5,427.5,124.5,451.1094,131.5,451.1094,131.5,482.7188,58.5,482.7188,58.5,427.5" style="stroke:#000000;stroke-width:1.5;"/><line style="stroke:#000000;stroke-width:1.5;" x1="58.5" x2="124.5" y1="451.1094" y2="451.1094"/><text fill="#000000" font-family="sans-serif" font-size="14" font-weight="bold" lengthAdjust="spacing" textLength="53" x="62.5" y="444.0332">objespt</text><polygon fill="#FFFFFF" filter="url(#f14qytx7mujodc)" points="56.5,82.5,119.5,82.5,126.5,106.1094,133.5,106.1094,133.5,137.7188,56.5,137.7188,56.5,82.5" style="stroke:#000000;stroke-width:1.5;"/><line style="stroke:#000000;stroke-width:1.5;" x1="56.5" x2="126.5" y1="106.1094" y2="106.1094"/><text fill="#000000" font-family="sans-serif" font-size="14" font-weight="bold" lengthAdjust="spacing" textLength="57" x="60.5" y="99.0332">geojson</text><polygon fill="#FFFFFF" filter="url(#f14qytx7mujodc)" points="70.5,197.5,105.5,197.5,112.5,221.1094,119.5,221.1094,119.5,252.7188,70.5,252.7188,70.5,197.5" style="stroke:#000000;stroke-width:1.5;"/><line style="stroke:#000000;stroke-width:1.5;" x1="70.5" x2="112.5" y1="221.1094" y2="221.1094"/><text fill="#000000" font-family="sans-serif" font-size="14" font-weight="bold" lengthAdjust="spacing" textLength="29" x="74.5" y="214.0332">osm</text><polygon fill="#FFFFFF" filter="url(#f14qytx7mujodc)" points="64.5,312.5,111.5,312.5,118.5,336.1094,125.5,336.1094,125.5,367.7188,64.5,367.7188,64.5,312.5" style="stroke:#000000;stroke-width:1.5;"/><line style="stroke:#000000;stroke-width:1.5;" x1="64.5" x2="118.5" y1="336.1094" y2="336.1094"/><text fill="#000000" font-family="sans-serif" font-size="14" font-weight="bold" lengthAdjust="spacing" textLength="41" x="68.5" y="329.0332">styles</text><!--MD5=[9c161c337fe04f41af7484d212ca9e29]
link JsonParser to Parser--><path codeLine="13" d="M296.05,225 C308.19,225 320.33,225 332.47,225 " fill="none" id="JsonParser-to-Parser" style="stroke:#A80036;stroke-width:1.0;"/><polygon fill="none" points="332.89,218,352.89,225,332.89,232,332.89,218" style="stroke:#A80036;stroke-width:1.0;"/><!--MD5=[c3ea7e2048a27b1078a7b3e1f4debcc6]
reverse link Parser to XMLParser--><path codeLine="14" d="M441.1,225 C448,225 454.9,225 461.8,225 " fill="none" id="Parser-backto-XMLParser" style="stroke:#A80036;stroke-width:1.0;"/><polygon fill="none" points="441.03,232,421.03,225,441.03,218,441.03,232" style="stroke:#A80036;stroke-width:1.0;"/><!--MD5=[752557576c1c33f8027079f250a6bc74]
reverse link Parser to MapParser--><path codeLine="15" d="M387,269.34 C387,285.18 387,302.49 387,315.89 " fill="none" id="Parser-backto-MapParser" style="stroke:#A80036;stroke-width:1.0;"/><polygon fill="none" points="380,269.14,387,249.14,394,269.14,380,269.14" style="stroke:#A80036;stroke-width:1.0;"/><!--MD5=[7ed30ddcd7eecd5bd2fdda42a9bdfdb0]
reverse link MapParser to OSMParser--><path codeLine="16" d="M453.08,340 C457.81,340 462.54,340 467.27,340 " fill="none" id="MapParser-backto-OSMParser" style="stroke:#A80036;stroke-width:1.0;"/><polygon fill="none" points="453,347,433,340,453,333,453,347" style="stroke:#A80036;stroke-width:1.0;"/><!--MD5=[d7e65b93fa3541c637228ce46437efc6]
link GeojsonParser to MapParser--><path codeLine="17" d="M306.1,340 C311.17,340 316.24,340 321.31,340 " fill="none" id="GeojsonParser-to-MapParser" style="stroke:#A80036;stroke-width:1.0;"/><polygon fill="none" points="321.49,333,341.49,340,321.49,347,321.49,333" style="stroke:#A80036;stroke-width:1.0;"/><!--MD5=[b80aff3b054001513f1a50e2ac14b76c]
reverse link XMLParser to OSMParser--><path codeLine="18" d="M509.76,254.34 C510.93,273.35 512.46,298.07 513.57,315.89 " fill="none" id="XMLParser-backto-OSMParser" style="stroke:#A80036;stroke-width:1.0;"/><polygon fill="#A80036" points="509.43,249.14,506.0041,258.3738,509.7446,254.1301,513.9883,257.8705,509.43,249.14" style="stroke:#A80036;stroke-width:1.0;"/><!--MD5=[67e055d344b9cf1cd2c708e1ae85942a]
reverse link JsonParser to GeojsonParser--><path codeLine="19" d="M248,254.34 C248,273.35 248,298.07 248,315.89 " fill="none" id="JsonParser-backto-GeojsonParser" style="stroke:#A80036;stroke-width:1.0;"/><polygon fill="#A80036" points="248,249.14,244,258.14,248,254.14,252,258.14,248,249.14" style="stroke:#A80036;stroke-width:1.0;"/><!--MD5=[f3947be331ddaeadc1384cf32a979775]
link StyleParser to JsonParser--><path codeLine="20" d="M248,134.14 C248,147.55 248,164.86 248,180.7 " fill="none" id="StyleParser-to-JsonParser" style="stroke:#A80036;stroke-width:1.0;"/><polygon fill="none" points="255,180.89,248,200.89,241,180.89,255,180.89" style="stroke:#A80036;stroke-width:1.0;"/><!--MD5=[05dc7385c5834c31a892880393140989]
link ObjseptParser to Parser--><path codeLine="21" d="M387,134.14 C387,147.55 387,164.86 387,180.7 " fill="none" id="ObjseptParser-to-Parser" style="stroke:#A80036;stroke-width:1.0;"/><polygon fill="none" points="394,180.89,387,200.89,380,180.89,394,180.89" style="stroke:#A80036;stroke-width:1.0;"/><!--MD5=[10474f8a352e7a4b8e030901fce68971]
reverse link strucGeojson to strucOSM--><!--MD5=[a9f3c23f82ea8200043c190f93efea79]
reverse link strucOSM to strucStyle--><!--MD5=[be77d0d1dd3d756b3a3ead0d3c6c4fdb]
reverse link strucStyle to strucObjsept--><!--MD5=[cd2771df7d87215ceadd7d7ecfb277e9]
@startuml data
package data{
    package "parsers" {
        abstract Parser

        class JsonParser
        class XMLParser
        abstract MapParser
        class "StyleParser"
        class "OSMParser"
        class "GeojsonParser"
        class "ObjseptParser"

        JsonParser -right-|>Parser
        XMLParser -left-|>Parser
        MapParser -up-|>Parser
        OSMParser -left-|>MapParser
        GeojsonParser -right-|>MapParser
        OSMParser -up->XMLParser
        GeojsonParser -up->JsonParser
        StyleParser -down-|>JsonParser
        ObjseptParser -down-|>Parser
    }
    together {
        package "objespt" as strucObjsept {}
        package "geojson" as strucGeojson {}
        package "osm" as strucOSM {}
        package "styles" as strucStyle {}
    }
    
    strucGeojson <-[hidden]- strucOSM
    strucOSM <-[hidden]- strucStyle
    strucStyle <-[hidden]- strucObjsept

}   

' GeojsonParser <- - strucGeojson
' OSMParser <- - strucOSM
' StyleParser <- - strucStyle




@enduml

@startuml data
package data{
    package "parsers" {
        abstract Parser

        class JsonParser
        class XMLParser
        abstract MapParser
        class "StyleParser"
        class "OSMParser"
        class "GeojsonParser"
        class "ObjseptParser"

        JsonParser -right-|>Parser
        XMLParser -left-|>Parser
        MapParser -up-|>Parser
        OSMParser -left-|>MapParser
        GeojsonParser -right-|>MapParser
        OSMParser -up->XMLParser
        GeojsonParser -up->JsonParser
        StyleParser -down-|>JsonParser
        ObjseptParser -down-|>Parser
    }
    together {
        package "objespt" as strucObjsept {}
        package "geojson" as strucGeojson {}
        package "osm" as strucOSM {}
        package "styles" as strucStyle {}
    }
    
    strucGeojson <-[hidden]- strucOSM
    strucOSM <-[hidden]- strucStyle
    strucStyle <-[hidden]- strucObjsept

}   





@enduml

PlantUML version 1.2021.00(Sun Jan 10 11:25:05 CET 2021)
(GPL source distribution)
Java Runtime: Java(TM) SE Runtime Environment
JVM: Java HotSpot(TM) 64-Bit Server VM
Default Encoding: Cp1252
Language: en
Country: US
--></g></svg>