<?xml version="1.0" encoding="UTF-8" standalone="no"?><svg xmlns="http://www.w3.org/2000/svg" xmlns:xlink="http://www.w3.org/1999/xlink" contentScriptType="application/ecmascript" contentStyleType="text/css" height="460px" preserveAspectRatio="none" style="width:618px;height:460px;" version="1.1" viewBox="0 0 618 460" width="618px" zoomAndPan="magnify"><defs><filter height="300%" id="f1t6l6mx0i6zn3" width="300%" x="-1" y="-1"><feGaussianBlur result="blurOut" stdDeviation="2.0"/><feColorMatrix in="blurOut" result="blurOut2" type="matrix" values="0 0 0 0 0 0 0 0 0 0 0 0 0 0 0 0 0 0 .4 0"/><feOffset dx="4.0" dy="4.0" in="blurOut2" result="blurOut3"/><feBlend in="SourceGraphic" in2="blurOut3" mode="normal"/></filter></defs><g><line style="stroke:#A80036;stroke-width:1.0;stroke-dasharray:5.0,5.0;" x1="78" x2="78" y1="41.6094" y2="415.4766"/><line style="stroke:#A80036;stroke-width:1.0;stroke-dasharray:5.0,5.0;" x1="188" x2="188" y1="41.6094" y2="415.4766"/><line style="stroke:#A80036;stroke-width:1.0;stroke-dasharray:5.0,5.0;" x1="315" x2="315" y1="41.6094" y2="415.4766"/><line style="stroke:#A80036;stroke-width:1.0;stroke-dasharray:5.0,5.0;" x1="434" x2="434" y1="41.6094" y2="415.4766"/><line style="stroke:#A80036;stroke-width:1.0;stroke-dasharray:5.0,5.0;" x1="581.5" x2="581.5" y1="41.6094" y2="415.4766"/><rect fill="#FEFECE" filter="url(#f1t6l6mx0i6zn3)" height="31.6094" style="stroke:#A80036;stroke-width:1.5;" width="104" x="24" y="5"/><text fill="#000000" font-family="sans-serif" font-size="14" lengthAdjust="spacing" textLength="90" x="31" y="26.5332">EngineThread</text><rect fill="#FEFECE" filter="url(#f1t6l6mx0i6zn3)" height="31.6094" style="stroke:#A80036;stroke-width:1.5;" width="104" x="24" y="414.4766"/><text fill="#000000" font-family="sans-serif" font-size="14" lengthAdjust="spacing" textLength="90" x="31" y="436.0098">EngineThread</text><rect fill="#FEFECE" filter="url(#f1t6l6mx0i6zn3)" height="31.6094" style="stroke:#A80036;stroke-width:1.5;" width="89" x="142" y="5"/><text fill="#000000" font-family="sans-serif" font-size="14" lengthAdjust="spacing" textLength="75" x="149" y="26.5332">UserThread</text><rect fill="#FEFECE" filter="url(#f1t6l6mx0i6zn3)" height="31.6094" style="stroke:#A80036;stroke-width:1.5;" width="89" x="142" y="414.4766"/><text fill="#000000" font-family="sans-serif" font-size="14" lengthAdjust="spacing" textLength="75" x="149" y="436.0098">UserThread</text><rect fill="#FEFECE" filter="url(#f1t6l6mx0i6zn3)" height="31.6094" style="stroke:#A80036;stroke-width:1.5;" width="63" x="282" y="5"/><text fill="#000000" font-family="sans-serif" font-size="14" lengthAdjust="spacing" textLength="49" x="289" y="26.5332">Window</text><rect fill="#FEFECE" filter="url(#f1t6l6mx0i6zn3)" height="31.6094" style="stroke:#A80036;stroke-width:1.5;" width="63" x="282" y="414.4766"/><text fill="#000000" font-family="sans-serif" font-size="14" lengthAdjust="spacing" textLength="49" x="289" y="436.0098">Window</text><rect fill="#FEFECE" filter="url(#f1t6l6mx0i6zn3)" height="31.6094" style="stroke:#A80036;stroke-width:1.5;" width="69" x="398" y="5"/><text fill="#000000" font-family="sans-serif" font-size="14" lengthAdjust="spacing" textLength="55" x="405" y="26.5332">TaskMgr</text><rect fill="#FEFECE" filter="url(#f1t6l6mx0i6zn3)" height="31.6094" style="stroke:#A80036;stroke-width:1.5;" width="69" x="398" y="414.4766"/><text fill="#000000" font-family="sans-serif" font-size="14" lengthAdjust="spacing" textLength="55" x="405" y="436.0098">TaskMgr</text><rect fill="#FEFECE" filter="url(#f1t6l6mx0i6zn3)" height="31.6094" style="stroke:#A80036;stroke-width:1.5;" width="50" x="554.5" y="5"/><text fill="#000000" font-family="sans-serif" font-size="14" lengthAdjust="spacing" textLength="36" x="561.5" y="26.5332">Event</text><rect fill="#FEFECE" filter="url(#f1t6l6mx0i6zn3)" height="31.6094" style="stroke:#A80036;stroke-width:1.5;" width="50" x="554.5" y="414.4766"/><text fill="#000000" font-family="sans-serif" font-size="14" lengthAdjust="spacing" textLength="36" x="561.5" y="436.0098">Event</text><polygon fill="#A80036" points="569.5,69.9609,579.5,73.9609,569.5,77.9609,573.5,73.9609" style="stroke:#A80036;stroke-width:1.0;"/><line style="stroke:#A80036;stroke-width:1.0;" x1="78" x2="575.5" y1="73.9609" y2="73.9609"/><text fill="#000000" font-family="sans-serif" font-size="13" lengthAdjust="spacing" textLength="53" x="85" y="69.1045">isActive()</text><polygon fill="#A80036" points="89,105.3125,79,109.3125,89,113.3125,85,109.3125" style="stroke:#A80036;stroke-width:1.0;"/><line style="stroke:#A80036;stroke-width:1.0;" x1="83" x2="580.5" y1="109.3125" y2="109.3125"/><text fill="#000000" font-family="sans-serif" font-size="13" lengthAdjust="spacing" textLength="70" x="95" y="104.4561">user-defined</text><path d="M5,86.9609 L5,112.9609 L69,112.9609 L69,96.9609 L59,86.9609 L5,86.9609 " fill="#FBFB77" filter="url(#f1t6l6mx0i6zn3)" style="stroke:#A80036;stroke-width:1.0;"/><path d="M59,86.9609 L59,96.9609 L69,96.9609 L59,86.9609 " fill="#FBFB77" style="stroke:#A80036;stroke-width:1.0;"/><text fill="#000000" font-family="sans-serif" font-size="13" lengthAdjust="spacing" textLength="43" x="11" y="105.4561">frame 0</text><polygon fill="#A80036" points="569.5,140.6641,579.5,144.6641,569.5,148.6641,573.5,144.6641" style="stroke:#A80036;stroke-width:1.0;"/><line style="stroke:#A80036;stroke-width:1.0;" x1="78" x2="575.5" y1="144.6641" y2="144.6641"/><text fill="#000000" font-family="sans-serif" font-size="13" lengthAdjust="spacing" textLength="93" x="85" y="139.8076">isForcedActive()</text><polygon fill="#A80036" points="89,171.0156,79,175.0156,89,179.0156,85,175.0156" style="stroke:#A80036;stroke-width:1.0;"/><line style="stroke:#A80036;stroke-width:1.0;" x1="83" x2="580.5" y1="175.0156" y2="175.0156"/><text fill="#000000" font-family="sans-serif" font-size="13" lengthAdjust="spacing" textLength="27" x="95" y="170.1592">false</text><polygon fill="#A80036" points="303.5,201.3672,313.5,205.3672,303.5,209.3672,307.5,205.3672" style="stroke:#A80036;stroke-width:1.0;"/><line style="stroke:#A80036;stroke-width:1.0;" x1="188.5" x2="309.5" y1="205.3672" y2="205.3672"/><text fill="#000000" font-family="sans-serif" font-size="13" lengthAdjust="spacing" textLength="103" x="195.5" y="200.5107">throwEvent(Event)</text><polygon fill="#A80036" points="422.5,231.7188,432.5,235.7188,422.5,239.7188,426.5,235.7188" style="stroke:#A80036;stroke-width:1.0;"/><line style="stroke:#A80036;stroke-width:1.0;" x1="315.5" x2="428.5" y1="235.7188" y2="235.7188"/><text fill="#000000" font-family="sans-serif" font-size="13" lengthAdjust="spacing" textLength="95" x="322.5" y="230.8623">flagActive(Event)</text><polygon fill="#A80036" points="569.5,262.0703,579.5,266.0703,569.5,270.0703,573.5,266.0703" style="stroke:#A80036;stroke-width:1.0;"/><line style="stroke:#A80036;stroke-width:1.0;" x1="434.5" x2="575.5" y1="266.0703" y2="266.0703"/><text fill="#000000" font-family="sans-serif" font-size="13" lengthAdjust="spacing" textLength="123" x="441.5" y="261.2139">setForcedActive(true)</text><polygon fill="#A80036" points="569.5,292.4219,579.5,296.4219,569.5,300.4219,573.5,296.4219" style="stroke:#A80036;stroke-width:1.0;"/><line style="stroke:#A80036;stroke-width:1.0;" x1="78" x2="575.5" y1="296.4219" y2="296.4219"/><text fill="#000000" font-family="sans-serif" font-size="13" lengthAdjust="spacing" textLength="53" x="85" y="291.5654">isActive()</text><polygon fill="#A80036" points="89,327.7734,79,331.7734,89,335.7734,85,331.7734" style="stroke:#A80036;stroke-width:1.0;"/><line style="stroke:#A80036;stroke-width:1.0;" x1="83" x2="580.5" y1="331.7734" y2="331.7734"/><text fill="#000000" font-family="sans-serif" font-size="13" lengthAdjust="spacing" textLength="70" x="95" y="326.917">user-defined</text><path d="M5,309.4219 L5,335.4219 L69,335.4219 L69,319.4219 L59,309.4219 L5,309.4219 " fill="#FBFB77" filter="url(#f1t6l6mx0i6zn3)" style="stroke:#A80036;stroke-width:1.0;"/><path d="M59,309.4219 L59,319.4219 L69,319.4219 L59,309.4219 " fill="#FBFB77" style="stroke:#A80036;stroke-width:1.0;"/><text fill="#000000" font-family="sans-serif" font-size="13" lengthAdjust="spacing" textLength="43" x="11" y="327.917">frame 1</text><polygon fill="#A80036" points="569.5,363.125,579.5,367.125,569.5,371.125,573.5,367.125" style="stroke:#A80036;stroke-width:1.0;"/><line style="stroke:#A80036;stroke-width:1.0;" x1="78" x2="575.5" y1="367.125" y2="367.125"/><text fill="#000000" font-family="sans-serif" font-size="13" lengthAdjust="spacing" textLength="93" x="85" y="362.2686">isForcedActive()</text><polygon fill="#A80036" points="89,393.4766,79,397.4766,89,401.4766,85,397.4766" style="stroke:#A80036;stroke-width:1.0;"/><line style="stroke:#A80036;stroke-width:1.0;" x1="83" x2="580.5" y1="397.4766" y2="397.4766"/><text fill="#000000" font-family="sans-serif" font-size="13" lengthAdjust="spacing" textLength="22" x="95" y="392.6201">true</text><!--MD5=[7320b4ec8e8fd38ce05d4d23d29b23d0]
@startuml eventSequence

participant EngineThread
participant UserThread
participant Window
participant TaskMgr
EngineThread -> Event : isActive()
EngineThread <- Event : user-defined
note left: frame 0
EngineThread -> Event : isForcedActive()
EngineThread <- Event : false
UserThread -> Window : throwEvent(Event)
Window -> TaskMgr : flagActive(Event)
TaskMgr -> Event : setForcedActive(true)
EngineThread -> Event : isActive()
EngineThread <- Event : user-defined
note left: frame 1
EngineThread -> Event : isForcedActive()
EngineThread <- Event : true


@enduml

PlantUML version 1.2021.00(Sun Jan 10 11:25:05 CET 2021)
(GPL source distribution)
Java Runtime: Java(TM) SE Runtime Environment
JVM: Java HotSpot(TM) 64-Bit Server VM
Default Encoding: Cp1252
Language: fr
Country: FR
--></g></svg>