<?xml version="1.0" encoding="UTF-8" standalone="no"?><svg xmlns="http://www.w3.org/2000/svg" xmlns:xlink="http://www.w3.org/1999/xlink" contentScriptType="application/ecmascript" contentStyleType="text/css" height="353px" preserveAspectRatio="none" style="width:572px;height:353px;" version="1.1" viewBox="0 0 572 353" width="572px" zoomAndPan="magnify"><defs><filter height="300%" id="f1921ngzw58ef" width="300%" x="-1" y="-1"><feGaussianBlur result="blurOut" stdDeviation="2.0"/><feColorMatrix in="blurOut" result="blurOut2" type="matrix" values="0 0 0 0 0 0 0 0 0 0 0 0 0 0 0 0 0 0 .4 0"/><feOffset dx="4.0" dy="4.0" in="blurOut2" result="blurOut3"/><feBlend in="SourceGraphic" in2="blurOut3" mode="normal"/></filter></defs><g><!--MD5=[f8670f8172517499a8af52e6818b5624]
cluster scheduling--><polygon fill="#FFFFFF" filter="url(#f1921ngzw58ef)" points="16,6,100,6,107,29.6094,555,29.6094,555,346,16,346,16,6" style="stroke:#000000;stroke-width:1.5;"/><line style="stroke:#000000;stroke-width:1.5;" x1="16" x2="107" y1="29.6094" y2="29.6094"/><text fill="#000000" font-family="sans-serif" font-size="14" font-weight="bold" lengthAdjust="spacing" textLength="78" x="20" y="22.5332">scheduling</text><!--MD5=[8d74b40516bd265adb19f202ab81f40d]
cluster events--><polygon fill="#FFFFFF" filter="url(#f1921ngzw58ef)" points="108,114,163,114,170,137.6094,531,137.6094,531,322,108,322,108,114" style="stroke:#000000;stroke-width:1.5;"/><line style="stroke:#000000;stroke-width:1.5;" x1="108" x2="170" y1="137.6094" y2="137.6094"/><text fill="#000000" font-family="sans-serif" font-size="14" font-weight="bold" lengthAdjust="spacing" textLength="49" x="112" y="130.5332">events</text><!--MD5=[c1beb94197e75535b1082942962266f7]
class TaskMgr--><rect codeLine="2" fill="#FEFECE" filter="url(#f1921ngzw58ef)" height="48" id="TaskMgr" style="stroke:#A80036;stroke-width:1.5;" width="79" x="82.5" y="42"/><ellipse cx="97.5" cy="58" fill="#ADD1B2" rx="11" ry="11" style="stroke:#A80036;stroke-width:1.0;"/><path d="M100.2656,53.875 Q100.4219,53.6563 100.6094,53.5469 Q100.7969,53.4375 101.0156,53.4375 Q101.3906,53.4375 101.625,53.7031 Q101.8594,53.9531 101.8594,54.5625 L101.8594,56.0156 Q101.8594,56.625 101.625,56.8906 Q101.3906,57.1563 101.0156,57.1563 Q100.6719,57.1563 100.4688,56.9531 Q100.2656,56.7656 100.1563,56.25 Q100.1094,55.8906 99.9219,55.7031 Q99.5938,55.3281 98.9844,55.1094 Q98.375,54.8906 97.75,54.8906 Q96.9844,54.8906 96.3438,55.2188 Q95.7188,55.5469 95.2188,56.2969 Q94.7344,57.0469 94.7344,58.0781 L94.7344,59.1719 Q94.7344,60.4063 95.625,61.2344 Q96.5156,62.0469 98.1094,62.0469 Q99.0469,62.0469 99.7031,61.7969 Q100.0938,61.6406 100.5156,61.2031 Q100.7813,60.9375 100.9219,60.8594 Q101.0781,60.7813 101.2813,60.7813 Q101.6094,60.7813 101.8594,61.0469 Q102.125,61.2969 102.125,61.6406 Q102.125,61.9844 101.7813,62.3906 Q101.2813,62.9688 100.4844,63.2969 Q99.4063,63.75 98.1094,63.75 Q96.5938,63.75 95.3906,63.125 Q94.4063,62.625 93.7188,61.5625 Q93.0313,60.4844 93.0313,59.2031 L93.0313,58.0469 Q93.0313,56.7188 93.6406,55.5781 Q94.2656,54.4219 95.3594,53.8125 Q96.4531,53.1875 97.6875,53.1875 Q98.4219,53.1875 99.0625,53.3594 Q99.7188,53.5156 100.2656,53.875 Z " fill="#000000"/><text fill="#000000" font-family="sans-serif" font-size="12" lengthAdjust="spacing" textLength="47" x="111.5" y="62.9102">TaskMgr</text><line style="stroke:#A80036;stroke-width:1.5;" x1="83.5" x2="160.5" y1="74" y2="74"/><line style="stroke:#A80036;stroke-width:1.5;" x1="83.5" x2="160.5" y1="82" y2="82"/><!--MD5=[b34797a66dc35cbf1d65f7e3ca75530e]
class Task--><rect codeLine="3" fill="#FEFECE" filter="url(#f1921ngzw58ef)" height="48" id="Task" style="stroke:#A80036;stroke-width:1.5;" width="59" x="32.5" y="150"/><ellipse cx="47.5" cy="166" fill="#ADD1B2" rx="11" ry="11" style="stroke:#A80036;stroke-width:1.0;"/><path d="M50.2656,161.875 Q50.4219,161.6563 50.6094,161.5469 Q50.7969,161.4375 51.0156,161.4375 Q51.3906,161.4375 51.625,161.7031 Q51.8594,161.9531 51.8594,162.5625 L51.8594,164.0156 Q51.8594,164.625 51.625,164.8906 Q51.3906,165.1563 51.0156,165.1563 Q50.6719,165.1563 50.4688,164.9531 Q50.2656,164.7656 50.1563,164.25 Q50.1094,163.8906 49.9219,163.7031 Q49.5938,163.3281 48.9844,163.1094 Q48.375,162.8906 47.75,162.8906 Q46.9844,162.8906 46.3438,163.2188 Q45.7188,163.5469 45.2188,164.2969 Q44.7344,165.0469 44.7344,166.0781 L44.7344,167.1719 Q44.7344,168.4063 45.625,169.2344 Q46.5156,170.0469 48.1094,170.0469 Q49.0469,170.0469 49.7031,169.7969 Q50.0938,169.6406 50.5156,169.2031 Q50.7813,168.9375 50.9219,168.8594 Q51.0781,168.7813 51.2813,168.7813 Q51.6094,168.7813 51.8594,169.0469 Q52.125,169.2969 52.125,169.6406 Q52.125,169.9844 51.7813,170.3906 Q51.2813,170.9688 50.4844,171.2969 Q49.4063,171.75 48.1094,171.75 Q46.5938,171.75 45.3906,171.125 Q44.4063,170.625 43.7188,169.5625 Q43.0313,168.4844 43.0313,167.2031 L43.0313,166.0469 Q43.0313,164.7188 43.6406,163.5781 Q44.2656,162.4219 45.3594,161.8125 Q46.4531,161.1875 47.6875,161.1875 Q48.4219,161.1875 49.0625,161.3594 Q49.7188,161.5156 50.2656,161.875 Z " fill="#000000"/><text fill="#000000" font-family="sans-serif" font-size="12" lengthAdjust="spacing" textLength="27" x="61.5" y="170.9102">Task</text><line style="stroke:#A80036;stroke-width:1.5;" x1="33.5" x2="90.5" y1="182" y2="182"/><line style="stroke:#A80036;stroke-width:1.5;" x1="33.5" x2="90.5" y1="190" y2="190"/><!--MD5=[ac13618b1a974308c1f12eb6c57723dc]
class Event--><rect codeLine="5" fill="#FEFECE" filter="url(#f1921ngzw58ef)" height="48" id="Event" style="stroke:#A80036;stroke-width:1.5;" width="62" x="207" y="150"/><ellipse cx="222" cy="166" fill="#ADD1B2" rx="11" ry="11" style="stroke:#A80036;stroke-width:1.0;"/><path d="M224.7656,161.875 Q224.9219,161.6563 225.1094,161.5469 Q225.2969,161.4375 225.5156,161.4375 Q225.8906,161.4375 226.125,161.7031 Q226.3594,161.9531 226.3594,162.5625 L226.3594,164.0156 Q226.3594,164.625 226.125,164.8906 Q225.8906,165.1563 225.5156,165.1563 Q225.1719,165.1563 224.9688,164.9531 Q224.7656,164.7656 224.6563,164.25 Q224.6094,163.8906 224.4219,163.7031 Q224.0938,163.3281 223.4844,163.1094 Q222.875,162.8906 222.25,162.8906 Q221.4844,162.8906 220.8438,163.2188 Q220.2188,163.5469 219.7188,164.2969 Q219.2344,165.0469 219.2344,166.0781 L219.2344,167.1719 Q219.2344,168.4063 220.125,169.2344 Q221.0156,170.0469 222.6094,170.0469 Q223.5469,170.0469 224.2031,169.7969 Q224.5938,169.6406 225.0156,169.2031 Q225.2813,168.9375 225.4219,168.8594 Q225.5781,168.7813 225.7813,168.7813 Q226.1094,168.7813 226.3594,169.0469 Q226.625,169.2969 226.625,169.6406 Q226.625,169.9844 226.2813,170.3906 Q225.7813,170.9688 224.9844,171.2969 Q223.9063,171.75 222.6094,171.75 Q221.0938,171.75 219.8906,171.125 Q218.9063,170.625 218.2188,169.5625 Q217.5313,168.4844 217.5313,167.2031 L217.5313,166.0469 Q217.5313,164.7188 218.1406,163.5781 Q218.7656,162.4219 219.8594,161.8125 Q220.9531,161.1875 222.1875,161.1875 Q222.9219,161.1875 223.5625,161.3594 Q224.2188,161.5156 224.7656,161.875 Z " fill="#000000"/><text fill="#000000" font-family="sans-serif" font-size="12" lengthAdjust="spacing" textLength="30" x="236" y="170.9102">Event</text><line style="stroke:#A80036;stroke-width:1.5;" x1="208" x2="268" y1="182" y2="182"/><line style="stroke:#A80036;stroke-width:1.5;" x1="208" x2="268" y1="190" y2="190"/><!--MD5=[25711a5b482797d0516911f22ac0cbbd]
class EmptyEvent--><rect codeLine="6" fill="#FEFECE" filter="url(#f1921ngzw58ef)" height="48" id="EmptyEvent" style="stroke:#A80036;stroke-width:1.5;" width="96" x="124" y="258"/><ellipse cx="139" cy="274" fill="#ADD1B2" rx="11" ry="11" style="stroke:#A80036;stroke-width:1.0;"/><path d="M141.7656,269.875 Q141.9219,269.6563 142.1094,269.5469 Q142.2969,269.4375 142.5156,269.4375 Q142.8906,269.4375 143.125,269.7031 Q143.3594,269.9531 143.3594,270.5625 L143.3594,272.0156 Q143.3594,272.625 143.125,272.8906 Q142.8906,273.1563 142.5156,273.1563 Q142.1719,273.1563 141.9688,272.9531 Q141.7656,272.7656 141.6563,272.25 Q141.6094,271.8906 141.4219,271.7031 Q141.0938,271.3281 140.4844,271.1094 Q139.875,270.8906 139.25,270.8906 Q138.4844,270.8906 137.8438,271.2188 Q137.2188,271.5469 136.7188,272.2969 Q136.2344,273.0469 136.2344,274.0781 L136.2344,275.1719 Q136.2344,276.4063 137.125,277.2344 Q138.0156,278.0469 139.6094,278.0469 Q140.5469,278.0469 141.2031,277.7969 Q141.5938,277.6406 142.0156,277.2031 Q142.2813,276.9375 142.4219,276.8594 Q142.5781,276.7813 142.7813,276.7813 Q143.1094,276.7813 143.3594,277.0469 Q143.625,277.2969 143.625,277.6406 Q143.625,277.9844 143.2813,278.3906 Q142.7813,278.9688 141.9844,279.2969 Q140.9063,279.75 139.6094,279.75 Q138.0938,279.75 136.8906,279.125 Q135.9063,278.625 135.2188,277.5625 Q134.5313,276.4844 134.5313,275.2031 L134.5313,274.0469 Q134.5313,272.7188 135.1406,271.5781 Q135.7656,270.4219 136.8594,269.8125 Q137.9531,269.1875 139.1875,269.1875 Q139.9219,269.1875 140.5625,269.3594 Q141.2188,269.5156 141.7656,269.875 Z " fill="#000000"/><text fill="#000000" font-family="sans-serif" font-size="12" lengthAdjust="spacing" textLength="64" x="153" y="278.9102">EmptyEvent</text><line style="stroke:#A80036;stroke-width:1.5;" x1="125" x2="219" y1="290" y2="290"/><line style="stroke:#A80036;stroke-width:1.5;" x1="125" x2="219" y1="298" y2="298"/><!--MD5=[cd19ac693896152a39deeb9763042a12]
class ButtonEvent--><rect codeLine="7" fill="#FEFECE" filter="url(#f1921ngzw58ef)" height="48" id="ButtonEvent" style="stroke:#A80036;stroke-width:1.5;" width="97" x="255.5" y="258"/><ellipse cx="270.5" cy="274" fill="#ADD1B2" rx="11" ry="11" style="stroke:#A80036;stroke-width:1.0;"/><path d="M273.2656,269.875 Q273.4219,269.6563 273.6094,269.5469 Q273.7969,269.4375 274.0156,269.4375 Q274.3906,269.4375 274.625,269.7031 Q274.8594,269.9531 274.8594,270.5625 L274.8594,272.0156 Q274.8594,272.625 274.625,272.8906 Q274.3906,273.1563 274.0156,273.1563 Q273.6719,273.1563 273.4688,272.9531 Q273.2656,272.7656 273.1563,272.25 Q273.1094,271.8906 272.9219,271.7031 Q272.5938,271.3281 271.9844,271.1094 Q271.375,270.8906 270.75,270.8906 Q269.9844,270.8906 269.3438,271.2188 Q268.7188,271.5469 268.2188,272.2969 Q267.7344,273.0469 267.7344,274.0781 L267.7344,275.1719 Q267.7344,276.4063 268.625,277.2344 Q269.5156,278.0469 271.1094,278.0469 Q272.0469,278.0469 272.7031,277.7969 Q273.0938,277.6406 273.5156,277.2031 Q273.7813,276.9375 273.9219,276.8594 Q274.0781,276.7813 274.2813,276.7813 Q274.6094,276.7813 274.8594,277.0469 Q275.125,277.2969 275.125,277.6406 Q275.125,277.9844 274.7813,278.3906 Q274.2813,278.9688 273.4844,279.2969 Q272.4063,279.75 271.1094,279.75 Q269.5938,279.75 268.3906,279.125 Q267.4063,278.625 266.7188,277.5625 Q266.0313,276.4844 266.0313,275.2031 L266.0313,274.0469 Q266.0313,272.7188 266.6406,271.5781 Q267.2656,270.4219 268.3594,269.8125 Q269.4531,269.1875 270.6875,269.1875 Q271.4219,269.1875 272.0625,269.3594 Q272.7188,269.5156 273.2656,269.875 Z " fill="#000000"/><text fill="#000000" font-family="sans-serif" font-size="12" lengthAdjust="spacing" textLength="65" x="284.5" y="278.9102">ButtonEvent</text><line style="stroke:#A80036;stroke-width:1.5;" x1="256.5" x2="351.5" y1="290" y2="290"/><line style="stroke:#A80036;stroke-width:1.5;" x1="256.5" x2="351.5" y1="298" y2="298"/><!--MD5=[1feed5873d2204a8bac84d3429ca429d]
class ExitOverrideEvent--><rect codeLine="8" fill="#FEFECE" filter="url(#f1921ngzw58ef)" height="48" id="ExitOverrideEvent" style="stroke:#A80036;stroke-width:1.5;" width="127" x="387.5" y="258"/><ellipse cx="402.5" cy="274" fill="#ADD1B2" rx="11" ry="11" style="stroke:#A80036;stroke-width:1.0;"/><path d="M405.2656,269.875 Q405.4219,269.6563 405.6094,269.5469 Q405.7969,269.4375 406.0156,269.4375 Q406.3906,269.4375 406.625,269.7031 Q406.8594,269.9531 406.8594,270.5625 L406.8594,272.0156 Q406.8594,272.625 406.625,272.8906 Q406.3906,273.1563 406.0156,273.1563 Q405.6719,273.1563 405.4688,272.9531 Q405.2656,272.7656 405.1563,272.25 Q405.1094,271.8906 404.9219,271.7031 Q404.5938,271.3281 403.9844,271.1094 Q403.375,270.8906 402.75,270.8906 Q401.9844,270.8906 401.3438,271.2188 Q400.7188,271.5469 400.2188,272.2969 Q399.7344,273.0469 399.7344,274.0781 L399.7344,275.1719 Q399.7344,276.4063 400.625,277.2344 Q401.5156,278.0469 403.1094,278.0469 Q404.0469,278.0469 404.7031,277.7969 Q405.0938,277.6406 405.5156,277.2031 Q405.7813,276.9375 405.9219,276.8594 Q406.0781,276.7813 406.2813,276.7813 Q406.6094,276.7813 406.8594,277.0469 Q407.125,277.2969 407.125,277.6406 Q407.125,277.9844 406.7813,278.3906 Q406.2813,278.9688 405.4844,279.2969 Q404.4063,279.75 403.1094,279.75 Q401.5938,279.75 400.3906,279.125 Q399.4063,278.625 398.7188,277.5625 Q398.0313,276.4844 398.0313,275.2031 L398.0313,274.0469 Q398.0313,272.7188 398.6406,271.5781 Q399.2656,270.4219 400.3594,269.8125 Q401.4531,269.1875 402.6875,269.1875 Q403.4219,269.1875 404.0625,269.3594 Q404.7188,269.5156 405.2656,269.875 Z " fill="#000000"/><text fill="#000000" font-family="sans-serif" font-size="12" lengthAdjust="spacing" textLength="95" x="416.5" y="278.9102">ExitOverrideEvent</text><line style="stroke:#A80036;stroke-width:1.5;" x1="388.5" x2="513.5" y1="290" y2="290"/><line style="stroke:#A80036;stroke-width:1.5;" x1="388.5" x2="513.5" y1="298" y2="298"/><!--MD5=[35397e4339020e55988936fa1d8d62ca]
reverse link Event to EmptyEvent--><path d="M213.01,215.13 C204.07,229.5 194.29,245.21 186.52,257.68 " fill="none" id="Event-backto-EmptyEvent" style="stroke:#A80036;stroke-width:1.0;"/><polygon fill="none" points="207.17,211.28,223.68,198,219.05,218.68,207.17,211.28" style="stroke:#A80036;stroke-width:1.0;"/><!--MD5=[d9564a4eb90758e1b7bdbb2f22027cdf]
reverse link Event to ButtonEvent--><path d="M262.99,215.13 C271.93,229.5 281.71,245.21 289.48,257.68 " fill="none" id="Event-backto-ButtonEvent" style="stroke:#A80036;stroke-width:1.0;"/><polygon fill="none" points="256.95,218.68,252.32,198,268.83,211.28,256.95,218.68" style="stroke:#A80036;stroke-width:1.0;"/><!--MD5=[eff451e12371df49b789aaffd8675df8]
reverse link Event to ExitOverrideEvent--><path d="M287.65,199.71 C322.91,217.26 369.93,240.66 404.47,257.84 " fill="none" id="Event-backto-ExitOverrideEvent" style="stroke:#A80036;stroke-width:1.0;"/><polygon fill="none" points="284.22,205.82,269.43,190.64,290.45,193.28,284.22,205.82" style="stroke:#A80036;stroke-width:1.0;"/><!--MD5=[76fabeebd945b88710867504923aa04c]
reverse link TaskMgr to Task--><path codeLine="12" d="M102.49,101.47 C93.55,117.25 83.2,135.54 75.2,149.68 " fill="none" id="TaskMgr-backto-Task" style="stroke:#A80036;stroke-width:1.0;"/><polygon fill="#A80036" points="108.98,90,102.5412,93.2469,103.0619,100.4391,109.5006,97.1923,108.98,90" style="stroke:#A80036;stroke-width:1.0;"/><!--MD5=[87ce9ecc83ec0aea63099879538a79f0]
reverse link TaskMgr to Event--><path codeLine="13" d="M173.67,85.75 C184.2,91.17 194.61,97.88 203,106 C215.54,118.14 224.5,135.75 230.21,149.87 " fill="none" id="TaskMgr-backto-Event" style="stroke:#A80036;stroke-width:1.0;"/><polygon fill="#A80036" points="161.84,80.16,165.5614,86.3367,172.6942,85.2772,168.9728,79.1005,161.84,80.16" style="stroke:#A80036;stroke-width:1.0;"/><!--MD5=[3fce8f81eed7929a3c39b79358fb165e]
@startuml events
package scheduling {
    class TaskMgr {}
    class Task {}
    package events {
        class Event {}
        class EmptyEvent extends Event {}
        class ButtonEvent extends Event {}
        class ExitOverrideEvent extends Event {}
    }
}

TaskMgr *- - Task
TaskMgr *- - Event

@enduml

PlantUML version 1.2021.00(Sun Jan 10 11:25:05 CET 2021)
(GPL source distribution)
Java Runtime: Java(TM) SE Runtime Environment
JVM: Java HotSpot(TM) 64-Bit Server VM
Default Encoding: Cp1252
Language: fr
Country: FR
--></g></svg>