<?xml version="1.0" encoding="UTF-8" standalone="no"?><svg xmlns="http://www.w3.org/2000/svg" xmlns:xlink="http://www.w3.org/1999/xlink" contentScriptType="application/ecmascript" contentStyleType="text/css" height="585px" preserveAspectRatio="none" style="width:420px;height:585px;" version="1.1" viewBox="0 0 420 585" width="420px" zoomAndPan="magnify"><defs><filter height="300%" id="f1kffk76975304" width="300%" x="-1" y="-1"><feGaussianBlur result="blurOut" stdDeviation="2.0"/><feColorMatrix in="blurOut" result="blurOut2" type="matrix" values="0 0 0 0 0 0 0 0 0 0 0 0 0 0 0 0 0 0 .4 0"/><feOffset dx="4.0" dy="4.0" in="blurOut2" result="blurOut3"/><feBlend in="SourceGraphic" in2="blurOut3" mode="normal"/></filter></defs><g><!--MD5=[d1d67cf13d943d18b79e03c2b672425f]
cluster elements--><polygon fill="#FFFFFF" filter="url(#f1kffk76975304)" points="16,130,87,130,94,153.6094,403,153.6094,403,578,16,578,16,130" style="stroke:#000000;stroke-width:1.5;"/><line style="stroke:#000000;stroke-width:1.5;" x1="16" x2="94" y1="153.6094" y2="153.6094"/><text fill="#000000" font-family="sans-serif" font-size="14" font-weight="bold" lengthAdjust="spacing" textLength="65" x="20" y="146.5332">elements</text><!--MD5=[11b63f87f9efce6fda9831b98bfa73ba]
cluster gui--><polygon fill="#FFFFFF" filter="url(#f1kffk76975304)" points="40,346,68,346,75,369.6094,154,369.6094,154,554,40,554,40,346" style="stroke:#000000;stroke-width:1.5;"/><line style="stroke:#000000;stroke-width:1.5;" x1="40" x2="75" y1="369.6094" y2="369.6094"/><text fill="#000000" font-family="sans-serif" font-size="14" font-weight="bold" lengthAdjust="spacing" textLength="22" x="44" y="362.5332">gui</text><!--MD5=[e9742eba12188ef7298678f225c87aad]
cluster geom--><polygon fill="#FFFFFF" filter="url(#f1kffk76975304)" points="178,346,223,346,230,369.6094,379,369.6094,379,554,178,554,178,346" style="stroke:#000000;stroke-width:1.5;"/><line style="stroke:#000000;stroke-width:1.5;" x1="178" x2="230" y1="369.6094" y2="369.6094"/><text fill="#000000" font-family="sans-serif" font-size="14" font-weight="bold" lengthAdjust="spacing" textLength="39" x="182" y="362.5332">geom</text><!--MD5=[67f236fd0af0b11b2ef5a832d8415319]
cluster gfx--><polygon fill="#FFFFFF" filter="url(#f1kffk76975304)" points="42,6,70,6,77,29.6094,332,29.6094,332,106,42,106,42,6" style="stroke:#000000;stroke-width:1.5;"/><line style="stroke:#000000;stroke-width:1.5;" x1="42" x2="77" y1="29.6094" y2="29.6094"/><text fill="#000000" font-family="sans-serif" font-size="14" font-weight="bold" lengthAdjust="spacing" textLength="22" x="46" y="22.5332">gfx</text><!--MD5=[ea135f5f7d89d524f1729b134dc633cc]
class RootNode--><rect codeLine="3" fill="#FEFECE" filter="url(#f1kffk76975304)" height="48" id="RootNode" style="stroke:#A80036;stroke-width:1.5;" width="88" x="99" y="166"/><ellipse cx="114" cy="182" fill="#ADD1B2" rx="11" ry="11" style="stroke:#A80036;stroke-width:1.0;"/><path d="M116.7656,177.875 Q116.9219,177.6563 117.1094,177.5469 Q117.2969,177.4375 117.5156,177.4375 Q117.8906,177.4375 118.125,177.7031 Q118.3594,177.9531 118.3594,178.5625 L118.3594,180.0156 Q118.3594,180.625 118.125,180.8906 Q117.8906,181.1563 117.5156,181.1563 Q117.1719,181.1563 116.9688,180.9531 Q116.7656,180.7656 116.6563,180.25 Q116.6094,179.8906 116.4219,179.7031 Q116.0938,179.3281 115.4844,179.1094 Q114.875,178.8906 114.25,178.8906 Q113.4844,178.8906 112.8438,179.2188 Q112.2188,179.5469 111.7188,180.2969 Q111.2344,181.0469 111.2344,182.0781 L111.2344,183.1719 Q111.2344,184.4063 112.125,185.2344 Q113.0156,186.0469 114.6094,186.0469 Q115.5469,186.0469 116.2031,185.7969 Q116.5938,185.6406 117.0156,185.2031 Q117.2813,184.9375 117.4219,184.8594 Q117.5781,184.7813 117.7813,184.7813 Q118.1094,184.7813 118.3594,185.0469 Q118.625,185.2969 118.625,185.6406 Q118.625,185.9844 118.2813,186.3906 Q117.7813,186.9688 116.9844,187.2969 Q115.9063,187.75 114.6094,187.75 Q113.0938,187.75 111.8906,187.125 Q110.9063,186.625 110.2188,185.5625 Q109.5313,184.4844 109.5313,183.2031 L109.5313,182.0469 Q109.5313,180.7188 110.1406,179.5781 Q110.7656,178.4219 111.8594,177.8125 Q112.9531,177.1875 114.1875,177.1875 Q114.9219,177.1875 115.5625,177.3594 Q116.2188,177.5156 116.7656,177.875 Z " fill="#000000"/><text fill="#000000" font-family="sans-serif" font-size="12" lengthAdjust="spacing" textLength="56" x="128" y="186.9102">RootNode</text><line style="stroke:#A80036;stroke-width:1.5;" x1="100" x2="186" y1="198" y2="198"/><line style="stroke:#A80036;stroke-width:1.5;" x1="100" x2="186" y1="206" y2="206"/><!--MD5=[3fee75583bb7a64f68d843a3c9534ab3]
class Node--><rect codeLine="4" fill="#FEFECE" filter="url(#f1kffk76975304)" height="48" id="Node" style="stroke:#A80036;stroke-width:1.5;" width="62" x="112" y="274"/><ellipse cx="127" cy="290" fill="#ADD1B2" rx="11" ry="11" style="stroke:#A80036;stroke-width:1.0;"/><path d="M129.7656,285.875 Q129.9219,285.6563 130.1094,285.5469 Q130.2969,285.4375 130.5156,285.4375 Q130.8906,285.4375 131.125,285.7031 Q131.3594,285.9531 131.3594,286.5625 L131.3594,288.0156 Q131.3594,288.625 131.125,288.8906 Q130.8906,289.1563 130.5156,289.1563 Q130.1719,289.1563 129.9688,288.9531 Q129.7656,288.7656 129.6563,288.25 Q129.6094,287.8906 129.4219,287.7031 Q129.0938,287.3281 128.4844,287.1094 Q127.875,286.8906 127.25,286.8906 Q126.4844,286.8906 125.8438,287.2188 Q125.2188,287.5469 124.7188,288.2969 Q124.2344,289.0469 124.2344,290.0781 L124.2344,291.1719 Q124.2344,292.4063 125.125,293.2344 Q126.0156,294.0469 127.6094,294.0469 Q128.5469,294.0469 129.2031,293.7969 Q129.5938,293.6406 130.0156,293.2031 Q130.2813,292.9375 130.4219,292.8594 Q130.5781,292.7813 130.7813,292.7813 Q131.1094,292.7813 131.3594,293.0469 Q131.625,293.2969 131.625,293.6406 Q131.625,293.9844 131.2813,294.3906 Q130.7813,294.9688 129.9844,295.2969 Q128.9063,295.75 127.6094,295.75 Q126.0938,295.75 124.8906,295.125 Q123.9063,294.625 123.2188,293.5625 Q122.5313,292.4844 122.5313,291.2031 L122.5313,290.0469 Q122.5313,288.7188 123.1406,287.5781 Q123.7656,286.4219 124.8594,285.8125 Q125.9531,285.1875 127.1875,285.1875 Q127.9219,285.1875 128.5625,285.3594 Q129.2188,285.5156 129.7656,285.875 Z " fill="#000000"/><text fill="#000000" font-family="sans-serif" font-size="12" lengthAdjust="spacing" textLength="30" x="141" y="294.9102">Node</text><line style="stroke:#A80036;stroke-width:1.5;" x1="113" x2="173" y1="306" y2="306"/><line style="stroke:#A80036;stroke-width:1.5;" x1="113" x2="173" y1="314" y2="314"/><!--MD5=[b8b537bd9ab25e3ef082c65e034a1359]
class GuiLayer--><rect codeLine="6" fill="#FEFECE" filter="url(#f1kffk76975304)" height="48" id="GuiLayer" style="stroke:#A80036;stroke-width:1.5;" width="81" x="56.5" y="490"/><ellipse cx="71.5" cy="506" fill="#ADD1B2" rx="11" ry="11" style="stroke:#A80036;stroke-width:1.0;"/><path d="M74.2656,501.875 Q74.4219,501.6563 74.6094,501.5469 Q74.7969,501.4375 75.0156,501.4375 Q75.3906,501.4375 75.625,501.7031 Q75.8594,501.9531 75.8594,502.5625 L75.8594,504.0156 Q75.8594,504.625 75.625,504.8906 Q75.3906,505.1563 75.0156,505.1563 Q74.6719,505.1563 74.4688,504.9531 Q74.2656,504.7656 74.1563,504.25 Q74.1094,503.8906 73.9219,503.7031 Q73.5938,503.3281 72.9844,503.1094 Q72.375,502.8906 71.75,502.8906 Q70.9844,502.8906 70.3438,503.2188 Q69.7188,503.5469 69.2188,504.2969 Q68.7344,505.0469 68.7344,506.0781 L68.7344,507.1719 Q68.7344,508.4063 69.625,509.2344 Q70.5156,510.0469 72.1094,510.0469 Q73.0469,510.0469 73.7031,509.7969 Q74.0938,509.6406 74.5156,509.2031 Q74.7813,508.9375 74.9219,508.8594 Q75.0781,508.7813 75.2813,508.7813 Q75.6094,508.7813 75.8594,509.0469 Q76.125,509.2969 76.125,509.6406 Q76.125,509.9844 75.7813,510.3906 Q75.2813,510.9688 74.4844,511.2969 Q73.4063,511.75 72.1094,511.75 Q70.5938,511.75 69.3906,511.125 Q68.4063,510.625 67.7188,509.5625 Q67.0313,508.4844 67.0313,507.2031 L67.0313,506.0469 Q67.0313,504.7188 67.6406,503.5781 Q68.2656,502.4219 69.3594,501.8125 Q70.4531,501.1875 71.6875,501.1875 Q72.4219,501.1875 73.0625,501.3594 Q73.7188,501.5156 74.2656,501.875 Z " fill="#000000"/><text fill="#000000" font-family="sans-serif" font-size="12" lengthAdjust="spacing" textLength="49" x="85.5" y="510.9102">GuiLayer</text><line style="stroke:#A80036;stroke-width:1.5;" x1="57.5" x2="136.5" y1="522" y2="522"/><line style="stroke:#A80036;stroke-width:1.5;" x1="57.5" x2="136.5" y1="530" y2="530"/><!--MD5=[1f0cc19f41902942a0cba851056b77c4]
class GuiNode--><rect codeLine="7" fill="#FEFECE" filter="url(#f1kffk76975304)" height="48" id="GuiNode" style="stroke:#A80036;stroke-width:1.5;" width="81" x="56.5" y="382"/><ellipse cx="71.5" cy="398" fill="#ADD1B2" rx="11" ry="11" style="stroke:#A80036;stroke-width:1.0;"/><path d="M74.2656,393.875 Q74.4219,393.6563 74.6094,393.5469 Q74.7969,393.4375 75.0156,393.4375 Q75.3906,393.4375 75.625,393.7031 Q75.8594,393.9531 75.8594,394.5625 L75.8594,396.0156 Q75.8594,396.625 75.625,396.8906 Q75.3906,397.1563 75.0156,397.1563 Q74.6719,397.1563 74.4688,396.9531 Q74.2656,396.7656 74.1563,396.25 Q74.1094,395.8906 73.9219,395.7031 Q73.5938,395.3281 72.9844,395.1094 Q72.375,394.8906 71.75,394.8906 Q70.9844,394.8906 70.3438,395.2188 Q69.7188,395.5469 69.2188,396.2969 Q68.7344,397.0469 68.7344,398.0781 L68.7344,399.1719 Q68.7344,400.4063 69.625,401.2344 Q70.5156,402.0469 72.1094,402.0469 Q73.0469,402.0469 73.7031,401.7969 Q74.0938,401.6406 74.5156,401.2031 Q74.7813,400.9375 74.9219,400.8594 Q75.0781,400.7813 75.2813,400.7813 Q75.6094,400.7813 75.8594,401.0469 Q76.125,401.2969 76.125,401.6406 Q76.125,401.9844 75.7813,402.3906 Q75.2813,402.9688 74.4844,403.2969 Q73.4063,403.75 72.1094,403.75 Q70.5938,403.75 69.3906,403.125 Q68.4063,402.625 67.7188,401.5625 Q67.0313,400.4844 67.0313,399.2031 L67.0313,398.0469 Q67.0313,396.7188 67.6406,395.5781 Q68.2656,394.4219 69.3594,393.8125 Q70.4531,393.1875 71.6875,393.1875 Q72.4219,393.1875 73.0625,393.3594 Q73.7188,393.5156 74.2656,393.875 Z " fill="#000000"/><text fill="#000000" font-family="sans-serif" font-size="12" lengthAdjust="spacing" textLength="49" x="85.5" y="402.9102">GuiNode</text><line style="stroke:#A80036;stroke-width:1.5;" x1="57.5" x2="136.5" y1="414" y2="414"/><line style="stroke:#A80036;stroke-width:1.5;" x1="57.5" x2="136.5" y1="422" y2="422"/><!--MD5=[7b1cd5e81ea93936e482f1145f4ac5ba]
class GeomNode--><rect codeLine="10" fill="#FEFECE" filter="url(#f1kffk76975304)" height="48" id="GeomNode" style="stroke:#A80036;stroke-width:1.5;" width="96" x="194" y="382"/><ellipse cx="209" cy="398" fill="#ADD1B2" rx="11" ry="11" style="stroke:#A80036;stroke-width:1.0;"/><path d="M211.7656,393.875 Q211.9219,393.6563 212.1094,393.5469 Q212.2969,393.4375 212.5156,393.4375 Q212.8906,393.4375 213.125,393.7031 Q213.3594,393.9531 213.3594,394.5625 L213.3594,396.0156 Q213.3594,396.625 213.125,396.8906 Q212.8906,397.1563 212.5156,397.1563 Q212.1719,397.1563 211.9688,396.9531 Q211.7656,396.7656 211.6563,396.25 Q211.6094,395.8906 211.4219,395.7031 Q211.0938,395.3281 210.4844,395.1094 Q209.875,394.8906 209.25,394.8906 Q208.4844,394.8906 207.8438,395.2188 Q207.2188,395.5469 206.7188,396.2969 Q206.2344,397.0469 206.2344,398.0781 L206.2344,399.1719 Q206.2344,400.4063 207.125,401.2344 Q208.0156,402.0469 209.6094,402.0469 Q210.5469,402.0469 211.2031,401.7969 Q211.5938,401.6406 212.0156,401.2031 Q212.2813,400.9375 212.4219,400.8594 Q212.5781,400.7813 212.7813,400.7813 Q213.1094,400.7813 213.3594,401.0469 Q213.625,401.2969 213.625,401.6406 Q213.625,401.9844 213.2813,402.3906 Q212.7813,402.9688 211.9844,403.2969 Q210.9063,403.75 209.6094,403.75 Q208.0938,403.75 206.8906,403.125 Q205.9063,402.625 205.2188,401.5625 Q204.5313,400.4844 204.5313,399.2031 L204.5313,398.0469 Q204.5313,396.7188 205.1406,395.5781 Q205.7656,394.4219 206.8594,393.8125 Q207.9531,393.1875 209.1875,393.1875 Q209.9219,393.1875 210.5625,393.3594 Q211.2188,393.5156 211.7656,393.875 Z " fill="#000000"/><text fill="#000000" font-family="sans-serif" font-size="12" lengthAdjust="spacing" textLength="64" x="223" y="402.9102">GeomNode</text><line style="stroke:#A80036;stroke-width:1.5;" x1="195" x2="289" y1="414" y2="414"/><line style="stroke:#A80036;stroke-width:1.5;" x1="195" x2="289" y1="422" y2="422"/><!--MD5=[44a1b4afaef76c16e6c9ec4990ad0c8d]
class Item--><rect codeLine="11" fill="#FEFECE" filter="url(#f1kffk76975304)" height="48" id="Item" style="stroke:#A80036;stroke-width:1.5;" width="56" x="194" y="490"/><ellipse cx="209" cy="506" fill="#ADD1B2" rx="11" ry="11" style="stroke:#A80036;stroke-width:1.0;"/><path d="M211.7656,501.875 Q211.9219,501.6563 212.1094,501.5469 Q212.2969,501.4375 212.5156,501.4375 Q212.8906,501.4375 213.125,501.7031 Q213.3594,501.9531 213.3594,502.5625 L213.3594,504.0156 Q213.3594,504.625 213.125,504.8906 Q212.8906,505.1563 212.5156,505.1563 Q212.1719,505.1563 211.9688,504.9531 Q211.7656,504.7656 211.6563,504.25 Q211.6094,503.8906 211.4219,503.7031 Q211.0938,503.3281 210.4844,503.1094 Q209.875,502.8906 209.25,502.8906 Q208.4844,502.8906 207.8438,503.2188 Q207.2188,503.5469 206.7188,504.2969 Q206.2344,505.0469 206.2344,506.0781 L206.2344,507.1719 Q206.2344,508.4063 207.125,509.2344 Q208.0156,510.0469 209.6094,510.0469 Q210.5469,510.0469 211.2031,509.7969 Q211.5938,509.6406 212.0156,509.2031 Q212.2813,508.9375 212.4219,508.8594 Q212.5781,508.7813 212.7813,508.7813 Q213.1094,508.7813 213.3594,509.0469 Q213.625,509.2969 213.625,509.6406 Q213.625,509.9844 213.2813,510.3906 Q212.7813,510.9688 211.9844,511.2969 Q210.9063,511.75 209.6094,511.75 Q208.0938,511.75 206.8906,511.125 Q205.9063,510.625 205.2188,509.5625 Q204.5313,508.4844 204.5313,507.2031 L204.5313,506.0469 Q204.5313,504.7188 205.1406,503.5781 Q205.7656,502.4219 206.8594,501.8125 Q207.9531,501.1875 209.1875,501.1875 Q209.9219,501.1875 210.5625,501.3594 Q211.2188,501.5156 211.7656,501.875 Z " fill="#000000"/><text fill="#000000" font-family="sans-serif" font-size="12" lengthAdjust="spacing" textLength="24" x="223" y="510.9102">Item</text><line style="stroke:#A80036;stroke-width:1.5;" x1="195" x2="249" y1="522" y2="522"/><line style="stroke:#A80036;stroke-width:1.5;" x1="195" x2="249" y1="530" y2="530"/><!--MD5=[452be1aaf8b94e2bc4204d466ef769a4]
class Camera--><rect codeLine="12" fill="#FEFECE" filter="url(#f1kffk76975304)" height="48" id="Camera" style="stroke:#A80036;stroke-width:1.5;" width="77" x="285.5" y="490"/><ellipse cx="300.5" cy="506" fill="#ADD1B2" rx="11" ry="11" style="stroke:#A80036;stroke-width:1.0;"/><path d="M303.2656,501.875 Q303.4219,501.6563 303.6094,501.5469 Q303.7969,501.4375 304.0156,501.4375 Q304.3906,501.4375 304.625,501.7031 Q304.8594,501.9531 304.8594,502.5625 L304.8594,504.0156 Q304.8594,504.625 304.625,504.8906 Q304.3906,505.1563 304.0156,505.1563 Q303.6719,505.1563 303.4688,504.9531 Q303.2656,504.7656 303.1563,504.25 Q303.1094,503.8906 302.9219,503.7031 Q302.5938,503.3281 301.9844,503.1094 Q301.375,502.8906 300.75,502.8906 Q299.9844,502.8906 299.3438,503.2188 Q298.7188,503.5469 298.2188,504.2969 Q297.7344,505.0469 297.7344,506.0781 L297.7344,507.1719 Q297.7344,508.4063 298.625,509.2344 Q299.5156,510.0469 301.1094,510.0469 Q302.0469,510.0469 302.7031,509.7969 Q303.0938,509.6406 303.5156,509.2031 Q303.7813,508.9375 303.9219,508.8594 Q304.0781,508.7813 304.2813,508.7813 Q304.6094,508.7813 304.8594,509.0469 Q305.125,509.2969 305.125,509.6406 Q305.125,509.9844 304.7813,510.3906 Q304.2813,510.9688 303.4844,511.2969 Q302.4063,511.75 301.1094,511.75 Q299.5938,511.75 298.3906,511.125 Q297.4063,510.625 296.7188,509.5625 Q296.0313,508.4844 296.0313,507.2031 L296.0313,506.0469 Q296.0313,504.7188 296.6406,503.5781 Q297.2656,502.4219 298.3594,501.8125 Q299.4531,501.1875 300.6875,501.1875 Q301.4219,501.1875 302.0625,501.3594 Q302.7188,501.5156 303.2656,501.875 Z " fill="#000000"/><text fill="#000000" font-family="sans-serif" font-size="12" lengthAdjust="spacing" textLength="45" x="314.5" y="510.9102">Camera</text><line style="stroke:#A80036;stroke-width:1.5;" x1="286.5" x2="361.5" y1="522" y2="522"/><line style="stroke:#A80036;stroke-width:1.5;" x1="286.5" x2="361.5" y1="530" y2="530"/><!--MD5=[aeea6783c73ec53775a602f02eb398a3]
class GuiRenderer--><rect codeLine="18" fill="#FEFECE" filter="url(#f1kffk76975304)" height="48" id="GuiRenderer" style="stroke:#A80036;stroke-width:1.5;" width="103" x="212.5" y="42"/><ellipse cx="227.5" cy="58" fill="#ADD1B2" rx="11" ry="11" style="stroke:#A80036;stroke-width:1.0;"/><path d="M230.2656,53.875 Q230.4219,53.6563 230.6094,53.5469 Q230.7969,53.4375 231.0156,53.4375 Q231.3906,53.4375 231.625,53.7031 Q231.8594,53.9531 231.8594,54.5625 L231.8594,56.0156 Q231.8594,56.625 231.625,56.8906 Q231.3906,57.1563 231.0156,57.1563 Q230.6719,57.1563 230.4688,56.9531 Q230.2656,56.7656 230.1563,56.25 Q230.1094,55.8906 229.9219,55.7031 Q229.5938,55.3281 228.9844,55.1094 Q228.375,54.8906 227.75,54.8906 Q226.9844,54.8906 226.3438,55.2188 Q225.7188,55.5469 225.2188,56.2969 Q224.7344,57.0469 224.7344,58.0781 L224.7344,59.1719 Q224.7344,60.4063 225.625,61.2344 Q226.5156,62.0469 228.1094,62.0469 Q229.0469,62.0469 229.7031,61.7969 Q230.0938,61.6406 230.5156,61.2031 Q230.7813,60.9375 230.9219,60.8594 Q231.0781,60.7813 231.2813,60.7813 Q231.6094,60.7813 231.8594,61.0469 Q232.125,61.2969 232.125,61.6406 Q232.125,61.9844 231.7813,62.3906 Q231.2813,62.9688 230.4844,63.2969 Q229.4063,63.75 228.1094,63.75 Q226.5938,63.75 225.3906,63.125 Q224.4063,62.625 223.7188,61.5625 Q223.0313,60.4844 223.0313,59.2031 L223.0313,58.0469 Q223.0313,56.7188 223.6406,55.5781 Q224.2656,54.4219 225.3594,53.8125 Q226.4531,53.1875 227.6875,53.1875 Q228.4219,53.1875 229.0625,53.3594 Q229.7188,53.5156 230.2656,53.875 Z " fill="#000000"/><text fill="#000000" font-family="sans-serif" font-size="12" lengthAdjust="spacing" textLength="71" x="241.5" y="62.9102">GuiRenderer</text><line style="stroke:#A80036;stroke-width:1.5;" x1="213.5" x2="314.5" y1="74" y2="74"/><line style="stroke:#A80036;stroke-width:1.5;" x1="213.5" x2="314.5" y1="82" y2="82"/><!--MD5=[4acb587539d4fdc59924f9b682d93111]
class SceneRenderer--><rect codeLine="19" fill="#FEFECE" filter="url(#f1kffk76975304)" height="48" id="SceneRenderer" style="stroke:#A80036;stroke-width:1.5;" width="119" x="58.5" y="42"/><ellipse cx="73.5" cy="58" fill="#ADD1B2" rx="11" ry="11" style="stroke:#A80036;stroke-width:1.0;"/><path d="M76.2656,53.875 Q76.4219,53.6563 76.6094,53.5469 Q76.7969,53.4375 77.0156,53.4375 Q77.3906,53.4375 77.625,53.7031 Q77.8594,53.9531 77.8594,54.5625 L77.8594,56.0156 Q77.8594,56.625 77.625,56.8906 Q77.3906,57.1563 77.0156,57.1563 Q76.6719,57.1563 76.4688,56.9531 Q76.2656,56.7656 76.1563,56.25 Q76.1094,55.8906 75.9219,55.7031 Q75.5938,55.3281 74.9844,55.1094 Q74.375,54.8906 73.75,54.8906 Q72.9844,54.8906 72.3438,55.2188 Q71.7188,55.5469 71.2188,56.2969 Q70.7344,57.0469 70.7344,58.0781 L70.7344,59.1719 Q70.7344,60.4063 71.625,61.2344 Q72.5156,62.0469 74.1094,62.0469 Q75.0469,62.0469 75.7031,61.7969 Q76.0938,61.6406 76.5156,61.2031 Q76.7813,60.9375 76.9219,60.8594 Q77.0781,60.7813 77.2813,60.7813 Q77.6094,60.7813 77.8594,61.0469 Q78.125,61.2969 78.125,61.6406 Q78.125,61.9844 77.7813,62.3906 Q77.2813,62.9688 76.4844,63.2969 Q75.4063,63.75 74.1094,63.75 Q72.5938,63.75 71.3906,63.125 Q70.4063,62.625 69.7188,61.5625 Q69.0313,60.4844 69.0313,59.2031 L69.0313,58.0469 Q69.0313,56.7188 69.6406,55.5781 Q70.2656,54.4219 71.3594,53.8125 Q72.4531,53.1875 73.6875,53.1875 Q74.4219,53.1875 75.0625,53.3594 Q75.7188,53.5156 76.2656,53.875 Z " fill="#000000"/><text fill="#000000" font-family="sans-serif" font-size="12" lengthAdjust="spacing" textLength="87" x="87.5" y="62.9102">SceneRenderer</text><line style="stroke:#A80036;stroke-width:1.5;" x1="59.5" x2="176.5" y1="74" y2="74"/><line style="stroke:#A80036;stroke-width:1.5;" x1="59.5" x2="176.5" y1="82" y2="82"/><!--MD5=[1721a1dc0895b080d735cead9a0747d8]
reverse link RootNode to Node--><path d="M143,234.02 C143,247.58 143,262.04 143,273.68 " fill="none" id="RootNode-backto-Node" style="stroke:#A80036;stroke-width:1.0;"/><polygon fill="none" points="136,234,143,214,150,234,136,234" style="stroke:#A80036;stroke-width:1.0;"/><!--MD5=[50452e4e6e196c64ceb429ff709cc2aa]
reverse link GuiNode to GuiLayer--><path d="M97,450.02 C97,463.58 97,478.04 97,489.68 " fill="none" id="GuiNode-backto-GuiLayer" style="stroke:#A80036;stroke-width:1.0;"/><polygon fill="none" points="90,450,97,430,104,450,90,450" style="stroke:#A80036;stroke-width:1.0;"/><!--MD5=[7b1c599812c958e5668bca92b6cb9fad]
reverse link Node to GuiNode--><path d="M124.96,340.57 C118.9,354.54 112.35,369.62 107.12,381.68 " fill="none" id="Node-backto-GuiNode" style="stroke:#A80036;stroke-width:1.0;"/><polygon fill="none" points="118.64,337.56,133.02,322,131.48,343.13,118.64,337.56" style="stroke:#A80036;stroke-width:1.0;"/><!--MD5=[8357f1df60cbb3941f2fed6cdee78a89]
reverse link Node to GeomNode--><path d="M178.26,336.75 C192.26,351.74 207.92,368.51 220.22,381.68 " fill="none" id="Node-backto-GeomNode" style="stroke:#A80036;stroke-width:1.0;"/><polygon fill="none" points="173.02,341.39,164.48,322,183.25,331.84,173.02,341.39" style="stroke:#A80036;stroke-width:1.0;"/><!--MD5=[3c2403f4f0f395111fec6cd75fe7fac3]
reverse link GeomNode to Item--><path d="M233.88,450.02 C231.32,463.58 228.6,478.04 226.4,489.68 " fill="none" id="GeomNode-backto-Item" style="stroke:#A80036;stroke-width:1.0;"/><polygon fill="none" points="227.07,448.36,237.66,430,240.83,450.95,227.07,448.36" style="stroke:#A80036;stroke-width:1.0;"/><!--MD5=[0a7f08dbeb67e60320395c4bb5e215a2]
reverse link GeomNode to Camera--><path d="M272.31,446.18 C283.62,460.8 296.1,476.93 305.96,489.68 " fill="none" id="GeomNode-backto-Camera" style="stroke:#A80036;stroke-width:1.0;"/><polygon fill="none" points="266.49,450.1,259.79,430,277.57,441.54,266.49,450.1" style="stroke:#A80036;stroke-width:1.0;"/><!--MD5=[99721a7cbd74f5967ee8f4c2fef3d34f]
link GuiRenderer to RootNode--><path codeLine="22" d="M240.96,90.23 C223.8,107.53 200.02,131.51 180.18,151.51 " fill="none" id="GuiRenderer-to-RootNode" style="stroke:#A80036;stroke-width:1.0;"/><polygon fill="none" points="185.01,156.58,165.96,165.85,175.07,146.72,185.01,156.58" style="stroke:#A80036;stroke-width:1.0;"/><!--MD5=[922d84d6f88e62a9d845cd2909f7125f]
link SceneRenderer to RootNode--><path codeLine="23" d="M122.76,90.23 C125.99,106.01 130.36,127.33 134.22,146.13 " fill="none" id="SceneRenderer-to-RootNode" style="stroke:#A80036;stroke-width:1.0;"/><polygon fill="none" points="141.1,144.85,138.26,165.85,127.38,147.66,141.1,144.85" style="stroke:#A80036;stroke-width:1.0;"/><!--MD5=[cb9f5af61e3bacf0be8da03f812985a7]
@startuml nodes

package elements {
    class RootNode {}
    class Node extends RootNode {}
    package gui {
        class GuiLayer extends GuiNode {}
        class GuiNode extends Node {}
    }
    package geom {
        class GeomNode extends Node {}
        class Item extends GeomNode {}
        class Camera extends GeomNode {}
    }


}
package gfx {
    class GuiRenderer {}
    class SceneRenderer {}
}

GuiRenderer - -|> RootNode
SceneRenderer - -|> RootNode

@enduml

PlantUML version 1.2021.00(Sun Jan 10 11:25:05 CET 2021)
(GPL source distribution)
Java Runtime: Java(TM) SE Runtime Environment
JVM: Java HotSpot(TM) 64-Bit Server VM
Default Encoding: Cp1252
Language: fr
Country: FR
--></g></svg>