<?xml version="1.0" encoding="UTF-8" standalone="no"?><svg xmlns="http://www.w3.org/2000/svg" xmlns:xlink="http://www.w3.org/1999/xlink" contentScriptType="application/ecmascript" contentStyleType="text/css" height="288px" preserveAspectRatio="none" style="width:436px;height:288px;" version="1.1" viewBox="0 0 436 288" width="436px" zoomAndPan="magnify"><defs><filter height="300%" id="f5owk608kh9k4" width="300%" x="-1" y="-1"><feGaussianBlur result="blurOut" stdDeviation="2.0"/><feColorMatrix in="blurOut" result="blurOut2" type="matrix" values="0 0 0 0 0 0 0 0 0 0 0 0 0 0 0 0 0 0 .4 0"/><feOffset dx="4.0" dy="4.0" in="blurOut2" result="blurOut3"/><feBlend in="SourceGraphic" in2="blurOut3" mode="normal"/></filter></defs><g><rect fill="#FFFFFF" filter="url(#f5owk608kh9k4)" height="30.3516" style="stroke:#A80036;stroke-width:1.0;" width="10" x="200" y="104.3125"/><rect fill="#FFFFFF" filter="url(#f5owk608kh9k4)" height="30.3516" style="stroke:#A80036;stroke-width:1.0;" width="10" x="377.5" y="195.3672"/><line style="stroke:#A80036;stroke-width:1.0;stroke-dasharray:5.0,5.0;" x1="40" x2="40" y1="41.6094" y2="243.7188"/><line style="stroke:#A80036;stroke-width:1.0;stroke-dasharray:5.0,5.0;" x1="119" x2="119" y1="41.6094" y2="243.7188"/><line style="stroke:#A80036;stroke-width:1.0;stroke-dasharray:5.0,5.0;" x1="205" x2="205" y1="41.6094" y2="243.7188"/><line style="stroke:#A80036;stroke-width:1.0;stroke-dasharray:5.0,5.0;" x1="286" x2="286" y1="41.6094" y2="243.7188"/><line style="stroke:#A80036;stroke-width:1.0;stroke-dasharray:5.0,5.0;" x1="382" x2="382" y1="41.6094" y2="243.7188"/><rect fill="#FEFECE" filter="url(#f5owk608kh9k4)" height="31.6094" style="stroke:#A80036;stroke-width:1.5;" width="66" x="5" y="5"/><text fill="#000000" font-family="sans-serif" font-size="14" lengthAdjust="spacing" textLength="52" x="12" y="26.5332">Runtime</text><rect fill="#FEFECE" filter="url(#f5owk608kh9k4)" height="31.6094" style="stroke:#A80036;stroke-width:1.5;" width="66" x="5" y="242.7188"/><text fill="#000000" font-family="sans-serif" font-size="14" lengthAdjust="spacing" textLength="52" x="12" y="264.252">Runtime</text><rect fill="#FEFECE" filter="url(#f5owk608kh9k4)" height="31.6094" style="stroke:#A80036;stroke-width:1.5;" width="50" x="92" y="5"/><text fill="#000000" font-family="sans-serif" font-size="14" lengthAdjust="spacing" textLength="36" x="99" y="26.5332">props</text><rect fill="#FEFECE" filter="url(#f5owk608kh9k4)" height="31.6094" style="stroke:#A80036;stroke-width:1.5;" width="50" x="92" y="242.7188"/><text fill="#000000" font-family="sans-serif" font-size="14" lengthAdjust="spacing" textLength="36" x="99" y="264.252">props</text><rect fill="#FEFECE" filter="url(#f5owk608kh9k4)" height="31.6094" style="stroke:#A80036;stroke-width:1.5;" width="94" x="156" y="5"/><text fill="#000000" font-family="sans-serif" font-size="14" lengthAdjust="spacing" textLength="80" x="163" y="26.5332">StylesParser</text><rect fill="#FEFECE" filter="url(#f5owk608kh9k4)" height="31.6094" style="stroke:#A80036;stroke-width:1.5;" width="94" x="156" y="242.7188"/><text fill="#000000" font-family="sans-serif" font-size="14" lengthAdjust="spacing" textLength="80" x="163" y="264.252">StylesParser</text><rect fill="#FEFECE" filter="url(#f5owk608kh9k4)" height="31.6094" style="stroke:#A80036;stroke-width:1.5;" width="41" x="264" y="5"/><text fill="#000000" font-family="sans-serif" font-size="14" lengthAdjust="spacing" textLength="27" x="271" y="26.5332">Map</text><rect fill="#FEFECE" filter="url(#f5owk608kh9k4)" height="31.6094" style="stroke:#A80036;stroke-width:1.5;" width="41" x="264" y="242.7188"/><text fill="#000000" font-family="sans-serif" font-size="14" lengthAdjust="spacing" textLength="27" x="271" y="264.252">Map</text><rect fill="#FEFECE" filter="url(#f5owk608kh9k4)" height="31.6094" style="stroke:#A80036;stroke-width:1.5;" width="83" x="339" y="5"/><text fill="#000000" font-family="sans-serif" font-size="14" lengthAdjust="spacing" textLength="69" x="346" y="26.5332">MapParser</text><rect fill="#FEFECE" filter="url(#f5owk608kh9k4)" height="31.6094" style="stroke:#A80036;stroke-width:1.5;" width="83" x="339" y="242.7188"/><text fill="#000000" font-family="sans-serif" font-size="14" lengthAdjust="spacing" textLength="69" x="346" y="264.252">MapParser</text><rect fill="#FFFFFF" filter="url(#f5owk608kh9k4)" height="30.3516" style="stroke:#A80036;stroke-width:1.0;" width="10" x="200" y="104.3125"/><rect fill="#FFFFFF" filter="url(#f5owk608kh9k4)" height="30.3516" style="stroke:#A80036;stroke-width:1.0;" width="10" x="377.5" y="195.3672"/><polygon fill="#A80036" points="107,69.9609,117,73.9609,107,77.9609,111,73.9609" style="stroke:#A80036;stroke-width:1.0;"/><line style="stroke:#A80036;stroke-width:1.0;" x1="40" x2="113" y1="73.9609" y2="73.9609"/><text fill="#000000" font-family="sans-serif" font-size="13" lengthAdjust="spacing" textLength="55" x="47" y="69.1045">initialize()</text><polygon fill="#A80036" points="188,100.3125,198,104.3125,188,108.3125,192,104.3125" style="stroke:#A80036;stroke-width:1.0;"/><line style="stroke:#A80036;stroke-width:1.0;" x1="40" x2="194" y1="104.3125" y2="104.3125"/><text fill="#000000" font-family="sans-serif" font-size="13" lengthAdjust="spacing" textLength="32" x="47" y="99.4561">load()</text><polygon fill="#A80036" points="130,130.6641,120,134.6641,130,138.6641,126,134.6641" style="stroke:#A80036;stroke-width:1.0;"/><line style="stroke:#A80036;stroke-width:1.0;" x1="124" x2="204" y1="134.6641" y2="134.6641"/><text fill="#000000" font-family="sans-serif" font-size="13" lengthAdjust="spacing" textLength="35" x="136" y="129.8076">styles</text><polygon fill="#A80036" points="274.5,161.0156,284.5,165.0156,274.5,169.0156,278.5,165.0156" style="stroke:#A80036;stroke-width:1.0;"/><line style="stroke:#A80036;stroke-width:1.0;" x1="40" x2="280.5" y1="165.0156" y2="165.0156"/><text fill="#000000" font-family="sans-serif" font-size="13" lengthAdjust="spacing" textLength="64" x="47" y="160.1592">load(props)</text><polygon fill="#A80036" points="365.5,191.3672,375.5,195.3672,365.5,199.3672,369.5,195.3672" style="stroke:#A80036;stroke-width:1.0;"/><line style="stroke:#A80036;stroke-width:1.0;" x1="286.5" x2="371.5" y1="195.3672" y2="195.3672"/><text fill="#000000" font-family="sans-serif" font-size="13" lengthAdjust="spacing" textLength="72" x="293.5" y="190.5107">parse(props)</text><polygon fill="#A80036" points="51,221.7188,41,225.7188,51,229.7188,47,225.7188" style="stroke:#A80036;stroke-width:1.0;"/><line style="stroke:#A80036;stroke-width:1.0;" x1="45" x2="381.5" y1="225.7188" y2="225.7188"/><text fill="#000000" font-family="sans-serif" font-size="13" lengthAdjust="spacing" textLength="54" x="57" y="220.8623">PlainMap</text><!--MD5=[f5dde261eb93df2853670349b2ee7bf1]
@startuml parsingWorkflow

Runtime -> props : initialize()
Runtime -> StylesParser ++ : load()
props <- StylesParser - - : styles
Runtime -> Map: load(props)
Map -> MapParser ++: parse(props)
Runtime <- MapParser - -: PlainMap

@enduml

PlantUML version 1.2021.00(Sun Jan 10 11:25:05 CET 2021)
(GPL source distribution)
Java Runtime: Java(TM) SE Runtime Environment
JVM: Java HotSpot(TM) 64-Bit Server VM
Default Encoding: Cp1252
Language: en
Country: US
--></g></svg>