<?xml version="1.0" encoding="UTF-8" standalone="no"?><svg xmlns="http://www.w3.org/2000/svg" xmlns:xlink="http://www.w3.org/1999/xlink" contentScriptType="application/ecmascript" contentStyleType="text/css" height="310px" preserveAspectRatio="none" style="width:487px;height:310px;" version="1.1" viewBox="0 0 487 310" width="487px" zoomAndPan="magnify"><defs><filter height="300%" id="fp2la8886qbda" width="300%" x="-1" y="-1"><feGaussianBlur result="blurOut" stdDeviation="2.0"/><feColorMatrix in="blurOut" result="blurOut2" type="matrix" values="0 0 0 0 0 0 0 0 0 0 0 0 0 0 0 0 0 0 .4 0"/><feOffset dx="4.0" dy="4.0" in="blurOut2" result="blurOut3"/><feBlend in="SourceGraphic" in2="blurOut3" mode="normal"/></filter></defs><g><rect fill="#FEFECE" filter="url(#fp2la8886qbda)" height="37.6094" rx="12.5" ry="12.5" style="stroke:#A80036;stroke-width:1.5;" width="102" x="10" y="135.2188"/><text fill="#000000" font-family="sans-serif" font-size="14" lengthAdjust="spacing" textLength="82" x="20" y="159.752">GuiRenderer</text><rect fill="#FEFECE" filter="url(#fp2la8886qbda)" height="37.6094" rx="12.5" ry="12.5" style="stroke:#A80036;stroke-width:1.5;" width="53" x="162" y="106.4141"/><text fill="#000000" font-family="sans-serif" font-size="14" lengthAdjust="spacing" textLength="33" x="172" y="130.9473">Node</text><rect fill="#FEFECE" filter="url(#fp2la8886qbda)" height="37.6094" rx="12.5" ry="12.5" style="stroke:#A80036;stroke-width:1.5;" width="75" x="265" y="48.8047"/><text fill="#000000" font-family="sans-serif" font-size="14" lengthAdjust="spacing" textLength="55" x="275" y="73.3379">GuiNode</text><rect fill="#FEFECE" filter="url(#fp2la8886qbda)" height="37.6094" rx="12.5" ry="12.5" style="stroke:#A80036;stroke-width:1.5;" width="78" x="390" y="20"/><text fill="#000000" font-family="sans-serif" font-size="14" lengthAdjust="spacing" textLength="58" x="400" y="44.5332">GuiLayer</text><path d="M340,67.6094 L350,67.6094 C365,67.6094 365,38.8047 380,38.8047 L390,38.8047 " fill="none" style="stroke:#A80036;stroke-width:1.0;"/><rect fill="#FEFECE" filter="url(#fp2la8886qbda)" height="37.6094" rx="12.5" ry="12.5" style="stroke:#A80036;stroke-width:1.5;" width="78" x="390" y="77.6094"/><text fill="#000000" font-family="sans-serif" font-size="14" lengthAdjust="spacing" textLength="58" x="400" y="102.1426">GuiLayer</text><path d="M340,67.6094 L350,67.6094 C365,67.6094 365,96.4141 380,96.4141 L390,96.4141 " fill="none" style="stroke:#A80036;stroke-width:1.0;"/><path d="M215,125.2188 L225,125.2188 C240,125.2188 240,67.6094 255,67.6094 L265,67.6094 " fill="none" style="stroke:#A80036;stroke-width:1.0;"/><rect fill="#FEFECE" filter="url(#fp2la8886qbda)" height="37.6094" rx="12.5" ry="12.5" style="stroke:#A80036;stroke-width:1.5;" width="75" x="265" y="164.0234"/><text fill="#000000" font-family="sans-serif" font-size="14" lengthAdjust="spacing" textLength="55" x="275" y="188.5566">GuiNode</text><rect fill="#FEFECE" filter="url(#fp2la8886qbda)" height="37.6094" rx="12.5" ry="12.5" style="stroke:#A80036;stroke-width:1.5;" width="78" x="390" y="135.2188"/><text fill="#000000" font-family="sans-serif" font-size="14" lengthAdjust="spacing" textLength="58" x="400" y="159.752">GuiLayer</text><path d="M340,182.8281 L350,182.8281 C365,182.8281 365,154.0234 380,154.0234 L390,154.0234 " fill="none" style="stroke:#A80036;stroke-width:1.0;"/><rect fill="#FEFECE" filter="url(#fp2la8886qbda)" height="37.6094" rx="12.5" ry="12.5" style="stroke:#A80036;stroke-width:1.5;" width="78" x="390" y="192.8281"/><text fill="#000000" font-family="sans-serif" font-size="14" lengthAdjust="spacing" textLength="58" x="400" y="217.3613">GuiLayer</text><path d="M340,182.8281 L350,182.8281 C365,182.8281 365,211.6328 380,211.6328 L390,211.6328 " fill="none" style="stroke:#A80036;stroke-width:1.0;"/><path d="M215,125.2188 L225,125.2188 C240,125.2188 240,182.8281 255,182.8281 L265,182.8281 " fill="none" style="stroke:#A80036;stroke-width:1.0;"/><path d="M112,154.0234 L122,154.0234 C137,154.0234 137,125.2188 152,125.2188 L162,125.2188 " fill="none" style="stroke:#A80036;stroke-width:1.0;"/><rect fill="#FEFECE" filter="url(#fp2la8886qbda)" height="37.6094" rx="12.5" ry="12.5" style="stroke:#A80036;stroke-width:1.5;" width="78" x="162" y="250.4375"/><text fill="#000000" font-family="sans-serif" font-size="14" lengthAdjust="spacing" textLength="58" x="172" y="274.9707">GuiLayer</text><path d="M112,154.0234 L122,154.0234 C137,154.0234 137,269.2422 152,269.2422 L162,269.2422 " fill="none" style="stroke:#A80036;stroke-width:1.0;"/><!--MD5=[8405f40c39c163e8a5af1f5e33ad47dd]
@startmindmap sceneLayoutGUI
* GuiRenderer
** Node
*** GuiNode
**** GuiLayer
**** GuiLayer
*** GuiNode
**** GuiLayer
**** GuiLayer
** GuiLayer
@endmindmap

PlantUML version 1.2021.00(Sun Jan 10 11:25:05 CET 2021)
(GPL source distribution)
Java Runtime: Java(TM) SE Runtime Environment
JVM: Java HotSpot(TM) 64-Bit Server VM
Default Encoding: Cp1252
Language: en
Country: US
--></g></svg>