<?xml version="1.0" encoding="UTF-8" standalone="no"?><svg xmlns="http://www.w3.org/2000/svg" xmlns:xlink="http://www.w3.org/1999/xlink" contentScriptType="application/ecmascript" contentStyleType="text/css" height="194px" preserveAspectRatio="none" style="width:489px;height:194px;" version="1.1" viewBox="0 0 489 194" width="489px" zoomAndPan="magnify"><defs><filter height="300%" id="f1gddcdffucbn8" width="300%" x="-1" y="-1"><feGaussianBlur result="blurOut" stdDeviation="2.0"/><feColorMatrix in="blurOut" result="blurOut2" type="matrix" values="0 0 0 0 0 0 0 0 0 0 0 0 0 0 0 0 0 0 .4 0"/><feOffset dx="4.0" dy="4.0" in="blurOut2" result="blurOut3"/><feBlend in="SourceGraphic" in2="blurOut3" mode="normal"/></filter></defs><g><rect fill="#FEFECE" filter="url(#f1gddcdffucbn8)" height="37.6094" rx="12.5" ry="12.5" style="stroke:#A80036;stroke-width:1.5;" width="120" x="10" y="77.6094"/><text fill="#000000" font-family="sans-serif" font-size="14" lengthAdjust="spacing" textLength="100" x="20" y="102.1426">SceneRenderer</text><rect fill="#FEFECE" filter="url(#f1gddcdffucbn8)" height="37.6094" rx="12.5" ry="12.5" style="stroke:#A80036;stroke-width:1.5;" width="53" x="180" y="48.8047"/><text fill="#000000" font-family="sans-serif" font-size="14" lengthAdjust="spacing" textLength="33" x="190" y="73.3379">Node</text><rect fill="#FEFECE" filter="url(#f1gddcdffucbn8)" height="37.6094" rx="12.5" ry="12.5" style="stroke:#A80036;stroke-width:1.5;" width="91" x="283" y="20"/><text fill="#000000" font-family="sans-serif" font-size="14" lengthAdjust="spacing" textLength="71" x="293" y="44.5332">GeomNode</text><rect fill="#FEFECE" filter="url(#f1gddcdffucbn8)" height="37.6094" rx="12.5" ry="12.5" style="stroke:#A80036;stroke-width:1.5;" width="46" x="424" y="20"/><text fill="#000000" font-family="sans-serif" font-size="14" lengthAdjust="spacing" textLength="26" x="434" y="44.5332">Item</text><path d="M374,38.8047 L384,38.8047 C399,38.8047 399,38.8047 414,38.8047 L424,38.8047 " fill="none" style="stroke:#A80036;stroke-width:1.0;"/><path d="M233,67.6094 L243,67.6094 C258,67.6094 258,38.8047 273,38.8047 L283,38.8047 " fill="none" style="stroke:#A80036;stroke-width:1.0;"/><rect fill="#FEFECE" filter="url(#f1gddcdffucbn8)" height="37.6094" rx="12.5" ry="12.5" style="stroke:#A80036;stroke-width:1.5;" width="91" x="283" y="77.6094"/><text fill="#000000" font-family="sans-serif" font-size="14" lengthAdjust="spacing" textLength="71" x="293" y="102.1426">GeomNode</text><rect fill="#FEFECE" filter="url(#f1gddcdffucbn8)" height="37.6094" rx="12.5" ry="12.5" style="stroke:#A80036;stroke-width:1.5;" width="46" x="424" y="77.6094"/><text fill="#000000" font-family="sans-serif" font-size="14" lengthAdjust="spacing" textLength="26" x="434" y="102.1426">Item</text><path d="M374,96.4141 L384,96.4141 C399,96.4141 399,96.4141 414,96.4141 L424,96.4141 " fill="none" style="stroke:#A80036;stroke-width:1.0;"/><path d="M233,67.6094 L243,67.6094 C258,67.6094 258,96.4141 273,96.4141 L283,96.4141 " fill="none" style="stroke:#A80036;stroke-width:1.0;"/><path d="M130,96.4141 L140,96.4141 C155,96.4141 155,67.6094 170,67.6094 L180,67.6094 " fill="none" style="stroke:#A80036;stroke-width:1.0;"/><rect fill="#FEFECE" filter="url(#f1gddcdffucbn8)" height="37.6094" rx="12.5" ry="12.5" style="stroke:#A80036;stroke-width:1.5;" width="70" x="180" y="135.2188"/><text fill="#000000" font-family="sans-serif" font-size="14" lengthAdjust="spacing" textLength="50" x="190" y="159.752">Camera</text><path d="M130,96.4141 L140,96.4141 C155,96.4141 155,154.0234 170,154.0234 L180,154.0234 " fill="none" style="stroke:#A80036;stroke-width:1.0;"/><!--MD5=[0333af3f4aca2242de02afdad42b7239]
@startmindmap a
* SceneRenderer
** Node
*** GeomNode
**** Item
*** GeomNode
**** Item
** Camera
@endmindmap

PlantUML version 1.2021.00(Sun Jan 10 11:25:05 CET 2021)
(GPL source distribution)
Java Runtime: Java(TM) SE Runtime Environment
JVM: Java HotSpot(TM) 64-Bit Server VM
Default Encoding: Cp1252
Language: en
Country: US
--></g></svg>