<?xml version="1.0" encoding="UTF-8" standalone="no"?><svg xmlns="http://www.w3.org/2000/svg" xmlns:xlink="http://www.w3.org/1999/xlink" contentScriptType="application/ecmascript" contentStyleType="text/css" height="228px" preserveAspectRatio="none" style="width:679px;height:228px;" version="1.1" viewBox="0 0 679 228" width="679px" zoomAndPan="magnify"><defs><filter height="300%" id="f1r12n6axe7uov" width="300%" x="-1" y="-1"><feGaussianBlur result="blurOut" stdDeviation="2.0"/><feColorMatrix in="blurOut" result="blurOut2" type="matrix" values="0 0 0 0 0 0 0 0 0 0 0 0 0 0 0 0 0 0 .4 0"/><feOffset dx="4.0" dy="4.0" in="blurOut2" result="blurOut3"/><feBlend in="SourceGraphic" in2="blurOut3" mode="normal"/></filter></defs><g><!--MD5=[f6ecc05696919099d52a488eddc2e7f7]
cluster spinel--><polygon fill="#FFFFFF" filter="url(#f1r12n6axe7uov)" points="160,6,209,6,216,29.6094,662,29.6094,662,221,160,221,160,6" style="stroke:#000000;stroke-width:1.5;"/><line style="stroke:#000000;stroke-width:1.5;" x1="160" x2="216" y1="29.6094" y2="29.6094"/><text fill="#000000" font-family="sans-serif" font-size="14" font-weight="bold" lengthAdjust="spacing" textLength="43" x="164" y="22.5332">spinel</text><!--MD5=[aa8f7b917213fcc1c2766e2d59b49067]
cluster java.lang--><polygon fill="#FFFFFF" filter="url(#f1r12n6axe7uov)" points="16,121,85,121,92,144.6094,136,144.6094,136,221,16,221,16,121" style="stroke:#000000;stroke-width:1.5;"/><line style="stroke:#000000;stroke-width:1.5;" x1="16" x2="92" y1="144.6094" y2="144.6094"/><text fill="#000000" font-family="sans-serif" font-size="14" font-weight="bold" lengthAdjust="spacing" textLength="63" x="20" y="137.5332">java.lang</text><!--MD5=[fa22f29c53ed6d2510bea2e0aa245b7f]
class Window--><rect codeLine="7" fill="#FEFECE" filter="url(#f1r12n6axe7uov)" height="48" id="Window" style="stroke:#A80036;stroke-width:1.5;" width="76" x="570" y="157"/><ellipse cx="585" cy="173" fill="#ADD1B2" rx="11" ry="11" style="stroke:#A80036;stroke-width:1.0;"/><path d="M587.7656,168.875 Q587.9219,168.6563 588.1094,168.5469 Q588.2969,168.4375 588.5156,168.4375 Q588.8906,168.4375 589.125,168.7031 Q589.3594,168.9531 589.3594,169.5625 L589.3594,171.0156 Q589.3594,171.625 589.125,171.8906 Q588.8906,172.1563 588.5156,172.1563 Q588.1719,172.1563 587.9688,171.9531 Q587.7656,171.7656 587.6563,171.25 Q587.6094,170.8906 587.4219,170.7031 Q587.0938,170.3281 586.4844,170.1094 Q585.875,169.8906 585.25,169.8906 Q584.4844,169.8906 583.8438,170.2188 Q583.2188,170.5469 582.7188,171.2969 Q582.2344,172.0469 582.2344,173.0781 L582.2344,174.1719 Q582.2344,175.4063 583.125,176.2344 Q584.0156,177.0469 585.6094,177.0469 Q586.5469,177.0469 587.2031,176.7969 Q587.5938,176.6406 588.0156,176.2031 Q588.2813,175.9375 588.4219,175.8594 Q588.5781,175.7813 588.7813,175.7813 Q589.1094,175.7813 589.3594,176.0469 Q589.625,176.2969 589.625,176.6406 Q589.625,176.9844 589.2813,177.3906 Q588.7813,177.9688 587.9844,178.2969 Q586.9063,178.75 585.6094,178.75 Q584.0938,178.75 582.8906,178.125 Q581.9063,177.625 581.2188,176.5625 Q580.5313,175.4844 580.5313,174.2031 L580.5313,173.0469 Q580.5313,171.7188 581.1406,170.5781 Q581.7656,169.4219 582.8594,168.8125 Q583.9531,168.1875 585.1875,168.1875 Q585.9219,168.1875 586.5625,168.3594 Q587.2188,168.5156 587.7656,168.875 Z " fill="#000000"/><text fill="#000000" font-family="sans-serif" font-size="12" lengthAdjust="spacing" textLength="44" x="599" y="177.9102">Window</text><line style="stroke:#A80036;stroke-width:1.5;" x1="571" x2="645" y1="189" y2="189"/><line style="stroke:#A80036;stroke-width:1.5;" x1="571" x2="645" y1="197" y2="197"/><!--MD5=[3cab58e622330109321580dbb0b85605]
class Input--><rect codeLine="8" fill="#FEFECE" filter="url(#f1r12n6axe7uov)" height="48" id="Input" style="stroke:#A80036;stroke-width:1.5;" width="59" x="475.5" y="157"/><ellipse cx="490.5" cy="173" fill="#ADD1B2" rx="11" ry="11" style="stroke:#A80036;stroke-width:1.0;"/><path d="M493.2656,168.875 Q493.4219,168.6563 493.6094,168.5469 Q493.7969,168.4375 494.0156,168.4375 Q494.3906,168.4375 494.625,168.7031 Q494.8594,168.9531 494.8594,169.5625 L494.8594,171.0156 Q494.8594,171.625 494.625,171.8906 Q494.3906,172.1563 494.0156,172.1563 Q493.6719,172.1563 493.4688,171.9531 Q493.2656,171.7656 493.1563,171.25 Q493.1094,170.8906 492.9219,170.7031 Q492.5938,170.3281 491.9844,170.1094 Q491.375,169.8906 490.75,169.8906 Q489.9844,169.8906 489.3438,170.2188 Q488.7188,170.5469 488.2188,171.2969 Q487.7344,172.0469 487.7344,173.0781 L487.7344,174.1719 Q487.7344,175.4063 488.625,176.2344 Q489.5156,177.0469 491.1094,177.0469 Q492.0469,177.0469 492.7031,176.7969 Q493.0938,176.6406 493.5156,176.2031 Q493.7813,175.9375 493.9219,175.8594 Q494.0781,175.7813 494.2813,175.7813 Q494.6094,175.7813 494.8594,176.0469 Q495.125,176.2969 495.125,176.6406 Q495.125,176.9844 494.7813,177.3906 Q494.2813,177.9688 493.4844,178.2969 Q492.4063,178.75 491.1094,178.75 Q489.5938,178.75 488.3906,178.125 Q487.4063,177.625 486.7188,176.5625 Q486.0313,175.4844 486.0313,174.2031 L486.0313,173.0469 Q486.0313,171.7188 486.6406,170.5781 Q487.2656,169.4219 488.3594,168.8125 Q489.4531,168.1875 490.6875,168.1875 Q491.4219,168.1875 492.0625,168.3594 Q492.7188,168.5156 493.2656,168.875 Z " fill="#000000"/><text fill="#000000" font-family="sans-serif" font-size="12" lengthAdjust="spacing" textLength="27" x="504.5" y="177.9102">Input</text><line style="stroke:#A80036;stroke-width:1.5;" x1="476.5" x2="533.5" y1="189" y2="189"/><line style="stroke:#A80036;stroke-width:1.5;" x1="476.5" x2="533.5" y1="197" y2="197"/><!--MD5=[c86ce95fe6226f2d2796c0513d8e83fe]
class Engine--><rect codeLine="9" fill="#FEFECE" filter="url(#f1r12n6axe7uov)" height="48" id="Engine" style="stroke:#A80036;stroke-width:1.5;" width="71" x="271.5" y="157"/><ellipse cx="286.5" cy="173" fill="#ADD1B2" rx="11" ry="11" style="stroke:#A80036;stroke-width:1.0;"/><path d="M289.2656,168.875 Q289.4219,168.6563 289.6094,168.5469 Q289.7969,168.4375 290.0156,168.4375 Q290.3906,168.4375 290.625,168.7031 Q290.8594,168.9531 290.8594,169.5625 L290.8594,171.0156 Q290.8594,171.625 290.625,171.8906 Q290.3906,172.1563 290.0156,172.1563 Q289.6719,172.1563 289.4688,171.9531 Q289.2656,171.7656 289.1563,171.25 Q289.1094,170.8906 288.9219,170.7031 Q288.5938,170.3281 287.9844,170.1094 Q287.375,169.8906 286.75,169.8906 Q285.9844,169.8906 285.3438,170.2188 Q284.7188,170.5469 284.2188,171.2969 Q283.7344,172.0469 283.7344,173.0781 L283.7344,174.1719 Q283.7344,175.4063 284.625,176.2344 Q285.5156,177.0469 287.1094,177.0469 Q288.0469,177.0469 288.7031,176.7969 Q289.0938,176.6406 289.5156,176.2031 Q289.7813,175.9375 289.9219,175.8594 Q290.0781,175.7813 290.2813,175.7813 Q290.6094,175.7813 290.8594,176.0469 Q291.125,176.2969 291.125,176.6406 Q291.125,176.9844 290.7813,177.3906 Q290.2813,177.9688 289.4844,178.2969 Q288.4063,178.75 287.1094,178.75 Q285.5938,178.75 284.3906,178.125 Q283.4063,177.625 282.7188,176.5625 Q282.0313,175.4844 282.0313,174.2031 L282.0313,173.0469 Q282.0313,171.7188 282.6406,170.5781 Q283.2656,169.4219 284.3594,168.8125 Q285.4531,168.1875 286.6875,168.1875 Q287.4219,168.1875 288.0625,168.3594 Q288.7188,168.5156 289.2656,168.875 Z " fill="#000000"/><text fill="#000000" font-family="sans-serif" font-size="12" lengthAdjust="spacing" textLength="39" x="300.5" y="177.9102">Engine</text><line style="stroke:#A80036;stroke-width:1.5;" x1="272.5" x2="341.5" y1="189" y2="189"/><line style="stroke:#A80036;stroke-width:1.5;" x1="272.5" x2="341.5" y1="197" y2="197"/><polygon fill="#FFFFFF" filter="url(#f1r12n6axe7uov)" points="596,42,632,42,639,65.6094,646,65.6094,646,97.2188,596,97.2188,596,42" style="stroke:#000000;stroke-width:1.5;"/><line style="stroke:#000000;stroke-width:1.5;" x1="596" x2="639" y1="65.6094" y2="65.6094"/><text fill="#000000" font-family="sans-serif" font-size="14" font-weight="bold" lengthAdjust="spacing" textLength="30" x="600" y="58.5332">utils</text><polygon fill="#FFFFFF" filter="url(#f1r12n6axe7uov)" points="463,42,547,42,554,65.6094,561,65.6094,561,97.2188,463,97.2188,463,42" style="stroke:#000000;stroke-width:1.5;"/><line style="stroke:#000000;stroke-width:1.5;" x1="463" x2="554" y1="65.6094" y2="65.6094"/><text fill="#000000" font-family="sans-serif" font-size="14" font-weight="bold" lengthAdjust="spacing" textLength="78" x="467" y="58.5332">scheduling</text><polygon fill="#FFFFFF" filter="url(#f1r12n6axe7uov)" points="374,42,414,42,421,65.6094,428,65.6094,428,97.2188,374,97.2188,374,42" style="stroke:#000000;stroke-width:1.5;"/><line style="stroke:#000000;stroke-width:1.5;" x1="374" x2="421" y1="65.6094" y2="65.6094"/><text fill="#000000" font-family="sans-serif" font-size="14" font-weight="bold" lengthAdjust="spacing" textLength="34" x="378" y="58.5332">math</text><polygon fill="#FFFFFF" filter="url(#f1r12n6axe7uov)" points="297,42,325,42,332,65.6094,339,65.6094,339,97.2188,297,97.2188,297,42" style="stroke:#000000;stroke-width:1.5;"/><line style="stroke:#000000;stroke-width:1.5;" x1="297" x2="332" y1="65.6094" y2="65.6094"/><text fill="#000000" font-family="sans-serif" font-size="14" font-weight="bold" lengthAdjust="spacing" textLength="22" x="301" y="58.5332">gfx</text><polygon fill="#FFFFFF" filter="url(#f1r12n6axe7uov)" points="176.5,42,247.5,42,254.5,65.6094,261.5,65.6094,261.5,97.2188,176.5,97.2188,176.5,42" style="stroke:#000000;stroke-width:1.5;"/><line style="stroke:#000000;stroke-width:1.5;" x1="176.5" x2="254.5" y1="65.6094" y2="65.6094"/><text fill="#000000" font-family="sans-serif" font-size="14" font-weight="bold" lengthAdjust="spacing" textLength="65" x="180.5" y="58.5332">elements</text><!--MD5=[53ae8b34bebe44116eb8626f99f3fe78]
class Runnable--><rect codeLine="17" fill="#FEFECE" filter="url(#f1r12n6axe7uov)" height="48" id="Runnable" style="stroke:#A80036;stroke-width:1.5;" width="87" x="32.5" y="157"/><ellipse cx="47.5" cy="173" fill="#B4A7E5" rx="11" ry="11" style="stroke:#A80036;stroke-width:1.0;"/><path d="M48.4531,169.6406 L48.4531,176.2969 L50.1719,176.2969 Q50.7813,176.2969 51.0469,176.5313 Q51.3125,176.7656 51.3125,177.1563 Q51.3125,177.5313 51.0469,177.7656 Q50.7813,178 50.1719,178 L45.0313,178 Q44.4219,178 44.1563,177.7656 Q43.8906,177.5313 43.8906,177.1406 Q43.8906,176.7656 44.1563,176.5313 Q44.4219,176.2969 45.0313,176.2969 L46.75,176.2969 L46.75,169.6406 L45.0313,169.6406 Q44.4219,169.6406 44.1563,169.4063 Q43.8906,169.1719 43.8906,168.7813 Q43.8906,168.4063 44.1563,168.1719 Q44.4219,167.9375 45.0313,167.9375 L50.1719,167.9375 Q50.7813,167.9375 51.0469,168.1719 Q51.3125,168.4063 51.3125,168.7813 Q51.3125,169.1719 51.0469,169.4063 Q50.7813,169.6406 50.1719,169.6406 L48.4531,169.6406 Z " fill="#000000"/><text fill="#000000" font-family="sans-serif" font-size="12" font-style="italic" lengthAdjust="spacing" textLength="55" x="61.5" y="177.9102">Runnable</text><line style="stroke:#A80036;stroke-width:1.5;" x1="33.5" x2="118.5" y1="189" y2="189"/><line style="stroke:#A80036;stroke-width:1.5;" x1="33.5" x2="118.5" y1="197" y2="197"/><!--MD5=[4b9952d3cbfc9b5c663489c8fdaa9f10]
reverse link utils to Window--><!--MD5=[1b9f146767a1a672a9fd40bc610e5b51]
reverse link math to Engine--><!--MD5=[231b9b9d8b6db28ce257c9ecc12b8199]
reverse link scheduling to Input--><!--MD5=[937fec9c1fc924d4b74220fbfe5b8386]
reverse link Runnable to Engine--><path codeLine="20" d="M139.87,181 C183.63,181 227.4,181 271.16,181 " fill="none" id="Runnable-backto-Engine" style="stroke:#A80036;stroke-width:1.0;stroke-dasharray:7.0,7.0;"/><polygon fill="none" points="139.76,188,119.76,181,139.76,174,139.76,188" style="stroke:#A80036;stroke-width:1.0;"/><!--MD5=[1d92a7c5c763440c2ad68b7209716827]
@startuml spinel
package spinel{
    package "utils" {}
    package "scheduling" {}
    package "math" {}
    package "gfx" {}
    package "elements" {}
    class "Window"
    class "Input"
    class "Engine"

    utils <-[hidden]- Window
    math <-[hidden]- Engine
    scheduling <-[hidden]- Input
}

package java.lang {
    interface Runnable
}

Engine .left.|> Runnable



@enduml

PlantUML version 1.2021.00(Sun Jan 10 11:25:05 CET 2021)
(GPL source distribution)
Java Runtime: Java(TM) SE Runtime Environment
JVM: Java HotSpot(TM) 64-Bit Server VM
Default Encoding: Cp1252
Language: en
Country: US
--></g></svg>