<?xml version="1.0" encoding="UTF-8" standalone="no"?><svg xmlns="http://www.w3.org/2000/svg" xmlns:xlink="http://www.w3.org/1999/xlink" contentScriptType="application/ecmascript" contentStyleType="text/css" height="228px" preserveAspectRatio="none" style="width:679px;height:228px;" version="1.1" viewBox="0 0 679 228" width="679px" zoomAndPan="magnify"><defs><filter height="300%" id="fiyrdj83cguc4" width="300%" x="-1" y="-1"><feGaussianBlur result="blurOut" stdDeviation="2.0"/><feColorMatrix in="blurOut" result="blurOut2" type="matrix" values="0 0 0 0 0 0 0 0 0 0 0 0 0 0 0 0 0 0 .4 0"/><feOffset dx="4.0" dy="4.0" in="blurOut2" result="blurOut3"/><feBlend in="SourceGraphic" in2="blurOut3" mode="normal"/></filter></defs><g><!--MD5=[f6ecc05696919099d52a488eddc2e7f7]
cluster spinel--><polygon fill="#FFFFFF" filter="url(#fiyrdj83cguc4)" points="16,6,65,6,72,29.6094,518,29.6094,518,221,16,221,16,6" style="stroke:#000000;stroke-width:1.5;"/><line style="stroke:#000000;stroke-width:1.5;" x1="16" x2="72" y1="29.6094" y2="29.6094"/><text fill="#000000" font-family="sans-serif" font-size="14" font-weight="bold" lengthAdjust="spacing" textLength="43" x="20" y="22.5332">spinel</text><!--MD5=[aa8f7b917213fcc1c2766e2d59b49067]
cluster java.lang--><polygon fill="#FFFFFF" filter="url(#fiyrdj83cguc4)" points="542,9.5,611,9.5,618,33.1094,662,33.1094,662,109.5,542,109.5,542,9.5" style="stroke:#000000;stroke-width:1.5;"/><line style="stroke:#000000;stroke-width:1.5;" x1="542" x2="618" y1="33.1094" y2="33.1094"/><text fill="#000000" font-family="sans-serif" font-size="14" font-weight="bold" lengthAdjust="spacing" textLength="63" x="546" y="26.0332">java.lang</text><!--MD5=[fa22f29c53ed6d2510bea2e0aa245b7f]
class Window--><rect codeLine="8" fill="#FEFECE" filter="url(#fiyrdj83cguc4)" height="48" id="Window" style="stroke:#A80036;stroke-width:1.5;" width="76" x="217" y="157"/><ellipse cx="232" cy="173" fill="#ADD1B2" rx="11" ry="11" style="stroke:#A80036;stroke-width:1.0;"/><path d="M234.7656,168.875 Q234.9219,168.6563 235.1094,168.5469 Q235.2969,168.4375 235.5156,168.4375 Q235.8906,168.4375 236.125,168.7031 Q236.3594,168.9531 236.3594,169.5625 L236.3594,171.0156 Q236.3594,171.625 236.125,171.8906 Q235.8906,172.1563 235.5156,172.1563 Q235.1719,172.1563 234.9688,171.9531 Q234.7656,171.7656 234.6563,171.25 Q234.6094,170.8906 234.4219,170.7031 Q234.0938,170.3281 233.4844,170.1094 Q232.875,169.8906 232.25,169.8906 Q231.4844,169.8906 230.8438,170.2188 Q230.2188,170.5469 229.7188,171.2969 Q229.2344,172.0469 229.2344,173.0781 L229.2344,174.1719 Q229.2344,175.4063 230.125,176.2344 Q231.0156,177.0469 232.6094,177.0469 Q233.5469,177.0469 234.2031,176.7969 Q234.5938,176.6406 235.0156,176.2031 Q235.2813,175.9375 235.4219,175.8594 Q235.5781,175.7813 235.7813,175.7813 Q236.1094,175.7813 236.3594,176.0469 Q236.625,176.2969 236.625,176.6406 Q236.625,176.9844 236.2813,177.3906 Q235.7813,177.9688 234.9844,178.2969 Q233.9063,178.75 232.6094,178.75 Q231.0938,178.75 229.8906,178.125 Q228.9063,177.625 228.2188,176.5625 Q227.5313,175.4844 227.5313,174.2031 L227.5313,173.0469 Q227.5313,171.7188 228.1406,170.5781 Q228.7656,169.4219 229.8594,168.8125 Q230.9531,168.1875 232.1875,168.1875 Q232.9219,168.1875 233.5625,168.3594 Q234.2188,168.5156 234.7656,168.875 Z " fill="#000000"/><text fill="#000000" font-family="sans-serif" font-size="12" lengthAdjust="spacing" textLength="44" x="246" y="177.9102">Window</text><line style="stroke:#A80036;stroke-width:1.5;" x1="218" x2="292" y1="189" y2="189"/><line style="stroke:#A80036;stroke-width:1.5;" x1="218" x2="292" y1="197" y2="197"/><!--MD5=[3cab58e622330109321580dbb0b85605]
class Input--><rect codeLine="9" fill="#FEFECE" filter="url(#fiyrdj83cguc4)" height="48" id="Input" style="stroke:#A80036;stroke-width:1.5;" width="59" x="45.5" y="157"/><ellipse cx="60.5" cy="173" fill="#ADD1B2" rx="11" ry="11" style="stroke:#A80036;stroke-width:1.0;"/><path d="M63.2656,168.875 Q63.4219,168.6563 63.6094,168.5469 Q63.7969,168.4375 64.0156,168.4375 Q64.3906,168.4375 64.625,168.7031 Q64.8594,168.9531 64.8594,169.5625 L64.8594,171.0156 Q64.8594,171.625 64.625,171.8906 Q64.3906,172.1563 64.0156,172.1563 Q63.6719,172.1563 63.4688,171.9531 Q63.2656,171.7656 63.1563,171.25 Q63.1094,170.8906 62.9219,170.7031 Q62.5938,170.3281 61.9844,170.1094 Q61.375,169.8906 60.75,169.8906 Q59.9844,169.8906 59.3438,170.2188 Q58.7188,170.5469 58.2188,171.2969 Q57.7344,172.0469 57.7344,173.0781 L57.7344,174.1719 Q57.7344,175.4063 58.625,176.2344 Q59.5156,177.0469 61.1094,177.0469 Q62.0469,177.0469 62.7031,176.7969 Q63.0938,176.6406 63.5156,176.2031 Q63.7813,175.9375 63.9219,175.8594 Q64.0781,175.7813 64.2813,175.7813 Q64.6094,175.7813 64.8594,176.0469 Q65.125,176.2969 65.125,176.6406 Q65.125,176.9844 64.7813,177.3906 Q64.2813,177.9688 63.4844,178.2969 Q62.4063,178.75 61.1094,178.75 Q59.5938,178.75 58.3906,178.125 Q57.4063,177.625 56.7188,176.5625 Q56.0313,175.4844 56.0313,174.2031 L56.0313,173.0469 Q56.0313,171.7188 56.6406,170.5781 Q57.2656,169.4219 58.3594,168.8125 Q59.4531,168.1875 60.6875,168.1875 Q61.4219,168.1875 62.0625,168.3594 Q62.7188,168.5156 63.2656,168.875 Z " fill="#000000"/><text fill="#000000" font-family="sans-serif" font-size="12" lengthAdjust="spacing" textLength="27" x="74.5" y="177.9102">Input</text><line style="stroke:#A80036;stroke-width:1.5;" x1="46.5" x2="103.5" y1="189" y2="189"/><line style="stroke:#A80036;stroke-width:1.5;" x1="46.5" x2="103.5" y1="197" y2="197"/><!--MD5=[c86ce95fe6226f2d2796c0513d8e83fe]
class Engine--><rect codeLine="10" fill="#FEFECE" filter="url(#fiyrdj83cguc4)" height="48" id="Engine" style="stroke:#A80036;stroke-width:1.5;" width="71" x="430.5" y="157"/><ellipse cx="445.5" cy="173" fill="#ADD1B2" rx="11" ry="11" style="stroke:#A80036;stroke-width:1.0;"/><path d="M448.2656,168.875 Q448.4219,168.6563 448.6094,168.5469 Q448.7969,168.4375 449.0156,168.4375 Q449.3906,168.4375 449.625,168.7031 Q449.8594,168.9531 449.8594,169.5625 L449.8594,171.0156 Q449.8594,171.625 449.625,171.8906 Q449.3906,172.1563 449.0156,172.1563 Q448.6719,172.1563 448.4688,171.9531 Q448.2656,171.7656 448.1563,171.25 Q448.1094,170.8906 447.9219,170.7031 Q447.5938,170.3281 446.9844,170.1094 Q446.375,169.8906 445.75,169.8906 Q444.9844,169.8906 444.3438,170.2188 Q443.7188,170.5469 443.2188,171.2969 Q442.7344,172.0469 442.7344,173.0781 L442.7344,174.1719 Q442.7344,175.4063 443.625,176.2344 Q444.5156,177.0469 446.1094,177.0469 Q447.0469,177.0469 447.7031,176.7969 Q448.0938,176.6406 448.5156,176.2031 Q448.7813,175.9375 448.9219,175.8594 Q449.0781,175.7813 449.2813,175.7813 Q449.6094,175.7813 449.8594,176.0469 Q450.125,176.2969 450.125,176.6406 Q450.125,176.9844 449.7813,177.3906 Q449.2813,177.9688 448.4844,178.2969 Q447.4063,178.75 446.1094,178.75 Q444.5938,178.75 443.3906,178.125 Q442.4063,177.625 441.7188,176.5625 Q441.0313,175.4844 441.0313,174.2031 L441.0313,173.0469 Q441.0313,171.7188 441.6406,170.5781 Q442.2656,169.4219 443.3594,168.8125 Q444.4531,168.1875 445.6875,168.1875 Q446.4219,168.1875 447.0625,168.3594 Q447.7188,168.5156 448.2656,168.875 Z " fill="#000000"/><text fill="#000000" font-family="sans-serif" font-size="12" lengthAdjust="spacing" textLength="39" x="459.5" y="177.9102">Engine</text><line style="stroke:#A80036;stroke-width:1.5;" x1="431.5" x2="500.5" y1="189" y2="189"/><line style="stroke:#A80036;stroke-width:1.5;" x1="431.5" x2="500.5" y1="197" y2="197"/><polygon fill="#FFFFFF" filter="url(#fiyrdj83cguc4)" points="230,42,266,42,273,65.6094,280,65.6094,280,97.2188,230,97.2188,230,42" style="stroke:#000000;stroke-width:1.5;"/><line style="stroke:#000000;stroke-width:1.5;" x1="230" x2="273" y1="65.6094" y2="65.6094"/><text fill="#000000" font-family="sans-serif" font-size="14" font-weight="bold" lengthAdjust="spacing" textLength="30" x="234" y="58.5332">utils</text><polygon fill="#FFFFFF" filter="url(#fiyrdj83cguc4)" points="315,42,399,42,406,65.6094,413,65.6094,413,97.2188,315,97.2188,315,42" style="stroke:#000000;stroke-width:1.5;"/><line style="stroke:#000000;stroke-width:1.5;" x1="315" x2="406" y1="65.6094" y2="65.6094"/><text fill="#000000" font-family="sans-serif" font-size="14" font-weight="bold" lengthAdjust="spacing" textLength="78" x="319" y="58.5332">scheduling</text><polygon fill="#FFFFFF" filter="url(#fiyrdj83cguc4)" points="448,42,488,42,495,65.6094,502,65.6094,502,97.2188,448,97.2188,448,42" style="stroke:#000000;stroke-width:1.5;"/><line style="stroke:#000000;stroke-width:1.5;" x1="448" x2="495" y1="65.6094" y2="65.6094"/><text fill="#000000" font-family="sans-serif" font-size="14" font-weight="bold" lengthAdjust="spacing" textLength="34" x="452" y="58.5332">math</text><polygon fill="#FFFFFF" filter="url(#fiyrdj83cguc4)" points="153,42,181,42,188,65.6094,195,65.6094,195,97.2188,153,97.2188,153,42" style="stroke:#000000;stroke-width:1.5;"/><line style="stroke:#000000;stroke-width:1.5;" x1="153" x2="188" y1="65.6094" y2="65.6094"/><text fill="#000000" font-family="sans-serif" font-size="14" font-weight="bold" lengthAdjust="spacing" textLength="22" x="157" y="58.5332">gfx</text><polygon fill="#FFFFFF" filter="url(#fiyrdj83cguc4)" points="32.5,42,103.5,42,110.5,65.6094,117.5,65.6094,117.5,97.2188,32.5,97.2188,32.5,42" style="stroke:#000000;stroke-width:1.5;"/><line style="stroke:#000000;stroke-width:1.5;" x1="32.5" x2="110.5" y1="65.6094" y2="65.6094"/><text fill="#000000" font-family="sans-serif" font-size="14" font-weight="bold" lengthAdjust="spacing" textLength="65" x="36.5" y="58.5332">elements</text><!--MD5=[8dac795f9edbf65a524ac462449c98fb]
class java.lang.Runnable--><rect fill="#FEFECE" filter="url(#fiyrdj83cguc4)" height="48" id="java.lang.Runnable" style="stroke:#A80036;stroke-width:1.5;" width="87" x="558.5" y="45.5"/><ellipse cx="573.5" cy="61.5" fill="#B4A7E5" rx="11" ry="11" style="stroke:#A80036;stroke-width:1.0;"/><path d="M574.4531,58.1406 L574.4531,64.7969 L576.1719,64.7969 Q576.7813,64.7969 577.0469,65.0313 Q577.3125,65.2656 577.3125,65.6563 Q577.3125,66.0313 577.0469,66.2656 Q576.7813,66.5 576.1719,66.5 L571.0313,66.5 Q570.4219,66.5 570.1563,66.2656 Q569.8906,66.0313 569.8906,65.6406 Q569.8906,65.2656 570.1563,65.0313 Q570.4219,64.7969 571.0313,64.7969 L572.75,64.7969 L572.75,58.1406 L571.0313,58.1406 Q570.4219,58.1406 570.1563,57.9063 Q569.8906,57.6719 569.8906,57.2813 Q569.8906,56.9063 570.1563,56.6719 Q570.4219,56.4375 571.0313,56.4375 L576.1719,56.4375 Q576.7813,56.4375 577.0469,56.6719 Q577.3125,56.9063 577.3125,57.2813 Q577.3125,57.6719 577.0469,57.9063 Q576.7813,58.1406 576.1719,58.1406 L574.4531,58.1406 Z " fill="#000000"/><text fill="#000000" font-family="sans-serif" font-size="12" font-style="italic" lengthAdjust="spacing" textLength="55" x="587.5" y="66.4102">Runnable</text><line style="stroke:#A80036;stroke-width:1.5;" x1="559.5" x2="644.5" y1="77.5" y2="77.5"/><line style="stroke:#A80036;stroke-width:1.5;" x1="559.5" x2="644.5" y1="85.5" y2="85.5"/><!--MD5=[6036a66533e8d4053f3d1c352d26b8c4]
reverse link java.lang.Runnable to Engine--><path d="M557.51,106.32 C536.9,122.92 513,142.16 494.8,156.81 " fill="none" id="java.lang.Runnable-backto-Engine" style="stroke:#A80036;stroke-width:1.0;stroke-dasharray:7.0,7.0;"/><polygon fill="none" points="553.19,100.81,573.16,93.72,561.97,111.72,553.19,100.81" style="stroke:#A80036;stroke-width:1.0;"/><!--MD5=[4b9952d3cbfc9b5c663489c8fdaa9f10]
reverse link utils to Window--><!--MD5=[1b9f146767a1a672a9fd40bc610e5b51]
reverse link math to Engine--><!--MD5=[2c0360d2c3da2cd748f5d6aff3f1a528]
reverse link elements to Input--><!--MD5=[37fc8a7fbe931f7d16fd6a302c3b5afa]
@startuml spinel
package spinel{
    package utils {}
    package scheduling {}
    package math {}
    package gfx {}
    package elements {
    }
    class Window
    class Input
    class Engine implements java.lang.Runnable

    utils <-[hidden]- Window
    math <-[hidden]- Engine
    elements <-[hidden]- Input
}



@enduml

PlantUML version 1.2021.00(Sun Jan 10 11:25:05 CET 2021)
(GPL source distribution)
Java Runtime: Java(TM) SE Runtime Environment
JVM: Java HotSpot(TM) 64-Bit Server VM
Default Encoding: Cp1252
Language: fr
Country: FR
--></g></svg>