<?xml version="1.0" encoding="utf-8"?>
<!-- Generator: Adobe Illustrator 25.2.0, SVG Export Plug-In . SVG Version: 6.00 Build 0)  -->
<svg version="1.1" id="Layer_1" xmlns="http://www.w3.org/2000/svg" xmlns:xlink="http://www.w3.org/1999/xlink" x="0px" y="0px"
	 viewBox="0 0 1389.7 579.3" style="enable-background:new 0 0 1389.7 579.3;" xml:space="preserve">
<style type="text/css">
	.st0{fill:none;stroke:#2ECC71;stroke-width:23;stroke-linecap:round;}
	.st1{fill:#FFFFFF;stroke:#2ECC71;stroke-width:9;stroke-linecap:round;}
	.st2{fill:none;stroke:#3498DB;stroke-width:23;stroke-linecap:round;}
	.st3{fill:none;stroke:#8E44AD;stroke-width:23;stroke-linecap:round;}
	.st4{fill:#FFFFFF;stroke:#8E44AD;stroke-width:9;stroke-linecap:round;}
	.st5{fill:none;stroke:#E74C3C;stroke-width:23;stroke-linecap:round;}
	.st6{fill:#FFFFFF;stroke:#E74C3C;stroke-width:9;stroke-linecap:round;}
	.st7{fill:#FFFFFF;stroke:#3498DB;stroke-width:9;stroke-linecap:round;}
	.st8{fill:#3498DB;}
	.st9{fill:#E74C3C;}
	.st10{fill:#8E44AD;}
	.st11{fill:#2ECC71;}
</style>
<g>
	<path class="st0" d="M528.5,515.2l68-68c9.4-9.4,22.1-14.6,35.4-14.6h418.4c13.3,0,26,5.3,35.4,14.6l68.5,68.5"/>
	<circle class="st1" cx="702.7" cy="432.6" r="19.6"/>
	<circle class="st1" cx="841.3" cy="432.6" r="19.6"/>
	<circle class="st1" cx="979.9" cy="432.6" r="19.6"/>
</g>
<line class="st2" x1="57.6" y1="515.2" x2="1362.5" y2="515.2"/>
<g>
	<path class="st3" d="M454.1,514.1l46.2-197.8c7.6-19,26-31.5,46.4-31.5h430.8c21.7,0,40.9,14,47.6,34.6l36.4,196.3"/>
	<circle class="st4" cx="583.5" cy="284.9" r="19.6"/>
	<circle class="st4" cx="696.5" cy="284.9" r="19.6"/>
	<circle class="st4" cx="809.5" cy="284.9" r="19.6"/>
	<circle class="st4" cx="922.6" cy="284.9" r="19.6"/>
</g>
<g>
	<path class="st5" d="M281.7,514.1l40.7-303.4c5.3-22.6,25.5-38.5,48.7-38.5h762c23.8,0,44.2,16.7,49,40l36.5,303.1"/>
	<circle class="st6" cx="407.6" cy="172.2" r="19.6"/>
	<circle class="st6" cx="572.9" cy="172.2" r="19.6"/>
	<circle class="st6" cx="738.2" cy="172.2" r="19.6"/>
	<circle class="st6" cx="903.5" cy="172.2" r="19.6"/>
	<circle class="st6" cx="1068.8" cy="172.2" r="19.6"/>
</g>
<circle class="st7" cx="281.7" cy="514.1" r="19.6"/>
<circle class="st7" cx="454.1" cy="515.8" r="19.6"/>
<circle class="st7" cx="537" cy="515.8" r="19.6"/>
<circle class="st7" cx="1061.5" cy="515.8" r="19.6"/>
<circle class="st7" cx="1152.2" cy="515.8" r="19.6"/>
<circle class="st7" cx="1218.6" cy="514.1" r="19.6"/>
<g>
	<g>
		<path class="st8" d="M59.9,496.2v-25.9h5.9l0.6,5.5v20.4H59.9z M69.9,496.2v-18c0-1.5-0.5-2.2-1.6-2.2c-1.2,0-1.9,1-1.9,2.9
			l-1.5-5.3h1.9c0.4-2.5,1.7-3.7,3.9-3.7c1.3,0,2.2,0.5,3,1.4c0.7,0.9,1.1,2.3,1.1,4.2v20.8H69.9z M78.1,496.2v-17.5
			c0-1.8-0.5-2.7-1.6-2.7c-1.2,0-1.8,1-1.8,2.9l-1.8-5.3h2.2c0.1-1.2,0.6-2.1,1.4-2.7c0.8-0.7,1.8-1,3-1c1.7,0,3,0.5,3.8,1.4
			c0.8,1,1.2,2.5,1.2,4.7v20.3H78.1z"/>
		<path class="st8" d="M97.6,496.7c-2.8,0-4.9-0.7-6.4-2c-1.5-1.4-2.3-3.3-2.3-5.8c0-2.9,1-5.1,3-6.7c2-1.5,4.8-2.3,8.5-2.3
			c1.4,0,2.6,0.1,3.7,0.2c1,0.1,2.1,0.4,3.1,0.7l-1.1,5.2c-1-0.2-2-0.4-2.8-0.4c-0.8,0-1.7-0.1-2.6-0.1c-3.4,0-5.1,1-5.1,2.9
			c0,0.9,0.3,1.5,0.9,2c0.6,0.5,1.5,0.7,2.7,0.7c1.4,0,2.6-0.3,3.6-0.8c1-0.5,1.7-1.2,2.2-2.1c0.5-0.8,0.7-1.7,0.7-2.6v-1.6l0.9,6.6
			h-2.1l0.9-0.8c0,1.5-0.4,2.7-1,3.7c-0.6,1-1.5,1.7-2.7,2.2C100.5,496.4,99.1,496.7,97.6,496.7z M106.3,496.4l-0.6-7.7l-0.1-3.4
			v-5.1c0-1.4-0.6-2.4-1.8-3c-1.2-0.6-2.9-1-5.3-1.1l-6.6-0.2l0.5-6l5.6,0.1c4.7,0.1,8.2,1,10.4,2.8c2.3,1.8,3.4,4.4,3.4,7.8v9.6
			l3.6,0.5v5.4L106.3,496.4z"/>
		<path class="st8" d="M119.7,496.2v-6.1h10.1v6.1H119.7z M121.2,476.4v-6.1h14.7v6.1H121.2z M132.3,466.8c-1.3,0-2.3-0.4-3.1-1.2
			s-1.2-1.8-1.2-3.1c0-1.3,0.4-2.3,1.2-3.1s1.8-1.2,3.1-1.2c1.3,0,2.3,0.4,3.1,1.2s1.2,1.8,1.2,3.1c0,1.3-0.4,2.3-1.2,3.1
			S133.5,466.8,132.3,466.8z M129.3,496.2v-24.4h6.6v24.4H129.3z M135.4,496.2v-6.1h8.2v6.1H135.4z"/>
		<path class="st8" d="M149.2,496.2v-25.9h5.9l0.7,5.5v20.4H149.2z M164.5,496.2V481c0-1.6-0.3-2.8-1-3.6c-0.6-0.8-1.6-1.3-2.7-1.3
			c-3.3,0-5,2.4-5,7.2l-1.5-8.3h2.1c0.2-1.7,0.8-3,1.8-3.9c0.9-0.9,2.4-1.3,4.3-1.3c2.7,0,4.8,0.8,6.3,2.5c1.5,1.7,2.2,4,2.2,7v16.8
			H164.5z"/>
	</g>
</g>
<g>
	<g>
		<path class="st9" d="M309.2,106.8v-6.1h7.8v6.1H309.2z M325.8,137.8c-3.3,0-5.6-0.9-7-2.7c-1.4-1.8-2.2-4.7-2.2-8.6v-25.8h6.6
			v25.6c0,1.1,0.1,2,0.3,2.6c0.2,0.7,0.7,1.2,1.3,1.5c0.7,0.3,1.6,0.5,2.9,0.5c1.4,0,3.2-0.3,5.4-0.9l0.8,6.8
			c-1.4,0.4-2.7,0.6-4,0.8C328.6,137.7,327.2,137.8,325.8,137.8z"/>
		<path class="st9" d="M351.2,137.8c-3.7,0-6.6-1.2-8.7-3.5s-3.1-5.6-3.1-9.9c0-4.3,1-7.6,3.1-9.9c2.1-2.3,4.9-3.5,8.7-3.5
			c3.7,0,6.6,1.2,8.7,3.5c2.1,2.3,3.1,5.6,3.1,9.9c0,4.3-1,7.6-3.1,9.9S354.9,137.8,351.2,137.8z M351.2,131.6
			c1.5,0,2.7-0.6,3.5-1.9c0.8-1.2,1.2-3,1.2-5.3c0-2.3-0.4-4.1-1.2-5.3c-0.8-1.2-2-1.9-3.5-1.9c-1.5,0-2.7,0.6-3.5,1.9
			c-0.8,1.2-1.2,3-1.2,5.3c0,2.3,0.4,4,1.2,5.3C348.5,130.9,349.7,131.6,351.2,131.6z"/>
		<path class="st9" d="M377.9,137.8c-3.2,0-5.7-1.2-7.5-3.5c-1.8-2.3-2.7-5.6-2.7-9.9c0-4.3,0.9-7.6,2.7-9.9
			c1.8-2.3,4.3-3.5,7.5-3.5c2,0,3.5,0.4,4.5,1.3c1,0.9,1.7,2.2,2,3.9h1.9l-1.5,8.3c0-2.5-0.4-4.3-1.3-5.5c-0.8-1.2-2.1-1.7-3.8-1.7
			c-1.6,0-2.9,0.6-3.7,1.9c-0.9,1.3-1.3,3-1.3,5.3c0,2.4,0.4,4.2,1.3,5.4c0.9,1.2,2.1,1.8,3.8,1.8c1.9,0,3.2-0.6,3.9-1.7
			c0.7-1.1,1.1-3,1.1-5.5l1.8,8.2h-2.3c-0.3,1.7-0.9,3-2,3.9C381.2,137.4,379.7,137.8,377.9,137.8z M370.3,149l-0.2-5.8l8.3-0.2
			c2.3-0.1,3.9-0.7,5-1.9c1-1.2,1.5-3,1.5-5.3v-18.9l0.5-5.5h6.1V135c0,4.6-1.1,8-3.2,10.2c-2.2,2.2-5.6,3.4-10.4,3.5L370.3,149z"/>
		<path class="st9" d="M407.2,137.8c-3.2,0-5.7-1.2-7.5-3.5c-1.8-2.3-2.7-5.6-2.7-9.9c0-4.3,0.9-7.6,2.7-9.9
			c1.8-2.3,4.3-3.5,7.5-3.5c2,0,3.5,0.4,4.5,1.3c1,0.9,1.7,2.2,2,3.9h1.9l-1.5,8.3c0-2.5-0.4-4.3-1.3-5.5c-0.8-1.2-2.1-1.7-3.8-1.7
			c-1.6,0-2.9,0.6-3.7,1.9c-0.9,1.3-1.3,3-1.3,5.3c0,2.4,0.4,4.2,1.3,5.4c0.9,1.2,2.1,1.8,3.8,1.8c1.9,0,3.2-0.6,3.9-1.7
			c0.7-1.1,1.1-3,1.1-5.5l1.8,8.2h-2.3c-0.3,1.7-0.9,3-2,3.9C410.5,137.4,409,137.8,407.2,137.8z M399.6,149l-0.2-5.8l8.3-0.2
			c2.3-0.1,3.9-0.7,5-1.9c1-1.2,1.5-3,1.5-5.3v-18.9l0.5-5.5h6.1V135c0,4.6-1.1,8-3.2,10.2c-2.2,2.2-5.6,3.4-10.4,3.5L399.6,149z"/>
		<path class="st9" d="M441.4,137.8c-4.5,0-7.9-1.2-10.4-3.5c-2.4-2.3-3.7-5.7-3.7-10c0-4.2,1-7.5,3.1-9.9c2.1-2.3,5-3.5,8.8-3.5
			c3.7,0,6.6,1.1,8.6,3.2c2,2.2,3,5.3,3,9.4c0,1.2,0,2.3-0.1,3.3h-19v-4.6h12.6c0-1.7-0.4-3.1-1.3-4c-0.9-0.9-2.1-1.4-3.7-1.4
			c-1.7,0-3.1,0.6-4,1.8c-1,1.2-1.4,3-1.4,5.2c0,2.4,0.7,4.3,2.1,5.6c1.4,1.3,3.4,1.9,6,1.9c1.2,0,2.3-0.1,3.5-0.2
			c1.1-0.1,2.3-0.3,3.5-0.5l0.6,6.2c-1.7,0.3-3.2,0.5-4.5,0.6C443.6,137.8,442.4,137.8,441.4,137.8z"/>
		<path class="st9" d="M455.3,137.3v-5.7h18.1v5.7H455.3z M456.2,117.1v-5.7h9.8l0.5,5.7H456.2z M460.7,137.3v-25.9h5.6l1,7.4v18.5
			H460.7z M467.3,126.2l-1.5-8.9h2.2c0.3-4.2,2.5-6.3,6.6-6.3c2.5,0,4.3,0.9,5.7,2.7c1.3,1.8,2,4.4,2,7.8h-6.6
			c0-1.5-0.3-2.6-0.8-3.3c-0.6-0.7-1.5-1-2.7-1c-1.6,0-2.8,0.8-3.6,2.3C467.7,121.1,467.3,123.3,467.3,126.2z"/>
	</g>
</g>
<g>
	<g>
		<path class="st10" d="M521.1,250.5c-2,0-3.7-0.1-5.2-0.2c-1.5-0.1-2.9-0.3-4-0.5l0.8-6.3c2.1,0.3,3.8,0.5,5.2,0.6
			c1.4,0.1,2.5,0.2,3.3,0.2c2.1,0,3.7-0.2,4.6-0.5c1-0.3,1.4-0.8,1.4-1.5c0-0.4-0.1-0.7-0.4-0.9c-0.2-0.2-0.6-0.4-1.2-0.6l-8.2-2.4
			c-1.7-0.5-3-1.3-3.9-2.3c-0.9-1-1.3-2.4-1.3-4.2c0-2.8,1.2-4.9,3.5-6.2c2.3-1.4,5.9-2,10.7-2c1.1,0,2.3,0,3.5,0.1
			c1.2,0.1,2.5,0.2,3.8,0.4l-0.7,6.1c-1.5-0.1-2.8-0.2-3.9-0.3c-1.1,0-2-0.1-2.8-0.1c-2.5,0-4.2,0.1-5.4,0.4
			c-1.1,0.3-1.7,0.8-1.7,1.4c0,0.4,0.1,0.7,0.4,0.9c0.2,0.2,0.6,0.4,1.1,0.5l7,2c2.2,0.6,3.9,1.5,5,2.6c1.1,1.1,1.6,2.6,1.6,4.5
			c0,2.8-1.1,4.8-3.3,6.1C528.9,249.8,525.6,250.5,521.1,250.5z"/>
		<path class="st10" d="M539.8,235.6v-5.9H565v5.9H539.8z"/>
		<path class="st10" d="M570.5,250v-6.1h10.1v6.1H570.5z M572,230.2v-6.1h14.7v6.1H572z M583.1,220.6c-1.3,0-2.3-0.4-3.1-1.2
			s-1.2-1.8-1.2-3.1c0-1.3,0.4-2.3,1.2-3.1s1.8-1.2,3.1-1.2c1.3,0,2.3,0.4,3.1,1.2s1.2,1.8,1.2,3.1c0,1.3-0.4,2.3-1.2,3.1
			S584.4,220.6,583.1,220.6z M580.1,250v-24.4h6.6V250H580.1z M586.2,250v-6.1h8.2v6.1H586.2z"/>
		<path class="st10" d="M598.7,250v-25.9h5.9l0.6,5.5V250H598.7z M608.6,250v-18c0-1.5-0.5-2.2-1.6-2.2c-1.2,0-1.9,1-1.9,2.9
			l-1.5-5.3h1.9c0.4-2.5,1.7-3.7,3.9-3.7c1.3,0,2.2,0.5,3,1.4c0.7,0.9,1.1,2.3,1.1,4.2V250H608.6z M616.8,250v-17.5
			c0-1.8-0.5-2.7-1.6-2.7c-1.2,0-1.8,1-1.8,2.9l-1.8-5.3h2.2c0.1-1.2,0.6-2.1,1.4-2.7c0.8-0.7,1.8-1,3-1c1.7,0,3,0.5,3.8,1.4
			c0.8,1,1.2,2.5,1.2,4.7V250H616.8z"/>
		<path class="st10" d="M629.3,261.2v-37.1h6.1l0.5,5.5v31.6H629.3z M642.9,250.5c-1.8,0-3.3-0.4-4.3-1.3c-1.1-0.9-1.8-2.2-2-3.9
			h-2.3l1.8-8.2c0,2.5,0.4,4.3,1.1,5.5c0.7,1.1,2.1,1.7,3.9,1.7c1.7,0,2.9-0.6,3.8-1.8c0.9-1.2,1.3-3,1.3-5.4c0-2.3-0.4-4.1-1.3-5.3
			c-0.9-1.3-2.1-1.9-3.7-1.9c-1.7,0-2.9,0.6-3.8,1.7c-0.8,1.2-1.3,3-1.3,5.5l-1.5-8.3h1.9c0.3-1.7,1-3,2-3.9c1-0.9,2.5-1.3,4.5-1.3
			c3.2,0,5.7,1.2,7.5,3.5c1.8,2.3,2.7,5.7,2.7,9.9c0,4.3-0.9,7.6-2.7,9.9C648.6,249.3,646.1,250.5,642.9,250.5z"/>
		<path class="st10" d="M656.9,219.5v-6.1h7.8v6.1H656.9z M673.5,250.5c-3.3,0-5.6-0.9-7-2.7c-1.4-1.8-2.2-4.7-2.2-8.6v-25.8h6.6
			V239c0,1.1,0.1,2,0.3,2.6c0.2,0.7,0.7,1.2,1.3,1.5c0.7,0.3,1.6,0.5,2.9,0.5c1.4,0,3.2-0.3,5.4-0.9l0.8,6.8c-1.4,0.4-2.7,0.6-4,0.8
			C676.3,250.4,674.9,250.5,673.5,250.5z"/>
		<path class="st10" d="M701.2,250.5c-4.5,0-7.9-1.2-10.4-3.5c-2.4-2.3-3.7-5.7-3.7-10c0-4.2,1-7.5,3.1-9.9c2.1-2.3,5-3.5,8.8-3.5
			c3.7,0,6.6,1.1,8.6,3.2c2,2.2,3,5.3,3,9.4c0,1.2,0,2.3-0.1,3.3h-19v-4.6h12.6c0-1.7-0.4-3.1-1.3-4c-0.9-0.9-2.1-1.4-3.7-1.4
			c-1.7,0-3.1,0.6-4,1.8c-1,1.2-1.4,3-1.4,5.2c0,2.4,0.7,4.3,2.1,5.6c1.4,1.3,3.4,1.9,6,1.9c1.2,0,2.3-0.1,3.5-0.2
			c1.1-0.1,2.3-0.3,3.5-0.5l0.6,6.2c-1.7,0.3-3.2,0.5-4.5,0.6C703.5,250.4,702.2,250.5,701.2,250.5z"/>
		<path class="st10" d="M715.9,250v-25.9h5.9l0.6,5.5V250H715.9z M725.8,250v-18c0-1.5-0.5-2.2-1.6-2.2c-1.2,0-1.9,1-1.9,2.9
			l-1.5-5.3h1.9c0.4-2.5,1.7-3.7,3.9-3.7c1.3,0,2.2,0.5,3,1.4c0.7,0.9,1.1,2.3,1.1,4.2V250H725.8z M734,250v-17.5
			c0-1.8-0.5-2.7-1.6-2.7c-1.2,0-1.8,1-1.8,2.9l-1.8-5.3h2.2c0.1-1.2,0.6-2.1,1.4-2.7c0.8-0.7,1.8-1,3-1c1.7,0,3,0.5,3.8,1.4
			c0.8,1,1.2,2.5,1.2,4.7V250H734z"/>
		<path class="st10" d="M759.8,250.5c-4.5,0-7.9-1.2-10.4-3.5c-2.4-2.3-3.7-5.7-3.7-10c0-4.2,1-7.5,3.1-9.9c2.1-2.3,5-3.5,8.8-3.5
			c3.7,0,6.6,1.1,8.6,3.2c2,2.2,3,5.3,3,9.4c0,1.2,0,2.3-0.1,3.3h-19v-4.6h12.6c0-1.7-0.4-3.1-1.3-4c-0.9-0.9-2.1-1.4-3.7-1.4
			c-1.7,0-3.1,0.6-4,1.8c-1,1.2-1.4,3-1.4,5.2c0,2.4,0.7,4.3,2.1,5.6c1.4,1.3,3.4,1.9,6,1.9c1.2,0,2.3-0.1,3.5-0.2
			c1.1-0.1,2.3-0.3,3.5-0.5l0.6,6.2c-1.7,0.3-3.2,0.5-4.5,0.6C762,250.4,760.8,250.5,759.8,250.5z"/>
		<path class="st10" d="M775.8,250v-25.9h5.9l0.7,5.5V250H775.8z M791.1,250v-15.2c0-1.6-0.3-2.8-1-3.6c-0.6-0.8-1.6-1.3-2.7-1.3
			c-3.3,0-5,2.4-5,7.2l-1.5-8.3h2.1c0.2-1.7,0.8-3,1.8-3.9c0.9-0.9,2.4-1.3,4.3-1.3c2.7,0,4.8,0.8,6.3,2.5c1.5,1.7,2.2,4,2.2,7V250
			H791.1z"/>
		<path class="st10" d="M802.7,230.2v-6.1H827v6.1H802.7z M808.9,237.4v-21.1h6.6v21.1H808.9z M821.6,250.5c-4.5,0-7.7-0.9-9.7-2.7
			c-2-1.8-3-4.7-3-8.6v-3.4h6.6v2.7c0,2,0.5,3.4,1.5,4.3c1,0.9,2.7,1.3,5,1.3c0.7,0,1.5,0,2.4-0.1c0.9-0.1,1.8-0.2,2.9-0.4l0.6,6.2
			c-1.1,0.2-2.1,0.3-3.1,0.4C823.8,250.4,822.7,250.5,821.6,250.5z"/>
		<path class="st10" d="M832.8,235.6v-5.9H858v5.9H832.8z"/>
		<path class="st10" d="M872.1,250.5c-3.2,0-5.7-1.2-7.5-3.5c-1.8-2.3-2.7-5.6-2.7-9.9c0-4.3,0.9-7.6,2.7-9.9
			c1.8-2.3,4.3-3.5,7.5-3.5c2,0,3.5,0.4,4.5,1.3c1,0.9,1.7,2.2,2,3.9h1.9l-1.5,8.3c0-2.5-0.4-4.3-1.3-5.5c-0.8-1.2-2.1-1.7-3.8-1.7
			c-1.6,0-2.9,0.6-3.7,1.9c-0.9,1.3-1.3,3-1.3,5.3c0,2.4,0.4,4.2,1.3,5.4c0.9,1.2,2.1,1.8,3.8,1.8c1.9,0,3.2-0.6,3.9-1.7
			c0.7-1.1,1.1-3,1.1-5.5l1.8,8.2h-2.3c-0.3,1.7-0.9,3-2,3.9C875.4,250.1,873.9,250.5,872.1,250.5z M864.5,261.7l-0.2-5.8l8.3-0.2
			c2.3-0.1,3.9-0.7,5-1.9c1-1.2,1.5-3,1.5-5.3v-18.9l0.5-5.5h6.1v23.6c0,4.6-1.1,8-3.2,10.2c-2.2,2.2-5.6,3.4-10.4,3.5L864.5,261.7z
			"/>
		<path class="st10" d="M900.2,250.5c-2.5,0-4.4-0.8-5.7-2.4c-1.4-1.6-2-3.9-2-6.8v-17.1h6.6v15.5c0,1.5,0.3,2.6,1,3.4
			c0.7,0.8,1.6,1.2,2.8,1.2c1.5,0,2.7-0.6,3.5-1.8c0.8-1.2,1.2-3.2,1.2-6l1.3,8.6h-2c-0.4,1.8-1.2,3.1-2.4,4.1
			S901.9,250.5,900.2,250.5z M907.6,242.7v-18.6h6.6v17.1L907.6,242.7z M908,250.2l-0.4-6.2v-4.5h6.6v4.6l3.6,0.5v5.4L908,250.2z"/>
		<path class="st10" d="M922.1,250v-6.1h10.1v6.1H922.1z M923.6,230.2v-6.1h14.7v6.1H923.6z M934.7,220.6c-1.3,0-2.3-0.4-3.1-1.2
			s-1.2-1.8-1.2-3.1c0-1.3,0.4-2.3,1.2-3.1s1.8-1.2,3.1-1.2c1.3,0,2.3,0.4,3.1,1.2s1.2,1.8,1.2,3.1c0,1.3-0.4,2.3-1.2,3.1
			S935.9,220.6,934.7,220.6z M931.7,250v-24.4h6.6V250H931.7z M937.8,250v-6.1h8.2v6.1H937.8z"/>
	</g>
</g>
<g>
	<g>
		<path class="st11" d="M627.3,398c-3.2,0-5.7-1.2-7.5-3.5c-1.8-2.3-2.7-5.6-2.7-9.9c0-4.3,0.9-7.6,2.7-9.9c1.8-2.3,4.3-3.5,7.5-3.5
			c1.9,0,3.3,0.4,4.3,1.3c1,0.9,1.6,2.2,1.9,3.9h2.1l-1.5,8.3c0-2.5-0.4-4.3-1.3-5.5c-0.8-1.2-2.1-1.7-3.8-1.7
			c-1.6,0-2.9,0.6-3.7,1.9c-0.9,1.3-1.3,3-1.3,5.3c0,2.4,0.4,4.2,1.3,5.4c0.9,1.2,2.1,1.8,3.8,1.8c1.9,0,3.2-0.6,3.9-1.7
			c0.7-1.1,1.1-3,1.1-5.5l1.8,8.2h-2.3c-0.3,1.7-0.9,3-2,3.9C630.6,397.6,629.1,398,627.3,398z M635.2,397.8l-1-5.1v-31.7h6.6v36.6
			L635.2,397.8z"/>
		<path class="st11" d="M646.6,383.2v-5.9h25.2v5.9H646.6z"/>
		<path class="st11" d="M677.5,408.8v-37.1h6.1l0.5,5.5v31.6H677.5z M691,398c-1.8,0-3.3-0.4-4.3-1.3c-1.1-0.9-1.8-2.2-2-3.9h-2.3
			l1.8-8.2c0,2.5,0.4,4.3,1.1,5.5c0.7,1.1,2.1,1.7,3.9,1.7c1.7,0,2.9-0.6,3.8-1.8c0.9-1.2,1.3-3,1.3-5.4c0-2.3-0.4-4.1-1.3-5.3
			c-0.9-1.3-2.1-1.9-3.7-1.9c-1.7,0-2.9,0.6-3.8,1.7c-0.8,1.2-1.3,3-1.3,5.5l-1.5-8.3h1.9c0.3-1.7,1-3,2-3.9c1-0.9,2.5-1.3,4.5-1.3
			c3.2,0,5.7,1.2,7.5,3.5c1.8,2.3,2.7,5.7,2.7,9.9c0,4.3-0.9,7.6-2.7,9.9C696.7,396.9,694.2,398,691,398z"/>
		<path class="st11" d="M713.8,398c-2.8,0-4.9-0.7-6.4-2c-1.5-1.4-2.3-3.3-2.3-5.8c0-2.9,1-5.1,3-6.7c2-1.5,4.8-2.3,8.5-2.3
			c1.4,0,2.6,0.1,3.7,0.2c1,0.1,2.1,0.4,3.1,0.7l-1.1,5.2c-1-0.2-2-0.4-2.8-0.4c-0.8,0-1.7-0.1-2.6-0.1c-3.4,0-5.1,1-5.1,2.9
			c0,0.9,0.3,1.5,0.9,2c0.6,0.5,1.5,0.7,2.7,0.7c1.4,0,2.6-0.3,3.6-0.8c1-0.5,1.7-1.2,2.2-2.1c0.5-0.8,0.7-1.7,0.7-2.6v-1.6l0.9,6.6
			h-2.1l0.9-0.8c0,1.5-0.4,2.7-1,3.7c-0.6,1-1.5,1.7-2.7,2.2C716.7,397.8,715.4,398,713.8,398z M722.5,397.8l-0.6-7.7l-0.1-3.4v-5.1
			c0-1.4-0.6-2.4-1.8-3c-1.2-0.6-2.9-1-5.3-1.1l-6.6-0.2l0.5-6l5.6,0.1c4.7,0.1,8.2,1,10.4,2.8c2.3,1.8,3.4,4.4,3.4,7.8v9.6l3.6,0.5
			v5.4L722.5,397.8z"/>
		<path class="st11" d="M734,397.5v-5.7h18.1v5.7H734z M734.9,377.3v-5.7h9.8l0.5,5.7H734.9z M739.4,397.5v-25.9h5.6l1,7.4v18.5
			H739.4z M746,386.4l-1.5-8.9h2.2c0.3-4.2,2.5-6.3,6.6-6.3c2.5,0,4.3,0.9,5.7,2.7c1.3,1.8,2,4.4,2,7.8h-6.6c0-1.5-0.3-2.6-0.8-3.3
			c-0.6-0.7-1.5-1-2.7-1c-1.6,0-2.8,0.8-3.6,2.3C746.4,381.3,746,383.5,746,386.4z"/>
		<path class="st11" d="M774.4,398c-2,0-3.7-0.1-5.2-0.2c-1.5-0.1-2.9-0.3-4-0.5l0.8-6.3c2.1,0.3,3.8,0.5,5.2,0.6
			c1.4,0.1,2.5,0.2,3.3,0.2c2.1,0,3.7-0.2,4.6-0.5c1-0.3,1.4-0.8,1.4-1.5c0-0.4-0.1-0.7-0.4-0.9c-0.2-0.2-0.6-0.4-1.2-0.6l-8.2-2.4
			c-1.7-0.5-3-1.3-3.9-2.3c-0.9-1-1.3-2.4-1.3-4.2c0-2.8,1.2-4.9,3.5-6.2c2.3-1.4,5.9-2,10.7-2c1.1,0,2.3,0,3.5,0.1
			c1.2,0.1,2.5,0.2,3.8,0.4l-0.7,6.1c-1.5-0.1-2.8-0.2-3.9-0.3c-1.1,0-2-0.1-2.8-0.1c-2.5,0-4.2,0.1-5.4,0.4
			c-1.1,0.3-1.7,0.8-1.7,1.4c0,0.4,0.1,0.7,0.4,0.9c0.2,0.2,0.6,0.4,1.1,0.5l7,2c2.2,0.6,3.9,1.5,5,2.6c1.1,1.1,1.6,2.6,1.6,4.5
			c0,2.8-1.1,4.8-3.3,6.1C782.2,397.3,778.8,398,774.4,398z"/>
		<path class="st11" d="M808,398c-4.5,0-7.9-1.2-10.4-3.5c-2.4-2.3-3.7-5.7-3.7-10c0-4.2,1-7.5,3.1-9.9c2.1-2.3,5-3.5,8.8-3.5
			c3.7,0,6.6,1.1,8.6,3.2c2,2.2,3,5.3,3,9.4c0,1.2,0,2.3-0.1,3.3h-19v-4.6h12.6c0-1.7-0.4-3.1-1.3-4c-0.9-0.9-2.1-1.4-3.7-1.4
			c-1.7,0-3.1,0.6-4,1.8c-1,1.2-1.4,3-1.4,5.2c0,2.4,0.7,4.3,2.1,5.6c1.4,1.3,3.4,1.9,6,1.9c1.2,0,2.3-0.1,3.5-0.2
			c1.1-0.1,2.3-0.3,3.5-0.5l0.6,6.2c-1.7,0.3-3.2,0.5-4.5,0.6C810.2,398,809,398,808,398z"/>
		<path class="st11" d="M822.3,383.2v-5.9h25.2v5.9H822.3z"/>
		<path class="st11" d="M869,397.5l-6.6-11l-10.8-14.9h7.9l6.7,11.4l10.7,14.5H869z M851.6,397.5l10.7-14.5l6.7-11.4h7.9l-11.1,14.9
			l-6.3,11H851.6z"/>
		<path class="st11" d="M881.2,397.5v-25.9h5.9l0.6,5.5v20.4H881.2z M891.2,397.5v-18c0-1.5-0.5-2.2-1.6-2.2c-1.2,0-1.9,1-1.9,2.9
			l-1.5-5.3h1.9c0.4-2.5,1.7-3.7,3.9-3.7c1.3,0,2.2,0.5,3,1.4c0.7,0.9,1.1,2.3,1.1,4.2v20.8H891.2z M899.4,397.5V380
			c0-1.8-0.5-2.7-1.6-2.7c-1.2,0-1.8,1-1.8,2.9l-1.8-5.3h2.2c0.1-1.2,0.6-2.1,1.4-2.7c0.8-0.7,1.8-1,3-1c1.7,0,3,0.5,3.8,1.4
			c0.8,1,1.2,2.5,1.2,4.7v20.3H899.4z"/>
		<path class="st11" d="M910.2,367v-6.1h7.8v6.1H910.2z M926.7,398c-3.3,0-5.6-0.9-7-2.7c-1.4-1.8-2.2-4.7-2.2-8.6v-25.8h6.6v25.6
			c0,1.1,0.1,2,0.3,2.6c0.2,0.7,0.7,1.2,1.3,1.5c0.7,0.3,1.6,0.5,2.9,0.5c1.4,0,3.2-0.3,5.4-0.9l0.8,6.8c-1.4,0.4-2.7,0.6-4,0.8
			C929.6,397.9,928.2,398,926.7,398z"/>
	</g>
</g>
</svg>
