<?xml version="1.0" encoding="utf-8"?>
<!-- Generator: Adobe Illustrator 25.2.0, SVG Export Plug-In . SVG Version: 6.00 Build 0)  -->
<svg version="1.1" id="Calque_1" xmlns="http://www.w3.org/2000/svg" xmlns:xlink="http://www.w3.org/1999/xlink" x="0px" y="0px"
	 viewBox="0 0 657.9 421.6" style="enable-background:new 0 0 657.9 421.6;" xml:space="preserve">
<style type="text/css">
	.st0{fill:#A2E0BB;}
	.st1{fill:#27AE60;}
	.st2{fill:none;stroke:#3CAA69;stroke-width:2;stroke-miterlimit:10;}
</style>
<polygon class="st0" points="64.8,193 218.9,193 554.9,31.6 627.7,174.1 322.3,350.8 64.8,350.8 "/>
<path class="st1" d="M70.4,361.2H59.3c-2.8,0-4.9-2.1-4.9-4.9v-11.1c0-2.8,2.1-4.9,4.9-4.9h11.1c2.8,0,4.9,2.1,4.9,4.9v11.1
	C75.3,359.1,73.2,361.2,70.4,361.2z"/>
<path class="st1" d="M70.4,202.6H59.3c-2.8,0-4.9-2.1-4.9-4.9v-11.1c0-2.8,2.1-4.9,4.9-4.9h11.1c2.8,0,4.9,2.1,4.9,4.9v11.1
	C75.3,200.5,73.2,202.6,70.4,202.6z"/>
<path class="st1" d="M224.5,202.6h-11.1c-2.8,0-4.9-2.1-4.9-4.9v-11.1c0-2.8,2.1-4.9,4.9-4.9h11.1c2.8,0,4.9,2.1,4.9,4.9v11.1
	C229.3,200.5,227.2,202.6,224.5,202.6z"/>
<path class="st1" d="M327.9,361.2h-11.1c-2.8,0-4.9-2.1-4.9-4.9v-11.1c0-2.8,2.1-4.9,4.9-4.9h11.1c2.8,0,4.9,2.1,4.9,4.9v11.1
	C332.8,359.1,330.7,361.2,327.9,361.2z"/>
<path class="st1" d="M560.5,42h-11.1c-2.8,0-4.9-2.1-4.9-4.9V26c0-2.8,2.1-4.9,4.9-4.9h11.1c2.8,0,4.9,2.1,4.9,4.9v11.1
	C565.3,39.9,563.3,42,560.5,42z"/>
<path class="st1" d="M633.3,184.5h-11.1c-2.8,0-4.9-2.1-4.9-4.9v-11.1c0-2.8,2.1-4.9,4.9-4.9h11.1c2.8,0,4.9,2.1,4.9,4.9v11.1
	C638.1,182.4,636.1,184.5,633.3,184.5z"/>
<polygon class="st2" points="322.3,350.8 64.8,193 64.8,350.8 "/>
<line class="st2" x1="218.9" y1="193" x2="64.8" y2="193"/>
<polyline class="st2" points="325.4,350.8 627.7,174.1 554.9,35.3 322.3,350.8 218.9,193 "/>
<line class="st2" x1="222.4" y1="191.2" x2="554.9" y2="31.6"/>
</svg>
