<?xml version="1.0" encoding="utf-8"?>
<!-- Generator: Adobe Illustrator 25.2.0, SVG Export Plug-In . SVG Version: 6.00 Build 0)  -->
<svg version="1.1" id="Calque_1" xmlns="http://www.w3.org/2000/svg" xmlns:xlink="http://www.w3.org/1999/xlink" x="0px" y="0px"
	 viewBox="0 0 230.8 210.4" style="enable-background:new 0 0 230.8 210.4;" xml:space="preserve">
<style type="text/css">
	.st0{fill:#A2E0BB;stroke:#3CAA69;stroke-width:2;stroke-miterlimit:10;}
	.st1{fill:#27AE60;}
</style>
<polygon class="st0" points="49.3,32.7 49.3,191.2 203.4,32.7 "/>
<path class="st1" d="M54.9,201.7H43.7c-2.8,0-4.9-2.1-4.9-4.9v-11.1c0-2.8,2.1-4.9,4.9-4.9h11.1c2.8,0,4.9,2.1,4.9,4.9v11.1
	C59.7,199.6,57.6,201.7,54.9,201.7z"/>
<path class="st1" d="M54.9,43.1H43.7c-2.8,0-4.9-2.1-4.9-4.9V27.1c0-2.8,2.1-4.9,4.9-4.9h11.1c2.8,0,4.9,2.1,4.9,4.9v11.1
	C59.7,41,57.6,43.1,54.9,43.1z"/>
<path class="st1" d="M208.9,43.1h-11.1c-2.8,0-4.9-2.1-4.9-4.9V27.1c0-2.8,2.1-4.9,4.9-4.9h11.1c2.8,0,4.9,2.1,4.9,4.9v11.1
	C213.8,41,211.7,43.1,208.9,43.1z"/>
</svg>
