<?xml version="1.0" encoding="utf-8"?>
<!-- Generator: Adobe Illustrator 25.2.0, SVG Export Plug-In . SVG Version: 6.00 Build 0)  -->
<svg version="1.1" id="Calque_1" xmlns="http://www.w3.org/2000/svg" xmlns:xlink="http://www.w3.org/1999/xlink" x="0px" y="0px"
	 viewBox="0 0 657.9 421.6" style="enable-background:new 0 0 657.9 421.6;" xml:space="preserve">
<style type="text/css">
	.st0{display:none;fill:#A2E0BB;}
	.st1{fill:none;stroke:#2980B9;stroke-miterlimit:10;stroke-dasharray:5.0963,5.0963;}
	.st2{fill:#2980B9;}
	.st3{display:none;fill:#27AE60;}
	.st4{display:none;fill:none;stroke:#3CAA69;stroke-width:2;stroke-miterlimit:10;}
</style>
<polygon class="st0" points="64.8,193 218.9,193 554.9,31.6 627.7,174.1 322.3,350.8 64.8,350.8 "/>
<polyline class="st1" points="45.3,274.4 272,274.4 597.7,111.5 "/>
<path class="st2" d="M282.4,293.9h-20.8c-5.2,0-9.1-3.9-9.1-9.1V264c0-5.2,3.9-9.1,9.1-9.1h20.8c5.2,0,9.1,3.9,9.1,9.1v20.8
	C291.6,290,287.6,293.9,282.4,293.9z"/>
<path class="st2" d="M608.2,131.1h-20.8c-5.2,0-9.1-3.9-9.1-9.1v-20.8c0-5.2,3.9-9.1,9.1-9.1h20.8c5.2,0,9.1,3.9,9.1,9.1V122
	C617.3,127.2,613.4,131.1,608.2,131.1z"/>
<path class="st2" d="M75.3,293.9H54.4c-5.2,0-9.1-3.9-9.1-9.1V264c0-5.2,3.9-9.1,9.1-9.1h20.8c5.2,0,9.1,3.9,9.1,9.1v20.8
	C84.4,290,80.5,293.9,75.3,293.9z"/>
<path class="st3" d="M70.4,361.2H59.3c-2.8,0-4.9-2.1-4.9-4.9v-11.1c0-2.8,2.1-4.9,4.9-4.9h11.1c2.8,0,4.9,2.1,4.9,4.9v11.1
	C75.3,359.1,73.2,361.2,70.4,361.2z"/>
<path class="st3" d="M70.4,202.6H59.3c-2.8,0-4.9-2.1-4.9-4.9v-11.1c0-2.8,2.1-4.9,4.9-4.9h11.1c2.8,0,4.9,2.1,4.9,4.9v11.1
	C75.3,200.5,73.2,202.6,70.4,202.6z"/>
<path class="st3" d="M224.5,202.6h-11.1c-2.8,0-4.9-2.1-4.9-4.9v-11.1c0-2.8,2.1-4.9,4.9-4.9h11.1c2.8,0,4.9,2.1,4.9,4.9v11.1
	C229.3,200.5,227.2,202.6,224.5,202.6z"/>
<path class="st3" d="M327.9,361.2h-11.1c-2.8,0-4.9-2.1-4.9-4.9v-11.1c0-2.8,2.1-4.9,4.9-4.9h11.1c2.8,0,4.9,2.1,4.9,4.9v11.1
	C332.8,359.1,330.7,361.2,327.9,361.2z"/>
<path class="st3" d="M560.5,42h-11.1c-2.8,0-4.9-2.1-4.9-4.9V26c0-2.8,2.1-4.9,4.9-4.9h11.1c2.8,0,4.9,2.1,4.9,4.9v11.1
	C565.3,39.9,563.3,42,560.5,42z"/>
<path class="st3" d="M633.3,184.5h-11.1c-2.8,0-4.9-2.1-4.9-4.9v-11.1c0-2.8,2.1-4.9,4.9-4.9h11.1c2.8,0,4.9,2.1,4.9,4.9v11.1
	C638.1,182.4,636.1,184.5,633.3,184.5z"/>
<polygon class="st4" points="322.3,350.8 64.8,193 64.8,350.8 "/>
<line class="st4" x1="218.9" y1="193" x2="64.8" y2="193"/>
<polyline class="st4" points="325.4,350.8 627.7,174.1 554.9,35.3 322.3,350.8 218.9,193 "/>
<line class="st4" x1="222.4" y1="191.2" x2="554.9" y2="31.6"/>
</svg>
